  0
SECTION
  2
HEADER
  9
$ACADVER
  1
AC1009
  9
$INSBASE
 10
0.0
 20
0.0
 30
0.0
  9
$EXTMIN
 10
-0.0474544685075671
 20
-62.4979249415930482
 30
-0.0015258207003583
  9
$EXTMAX
 10
513.9044945518611485
 20
305.0371834589548143
 30
0.0000000349246037
  9
$LIMMIN
 10
0.0
 20
0.0
  9
$LIMMAX
 10
12.0
 20
9.0
  9
$ORTHOMODE
 70
     0
  9
$REGENMODE
 70
     1
  9
$FILLMODE
 70
     1
  9
$QTEXTMODE
 70
     0
  9
$MIRRTEXT
 70
     0
  9
$DRAGMODE
 70
     2
  9
$LTSCALE
 40
1.0
  9
$OSMODE
 70
    55
  9
$ATTMODE
 70
     1
  9
$TEXTSIZE
 40
0.2
  9
$TRACEWID
 40
0.05
  9
$TEXTSTYLE
  7
STANDARD
  9
$CLAYER
  8
0
  9
$CELTYPE
  6
BYLAYER
  9
$CECOLOR
 62
   256
  9
$DIMSCALE
 40
1.0
  9
$DIMASZ
 40
0.18
  9
$DIMEXO
 40
0.0625
  9
$DIMDLI
 40
0.38
  9
$DIMRND
 40
0.0
  9
$DIMDLE
 40
0.0
  9
$DIMEXE
 40
0.18
  9
$DIMTP
 40
0.0
  9
$DIMTM
 40
0.0
  9
$DIMTXT
 40
0.18
  9
$DIMCEN
 40
0.09
  9
$DIMTSZ
 40
0.0
  9
$DIMTOL
 70
     0
  9
$DIMLIM
 70
     0
  9
$DIMTIH
 70
     1
  9
$DIMTOH
 70
     1
  9
$DIMSE1
 70
     0
  9
$DIMSE2
 70
     0
  9
$DIMTAD
 70
     0
  9
$DIMZIN
 70
     0
  9
$DIMBLK
  1

  9
$DIMASO
 70
     1
  9
$DIMSHO
 70
     1
  9
$DIMPOST
  1

  9
$DIMAPOST
  1

  9
$DIMALT
 70
     0
  9
$DIMALTD
 70
     2
  9
$DIMALTF
 40
25.3999999999999986
  9
$DIMLFAC
 40
1.0
  9
$DIMTOFL
 70
     0
  9
$DIMTVP
 40
0.0
  9
$DIMTIX
 70
     0
  9
$DIMSOXD
 70
     0
  9
$DIMSAH
 70
     0
  9
$DIMBLK1
  1

  9
$DIMBLK2
  1

  9
$DIMSTYLE
  2
STANDARD
  9
$DIMCLRD
 70
     0
  9
$DIMCLRE
 70
     0
  9
$DIMCLRT
 70
     0
  9
$DIMTFAC
 40
1.0
  9
$DIMGAP
 40
0.09
  9
$LUNITS
 70
     2
  9
$LUPREC
 70
     4
  9
$SKETCHINC
 40
0.1
  9
$FILLETRAD
 40
0.0
  9
$AUNITS
 70
     0
  9
$AUPREC
 70
     0
  9
$MENU
  1
.
  9
$ELEVATION
 40
0.0
  9
$PELEVATION
 40
0.0
  9
$THICKNESS
 40
0.0
  9
$LIMCHECK
 70
     0
  9
$BLIPMODE
 70
     0
  9
$CHAMFERA
 40
0.0
  9
$CHAMFERB
 40
0.0
  9
$SKPOLY
 70
     0
  9
$TDCREATE
 40
2457970.4949056948535144
  9
$TDUPDATE
 40
2457981.4060115967877209
  9
$TDINDWG
 40
2.3507286806000001
  9
$TDUSRTIMER
 40
2.3507281943999998
  9
$USRTIMER
 70
     1
  9
$ANGBASE
 50
0.0
  9
$ANGDIR
 70
     0
  9
$PDMODE
 70
     0
  9
$PDSIZE
 40
0.0
  9
$PLINEWID
 40
0.0
  9
$COORDS
 70
     1
  9
$SPLFRAME
 70
     0
  9
$SPLINETYPE
 70
     6
  9
$SPLINESEGS
 70
     8
  9
$ATTDIA
 70
     1
  9
$ATTREQ
 70
     1
  9
$HANDLING
 70
     1
  9
$HANDSEED
  5
30BD
  9
$SURFTAB1
 70
     6
  9
$SURFTAB2
 70
     6
  9
$SURFTYPE
 70
     6
  9
$SURFU
 70
     6
  9
$SURFV
 70
     6
  9
$UCSNAME
  2

  9
$UCSORG
 10
0.0
 20
0.0
 30
0.0
  9
$UCSXDIR
 10
1.0
 20
0.0
 30
0.0
  9
$UCSYDIR
 10
0.0
 20
1.0
 30
0.0
  9
$PUCSNAME
  2

  9
$PUCSORG
 10
0.0
 20
0.0
 30
0.0
  9
$PUCSXDIR
 10
1.0
 20
0.0
 30
0.0
  9
$PUCSYDIR
 10
0.0
 20
1.0
 30
0.0
  9
$USERI1
 70
     0
  9
$USERI2
 70
     0
  9
$USERI3
 70
     0
  9
$USERI4
 70
     0
  9
$USERI5
 70
     0
  9
$USERR1
 40
0.0
  9
$USERR2
 40
0.0
  9
$USERR3
 40
0.0
  9
$USERR4
 40
0.0
  9
$USERR5
 40
0.0
  9
$WORLDVIEW
 70
     1
  9
$SHADEDGE
 70
     3
  9
$SHADEDIF
 70
    70
  9
$TILEMODE
 70
     1
  9
$MAXACTVP
 70
    64
  9
$PLIMCHECK
 70
     0
  9
$PEXTMIN
 10
0.0
 20
0.0
 30
0.0
  9
$PEXTMAX
 10
0.0
 20
0.0
 30
0.0
  9
$PLIMMIN
 10
0.0
 20
0.0
  9
$PLIMMAX
 10
12.0
 20
9.0
  9
$UNITMODE
 70
     0
  9
$VISRETAIN
 70
     1
  9
$PLINEGEN
 70
     0
  9
$PSLTSCALE
 70
     1
  0
ENDSEC
  0
SECTION
  2
TABLES
  0
TABLE
  2
VPORT
 70
     1
  0
VPORT
  2
*ACTIVE
 70
     0
 10
0.0
 20
0.0
 11
1.0
 21
1.0
 12
140.3629957365565133
 22
140.4529724500033012
 13
0.0
 23
0.0
 14
0.5
 24
0.5
 15
0.5
 25
0.5
 16
0.0
 26
0.0
 36
1.0
 17
0.0
 27
0.0
 37
0.0
 40
361.6346674166709931
 41
1.3446502057613161
 42
50.0
 43
0.0
 44
0.0
 50
0.0
 51
0.0
 71
     0
 72
  1000
 73
     1
 74
     3
 75
     0
 76
     1
 77
     0
 78
     0
  0
ENDTAB
  0
TABLE
  2
LTYPE
 70
     2
  0
LTYPE
  2
CONTINUOUS
 70
     0
  3
Solid line
 72
    65
 73
     0
 40
0.0
  0
ENDTAB
  0
TABLE
  2
LAYER
 70
     1
  0
LAYER
  2
0
 70
     0
 62
     7
  6
CONTINUOUS
  0
ENDTAB
  0
TABLE
  2
STYLE
 70
     2
  0
STYLE
  2
STANDARD
 70
     0
 40
0.0
 41
1.0
 50
0.0
 71
     0
 42
0.2
  3
txt
  4

  0
STYLE
  2
ANNOTATIVE
 70
     0
 40
0.0
 41
1.0
 50
0.0
 71
     0
 42
0.2
  3
txt
  4

  0
ENDTAB
  0
TABLE
  2
VIEW
 70
     0
  0
ENDTAB
  0
TABLE
  2
UCS
 70
     0
  0
ENDTAB
  0
TABLE
  2
APPID
 70
     8
  0
APPID
  2
ACAD
 70
     0
  0
APPID
  2
ACADANNOTATIVE
 70
     0
  0
APPID
  2
ACADANNOPO
 70
     0
  0
APPID
  2
ACAD_DSTYLE_DIMJAG
 70
     0
  0
APPID
  2
ACAD_DSTYLE_DIMTALN
 70
     0
  0
APPID
  2
ACAD_MLEADERVER
 70
     0
  0
APPID
  2
ACAD_NAV_VCDISPLAY
 70
     0
  0
APPID
  2
ACAD_EXEMPT_FROM_CAD_STANDARDS
 70
     0
  0
ENDTAB
  0
TABLE
  2
DIMSTYLE
 70
     3
  0
DIMSTYLE
  2
STANDARD
 70
     0
  3

  4

  5

  6

  7

 40
1.0
 41
0.18
 42
0.0625
 43
0.38
 44
0.18
 45
0.0
 46
0.0
 47
0.0
 48
0.0
140
0.18
141
0.09
142
0.0
143
25.3999999999999986
144
1.0
145
0.0
146
1.0
147
0.09
 71
     0
 72
     0
 73
     1
 74
     1
 75
     0
 76
     0
 77
     0
 78
     0
170
     0
171
     2
172
     0
173
     0
174
     0
175
     0
176
     0
177
     0
178
     0
  0
DIMSTYLE
  2
ANNOTATIVE
 70
     0
  3

  4

  5

  6

  7

 40
0.0
 41
0.18
 42
0.0625
 43
0.38
 44
0.18
 45
0.0
 46
0.0
 47
0.0
 48
0.0
140
0.18
141
0.09
142
0.0
143
25.3999999999999986
144
1.0
145
0.0
146
1.0
147
0.09
 71
     0
 72
     0
 73
     1
 74
     1
 75
     0
 76
     0
 77
     0
 78
     0
170
     0
171
     2
172
     0
173
     0
174
     0
175
     0
176
     0
177
     0
178
     0
  0
ENDTAB
  0
ENDSEC
  0
SECTION
  2
BLOCKS
  0
BLOCK
  8
0
  2
$MODEL_SPACE
 70
     0
 10
0.0
 20
0.0
 30
0.0
  3
$MODEL_SPACE
  1

  0
ENDBLK
  5
2740
  8
0
  0
BLOCK
 67
     1
  8
0
  2
$PAPER_SPACE
 70
     0
 10
0.0
 20
0.0
 30
0.0
  3
$PAPER_SPACE
  1

  0
ENDBLK
  5
273C
 67
     1
  8
0
  0
ENDSEC
  0
SECTION
  2
ENTITIES
  0
LINE
  5
18B3
  8
0
 10
0.0
 20
0.0000000000000429
 30
0.0
 11
305.0
 21
0.0000000000000429
 31
0.0
  0
LINE
  5
18B4
  8
0
 10
305.0
 20
0.0000000000000429
 30
0.0
 11
305.0
 21
305.0000000000001137
 31
0.0
  0
LINE
  5
18B5
  8
0
 10
305.0
 20
305.0000000000001137
 30
0.0
 11
0.0
 21
305.0000000000001137
 31
0.0
  0
LINE
  5
18B6
  8
0
 10
0.0
 20
305.0000000000001137
 30
0.0
 11
0.0
 21
0.0000000000000429
 31
0.0
  0
LINE
  5
191F
  8
0
 10
289.25
 20
188.5
 30
0.0
 11
237.75
 21
188.5
 31
0.0
  0
ARC
  5
1920
  8
0
 10
237.75
 20
188.75
 30
0.0
 40
0.25
 50
180.0
 51
270.0
  0
CIRCLE
  5
1921
  8
0
 10
292.5
 20
214.5
 30
0.0
 40
1.575
  0
CIRCLE
  5
1922
  8
0
 10
292.5
 20
191.5
 30
0.0
 40
1.5749999999999991
  0
CIRCLE
  5
1923
  8
0
 10
234.5
 20
214.5
 30
0.0
 40
1.5749999999999991
  0
CIRCLE
  5
1924
  8
0
 10
234.5
 20
191.5
 30
0.0
 40
1.5749999999999991
  0
LINE
  5
1925
  8
0
 10
231.5
 20
210.5
 30
0.0
 11
231.5
 21
195.5
 31
0.0
  0
ARC
  5
1926
  8
0
 10
232.5
 20
210.5
 30
0.0
 40
1.0
 50
90.0
 51
180.0
  0
LINE
  5
1927
  8
0
 10
228.0
 20
215.0000000000001137
 30
0.0
 11
228.0
 21
191.0
 31
0.0
  0
ARC
  5
1928
  8
0
 10
234.0
 20
215.0000000000001137
 30
0.0
 40
6.0
 50
90.0
 51
180.0
  0
ARC
  5
1929
  8
0
 10
234.0
 20
191.0
 30
0.0
 40
6.0
 50
180.0
 51
270.0
  0
LINE
  5
192A
  8
0
 10
295.5
 20
210.5
 30
0.0
 11
295.5
 21
195.5
 31
0.0
  0
ARC
  5
192B
  8
0
 10
294.5
 20
210.5
 30
0.0
 40
1.0
 50
0.0
 51
90.0
  0
ARC
  5
192C
  8
0
 10
294.5
 20
195.5
 30
0.0
 40
1.0
 50
270.0
 51
0.0
  0
LINE
  5
192D
  8
0
 10
299.0
 20
215.0000000000001137
 30
0.0
 11
299.0
 21
191.0
 31
0.0
  0
ARC
  5
192E
  8
0
 10
293.0
 20
191.0
 30
0.0
 40
6.0
 50
270.0
 51
0.0
  0
ARC
  5
192F
  8
0
 10
293.0
 20
215.0000000000001137
 30
0.0
 40
6.0
 50
0.0
 51
90.0
  0
LINE
  5
1930
  8
0
 10
234.5
 20
194.5
 30
0.0
 11
232.5
 21
194.5
 31
0.0
  0
ARC
  5
1931
  8
0
 10
232.5
 20
195.5
 30
0.0
 40
1.0
 50
180.0
 51
270.0
  0
LINE
  5
1932
  8
0
 10
234.0
 20
185.0
 30
0.0
 11
237.5
 21
185.0
 31
0.0
  0
LINE
  5
1933
  8
0
 10
237.5
 20
191.5
 30
0.0
 11
237.5
 21
188.75
 31
0.0
  0
ARC
  5
1934
  8
0
 10
234.5
 20
191.5
 30
0.0
 40
3.0
 50
0.0
 51
90.0
  0
LINE
  5
1935
  8
0
 10
234.0
 20
221.0
 30
0.0
 11
237.25
 21
221.0
 31
0.0
  0
LINE
  5
1936
  8
0
 10
237.5
 20
214.5
 30
0.0
 11
237.5
 21
220.75
 31
0.0
  0
ARC
  5
1937
  8
0
 10
237.25
 20
220.75
 30
0.0
 40
0.25
 50
0.0
 51
90.0
  0
ARC
  5
1938
  8
0
 10
234.5
 20
214.5
 30
0.0
 40
3.0
 50
270.0
 51
0.0
  0
LINE
  5
1939
  8
0
 10
234.5
 20
211.5000000000001137
 30
0.0
 11
232.5
 21
211.5000000000001137
 31
0.0
  0
LINE
  5
193A
  8
0
 10
237.5
 20
185.0
 30
0.0
 11
293.0
 21
185.0
 31
0.0
  0
LINE
  5
193B
  8
0
 10
81.75
 20
198.0
 30
0.0
 11
68.75
 21
198.0
 31
0.0
  0
LINE
  5
193C
  8
0
 10
289.75
 20
221.0
 30
0.0
 11
293.0
 21
221.0
 31
0.0
  0
ARC
  5
193D
  8
0
 10
289.75
 20
220.75
 30
0.0
 40
0.25
 50
90.0
 51
180.0
  0
LINE
  5
193E
  8
0
 10
292.5
 20
194.5
 30
0.0
 11
294.5
 21
194.5
 31
0.0
  0
LINE
  5
193F
  8
0
 10
289.5
 20
191.5
 30
0.0
 11
289.5
 21
188.75
 31
0.0
  0
ARC
  5
1940
  8
0
 10
289.25
 20
188.75
 30
0.0
 40
0.25
 50
270.0
 51
0.0
  0
ARC
  5
1941
  8
0
 10
292.5
 20
191.5
 30
0.0
 40
3.0
 50
90.0
 51
180.0
  0
LINE
  5
1942
  8
0
 10
289.5
 20
214.5
 30
0.0
 11
289.5
 21
220.75
 31
0.0
  0
LINE
  5
1943
  8
0
 10
292.5
 20
211.5000000000001137
 30
0.0
 11
294.5
 21
211.5000000000001137
 31
0.0
  0
ARC
  5
1944
  8
0
 10
292.5
 20
214.5
 30
0.0
 40
3.0
 50
180.0
 51
270.0
  0
LINE
  5
1945
  8
0
 10
102.25
 20
167.5
 30
0.0
 11
50.75
 21
167.5
 31
0.0
  0
ARC
  5
1946
  8
0
 10
50.75
 20
167.75
 30
0.0
 40
0.25
 50
180.0
 51
270.0
  0
ARC
  5
1947
  8
0
 10
102.25
 20
167.75
 30
0.0
 40
0.25
 50
270.0
 51
0.0
  0
LINE
  5
1948
  8
0
 10
102.25
 20
173.4999999999998863
 30
0.0
 11
50.75
 21
173.4999999999998863
 31
0.0
  0
ARC
  5
1949
  8
0
 10
50.75
 20
173.2499999999998863
 30
0.0
 40
0.25
 50
90.0
 51
180.0
  0
LINE
  5
194A
  8
0
 10
50.75
 20
192.9999999999998863
 30
0.0
 11
62.25
 21
192.9999999999998863
 31
0.0
  0
ARC
  5
194B
  8
0
  6
CONTINUOUS
 10
62.25
 20
192.75
 30
0.0
 40
0.25
 50
0.0
 51
90.0
  0
ARC
  5
194C
  8
0
 10
50.75
 20
193.2499999999998863
 30
0.0
 40
0.25
 50
180.0
 51
270.0
  0
CIRCLE
  5
194D
  8
0
 10
105.5
 20
193.5
 30
0.0
 40
1.575
  0
CIRCLE
  5
194E
  8
0
 10
105.5
 20
170.5
 30
0.0
 40
1.5749999999999991
  0
CIRCLE
  5
194F
  8
0
 10
47.5
 20
193.5
 30
0.0
 40
1.5749999999999991
  0
CIRCLE
  5
1950
  8
0
 10
47.5
 20
170.5
 30
0.0
 40
1.5749999999999991
  0
LINE
  5
1951
  8
0
 10
41.0
 20
193.9999999999998863
 30
0.0
 11
41.0
 21
170.0
 31
0.0
  0
ARC
  5
1952
  8
0
 10
47.0
 20
193.9999999999998863
 30
0.0
 40
6.0
 50
90.0
 51
180.0
  0
ARC
  5
1953
  8
0
 10
47.0
 20
170.0
 30
0.0
 40
6.0
 50
180.0
 51
270.0
  0
LINE
  5
1954
  8
0
 10
112.0
 20
193.9999999999998863
 30
0.0
 11
112.0
 21
170.0
 31
0.0
  0
ARC
  5
1955
  8
0
 10
106.0
 20
170.0
 30
0.0
 40
6.0
 50
270.0
 51
0.0
  0
ARC
  5
1956
  8
0
 10
106.0
 20
193.9999999999998863
 30
0.0
 40
6.0
 50
0.0
 51
90.0
  0
LINE
  5
1957
  8
0
 10
47.0
 20
163.9999999999998863
 30
0.0
 11
50.5
 21
163.9999999999998863
 31
0.0
  0
LINE
  5
1958
  8
0
 10
50.5
 20
173.2499999999998863
 30
0.0
 11
50.5
 21
167.75
 31
0.0
  0
LINE
  5
1959
  8
0
 10
47.0
 20
200.0
 30
0.0
 11
50.25
 21
200.0
 31
0.0
  0
LINE
  5
195A
  8
0
 10
50.5
 20
193.2499999999998863
 30
0.0
 11
50.5
 21
199.75
 31
0.0
  0
ARC
  5
195B
  8
0
 10
50.25
 20
199.75
 30
0.0
 40
0.25
 50
0.0
 51
90.0
  0
LINE
  5
195C
  8
0
 10
50.5
 20
163.9999999999998863
 30
0.0
 11
106.0
 21
163.9999999999998863
 31
0.0
  0
LINE
  5
195D
  8
0
 10
82.2499999999999858
 20
200.0
 30
0.0
 11
106.0
 21
200.0
 31
0.0
  0
ARC
  5
195E
  8
0
 10
82.2499999999999858
 20
199.75
 30
0.0
 40
0.25
 50
90.0
 51
180.0
  0
LINE
  5
195F
  8
0
 10
102.5
 20
173.2499999999998863
 30
0.0
 11
102.5
 21
167.75
 31
0.0
  0
ARC
  5
1960
  8
0
 10
102.25
 20
173.2499999999998863
 30
0.0
 40
0.25
 50
0.0
 51
90.0
  0
ARC
  5
1961
  8
0
 10
68.75
 20
197.75
 30
0.0
 40
0.25
 50
90.0
 51
180.0
  0
LINE
  5
1962
  8
0
 10
82.0
 20
198.2499999999998863
 30
0.0
 11
82.0
 21
199.75
 31
0.0
  0
ARC
  5
1963
  8
0
 10
81.75
 20
198.2499999999998863
 30
0.0
 40
0.25
 50
270.0
 51
0.0
  0
LINE
  5
197A
  8
0
  6
CONTINUOUS
 10
62.5
 20
192.75
 30
0.0
 11
62.5
 21
183.75
 31
0.0
  0
LINE
  5
197B
  8
0
  6
CONTINUOUS
 10
62.75
 20
183.4999999999998863
 30
0.0
 11
68.25
 21
183.4999999999998863
 31
0.0
  0
ARC
  5
197C
  8
0
  6
CONTINUOUS
 10
62.75
 20
183.75
 30
0.0
 40
0.25
 50
180.0
 51
270.0
  0
LINE
  5
197D
  8
0
  6
CONTINUOUS
 10
68.5
 20
183.75
 30
0.0
 11
68.5
 21
197.75
 31
0.0
  0
ARC
  5
197E
  8
0
  6
CONTINUOUS
 10
68.25
 20
183.75
 30
0.0
 40
0.25
 50
270.0
 51
0.0
  0
LINE
  5
1BAE
  8
0
 10
243.25
 20
218.0000000000001137
 30
0.0
 11
251.25
 21
218.0000000000001137
 31
0.0
  0
ARC
  5
1BAF
  8
0
 10
251.25
 20
217.7500000000001137
 30
0.0
 40
0.25
 50
0.0
 51
90.0
  0
ARC
  5
1BB0
  8
0
 10
243.25
 20
217.7500000000001137
 30
0.0
 40
0.25
 50
90.0
 51
180.0
  0
LINE
  5
1BB1
  8
0
 10
253.25
 20
218.0000000000001137
 30
0.0
 11
261.25
 21
218.0000000000001137
 31
0.0
  0
ARC
  5
1BB2
  8
0
 10
253.25
 20
217.7500000000001137
 30
0.0
 40
0.25
 50
90.0
 51
180.0
  0
LINE
  5
1BB3
  8
0
 10
243.25
 20
214.5
 30
0.0
 11
251.25
 21
214.5
 31
0.0
  0
LINE
  5
1BB4
  8
0
 10
253.25
 20
214.5
 30
0.0
 11
261.25
 21
214.5
 31
0.0
  0
LINE
  5
1BB5
  8
0
 10
298.5
 20
241.5
 30
0.0
 11
298.5
 21
258.25
 31
0.0
  0
ARC
  5
1BB6
  8
0
 10
298.25
 20
258.25
 30
0.0
 40
0.25
 50
0.0
 51
90.0
  0
ARC
  5
1BB7
  8
0
  6
CONTINUOUS
 10
297.5
 20
241.5
 30
0.0
 40
1.0
 50
270.0
 51
0.0
  0
LINE
  5
1BB8
  8
0
 10
149.0
 20
291.5
 30
0.0
 11
149.0
 21
241.5
 31
0.0
  0
ARC
  5
1BB9
  8
0
  6
CONTINUOUS
 10
150.0
 20
241.5
 30
0.0
 40
1.0
 50
180.0
 51
270.0
  0
LINE
  5
1BBA
  8
0
 10
169.5
 20
235.5
 30
0.0
 11
154.5
 21
235.5
 31
0.0
  0
ARC
  5
1BBB
  8
0
  6
CONTINUOUS
 10
169.5
 20
236.5000000000001137
 30
0.0
 40
1.0
 50
270.0
 51
0.0
  0
ARC
  5
1BBC
  8
0
  6
CONTINUOUS
 10
154.5
 20
236.5000000000001137
 30
0.0
 40
1.0
 50
180.0
 51
270.0
  0
LINE
  5
1BBD
  8
0
 10
176.5399999999999068
 20
266.5
 30
0.0
 11
176.5399999999999068
 21
247.0000000000001137
 31
0.0
  0
ARC
  5
1BBE
  8
0
 10
177.5399999999999068
 20
266.5
 30
0.0
 40
1.0
 50
90.0
 51
180.0
  0
ARC
  5
1BBF
  8
0
  6
CONTINUOUS
 10
177.5399999999999068
 20
247.0000000000001137
 30
0.0
 40
1.0
 50
180.0
 51
270.0
  0
CIRCLE
  5
1BC0
  8
0
 10
150.5
 20
295.5
 30
0.0
 40
1.575
  0
CIRCLE
  5
1BC1
  8
0
 10
173.5
 20
295.5
 30
0.0
 40
1.5749999999999991
  0
LINE
  5
1BC2
  8
0
 10
261.5
 20
214.75
 30
0.0
 11
261.5
 21
217.7500000000001137
 31
0.0
  0
ARC
  5
1BC3
  8
0
 10
261.25
 20
214.75
 30
0.0
 40
0.25
 50
270.0
 51
0.0
  0
ARC
  5
1BC4
  8
0
 10
261.25
 20
217.7500000000001137
 30
0.0
 40
0.25
 50
0.0
 51
90.0
  0
LINE
  5
1BC5
  8
0
 10
253.0
 20
214.75
 30
0.0
 11
253.0
 21
217.7500000000001137
 31
0.0
  0
ARC
  5
1BC6
  8
0
 10
253.25
 20
214.75
 30
0.0
 40
0.25
 50
180.0
 51
270.0
  0
LINE
  5
1BC7
  8
0
 10
251.5
 20
214.75
 30
0.0
 11
251.5
 21
217.7500000000001137
 31
0.0
  0
ARC
  5
1BC8
  8
0
 10
251.25
 20
214.75
 30
0.0
 40
0.25
 50
270.0
 51
0.0
  0
LINE
  5
1BC9
  8
0
 10
243.0
 20
214.75
 30
0.0
 11
243.0
 21
217.7500000000001137
 31
0.0
  0
ARC
  5
1BCA
  8
0
 10
243.25
 20
214.75
 30
0.0
 40
0.25
 50
180.0
 51
270.0
  0
LINE
  5
1BCB
  8
0
 10
251.75
 20
221.0
 30
0.0
 11
259.25
 21
221.0
 31
0.0
  0
ARC
  5
1BCC
  8
0
 10
251.75
 20
221.2500000000001137
 30
0.0
 40
0.25
 50
180.0
 51
270.0
  0
LINE
  5
1BCD
  8
0
 10
259.5
 20
221.2500000000001137
 30
0.0
 11
259.5
 21
235.7500000000001137
 31
0.0
  0
ARC
  5
1BCE
  8
0
 10
259.25
 20
221.2500000000001137
 30
0.0
 40
0.25
 50
270.0
 51
0.0
  0
LINE
  5
1BCF
  8
0
 10
251.5
 20
226.75
 30
0.0
 11
251.5
 21
221.2500000000001137
 31
0.0
  0
ARC
  5
1BD0
  8
0
 10
251.25
 20
226.75
 30
0.0
 40
0.25
 50
0.0
 51
90.0
  0
LINE
  5
1BD1
  8
0
 10
272.5
 20
214.25
 30
0.0
 11
272.5
 21
230.75
 31
0.0
  0
ARC
  5
1BD2
  8
0
 10
272.25
 20
230.75
 30
0.0
 40
0.25
 50
0.0
 51
90.0
  0
LINE
  5
1BD3
  8
0
 10
274.25
 20
232.5000000000001137
 30
0.0
 11
270.25
 21
232.5000000000001137
 31
0.0
  0
ARC
  5
1BD4
  8
0
  6
CONTINUOUS
 10
270.25
 20
232.7500000000001137
 30
0.0
 40
0.25
 50
180.0
 51
270.0
  0
LINE
  5
1BD5
  8
0
 10
263.25
 20
236.0000000000001137
 30
0.0
 11
259.75
 21
236.0000000000001137
 31
0.0
  0
ARC
  5
1BD6
  8
0
 10
259.75
 20
235.7500000000001137
 30
0.0
 40
0.25
 50
90.0
 51
180.0
  0
LINE
  5
1BD7
  8
0
 10
272.25
 20
231.0
 30
0.0
 11
265.75
 21
231.0
 31
0.0
  0
LINE
  5
1BD8
  8
0
 10
274.5
 20
232.2500000000001137
 30
0.0
 11
274.5
 21
222.5
 31
0.0
  0
ARC
  5
1BD9
  8
0
 10
274.25
 20
232.2500000000001137
 30
0.0
 40
0.25
 50
0.0
 51
90.0
  0
ARC
  5
1BDA
  8
0
  6
CONTINUOUS
 10
274.75
 20
222.5
 30
0.0
 40
0.25
 50
180.0
 51
270.0
  0
LINE
  5
1BDB
  8
0
 10
216.5
 20
248.7426406871194047
 30
0.0
 11
216.5
 21
257.5000000000001137
 31
0.0
  0
LINE
  5
1BDC
  8
0
 10
184.0
 20
258.5
 30
0.0
 11
208.5
 21
258.5
 31
0.0
  0
ARC
  5
1BDD
  8
0
 10
208.5
 20
257.5000000000001137
 30
0.0
 40
1.0
 50
0.0
 51
90.0
  0
LINE
  5
1BDE
  8
0
 10
217.5
 20
258.5
 30
0.0
 11
262.5
 21
258.5
 31
0.0
  0
LINE
  5
1BDF
  8
0
 10
266.0
 20
258.5
 30
0.0
 11
298.25
 21
258.5
 31
0.0
  0
ARC
  5
1BE0
  8
0
  6
CONTINUOUS
 10
266.0
 20
257.5000000000001137
 30
0.0
 40
1.0
 50
90.0
 51
180.0
  0
ARC
  5
1BE1
  8
0
 10
217.5
 20
257.5000000000001137
 30
0.0
 40
1.0
 50
90.0
 51
180.0
  0
ARC
  5
1BE2
  8
0
 10
184.0
 20
257.5000000000001137
 30
0.0
 40
1.0
 50
90.0
 51
180.0
  0
LINE
  5
1BE3
  8
0
 10
184.5
 20
267.5000000000001137
 30
0.0
 11
245.5
 21
267.5000000000001137
 31
0.0
  0
LINE
  5
1BE4
  8
0
 10
184.0
 20
247.5
 30
0.0
 11
184.0
 21
247.5
 31
0.0
  0
LINE
  5
1BE5
  8
0
 10
183.0
 20
248.5000000000001137
 30
0.0
 11
183.0
 21
257.5000000000001137
 31
0.0
  0
ARC
  5
1BE6
  8
0
 10
184.0
 20
248.5000000000001137
 30
0.0
 40
1.0
 50
180.0
 51
270.0
  0
ARC
  5
1BE7
  8
0
  6
CONTINUOUS
 10
210.5
 20
252.9142135623731917
 30
0.0
 40
1.0
 50
180.0
 51
224.9999999999996021
  0
LINE
  5
1BE8
  8
0
 10
209.5
 20
257.5000000000001137
 30
0.0
 11
209.5
 21
252.9142135623731917
 31
0.0
  0
LINE
  5
1BE9
  8
0
 10
263.0
 20
263.5000000000001137
 30
0.0
 11
263.0
 21
266.5
 31
0.0
  0
ARC
  5
1BEA
  8
0
  6
CONTINUOUS
 10
264.0
 20
263.5000000000001137
 30
0.0
 40
1.0
 50
180.0
 51
270.0
  0
LINE
  5
1BEB
  8
0
 10
249.0
 20
281.5000000000001137
 30
0.0
 11
249.0
 21
268.5
 31
0.0
  0
LINE
  5
1BEC
  8
0
 10
246.5
 20
278.0000000000001137
 30
0.0
 11
246.5
 21
268.5
 31
0.0
  0
ARC
  5
1BED
  8
0
 10
245.5
 20
268.5
 30
0.0
 40
1.0
 50
270.0
 51
0.0
  0
LINE
  5
1BEE
  8
0
 10
183.5
 20
278.0000000000001137
 30
0.0
 11
183.5
 21
268.5
 31
0.0
  0
LINE
  5
1BEF
  8
0
 10
182.5
 20
279.5000000000001137
 30
0.0
 11
182.5
 21
268.5
 31
0.0
  0
ARC
  5
1BF0
  8
0
  6
CONTINUOUS
 10
183.5
 20
279.5000000000001137
 30
0.0
 40
1.0
 50
90.0
 51
180.0
  0
ARC
  5
1BF1
  8
0
  6
CONTINUOUS
 10
181.5
 20
268.5
 30
0.0
 40
1.0
 50
270.0
 51
0.0
  0
LINE
  5
1BF2
  8
0
 10
183.5
 20
280.5000000000001137
 30
0.0
 11
192.5
 21
280.5000000000001137
 31
0.0
  0
ARC
  5
1BF3
  8
0
  6
CONTINUOUS
 10
192.5
 20
281.5000000000001137
 30
0.0
 40
1.0
 50
270.0
 51
0.0
  0
LINE
  5
1BF4
  8
0
 10
193.5
 20
281.5000000000001137
 30
0.0
 11
193.5
 21
297.5000000000001137
 31
0.0
  0
ARC
  5
1BF5
  8
0
  6
CONTINUOUS
 10
192.5
 20
297.5000000000001137
 30
0.0
 40
1.0
 50
0.0
 51
90.0
  0
ARC
  5
1BF6
  8
0
  6
CONTINUOUS
 10
27.0
 20
124.9999999999999005
 30
0.0
 40
3.0
 50
90.0
 51
180.0
  0
LINE
  5
1BF7
  8
0
 10
24.0
 20
64.25
 30
0.0
 11
24.0
 21
41.2499999999999929
 31
0.0
  0
ARC
  5
1BF8
  8
0
 10
30.75
 20
107.2499999999999005
 30
0.0
 40
0.25
 50
270.0
 51
0.0
  0
ARC
  5
1BF9
  8
0
 10
30.75
 20
120.2499999999999005
 30
0.0
 40
0.25
 50
0.0
 51
90.0
  0
LINE
  5
1BFA
  8
0
 10
31.0
 20
120.2499999999999005
 30
0.0
 11
31.0
 21
107.2499999999999005
 31
0.0
  0
LINE
  5
1BFB
  8
0
 10
31.0
 20
105.2499999999999005
 30
0.0
 11
31.0
 21
91.7499999999999858
 31
0.0
  0
ARC
  5
1BFC
  8
0
 10
30.75
 20
105.2499999999999005
 30
0.0
 40
0.25
 50
0.0
 51
90.0
  0
LINE
  5
1BFD
  8
0
 10
31.0
 20
61.7499999999999929
 30
0.0
 11
31.0
 21
53.75
 31
0.0
  0
ARC
  5
1BFE
  8
0
 10
30.75
 20
61.7499999999999929
 30
0.0
 40
0.25
 50
0.0
 51
90.0
  0
ARC
  5
1BFF
  8
0
 10
30.75
 20
53.75
 30
0.0
 40
0.25
 50
270.0
 51
0.0
  0
LINE
  5
1C00
  8
0
 10
31.0
 20
51.7499999999999929
 30
0.0
 11
31.0
 21
43.7499999999999929
 31
0.0
  0
ARC
  5
1C01
  8
0
 10
30.75
 20
43.7499999999999929
 30
0.0
 40
0.25
 50
270.0
 51
0.0
  0
ARC
  5
1C02
  8
0
 10
30.75
 20
51.7499999999999929
 30
0.0
 40
0.25
 50
0.0
 51
90.0
  0
LINE
  5
1C03
  8
0
 10
27.5
 20
120.2499999999999005
 30
0.0
 11
27.5
 21
107.2499999999999005
 31
0.0
  0
LINE
  5
1C04
  8
0
 10
27.5
 20
51.7499999999999929
 30
0.0
 11
27.5
 21
43.7499999999999929
 31
0.0
  0
LINE
  5
1C05
  8
0
 10
27.5
 20
61.7499999999999929
 30
0.0
 11
27.5
 21
53.75
 31
0.0
  0
LINE
  5
1C06
  8
0
 10
50.5
 20
3.0000000000000022
 30
0.0
 11
79.25
 21
3.0000000000000022
 31
0.0
  0
ARC
  5
1C07
  8
0
  6
CONTINUOUS
 10
50.5
 20
6.0
 30
0.0
 40
3.0
 50
180.0
 51
270.0
  0
ARC
  5
1C08
  8
0
  6
CONTINUOUS
 10
79.25
 20
3.2500000000000022
 30
0.0
 40
0.25
 50
270.0
 51
0.0
  0
LINE
  5
1C09
  8
0
 10
115.0
 20
9.0
 30
0.0
 11
115.0
 21
155.0
 31
0.0
  0
ARC
  5
1C0A
  8
0
 10
109.0
 20
155.0
 30
0.0
 40
6.0
 50
0.0
 51
90.0
  0
ARC
  5
1C0B
  8
0
 10
109.0
 20
9.0
 30
0.0
 40
6.0
 50
270.0
 51
0.0
  0
LINE
  5
1C0C
  8
0
 10
109.0
 20
160.9999999999998863
 30
0.0
 11
50.0
 21
160.9999999999998863
 31
0.0
  0
LINE
  5
1C0D
  8
0
 10
53.8500000000001293
 20
134.5399999999999068
 30
0.0
 11
105.1500000000000057
 21
134.5399999999999068
 31
0.0
  0
LINE
  5
1C0E
  8
0
 10
105.4000000000001052
 20
134.2899999999999068
 30
0.0
 11
105.4000000000001052
 21
128.710000000000008
 31
0.0
  0
ARC
  5
1C0F
  8
0
 10
105.1500000000000057
 20
134.2899999999999068
 30
0.0
 40
0.25
 50
0.0
 51
90.0
  0
LINE
  5
1C10
  8
0
 10
105.1500000000000057
 20
128.460000000000008
 30
0.0
 11
53.8500000000001293
 21
128.460000000000008
 31
0.0
  0
ARC
  5
1C11
  8
0
 10
53.8500000000001293
 20
128.710000000000008
 30
0.0
 40
0.25
 50
180.0
 51
270.0
  0
ARC
  5
1C12
  8
0
 10
105.1500000000000057
 20
128.710000000000008
 30
0.0
 40
0.25
 50
270.0
 51
0.0
  0
LINE
  5
1C13
  8
0
 10
53.6000000000001293
 20
128.710000000000008
 30
0.0
 11
53.6000000000001293
 21
134.2899999999999068
 31
0.0
  0
ARC
  5
1C14
  8
0
 10
53.8500000000001293
 20
134.2899999999999068
 30
0.0
 40
0.25
 50
90.0
 51
180.0
  0
CIRCLE
  5
1C15
  8
0
 10
108.5
 20
154.4999999999998863
 30
0.0
 40
1.575
  0
CIRCLE
  5
1C16
  8
0
 10
108.5
 20
131.4999999999998863
 30
0.0
 40
1.5749999999999991
  0
LINE
  5
1C17
  8
0
 10
29.25
 20
121.9999999999999005
 30
0.0
 11
44.75
 21
121.9999999999999005
 31
0.0
  0
ARC
  5
1C18
  8
0
 10
29.25
 20
122.2499999999999005
 30
0.0
 40
0.25
 50
180.0
 51
270.0
  0
LINE
  5
1C19
  8
0
 10
45.0
 20
122.2499999999999005
 30
0.0
 11
45.0
 21
156.0
 31
0.0
  0
ARC
  5
1C1A
  8
0
 10
50.0
 20
156.0
 30
0.0
 40
5.0
 50
90.0
 51
180.0
  0
ARC
  5
1C1B
  8
0
 10
44.75
 20
122.2499999999999005
 30
0.0
 40
0.25
 50
270.0
 51
0.0
  0
LINE
  5
1C1C
  8
0
 10
29.0
 20
122.2499999999999005
 30
0.0
 11
29.0
 21
127.7499999999999005
 31
0.0
  0
ARC
  5
1C1D
  8
0
  6
CONTINUOUS
 10
28.75
 20
127.7499999999999005
 30
0.0
 40
0.25
 50
0.0
 51
90.0
  0
LINE
  5
1C1E
  8
0
 10
35.0
 20
119.7499999999999005
 30
0.0
 11
35.0
 21
106.2499999999999005
 31
0.0
  0
LINE
  5
1C1F
  8
0
 10
35.25
 20
105.9999999999999005
 30
0.0
 11
48.75
 21
105.9999999999999005
 31
0.0
  0
ARC
  5
1C20
  8
0
 10
48.75
 20
106.2499999999999005
 30
0.0
 40
0.25
 50
270.0
 51
0.0
  0
ARC
  5
1C21
  8
0
 10
35.25
 20
106.2499999999999005
 30
0.0
 40
0.25
 50
180.0
 51
270.0
  0
LINE
  5
1C22
  8
0
 10
49.0
 20
106.2499999999999005
 30
0.0
 11
49.0
 21
119.7499999999999005
 31
0.0
  0
ARC
  5
1C23
  8
0
 10
48.75
 20
119.7499999999999005
 30
0.0
 40
0.25
 50
0.0
 51
90.0
  0
LINE
  5
1C24
  8
0
 10
48.75
 20
119.9999999999999005
 30
0.0
 11
35.25
 21
119.9999999999999005
 31
0.0
  0
ARC
  5
1C25
  8
0
 10
35.25
 20
119.7499999999999005
 30
0.0
 40
0.25
 50
90.0
 51
180.0
  0
LINE
  5
1C26
  8
0
 10
27.75
 20
43.4999999999999929
 30
0.0
 11
30.75
 21
43.4999999999999929
 31
0.0
  0
ARC
  5
1C27
  8
0
 10
27.75
 20
43.7499999999999929
 30
0.0
 40
0.25
 50
180.0
 51
270.0
  0
LINE
  5
1C28
  8
0
 10
27.75
 20
51.9999999999999929
 30
0.0
 11
30.75
 21
51.9999999999999929
 31
0.0
  0
ARC
  5
1C29
  8
0
 10
27.75
 20
51.7499999999999929
 30
0.0
 40
0.25
 50
90.0
 51
180.0
  0
LINE
  5
1C2A
  8
0
 10
27.75
 20
53.4999999999999929
 30
0.0
 11
30.75
 21
53.4999999999999929
 31
0.0
  0
ARC
  5
1C2B
  8
0
 10
27.75
 20
53.75
 30
0.0
 40
0.25
 50
180.0
 51
270.0
  0
LINE
  5
1C2C
  8
0
 10
27.75
 20
61.9999999999999929
 30
0.0
 11
30.75
 21
61.9999999999999929
 31
0.0
  0
ARC
  5
1C2D
  8
0
 10
27.75
 20
61.7499999999999929
 30
0.0
 40
0.25
 50
90.0
 51
180.0
  0
LINE
  5
1C2E
  8
0
 10
27.75
 20
91.4999999999999858
 30
0.0
 11
30.75
 21
91.4999999999999858
 31
0.0
  0
ARC
  5
1C2F
  8
0
 10
27.75
 20
91.7499999999999858
 30
0.0
 40
0.25
 50
180.0
 51
270.0
  0
LINE
  5
1C30
  8
0
 10
27.75
 20
105.4999999999999005
 30
0.0
 11
30.75
 21
105.4999999999999005
 31
0.0
  0
ARC
  5
1C31
  8
0
 10
27.75
 20
105.2499999999999005
 30
0.0
 40
0.25
 50
90.0
 51
180.0
  0
LINE
  5
1C32
  8
0
 10
27.75
 20
106.9999999999999005
 30
0.0
 11
30.75
 21
106.9999999999999005
 31
0.0
  0
ARC
  5
1C33
  8
0
 10
27.75
 20
107.2499999999999005
 30
0.0
 40
0.25
 50
180.0
 51
270.0
  0
LINE
  5
1C34
  8
0
 10
27.75
 20
120.4999999999999005
 30
0.0
 11
30.75
 21
120.4999999999999005
 31
0.0
  0
ARC
  5
1C35
  8
0
 10
27.75
 20
120.2499999999999005
 30
0.0
 40
0.25
 50
90.0
 51
180.0
  0
LINE
  5
1C36
  8
0
 10
33.5
 20
98.75
 30
0.0
 11
33.5
 21
91.2499999999999858
 31
0.0
  0
ARC
  5
1C37
  8
0
 10
33.75
 20
91.2499999999999858
 30
0.0
 40
0.25
 50
180.0
 51
270.0
  0
LINE
  5
1C38
  8
0
 10
33.75
 20
90.9999999999999858
 30
0.0
 11
49.75
 21
90.9999999999999858
 31
0.0
  0
ARC
  5
1C39
  8
0
 10
49.75
 20
91.2499999999999858
 30
0.0
 40
0.25
 50
270.0
 51
0.0
  0
LINE
  5
1C3A
  8
0
 10
49.75
 20
98.9999999999999858
 30
0.0
 11
33.75
 21
98.9999999999999858
 31
0.0
  0
ARC
  5
1C3B
  8
0
 10
33.75
 20
98.75
 30
0.0
 40
0.25
 50
90.0
 51
180.0
  0
LINE
  5
1C3C
  8
0
 10
50.0
 20
91.2499999999999858
 30
0.0
 11
50.0
 21
98.75
 31
0.0
  0
ARC
  5
1C3D
  8
0
 10
49.75
 20
98.75
 30
0.0
 40
0.25
 50
0.0
 51
90.0
  0
LINE
  5
1C3E
  8
0
 10
34.0
 20
53.2499999999999929
 30
0.0
 11
34.0
 21
45.7499999999999929
 31
0.0
  0
ARC
  5
1C3F
  8
0
 10
34.25
 20
53.2499999999999929
 30
0.0
 40
0.25
 50
90.0
 51
180.0
  0
LINE
  5
1C40
  8
0
 10
34.25
 20
45.4999999999999929
 30
0.0
 11
50.25
 21
45.4999999999999929
 31
0.0
  0
ARC
  5
1C41
  8
0
 10
34.25
 20
45.7499999999999929
 30
0.0
 40
0.25
 50
180.0
 51
270.0
  0
LINE
  5
1C42
  8
0
 10
50.5
 20
45.7499999999999929
 30
0.0
 11
50.5
 21
53.2499999999999929
 31
0.0
  0
ARC
  5
1C43
  8
0
 10
50.25
 20
53.2499999999999929
 30
0.0
 40
0.25
 50
0.0
 51
90.0
  0
ARC
  5
1C44
  8
0
 10
50.25
 20
45.7499999999999929
 30
0.0
 40
0.25
 50
270.0
 51
0.0
  0
LINE
  5
1C45
  8
0
 10
50.25
 20
53.4999999999999929
 30
0.0
 11
34.25
 21
53.4999999999999929
 31
0.0
  0
LINE
  5
1C46
  8
0
 10
24.25
 20
88.9999999999999858
 30
0.0
 11
34.75
 21
88.9999999999999858
 31
0.0
  0
ARC
  5
1C47
  8
0
  6
CONTINUOUS
 10
24.25
 20
89.2499999999999858
 30
0.0
 40
0.25
 50
180.0
 51
270.0
  0
LINE
  5
1C48
  8
0
 10
24.25
 20
64.5
 30
0.0
 11
34.75
 21
64.5
 31
0.0
  0
LINE
  5
1C49
  8
0
 10
35.0
 20
64.75
 30
0.0
 11
35.0
 21
88.7500000000000142
 31
0.0
  0
ARC
  5
1C4A
  8
0
 10
34.75
 20
64.75
 30
0.0
 40
0.25
 50
270.0
 51
0.0
  0
LINE
  5
1C4B
  8
0
 10
47.75
 20
60.9999999999999929
 30
0.0
 11
58.75
 21
60.9999999999999929
 31
0.0
  0
ARC
  5
1C4C
  8
0
 10
47.75
 20
60.7499999999999929
 30
0.0
 40
0.25
 50
90.0
 51
180.0
  0
ARC
  5
1C4D
  8
0
 10
58.75
 20
60.7499999999999929
 30
0.0
 40
0.25
 50
0.0
 51
90.0
  0
LINE
  5
1C4E
  8
0
 10
59.0
 20
60.7499999999999929
 30
0.0
 11
59.0
 21
57.7499999999999929
 31
0.0
  0
ARC
  5
1C4F
  8
0
 10
58.75
 20
57.7499999999999929
 30
0.0
 40
0.25
 50
270.0
 51
0.0
  0
LINE
  5
1C50
  8
0
 10
47.5
 20
57.7499999999999929
 30
0.0
 11
47.5
 21
60.7499999999999929
 31
0.0
  0
ARC
  5
1C51
  8
0
 10
47.75
 20
57.7499999999999929
 30
0.0
 40
0.25
 50
180.0
 51
270.0
  0
LINE
  5
1C52
  8
0
 10
27.25
 20
32.5
 30
0.0
 11
43.75
 21
32.5
 31
0.0
  0
ARC
  5
1C53
  8
0
 10
43.75
 20
32.7499999999999929
 30
0.0
 40
0.25
 50
270.0
 51
0.0
  0
ARC
  5
1C54
  8
0
  6
CONTINUOUS
 10
27.25
 20
32.25
 30
0.0
 40
0.25
 50
90.0
 51
180.0
  0
ARC
  5
1C55
  8
0
 10
43.75
 20
39.2499999999999929
 30
0.0
 40
0.25
 50
0.0
 51
90.0
  0
LINE
  5
1C56
  8
0
 10
44.0
 20
32.7499999999999929
 30
0.0
 11
44.0
 21
39.2499999999999929
 31
0.0
  0
LINE
  5
1C57
  8
0
 10
43.75
 20
39.4999999999999929
 30
0.0
 11
27.25
 21
39.4999999999999929
 31
0.0
  0
ARC
  5
1C58
  8
0
  6
CONTINUOUS
 10
27.25
 20
39.75
 30
0.0
 40
0.25
 50
180.0
 51
270.0
  0
ARC
  5
1C59
  8
0
 10
71.25
 20
6.75
 30
0.0
 40
0.25
 50
270.0
 51
0.0
  0
LINE
  5
1C5A
  8
0
 10
71.5
 20
6.75
 30
0.0
 11
71.5
 21
14.75
 31
0.0
  0
ARC
  5
1C5B
  8
0
 10
70.25
 20
40.2499999999999929
 30
0.0
 40
0.25
 50
0.0
 51
90.0
  0
LINE
  5
1C5C
  8
0
 10
70.25
 20
40.4999999999999929
 30
0.0
 11
61.75
 21
40.4999999999999929
 31
0.0
  0
ARC
  5
1C5D
  8
0
 10
70.75
 20
15.25
 30
0.0
 40
0.25
 50
180.0
 51
270.0
  0
ARC
  5
1C5E
  8
0
 10
61.75
 20
55.7499999999999929
 30
0.0
 40
0.25
 50
90.0
 51
180.0
  0
LINE
  5
1C5F
  8
0
 10
61.75
 20
55.9999999999999929
 30
0.0
 11
70.25
 21
55.9999999999999929
 31
0.0
  0
LINE
  5
1C60
  8
0
 10
71.25
 20
15.0
 30
0.0
 11
70.75
 21
15.0
 31
0.0
  0
LINE
  5
1C61
  8
0
 10
61.5
 20
40.2499999999999929
 30
0.0
 11
61.5
 21
15.25
 31
0.0
  0
ARC
  5
1C62
  8
0
 10
61.75
 20
88.2499999999999858
 30
0.0
 40
0.25
 50
90.0
 51
180.0
  0
LINE
  5
1C63
  8
0
 10
70.25
 20
41.9999999999999929
 30
0.0
 11
61.75
 21
41.9999999999999929
 31
0.0
  0
LINE
  5
1C64
  8
0
 10
61.5
 20
62.7499999999999929
 30
0.0
 11
61.5
 21
88.2499999999999858
 31
0.0
  0
ARC
  5
1C65
  8
0
 10
70.25
 20
55.7499999999999929
 30
0.0
 40
0.25
 50
0.0
 51
90.0
  0
ARC
  5
1C66
  8
0
 10
70.25
 20
62.7499999999999929
 30
0.0
 40
0.25
 50
270.0
 51
0.0
  0
LINE
  5
1C67
  8
0
 10
61.75
 20
88.4999999999999858
 30
0.0
 11
70.25
 21
88.4999999999999858
 31
0.0
  0
ARC
  5
1C68
  8
0
 10
61.75
 20
42.2499999999999929
 30
0.0
 40
0.25
 50
180.0
 51
270.0
  0
LINE
  5
1C69
  8
0
 10
70.5
 20
55.7499999999999929
 30
0.0
 11
70.5
 21
42.2499999999999929
 31
0.0
  0
LINE
  5
1C6A
  8
0
 10
70.5
 20
88.2499999999999858
 30
0.0
 11
70.5
 21
62.7499999999999929
 31
0.0
  0
ARC
  5
1C6B
  8
0
 10
61.75
 20
121.7499999999999005
 30
0.0
 40
0.25
 50
90.0
 51
180.0
  0
ARC
  5
1C6C
  8
0
 10
70.25
 20
95.7499999999999858
 30
0.0
 40
0.25
 50
270.0
 51
0.0
  0
ARC
  5
1C6D
  8
0
 10
70.25
 20
88.2499999999999858
 30
0.0
 40
0.25
 50
0.0
 51
90.0
  0
ARC
  5
1C6E
  8
0
 10
61.75
 20
62.7499999999999929
 30
0.0
 40
0.25
 50
180.0
 51
270.0
  0
LINE
  5
1C6F
  8
0
 10
61.5
 20
95.7499999999999858
 30
0.0
 11
61.5
 21
121.7499999999999005
 31
0.0
  0
LINE
  5
1C70
  8
0
 10
70.25
 20
62.5
 30
0.0
 11
61.75
 21
62.5
 31
0.0
  0
LINE
  5
1C71
  8
0
 10
61.75
 20
121.9999999999999005
 30
0.0
 11
70.25
 21
121.9999999999999005
 31
0.0
  0
LINE
  5
1C72
  8
0
 10
70.25
 20
95.4999999999999858
 30
0.0
 11
61.75
 21
95.4999999999999858
 31
0.0
  0
ARC
  5
1C73
  8
0
 10
61.75
 20
95.7499999999999858
 30
0.0
 40
0.25
 50
180.0
 51
270.0
  0
ARC
  5
1C74
  8
0
 10
70.25
 20
121.7499999999999005
 30
0.0
 40
0.25
 50
0.0
 51
90.0
  0
ARC
  5
1C75
  8
0
 10
82.2499999999999858
 20
42.2499999999999929
 30
0.0
 40
0.25
 50
180.0
 51
270.0
  0
LINE
  5
1C76
  8
0
 10
70.5
 20
121.7499999999999005
 30
0.0
 11
70.5
 21
95.7499999999999858
 31
0.0
  0
LINE
  5
1C77
  8
0
 10
82.0
 20
55.7499999999999929
 30
0.0
 11
82.0
 21
42.2499999999999929
 31
0.0
  0
LINE
  5
1C78
  8
0
 10
91.0
 20
42.2499999999999929
 30
0.0
 11
91.0
 21
55.7499999999999929
 31
0.0
  0
LINE
  5
1C79
  8
0
 10
90.7500000000000142
 20
55.9999999999999929
 30
0.0
 11
82.2499999999999858
 21
55.9999999999999929
 31
0.0
  0
ARC
  5
1C7A
  8
0
 10
90.7500000000000142
 20
42.2499999999999929
 30
0.0
 40
0.25
 50
270.0
 51
0.0
  0
ARC
  5
1C7B
  8
0
 10
82.2499999999999858
 20
121.7499999999999005
 30
0.0
 40
0.25
 50
90.0
 51
180.0
  0
ARC
  5
1C7C
  8
0
 10
90.7500000000000142
 20
55.7499999999999929
 30
0.0
 40
0.25
 50
0.0
 51
90.0
  0
ARC
  5
1C7D
  8
0
 10
82.2499999999999858
 20
55.7499999999999929
 30
0.0
 40
0.25
 50
90.0
 51
180.0
  0
LINE
  5
1C7E
  8
0
 10
82.2499999999999858
 20
107.9999999999999005
 30
0.0
 11
90.7500000000000142
 21
107.9999999999999005
 31
0.0
  0
LINE
  5
1C7F
  8
0
 10
82.0
 20
121.7499999999999005
 30
0.0
 11
82.0
 21
108.2499999999999005
 31
0.0
  0
LINE
  5
1C80
  8
0
 10
90.7500000000000142
 20
121.9999999999999005
 30
0.0
 11
82.2499999999999858
 21
121.9999999999999005
 31
0.0
  0
ARC
  5
1C81
  8
0
 10
82.2499999999999858
 20
108.2499999999999005
 30
0.0
 40
0.25
 50
180.0
 51
270.0
  0
LINE
  5
1C82
  8
0
 10
91.0
 20
108.2499999999999005
 30
0.0
 11
91.0
 21
121.7499999999999005
 31
0.0
  0
ARC
  5
1C83
  8
0
 10
82.2499999999999858
 20
152.2499999999998863
 30
0.0
 40
0.25
 50
90.0
 51
180.0
  0
ARC
  5
1C84
  8
0
 10
90.7500000000000142
 20
121.7499999999999005
 30
0.0
 40
0.25
 50
0.0
 51
90.0
  0
LINE
  5
1C85
  8
0
 10
82.0
 20
152.2499999999998863
 30
0.0
 11
82.0
 21
138.7499999999998863
 31
0.0
  0
LINE
  5
1C86
  8
0
 10
90.7500000000000142
 20
152.4999999999998863
 30
0.0
 11
82.2499999999999858
 21
152.4999999999998863
 31
0.0
  0
ARC
  5
1C87
  8
0
 10
90.7500000000000142
 20
108.2499999999999005
 30
0.0
 40
0.25
 50
270.0
 51
0.0
  0
ARC
  5
1C88
  8
0
 10
82.2499999999999858
 20
138.7499999999998863
 30
0.0
 40
0.25
 50
180.0
 51
270.0
  0
LINE
  5
1C89
  8
0
 10
82.2499999999999858
 20
138.5
 30
0.0
 11
90.7500000000000142
 21
138.5
 31
0.0
  0
LINE
  5
1C8A
  8
0
 10
91.0
 20
138.7499999999998863
 30
0.0
 11
91.0
 21
152.2499999999998863
 31
0.0
  0
LINE
  5
1C8B
  8
0
 10
51.0
 20
100.7499999999999005
 30
0.0
 11
51.0
 21
89.2499999999999858
 31
0.0
  0
ARC
  5
1C8C
  8
0
 10
90.7500000000000142
 20
152.2499999999998863
 30
0.0
 40
0.25
 50
0.0
 51
90.0
  0
ARC
  5
1C8D
  8
0
 10
51.25
 20
100.7499999999999005
 30
0.0
 40
0.25
 50
90.0
 51
180.0
  0
ARC
  5
1C8E
  8
0
 10
90.7500000000000142
 20
138.7499999999998863
 30
0.0
 40
0.25
 50
270.0
 51
0.0
  0
LINE
  5
1C8F
  8
0
 10
51.25
 20
88.9999999999999858
 30
0.0
 11
55.75
 21
88.9999999999999858
 31
0.0
  0
LINE
  5
1C90
  8
0
 10
55.75
 20
100.9999999999999005
 30
0.0
 11
51.25
 21
100.9999999999999005
 31
0.0
  0
ARC
  5
1C91
  8
0
 10
55.75
 20
89.2499999999999858
 30
0.0
 40
0.25
 50
270.0
 51
0.0
  0
ARC
  5
1C92
  8
0
 10
51.25
 20
89.2499999999999858
 30
0.0
 40
0.25
 50
180.0
 51
270.0
  0
LINE
  5
1C93
  8
0
 10
56.0
 20
89.2499999999999858
 30
0.0
 11
56.0
 21
100.7499999999999005
 31
0.0
  0
ARC
  5
1C94
  8
0
 10
55.75
 20
100.7499999999999005
 30
0.0
 40
0.25
 50
0.0
 51
90.0
  0
LINE
  5
1C95
  8
0
 10
96.0
 20
119.7499999999999005
 30
0.0
 11
96.0
 21
111.7499999999999005
 31
0.0
  0
ARC
  5
1C96
  8
0
 10
107.25
 20
111.7499999999999005
 30
0.0
 40
0.25
 50
270.0
 51
0.0
  0
LINE
  5
1C97
  8
0
 10
107.25
 20
119.9999999999999005
 30
0.0
 11
96.25
 21
119.9999999999999005
 31
0.0
  0
ARC
  5
1C98
  8
0
 10
96.25
 20
119.7499999999999005
 30
0.0
 40
0.25
 50
90.0
 51
180.0
  0
LINE
  5
1C99
  8
0
 10
96.25
 20
111.4999999999999005
 30
0.0
 11
107.25
 21
111.4999999999999005
 31
0.0
  0
ARC
  5
1C9A
  8
0
 10
96.25
 20
111.7499999999999005
 30
0.0
 40
0.25
 50
180.0
 51
270.0
  0
LINE
  5
1C9B
  8
0
 10
107.5
 20
111.7499999999999005
 30
0.0
 11
107.5
 21
119.7499999999999005
 31
0.0
  0
ARC
  5
1C9C
  8
0
 10
107.25
 20
119.7499999999999005
 30
0.0
 40
0.25
 50
0.0
 51
90.0
  0
LINE
  5
1C9D
  8
0
 10
27.5
 20
105.2499999999999005
 30
0.0
 11
27.5
 21
91.7499999999999858
 31
0.0
  0
ARC
  5
1C9E
  8
0
 10
30.75
 20
91.7499999999999858
 30
0.0
 40
0.25
 50
270.0
 51
0.0
  0
LINE
  5
1C9F
  8
0
 10
61.5
 20
42.2499999999999929
 30
0.0
 11
61.5
 21
55.7499999999999929
 31
0.0
  0
LINE
  5
1CA0
  8
0
 10
70.5
 20
15.25
 30
0.0
 11
70.5
 21
40.2499999999999929
 31
0.0
  0
LINE
  5
1CA1
  8
0
 10
60.5
 20
14.75
 30
0.0
 11
60.5
 21
6.75
 31
0.0
  0
LINE
  5
1CA2
  8
0
 10
60.75
 20
6.5
 30
0.0
 11
71.25
 21
6.5
 31
0.0
  0
LINE
  5
1CA3
  8
0
 10
82.2499999999999858
 20
41.9999999999999929
 30
0.0
 11
90.7500000000000142
 21
41.9999999999999929
 31
0.0
  0
ARC
  5
1CA4
  8
0
 10
24.25
 20
64.25
 30
0.0
 40
0.25
 50
90.0
 51
180.0
  0
ARC
  5
1CA5
  8
0
 10
70.25
 20
42.2499999999999929
 30
0.0
 40
0.25
 50
270.0
 51
0.0
  0
ARC
  5
1CA6
  8
0
 10
61.75
 20
40.2499999999999929
 30
0.0
 40
0.25
 50
90.0
 51
180.0
  0
ARC
  5
1CA7
  8
0
 10
60.75
 20
14.75
 30
0.0
 40
0.25
 50
90.0
 51
180.0
  0
ARC
  5
1CA8
  8
0
 10
71.25
 20
14.75
 30
0.0
 40
0.25
 50
0.0
 51
90.0
  0
ARC
  5
1CA9
  8
0
 10
60.75
 20
6.75
 30
0.0
 40
0.25
 50
180.0
 51
270.0
  0
LINE
  5
1CAA
  8
0
 10
58.75
 20
57.5
 30
0.0
 11
47.75
 21
57.5
 31
0.0
  0
ARC
  5
1CAB
  8
0
 10
34.75
 20
88.7500000000000142
 30
0.0
 40
0.25
 50
0.0
 51
90.0
  0
LINE
  5
1CAC
  8
0
  6
CONTINUOUS
 10
61.25
 20
15.0
 30
0.0
 11
60.75
 21
15.0
 31
0.0
  0
LINE
  5
1CAD
  8
0
  6
CONTINUOUS
 10
28.75
 20
127.9999999999999005
 30
0.0
 11
27.0
 21
127.9999999999999005
 31
0.0
  0
CIRCLE
  5
1CAE
  8
0
  6
CONTINUOUS
 10
108.5
 20
9.5
 30
0.0
 40
1.574999999999988
  0
ARC
  5
1CAF
  8
0
  6
CONTINUOUS
 10
61.25
 20
15.25
 30
0.0
 40
0.25
 50
270.0
 51
0.0
  0
CIRCLE
  5
1CB0
  8
0
  6
CONTINUOUS
 10
50.5
 20
154.4999999999998863
 30
0.0
 40
1.5749999999999991
  0
CIRCLE
  5
1CB1
  8
0
  6
CONTINUOUS
 10
50.5
 20
131.4999999999998863
 30
0.0
 40
1.5749999999999991
  0
CIRCLE
  5
1CB2
  8
0
  6
CONTINUOUS
 10
50.5
 20
9.5
 30
0.0
 40
1.574999999999988
  0
CIRCLE
  5
1CB3
  8
0
  6
CONTINUOUS
 10
83.4999999999999858
 20
15.5
 30
0.0
 40
0.5
  0
LINE
  5
1CB4
  8
0
  6
CONTINUOUS
 10
93.5615053246964408
 20
23.9991548470833287
 30
0.0
 11
80.4991548470833465
 21
37.0615053246964408
 31
0.0
  0
LINE
  5
1CB5
  8
0
  6
CONTINUOUS
 10
94.388311116574755
 20
25.2936693987647985
 30
0.0
 11
81.7936693987646777
 21
37.8883111165747621
 31
0.0
  0
LINE
  5
1CB6
  8
0
  6
CONTINUOUS
 10
95.2060909486057341
 20
26.597209910293369
 30
0.0
 11
83.0972099102933726
 21
38.7060909486057199
 31
0.0
  0
LINE
  5
1CB7
  8
0
  6
CONTINUOUS
 10
95.4712315932200681
 20
28.4533896092386804
 30
0.0
 11
84.953389609238684
 21
38.9712315932200681
 31
0.0
  0
LINE
  5
1CB8
  8
0
  6
CONTINUOUS
 10
95.9265983902557764
 20
30.119343155762639
 30
0.0
 11
86.6193431557626354
 21
39.4265983902557693
 31
0.0
  0
LINE
  5
1CB9
  8
0
  6
CONTINUOUS
 10
94.9136018748577044
 20
33.2536600147202677
 30
0.0
 11
89.753660014720225
 21
38.4136018748577115
 31
0.0
  0
LINE
  5
1CBA
  8
0
  6
CONTINUOUS
 10
92.5008451529166535
 20
22.9384946753035592
 30
0.0
 11
79.438494675303545
 21
36.0008451529166678
 31
0.0
  0
LINE
  5
1CBB
  8
0
  6
CONTINUOUS
 10
91.2063306012352939
 20
22.1116888834252485
 30
0.0
 11
78.611688883425245
 21
34.7063306012353223
 31
0.0
  0
LINE
  5
1CBC
  8
0
  6
CONTINUOUS
 10
89.9027900897066132
 20
21.2939090513942801
 30
0.0
 11
77.7939090513942801
 21
33.4027900897066274
 31
0.0
  0
LINE
  5
1CBD
  8
0
  6
CONTINUOUS
 10
88.046610390761316
 20
21.0287684067800491
 30
0.0
 11
77.5287684067800456
 21
31.5466103907613196
 31
0.0
  0
LINE
  5
1CBE
  8
0
  6
CONTINUOUS
 10
86.3806568442373646
 20
20.5734016097442307
 30
0.0
 11
77.0734016097442236
 21
29.880656844237361
 31
0.0
  0
LINE
  5
1CBF
  8
0
  6
CONTINUOUS
 10
83.2463399852797323
 20
21.5863981251422992
 30
0.0
 11
78.0863981251421819
 21
26.7463399852797501
 31
0.0
  0
ARC
  5
1CC0
  8
0
  6
CONTINUOUS
 10
86.5
 20
30.0
 30
0.0
 40
9.5000000000000036
 50
131.9014206601775925
 51
138.0985793398251076
  0
ARC
  5
1CC1
  8
0
  6
CONTINUOUS
 10
79.6152713706001123
 20
36.1776218482133416
 30
0.0
 40
0.25
 50
138.0985793398251076
 51
224.9999999999951967
  0
ARC
  5
1CC2
  8
0
  6
CONTINUOUS
 10
80.322378151786765
 20
36.8847286293998877
 30
0.0
 40
0.25
 50
44.9999999999951825
 51
131.9014206601775925
  0
ARC
  5
1CC3
  8
0
  6
CONTINUOUS
 10
86.5
 20
30.0
 30
0.0
 40
9.5000000000000036
 50
150.680350134843394
 51
157.2332717982957035
  0
ARC
  5
1CC4
  8
0
  6
CONTINUOUS
 10
77.9706857466909469
 20
33.5795667850032871
 30
0.0
 40
0.25
 50
157.2332717982957035
 51
224.9999999999951967
  0
ARC
  5
1CC5
  8
0
  6
CONTINUOUS
 10
78.4349121881286919
 20
34.5295539059386485
 30
0.0
 40
0.25
 50
44.9999999999951825
 51
150.6803501348319116
  0
ARC
  5
1CC6
  8
0
  6
CONTINUOUS
 10
86.5
 20
30.0
 30
0.0
 40
9.5000000000000036
 50
171.4837370613593919
 51
179.6442464257197003
  0
ARC
  5
1CC7
  8
0
  6
CONTINUOUS
 10
77.2501783050408903
 20
30.0574335395340384
 30
0.0
 40
0.25
 50
179.6442464257197003
 51
224.9999999999951967
  0
ARC
  5
1CC8
  8
0
  6
CONTINUOUS
 10
77.3519917114833646
 20
31.3698336954646493
 30
0.0
 40
0.25
 50
44.9999999999951825
 51
171.4837370613593919
  0
ARC
  5
1CC9
  8
0
  6
CONTINUOUS
 10
86.5
 20
30.0
 30
0.0
 40
9.5000000000000036
 50
201.7685434949835042
 51
248.2314565050085093
  0
ARC
  5
1CCA
  8
0
  6
CONTINUOUS
 10
83.069563289983094
 20
21.4096214298456289
 30
0.0
 40
0.25
 50
248.2314565050047008
 51
45.0000000000078586
  0
ARC
  5
1CCB
  8
0
  6
CONTINUOUS
 10
77.9096214298456289
 20
26.5695632899830798
 30
0.0
 40
0.25
 50
44.9999999999951825
 51
201.7685434949835042
  0
ARC
  5
1CCC
  8
0
  6
CONTINUOUS
 10
86.5
 20
30.0
 30
0.0
 40
9.5000000000000036
 50
270.3557535742734785
 51
278.5162629386343838
  0
ARC
  5
1CCD
  8
0
  6
CONTINUOUS
 10
87.8698336954646351
 20
20.8519917114833788
 30
0.0
 40
0.25
 50
278.5162629386343838
 51
45.0000000000078586
  0
ARC
  5
1CCE
  8
0
  6
CONTINUOUS
 10
86.5574335395340171
 20
20.7501783050408903
 30
0.0
 40
0.25
 50
224.9999999999951967
 51
270.3557535742734785
  0
ARC
  5
1CCF
  8
0
  6
CONTINUOUS
 10
86.5
 20
30.0
 30
0.0
 40
9.5000000000000036
 50
292.766728201701028
 51
299.3196498651661273
  0
ARC
  5
1CD0
  8
0
  6
CONTINUOUS
 10
90.0795667850031947
 20
21.4706857466909504
 30
0.0
 40
0.25
 50
224.999999999994003
 51
292.766728201701028
  0
ARC
  5
1CD1
  8
0
  6
CONTINUOUS
 10
91.0295539059386556
 20
21.9349121881286884
 30
0.0
 40
0.25
 50
299.3196498651661273
 51
44.9999999999951825
  0
ARC
  5
1CD2
  8
0
  6
CONTINUOUS
 10
86.5
 20
30.0
 30
0.0
 40
9.5000000000000036
 50
311.9014206601776777
 51
318.0985793398251076
  0
ARC
  5
1CD3
  8
0
  6
CONTINUOUS
 10
92.6776218482133203
 20
23.1152713706001194
 30
0.0
 40
0.25
 50
224.9999999999951967
 51
311.9014206601776777
  0
ARC
  5
1CD4
  8
0
  6
CONTINUOUS
 10
93.3847286293998877
 20
23.8223781517867685
 30
0.0
 40
0.25
 50
318.0985793398251076
 51
45.0000000000078586
  0
ARC
  5
1CD5
  8
0
  6
CONTINUOUS
 10
86.5
 20
30.0
 30
0.0
 40
9.5000000000000036
 50
330.6803501348434224
 51
337.2332717982956751
  0
ARC
  5
1CD6
  8
0
  6
CONTINUOUS
 10
95.0293142533091668
 20
26.4204332149968302
 30
0.0
 40
0.25
 50
337.2332717983082944
 51
44.9999999999951825
  0
ARC
  5
1CD7
  8
0
  6
CONTINUOUS
 10
94.5650878118712939
 20
25.4704460940613515
 30
0.0
 40
0.25
 50
224.9999999999951967
 51
330.6803501348434224
  0
ARC
  5
1CD8
  8
0
  6
CONTINUOUS
 10
86.5
 20
30.0
 30
0.0
 40
9.5000000000000036
 50
351.4837370613593066
 51
359.6442464257198139
  0
ARC
  5
1CD9
  8
0
  6
CONTINUOUS
 10
95.7498216949591239
 20
29.9425664604659687
 30
0.0
 40
0.25
 50
359.6442464257198139
 51
45.0000000000078586
  0
ARC
  5
1CDA
  8
0
  6
CONTINUOUS
 10
95.6480082885166212
 20
28.6301663045353614
 30
0.0
 40
0.25
 50
225.0000000000077875
 51
351.4837370613593066
  0
ARC
  5
1CDB
  8
0
  6
CONTINUOUS
 10
86.5
 20
30.0
 30
0.0
 40
9.5000000000000036
 50
21.768543494983561
 51
68.2314565050084951
  0
ARC
  5
1CDC
  8
0
  6
CONTINUOUS
 10
89.930436710016906
 20
38.5903785701543782
 30
0.0
 40
0.25
 50
68.2314565050084951
 51
225.0000000000077875
  0
ARC
  5
1CDD
  8
0
  6
CONTINUOUS
 10
95.0903785701543711
 20
33.4304367100169273
 30
0.0
 40
0.25
 50
224.9999999999951967
 51
21.7685434949984788
  0
ARC
  5
1CDE
  8
0
  6
CONTINUOUS
 10
86.5
 20
30.0
 30
0.0
 40
9.5000000000000036
 50
90.3557535742737343
 51
98.5162629386311153
  0
ARC
  5
1CDF
  8
0
  6
CONTINUOUS
 10
85.1301663045353507
 20
39.1480082885166212
 30
0.0
 40
0.25
 50
98.5162629386311153
 51
224.9999999999951967
  0
ARC
  5
1CE0
  8
0
  6
CONTINUOUS
 10
86.4425664604659687
 20
39.2498216949591097
 30
0.0
 40
0.25
 50
45.0000000000078586
 51
90.3557535742737343
  0
ARC
  5
1CE1
  8
0
  6
CONTINUOUS
 10
86.5
 20
30.0
 30
0.0
 40
9.5000000000000036
 50
112.766728201701099
 51
119.3196498651659994
  0
ARC
  5
1CE2
  8
0
  6
CONTINUOUS
 10
81.9704460940613444
 20
38.0650878118714218
 30
0.0
 40
0.25
 50
119.3196498651546023
 51
224.9999999999951967
  0
ARC
  5
1CE3
  8
0
  6
CONTINUOUS
 10
82.9204332149968053
 20
38.5293142533090673
 30
0.0
 40
0.25
 50
44.9999999999951825
 51
112.766728201701099
  0
LINE
  5
1CE4
  8
0
  6
CONTINUOUS
 10
109.0
 20
3.0000000000000022
 30
0.0
 11
102.25
 21
3.0000000000000022
 31
0.0
  0
ARC
  5
1CE5
  8
0
  6
CONTINUOUS
 10
102.25
 20
3.2500000000000022
 30
0.0
 40
0.25
 50
180.0
 51
270.0
  0
LINE
  5
1CE6
  8
0
  6
CONTINUOUS
 10
107.0
 20
106.9999999999999005
 30
0.0
 11
107.0
 21
58.9999999999999929
 31
0.0
  0
ARC
  5
1CE7
  8
0
  6
CONTINUOUS
 10
106.0
 20
58.9999999999999929
 30
0.0
 40
1.0
 50
270.0
 51
0.0
  0
ARC
  5
1CE8
  8
0
  6
CONTINUOUS
 10
106.0
 20
106.9999999999999005
 30
0.0
 40
1.0
 50
0.0
 51
90.0
  0
LINE
  5
1CE9
  8
0
  6
CONTINUOUS
 10
106.0
 20
57.9999999999999929
 30
0.0
 11
98.0
 21
57.9999999999999929
 31
0.0
  0
ARC
  5
1CEA
  8
0
  6
CONTINUOUS
 10
98.0
 20
58.9999999999999929
 30
0.0
 40
1.0
 50
180.0
 51
270.0
  0
LINE
  5
1CEB
  8
0
  6
CONTINUOUS
 10
97.0
 20
58.9999999999999929
 30
0.0
 11
97.0
 21
106.9999999999999005
 31
0.0
  0
ARC
  5
1CEC
  8
0
  6
CONTINUOUS
 10
98.0
 20
106.9999999999999005
 30
0.0
 40
1.0
 50
90.0
 51
180.0
  0
LINE
  5
1CED
  8
0
  6
CONTINUOUS
 10
98.0
 20
107.9999999999999005
 30
0.0
 11
106.0
 21
107.9999999999999005
 31
0.0
  0
LINE
  5
1CEE
  8
0
  6
CONTINUOUS
 10
24.0
 20
124.9999999999999005
 30
0.0
 11
24.0
 21
89.2499999999999858
 31
0.0
  0
LINE
  5
1CEF
  8
0
 10
240.75
 20
211.0000000000001137
 30
0.0
 11
263.75
 21
211.0000000000001137
 31
0.0
  0
ARC
  5
1CF0
  8
0
 10
240.75
 20
211.2500000000001137
 30
0.0
 40
0.25
 50
180.0
 51
270.0
  0
ARC
  5
1CF1
  8
0
  6
CONTINUOUS
 10
180.0
 20
214.0000000000001137
 30
0.0
 40
3.0
 50
180.0
 51
270.0
  0
LINE
  5
1CF2
  8
0
 10
302.0
 20
237.5
 30
0.0
 11
302.0
 21
266.25
 31
0.0
  0
ARC
  5
1CF3
  8
0
  6
CONTINUOUS
 10
299.0
 20
237.5
 30
0.0
 40
3.0
 50
270.0
 51
0.0
  0
ARC
  5
1CF4
  8
0
  6
CONTINUOUS
 10
301.75
 20
266.25
 30
0.0
 40
0.25
 50
0.0
 51
90.0
  0
LINE
  5
1CF5
  8
0
 10
296.0
 20
302.0
 30
0.0
 11
150.0
 21
302.0
 31
0.0
  0
ARC
  5
1CF6
  8
0
 10
150.0
 20
296.0
 30
0.0
 40
6.0
 50
90.0
 51
180.0
  0
ARC
  5
1CF7
  8
0
 10
296.0
 20
296.0
 30
0.0
 40
6.0
 50
0.0
 51
90.0
  0
LINE
  5
1CF8
  8
0
 10
144.0
 20
296.0
 30
0.0
 11
144.0
 21
237.0
 31
0.0
  0
LINE
  5
1CF9
  8
0
 10
183.0
 20
216.25
 30
0.0
 11
183.0
 21
231.7500000000001137
 31
0.0
  0
ARC
  5
1CFA
  8
0
 10
182.75
 20
216.25
 30
0.0
 40
0.25
 50
270.0
 51
0.0
  0
LINE
  5
1CFB
  8
0
 10
182.75
 20
232.0000000000001137
 30
0.0
 11
149.0
 21
232.0000000000001137
 31
0.0
  0
ARC
  5
1CFC
  8
0
 10
149.0
 20
237.0
 30
0.0
 40
5.0
 50
180.0
 51
270.0
  0
ARC
  5
1CFD
  8
0
 10
182.75
 20
231.7500000000001137
 30
0.0
 40
0.25
 50
0.0
 51
90.0
  0
LINE
  5
1CFE
  8
0
 10
182.75
 20
216.0000000000001137
 30
0.0
 11
177.25
 21
216.0000000000001137
 31
0.0
  0
ARC
  5
1CFF
  8
0
  6
CONTINUOUS
 10
177.25
 20
215.7500000000001137
 30
0.0
 40
0.25
 50
90.0
 51
180.0
  0
LINE
  5
1D00
  8
0
 10
216.0
 20
211.2500000000001137
 30
0.0
 11
216.0
 21
221.7500000000001137
 31
0.0
  0
ARC
  5
1D01
  8
0
  6
CONTINUOUS
 10
215.75
 20
211.2500000000001137
 30
0.0
 40
0.25
 50
270.0
 51
0.0
  0
LINE
  5
1D02
  8
0
 10
240.5
 20
211.2500000000001137
 30
0.0
 11
240.5
 21
221.7500000000001137
 31
0.0
  0
LINE
  5
1D03
  8
0
 10
240.25
 20
222.0000000000001137
 30
0.0
 11
216.25
 21
222.0000000000001137
 31
0.0
  0
LINE
  5
1D04
  8
0
 10
251.25
 20
227.0
 30
0.0
 11
220.75
 21
227.0
 31
0.0
  0
LINE
  5
1D05
  8
0
 10
218.25
 20
227.0
 30
0.0
 11
214.25
 21
227.0
 31
0.0
  0
ARC
  5
1D06
  8
0
  6
CONTINUOUS
 10
218.25
 20
227.25
 30
0.0
 40
0.25
 50
270.0
 51
0.0
  0
LINE
  5
1D07
  8
0
 10
205.75
 20
227.0
 30
0.0
 11
199.25
 21
227.0
 31
0.0
  0
ARC
  5
1D08
  8
0
 10
199.25
 20
226.75
 30
0.0
 40
0.25
 50
90.0
 51
180.0
  0
ARC
  5
1D09
  8
0
 10
240.25
 20
221.7500000000001137
 30
0.0
 40
0.25
 50
0.0
 51
90.0
  0
ARC
  5
1D0A
  8
0
 10
216.25
 20
221.7500000000001137
 30
0.0
 40
0.25
 50
90.0
 51
180.0
  0
LINE
  5
1D0B
  8
0
  6
CONTINUOUS
 10
177.0
 20
215.7500000000001137
 30
0.0
 11
177.0
 21
214.0000000000001137
 31
0.0
  0
LINE
  5
1D0C
  8
0
  6
CONTINUOUS
 10
302.0
 20
296.0
 30
0.0
 11
302.0
 21
289.25
 31
0.0
  0
LINE
  5
1D0D
  8
0
  6
CONTINUOUS
 10
180.0
 20
211.0000000000001137
 30
0.0
 11
215.75
 21
211.0000000000001137
 31
0.0
  0
CIRCLE
  5
1D0E
  8
0
  6
CONTINUOUS
 10
295.5
 20
237.5
 30
0.0
 40
1.5749999999999991
  0
ARC
  5
1D0F
  8
0
 10
184.5
 20
268.5
 30
0.0
 40
1.0
 50
180.0
 51
270.0
  0
LINE
  5
1D10
  8
0
  6
CONTINUOUS
 10
198.0
 20
284.0000000000001137
 30
0.0
 11
246.0
 21
284.0000000000001137
 31
0.0
  0
ARC
  5
1D11
  8
0
  6
CONTINUOUS
 10
246.0
 20
285.0000000000001137
 30
0.0
 40
1.0
 50
270.0
 51
0.0
  0
ARC
  5
1D12
  8
0
  6
CONTINUOUS
 10
198.0
 20
285.0000000000001137
 30
0.0
 40
1.0
 50
180.0
 51
270.0
  0
LINE
  5
1D13
  8
0
  6
CONTINUOUS
 10
184.5
 20
279.0
 30
0.0
 11
245.5
 21
279.0
 31
0.0
  0
ARC
  5
1D14
  8
0
  6
CONTINUOUS
 10
245.5
 20
278.0000000000001137
 30
0.0
 40
1.0
 50
0.0
 51
90.0
  0
ARC
  5
1D15
  8
0
  6
CONTINUOUS
 10
184.5
 20
278.0000000000001137
 30
0.0
 40
1.0
 50
90.0
 51
180.0
  0
LINE
  5
1D16
  8
0
  6
CONTINUOUS
 10
198.0
 20
294.0000000000001137
 30
0.0
 11
246.0
 21
294.0000000000001137
 31
0.0
  0
ARC
  5
1D17
  8
0
  6
CONTINUOUS
 10
198.0
 20
293.0000000000001137
 30
0.0
 40
1.0
 50
90.0
 51
180.0
  0
LINE
  5
1D18
  8
0
  6
CONTINUOUS
 10
247.0
 20
293.0000000000001137
 30
0.0
 11
247.0
 21
285.0000000000001137
 31
0.0
  0
ARC
  5
1D19
  8
0
  6
CONTINUOUS
 10
246.0
 20
293.0000000000001137
 30
0.0
 40
1.0
 50
0.0
 51
90.0
  0
LINE
  5
1D1A
  8
0
  6
CONTINUOUS
 10
197.0
 20
285.0000000000001137
 30
0.0
 11
197.0
 21
293.0000000000001137
 31
0.0
  0
ARC
  5
1D1B
  8
0
  6
CONTINUOUS
 10
150.5
 20
295.5
 30
0.0
 40
3.0
 50
270.0
 51
0.0
  0
ARC
  5
1D1C
  8
0
  6
CONTINUOUS
 10
173.5
 20
295.5
 30
0.0
 40
3.0
 50
180.0
 51
0.0
  0
LINE
  5
1D1D
  8
0
  6
CONTINUOUS
 10
154.5
 20
298.5000000000001137
 30
0.0
 11
169.5
 21
298.5000000000001137
 31
0.0
  0
ARC
  5
1D1E
  8
0
  6
CONTINUOUS
 10
154.5
 20
297.5000000000001137
 30
0.0
 40
1.0
 50
90.0
 51
180.0
  0
ARC
  5
1D1F
  8
0
  6
CONTINUOUS
 10
169.5
 20
297.5000000000001137
 30
0.0
 40
1.0
 50
0.0
 51
90.0
  0
LINE
  5
1D20
  8
0
  6
CONTINUOUS
 10
177.5
 20
298.5000000000001137
 30
0.0
 11
192.5
 21
298.5000000000001137
 31
0.0
  0
ARC
  5
1D21
  8
0
  6
CONTINUOUS
 10
177.5
 20
297.5000000000001137
 30
0.0
 40
1.0
 50
90.0
 51
180.0
  0
CIRCLE
  5
1D22
  8
0
  6
CONTINUOUS
 10
173.5
 20
237.5
 30
0.0
 40
1.5749999999999991
  0
ARC
  5
1D23
  8
0
  6
CONTINUOUS
 10
173.5
 20
237.5
 30
0.0
 40
3.0
 50
0.0
 51
180.0
  0
CIRCLE
  5
1D24
  8
0
  6
CONTINUOUS
 10
150.5
 20
237.5
 30
0.0
 40
1.575
  0
ARC
  5
1D25
  8
0
  6
CONTINUOUS
 10
150.5
 20
237.5
 30
0.0
 40
3.0
 50
0.0
 51
90.0
  0
LINE
  5
1D26
  8
0
  6
CONTINUOUS
 10
177.5
 20
235.5
 30
0.0
 11
181.0
 21
235.5
 31
0.0
  0
ARC
  5
1D27
  8
0
  6
CONTINUOUS
 10
177.5
 20
236.5000000000001137
 30
0.0
 40
1.0
 50
180.0
 51
270.0
  0
LINE
  5
1D28
  8
0
  6
CONTINUOUS
 10
150.5
 20
292.5000000000001137
 30
0.0
 11
150.0
 21
292.5000000000001137
 31
0.0
  0
ARC
  5
1D29
  8
0
  6
CONTINUOUS
 10
150.0
 20
291.5
 30
0.0
 40
1.0
 50
90.0
 51
180.0
  0
LINE
  5
1D2A
  8
0
  6
CONTINUOUS
 10
153.5
 20
295.5
 30
0.0
 11
153.5
 21
297.5000000000001137
 31
0.0
  0
LINE
  5
1D2B
  8
0
  6
CONTINUOUS
 10
170.5
 20
295.5
 30
0.0
 11
170.5
 21
297.5000000000001137
 31
0.0
  0
LINE
  5
1D2C
  8
0
  6
CONTINUOUS
 10
176.5
 20
295.5
 30
0.0
 11
176.5
 21
297.5000000000001137
 31
0.0
  0
LINE
  5
1D2D
  8
0
  6
CONTINUOUS
 10
182.0
 20
236.5000000000001137
 30
0.0
 11
182.0
 21
245.0000000000001137
 31
0.0
  0
ARC
  5
1D2E
  8
0
  6
CONTINUOUS
 10
181.0
 20
236.5000000000001137
 30
0.0
 40
1.0
 50
270.0
 51
0.0
  0
LINE
  5
1D2F
  8
0
  6
CONTINUOUS
 10
185.0
 20
222.2500000000001137
 30
0.0
 11
185.0
 21
246.5000000000001137
 31
0.0
  0
ARC
  5
1D30
  8
0
  6
CONTINUOUS
 10
184.0
 20
246.5000000000001137
 30
0.0
 40
1.0
 50
0.0
 51
90.0
  0
LINE
  5
1D31
  8
0
  6
CONTINUOUS
 10
177.5399999999999068
 20
246.0
 30
0.0
 11
181.0
 21
246.0
 31
0.0
  0
ARC
  5
1D32
  8
0
  6
CONTINUOUS
 10
181.0
 20
245.0000000000001137
 30
0.0
 40
1.0
 50
0.0
 51
90.0
  0
LINE
  5
1D33
  8
0
  6
CONTINUOUS
 10
153.5
 20
237.5
 30
0.0
 11
153.5
 21
236.5000000000001137
 31
0.0
  0
LINE
  5
1D34
  8
0
  6
CONTINUOUS
 10
150.5
 20
240.5000000000001137
 30
0.0
 11
150.0
 21
240.5000000000001137
 31
0.0
  0
LINE
  5
1D35
  8
0
  6
CONTINUOUS
 10
170.5
 20
237.5
 30
0.0
 11
170.5
 21
236.5000000000001137
 31
0.0
  0
LINE
  5
1D36
  8
0
  6
CONTINUOUS
 10
176.5
 20
237.5
 30
0.0
 11
176.5
 21
236.5000000000001137
 31
0.0
  0
LINE
  5
1D37
  8
0
  6
CONTINUOUS
 10
27.0
 20
39.75
 30
0.0
 11
27.0
 21
40.7499999999999929
 31
0.0
  0
LINE
  5
1D38
  8
0
  6
CONTINUOUS
 10
26.75
 20
40.9999999999999929
 30
0.0
 11
24.25
 21
40.9999999999999929
 31
0.0
  0
ARC
  5
1D39
  8
0
  6
CONTINUOUS
 10
26.75
 20
40.7499999999999929
 30
0.0
 40
0.25
 50
0.0
 51
90.0
  0
ARC
  5
1D3A
  8
0
  6
CONTINUOUS
 10
24.25
 20
41.2499999999999929
 30
0.0
 40
0.25
 50
180.0
 51
270.0
  0
LINE
  5
1D3B
  8
0
  6
CONTINUOUS
 10
27.0
 20
32.25
 30
0.0
 11
27.0
 21
30.25
 31
0.0
  0
LINE
  5
1D3C
  8
0
  6
CONTINUOUS
 10
177.5399999999999068
 20
267.5000000000001137
 30
0.0
 11
181.5
 21
267.5000000000001137
 31
0.0
  0
ARC
  5
1D3D
  8
0
  6
CONTINUOUS
 10
290.5
 20
263.5000000000001137
 30
0.0
 40
1.0
 50
270.0
 51
0.0
  0
LINE
  5
1D3E
  8
0
  6
CONTINUOUS
 10
290.5
 20
262.5
 30
0.0
 11
264.0
 21
262.5
 31
0.0
  0
LINE
  5
1D3F
  8
0
  6
CONTINUOUS
 10
250.0
 20
267.5000000000001137
 30
0.0
 11
262.0
 21
267.5000000000001137
 31
0.0
  0
LINE
  5
1D40
  8
0
  6
CONTINUOUS
 10
293.5
 20
234.5000000000001137
 30
0.0
 11
299.0
 21
234.5000000000001137
 31
0.0
  0
ARC
  5
1D41
  8
0
  6
CONTINUOUS
 10
293.5
 20
237.5
 30
0.0
 40
3.0
 50
180.0
 51
270.0
  0
ARC
  5
1D42
  8
0
  6
CONTINUOUS
 10
262.0
 20
266.5
 30
0.0
 40
1.0
 50
0.0
 51
90.0
  0
ARC
  5
1D43
  8
0
  6
CONTINUOUS
 10
250.0
 20
268.5
 30
0.0
 40
1.0
 50
180.0
 51
270.0
  0
ARC
  5
1D44
  8
0
  6
CONTINUOUS
 10
272.75
 20
214.25
 30
0.0
 40
0.25
 50
180.0
 51
270.0
  0
LINE
  5
1D45
  8
0
  6
CONTINUOUS
 10
264.0
 20
213.7500000000001137
 30
0.0
 11
264.0
 21
211.2500000000001137
 31
0.0
  0
ARC
  5
1D46
  8
0
  6
CONTINUOUS
 10
263.75
 20
211.2500000000001137
 30
0.0
 40
0.25
 50
270.0
 51
0.0
  0
LINE
  5
1D47
  8
0
  6
CONTINUOUS
 10
262.25
 20
222.5
 30
0.0
 11
265.25
 21
222.5
 31
0.0
  0
ARC
  5
1D48
  8
0
  6
CONTINUOUS
 10
262.25
 20
222.75
 30
0.0
 40
0.25
 50
180.0
 51
270.0
  0
LINE
  5
1D49
  8
0
  6
CONTINUOUS
 10
262.0
 20
233.25
 30
0.0
 11
262.0
 21
222.75
 31
0.0
  0
ARC
  5
1D4A
  8
0
  6
CONTINUOUS
 10
262.25
 20
233.25
 30
0.0
 40
0.25
 50
90.0
 51
180.0
  0
LINE
  5
1D4B
  8
0
  6
CONTINUOUS
 10
265.5
 20
231.25
 30
0.0
 11
265.5
 21
233.25
 31
0.0
  0
ARC
  5
1D4C
  8
0
  6
CONTINUOUS
 10
265.75
 20
231.25
 30
0.0
 40
0.25
 50
180.0
 51
270.0
  0
LINE
  5
1D4D
  8
0
  6
CONTINUOUS
 10
265.25
 20
233.5
 30
0.0
 11
262.25
 21
233.5
 31
0.0
  0
ARC
  5
1D4E
  8
0
  6
CONTINUOUS
 10
265.25
 20
233.25
 30
0.0
 40
0.25
 50
0.0
 51
90.0
  0
LINE
  5
1D4F
  8
0
 10
206.0
 20
226.75
 30
0.0
 11
206.0
 21
220.75
 31
0.0
  0
LINE
  5
1D50
  8
0
  6
CONTINUOUS
 10
270.0
 20
235.7500000000001137
 30
0.0
 11
270.0
 21
232.7500000000001137
 31
0.0
  0
LINE
  5
1D51
  8
0
  6
CONTINUOUS
 10
265.25
 20
214.0000000000001137
 30
0.0
 11
264.25
 21
214.0000000000001137
 31
0.0
  0
ARC
  5
1D52
  8
0
  6
CONTINUOUS
 10
265.25
 20
214.25
 30
0.0
 40
0.25
 50
270.0
 51
0.0
  0
LINE
  5
1D53
  8
0
  6
CONTINUOUS
 10
272.75
 20
214.0000000000001137
 30
0.0
 11
274.75
 21
214.0000000000001137
 31
0.0
  0
ARC
  5
1D54
  8
0
  6
CONTINUOUS
 10
265.25
 20
222.2500000000001137
 30
0.0
 40
0.25
 50
0.0
 51
90.0
  0
ARC
  5
1D55
  8
0
  6
CONTINUOUS
 10
264.25
 20
213.7500000000001137
 30
0.0
 40
0.25
 50
90.0
 51
180.0
  0
LINE
  5
1D56
  8
0
  6
CONTINUOUS
 10
218.5
 20
227.25
 30
0.0
 11
218.5
 21
243.0857864376270072
 31
0.0
  0
ARC
  5
1D57
  8
0
  6
CONTINUOUS
 10
217.5
 20
243.0857864376270072
 30
0.0
 40
1.0
 50
0.0
 51
44.9999999999996305
  0
LINE
  5
1D58
  8
0
  6
CONTINUOUS
 10
265.5
 20
214.25
 30
0.0
 11
265.5
 21
222.2500000000001137
 31
0.0
  0
LINE
  5
1D59
  8
0
  6
CONTINUOUS
 10
220.5
 20
227.25
 30
0.0
 11
220.5
 21
243.9142135623731917
 31
0.0
  0
ARC
  5
1D5A
  8
0
  6
CONTINUOUS
 10
219.5
 20
243.9142135623731917
 30
0.0
 40
1.0
 50
0.0
 51
44.9999999999996305
  0
ARC
  5
1D5B
  8
0
 10
214.25
 20
226.75
 30
0.0
 40
0.25
 50
90.0
 51
180.0
  0
ARC
  5
1D5C
  8
0
  6
CONTINUOUS
 10
220.75
 20
227.25
 30
0.0
 40
0.25
 50
180.0
 51
270.0
  0
LINE
  5
1D5D
  8
0
  6
CONTINUOUS
 10
291.5
 20
282.0000000000001137
 30
0.0
 11
291.5
 21
263.5000000000001137
 31
0.0
  0
ARC
  5
1D5E
  8
0
 10
205.75
 20
226.75
 30
0.0
 40
0.25
 50
0.0
 51
90.0
  0
LINE
  5
1D5F
  8
0
  6
CONTINUOUS
 10
218.2071067811864964
 20
243.7928932188135036
 30
0.0
 11
209.7928932188135036
 21
252.2071067811866101
 31
0.0
  0
LINE
  5
1D60
  8
0
  6
CONTINUOUS
 10
220.2071067811866101
 20
244.6213203435596881
 30
0.0
 11
216.7928932188133899
 21
248.0355339059327946
 31
0.0
  0
ARC
  5
1D61
  8
0
  6
CONTINUOUS
 10
217.5
 20
248.7426406871194047
 30
0.0
 40
1.0
 50
180.0
 51
224.9999999999996021
  0
ARC
  5
1D62
  8
0
 10
184.75
 20
217.7500000000001137
 30
0.0
 40
0.25
 50
90.0
 51
180.0
  0
ARC
  5
1D63
  8
0
 10
197.75
 20
217.7500000000001137
 30
0.0
 40
0.25
 50
0.0
 51
90.0
  0
LINE
  5
1D64
  8
0
 10
199.75
 20
218.0000000000001137
 30
0.0
 11
213.25
 21
218.0000000000001137
 31
0.0
  0
LINE
  5
1D65
  8
0
 10
184.75
 20
218.0000000000001137
 30
0.0
 11
197.75
 21
218.0000000000001137
 31
0.0
  0
ARC
  5
1D66
  8
0
 10
199.75
 20
217.7500000000001137
 30
0.0
 40
0.25
 50
90.0
 51
180.0
  0
ARC
  5
1D67
  8
0
 10
213.25
 20
217.7500000000001137
 30
0.0
 40
0.25
 50
0.0
 51
90.0
  0
ARC
  5
1D68
  8
0
  6
CONTINUOUS
 10
301.75
 20
289.25
 30
0.0
 40
0.25
 50
270.0
 51
0.0
  0
ARC
  5
1D69
  8
0
  6
CONTINUOUS
 10
292.75
 20
288.7500000000001137
 30
0.0
 40
0.25
 50
90.0
 51
180.0
  0
LINE
  5
1D6A
  8
0
 10
199.75
 20
214.5
 30
0.0
 11
213.25
 21
214.5
 31
0.0
  0
LINE
  5
1D6B
  8
0
 10
184.75
 20
214.5
 30
0.0
 11
197.75
 21
214.5
 31
0.0
  0
LINE
  5
1D6C
  8
0
 10
185.25
 20
222.0000000000001137
 30
0.0
 11
198.75
 21
222.0000000000001137
 31
0.0
  0
LINE
  5
1D6D
  8
0
 10
199.0
 20
222.2500000000001137
 30
0.0
 11
199.0
 21
226.75
 31
0.0
  0
ARC
  5
1D6E
  8
0
 10
198.75
 20
222.2500000000001137
 30
0.0
 40
0.25
 50
270.0
 51
0.0
  0
ARC
  5
1D6F
  8
0
 10
185.25
 20
222.2500000000001137
 30
0.0
 40
0.25
 50
180.0
 51
270.0
  0
LINE
  5
1D70
  8
0
 10
213.5
 20
214.75
 30
0.0
 11
213.5
 21
217.7500000000001137
 31
0.0
  0
ARC
  5
1D71
  8
0
  6
CONTINUOUS
 10
250.0
 20
281.5000000000001137
 30
0.0
 40
1.0
 50
90.0
 51
180.0
  0
ARC
  5
1D72
  8
0
 10
213.25
 20
214.75
 30
0.0
 40
0.25
 50
270.0
 51
0.0
  0
LINE
  5
1D73
  8
0
 10
199.5
 20
214.75
 30
0.0
 11
199.5
 21
217.7500000000001137
 31
0.0
  0
ARC
  5
1D74
  8
0
 10
199.75
 20
214.75
 30
0.0
 40
0.25
 50
180.0
 51
270.0
  0
LINE
  5
1D75
  8
0
 10
198.0
 20
214.75
 30
0.0
 11
198.0
 21
217.7500000000001137
 31
0.0
  0
ARC
  5
1D76
  8
0
 10
197.75
 20
214.75
 30
0.0
 40
0.25
 50
270.0
 51
0.0
  0
LINE
  5
1D77
  8
0
 10
184.5
 20
214.75
 30
0.0
 11
184.5
 21
217.7500000000001137
 31
0.0
  0
ARC
  5
1D78
  8
0
 10
184.75
 20
214.75
 30
0.0
 40
0.25
 50
180.0
 51
270.0
  0
LINE
  5
1D79
  8
0
 10
206.25
 20
220.5
 30
0.0
 11
213.75
 21
220.5
 31
0.0
  0
ARC
  5
1D7A
  8
0
 10
213.75
 20
220.75
 30
0.0
 40
0.25
 50
270.0
 51
0.0
  0
LINE
  5
1D7B
  8
0
 10
214.0
 20
220.75
 30
0.0
 11
214.0
 21
226.75
 31
0.0
  0
LINE
  5
1D7C
  8
0
  6
CONTINUOUS
 10
292.75
 20
289.0
 30
0.0
 11
301.75
 21
289.0
 31
0.0
  0
LINE
  5
1D7D
  8
0
  6
CONTINUOUS
 10
250.0
 20
282.5000000000001137
 30
0.0
 11
285.75
 21
282.5000000000001137
 31
0.0
  0
ARC
  5
1D7E
  8
0
  6
CONTINUOUS
 10
285.75
 20
282.75
 30
0.0
 40
0.25
 50
270.0
 51
0.0
  0
ARC
  5
1D7F
  8
0
 10
206.25
 20
220.75
 30
0.0
 40
0.25
 50
180.0
 51
270.0
  0
LINE
  5
1D80
  8
0
  6
CONTINUOUS
 10
292.5
 20
288.7500000000001137
 30
0.0
 11
292.5
 21
266.75
 31
0.0
  0
ARC
  5
1D81
  8
0
  6
CONTINUOUS
 10
292.75
 20
266.75
 30
0.0
 40
0.25
 50
180.0
 51
270.0
  0
LINE
  5
1D82
  8
0
  6
CONTINUOUS
 10
102.0
 20
12.25
 30
0.0
 11
102.0
 21
3.2500000000000022
 31
0.0
  0
ARC
  5
1D83
  8
0
  6
CONTINUOUS
 10
290.5
 20
282.0000000000001137
 30
0.0
 40
1.0
 50
0.0
 51
90.0
  0
ARC
  5
1D84
  8
0
  6
CONTINUOUS
 10
101.75
 20
12.25
 30
0.0
 40
0.25
 50
0.0
 51
90.0
  0
LINE
  5
1D85
  8
0
  6
CONTINUOUS
 10
292.75
 20
266.5
 30
0.0
 11
301.75
 21
266.5
 31
0.0
  0
ARC
  5
1D86
  8
0
  6
CONTINUOUS
 10
79.75
 20
12.25
 30
0.0
 40
0.25
 50
90.0
 51
180.0
  0
LINE
  5
1D87
  8
0
  6
CONTINUOUS
 10
101.75
 20
12.5
 30
0.0
 11
79.75
 21
12.5
 31
0.0
  0
LINE
  5
1D88
  8
0
  6
CONTINUOUS
 10
79.5
 20
12.25
 30
0.0
 11
79.5
 21
3.2500000000000022
 31
0.0
  0
LINE
  5
1D89
  8
0
  6
CONTINUOUS
 10
288.1000000000000227
 20
295.6000000000000796
 30
0.0
 11
274.25
 21
295.6000000000000796
 31
0.0
  0
ARC
  5
1D8A
  8
0
  6
CONTINUOUS
 10
274.25
 20
295.8500000000000796
 30
0.0
 40
0.25
 50
180.0
 51
270.0
  0
LINE
  5
1D8B
  8
0
  6
CONTINUOUS
 10
274.0
 20
295.8500000000000796
 30
0.0
 11
274.0
 21
295.8500000000000796
 31
0.0
  0
ARC
  5
1D8C
  8
0
  6
CONTINUOUS
 10
273.75
 20
295.8500000000000796
 30
0.0
 40
0.25
 50
0.0
 51
90.0
  0
LINE
  5
1D8D
  8
0
  6
CONTINUOUS
 10
273.75
 20
296.1000000000000796
 30
0.0
 11
267.75
 21
296.1000000000000796
 31
0.0
  0
ARC
  5
1D8E
  8
0
  6
CONTINUOUS
 10
267.75
 20
295.8500000000000796
 30
0.0
 40
0.25
 50
90.0
 51
180.0
  0
LINE
  5
1D8F
  8
0
  6
CONTINUOUS
 10
267.5
 20
295.8500000000000796
 30
0.0
 11
267.5
 21
295.8500000000000796
 31
0.0
  0
ARC
  5
1D90
  8
0
  6
CONTINUOUS
 10
267.25
 20
295.8500000000000796
 30
0.0
 40
0.25
 50
270.0
 51
0.0
  0
LINE
  5
1D91
  8
0
  6
CONTINUOUS
 10
267.25
 20
295.6000000000000796
 30
0.0
 11
257.8999999999999773
 21
295.6000000000000796
 31
0.0
  0
LINE
  5
1D92
  8
0
  6
CONTINUOUS
 10
257.8999999999999773
 20
283.8999999999999773
 30
0.0
 11
267.25
 21
283.8999999999999773
 31
0.0
  0
LINE
  5
1D93
  8
0
  6
CONTINUOUS
 10
267.5
 20
283.6499999999999773
 30
0.0
 11
267.5
 21
283.6499999999999773
 31
0.0
  0
ARC
  5
1D94
  8
0
  6
CONTINUOUS
 10
267.25
 20
283.6499999999999773
 30
0.0
 40
0.25
 50
0.0
 51
90.0
  0
LINE
  5
1D95
  8
0
  6
CONTINUOUS
 10
267.75
 20
283.4000000000000909
 30
0.0
 11
273.75
 21
283.4000000000000909
 31
0.0
  0
ARC
  5
1D96
  8
0
  6
CONTINUOUS
 10
267.75
 20
283.6499999999999773
 30
0.0
 40
0.25
 50
180.0
 51
270.0
  0
LINE
  5
1D97
  8
0
  6
CONTINUOUS
 10
274.0
 20
283.6499999999999773
 30
0.0
 11
274.0
 21
283.6499999999999773
 31
0.0
  0
ARC
  5
1D98
  8
0
  6
CONTINUOUS
 10
273.75
 20
283.6499999999999773
 30
0.0
 40
0.25
 50
270.0
 51
0.0
  0
LINE
  5
1D99
  8
0
  6
CONTINUOUS
 10
274.25
 20
283.8999999999999773
 30
0.0
 11
288.1000000000000227
 21
283.8999999999999773
 31
0.0
  0
ARC
  5
1D9A
  8
0
  6
CONTINUOUS
 10
274.25
 20
283.6499999999999773
 30
0.0
 40
0.25
 50
90.0
 51
180.0
  0
LINE
  5
1D9B
  8
0
  6
CONTINUOUS
 10
288.1000000000000227
 20
283.8999999999999773
 30
0.0
 11
288.1000000000000227
 21
295.6000000000000796
 31
0.0
  0
LINE
  5
1D9C
  8
0
  6
CONTINUOUS
 10
257.8999999999999773
 20
283.8999999999999773
 30
0.0
 11
257.8999999999999773
 21
285.5
 31
0.0
  0
LINE
  5
1D9D
  8
0
  6
CONTINUOUS
 10
257.8999999999999773
 20
285.5
 30
0.0
 11
256.1035533905932198
 21
285.5
 31
0.0
  0
LINE
  5
1D9E
  8
0
  6
CONTINUOUS
 10
255.9267766952966952
 20
285.5732233047033901
 30
0.0
 11
255.0732233047033048
 21
286.4267766952967236
 31
0.0
  0
ARC
  5
1D9F
  8
0
  6
CONTINUOUS
 10
256.1035533905932198
 20
285.7500000000001137
 30
0.0
 40
0.25
 50
224.9999999999996021
 51
270.0
  0
LINE
  5
1DA0
  8
0
  6
CONTINUOUS
 10
254.896446609406695
 20
286.5000000000001137
 30
0.0
 11
252.0
 21
286.5000000000001137
 31
0.0
  0
ARC
  5
1DA1
  8
0
  6
CONTINUOUS
 10
254.896446609406695
 20
286.2500000000001137
 30
0.0
 40
0.25
 50
44.9999999999996305
 51
90.0
  0
LINE
  5
1DA2
  8
0
  6
CONTINUOUS
 10
252.0
 20
286.5000000000001137
 30
0.0
 11
252.0
 21
293.0000000000001137
 31
0.0
  0
LINE
  5
1DA3
  8
0
  6
CONTINUOUS
 10
252.0
 20
293.0000000000001137
 30
0.0
 11
254.896446609406695
 21
293.0000000000001137
 31
0.0
  0
LINE
  5
1DA4
  8
0
  6
CONTINUOUS
 10
255.0732233047033048
 20
293.0732233047033901
 30
0.0
 11
256.9267766952967236
 21
294.9267766952967236
 31
0.0
  0
ARC
  5
1DA5
  8
0
  6
CONTINUOUS
 10
254.896446609406695
 20
293.25
 30
0.0
 40
0.25
 50
270.0
 51
315.0000000000002842
  0
ARC
  5
1DA6
  8
0
  6
CONTINUOUS
 10
257.1035533905932198
 20
294.7500000000001137
 30
0.0
 40
0.25
 50
90.0
 51
135.0000000000003126
  0
LINE
  5
1DA7
  8
0
  6
CONTINUOUS
 10
257.1035533905932198
 20
295.0000000000001137
 30
0.0
 11
257.8999999999999773
 21
295.0000000000001137
 31
0.0
  0
LINE
  5
1DA8
  8
0
  6
CONTINUOUS
 10
257.8999999999999773
 20
295.0000000000001137
 30
0.0
 11
257.8999999999999773
 21
295.6000000000000796
 31
0.0
  0
LINE
  5
1DA9
  8
0
  6
CONTINUOUS
 10
275.0
 20
214.25
 30
0.0
 11
275.0
 21
222.0000000000001137
 31
0.0
  0
ARC
  5
1DAA
  8
0
  6
CONTINUOUS
 10
274.75
 20
214.25
 30
0.0
 40
0.25
 50
270.0
 51
0.0
  0
ARC
  5
1DAB
  8
0
  6
CONTINUOUS
 10
274.75
 20
222.0000000000001137
 30
0.0
 40
0.25
 50
0.0
 51
90.0
  0
LINE
  5
1DAC
  8
0
  6
CONTINUOUS
 10
274.75
 20
222.2500000000001137
 30
0.0
 11
274.75
 21
222.2500000000001137
 31
0.0
  0
LINE
  5
1DAD
  8
0
  6
CONTINUOUS
 10
290.5
 20
283.0
 30
0.0
 11
286.25
 21
283.0
 31
0.0
  0
ARC
  5
1DAE
  8
0
  6
CONTINUOUS
 10
286.25
 20
282.75
 30
0.0
 40
0.25
 50
90.0
 51
180.0
  0
LINE
  5
1DAF
  8
0
  6
CONTINUOUS
 10
286.0
 20
282.75
 30
0.0
 11
286.0
 21
282.75
 31
0.0
  0
LINE
  5
1DB0
  8
0
  6
CONTINUOUS
 10
263.5
 20
257.5000000000001137
 30
0.0
 11
263.5
 21
236.2500000000001137
 31
0.0
  0
ARC
  5
1DB1
  8
0
  6
CONTINUOUS
 10
262.5
 20
257.5000000000001137
 30
0.0
 40
1.0
 50
0.0
 51
90.0
  0
ARC
  5
1DB2
  8
0
  6
CONTINUOUS
 10
263.25
 20
236.2500000000001137
 30
0.0
 40
0.25
 50
270.0
 51
0.0
  0
LINE
  5
1DB3
  8
0
  6
CONTINUOUS
 10
265.0
 20
257.5000000000001137
 30
0.0
 11
265.0
 21
237.7500000000001137
 31
0.0
  0
LINE
  5
1DB4
  8
0
  6
CONTINUOUS
 10
276.25
 20
236.0000000000001137
 30
0.0
 11
270.25
 21
236.0000000000001137
 31
0.0
  0
ARC
  5
1DB5
  8
0
  6
CONTINUOUS
 10
270.25
 20
235.7500000000001137
 30
0.0
 40
0.25
 50
90.0
 51
180.0
  0
ARC
  5
1DB6
  8
0
  6
CONTINUOUS
 10
35.5
 20
30.25
 30
0.0
 40
0.25
 50
90.0
 51
180.0
  0
LINE
  5
1DB7
  8
0
  6
CONTINUOUS
 10
47.5
 20
11.5
 30
0.0
 11
47.5
 21
6.0
 31
0.0
  0
LINE
  5
1DB8
  8
0
  6
CONTINUOUS
 10
276.5
 20
234.7500000000001137
 30
0.0
 11
276.5
 21
235.7500000000001137
 31
0.0
  0
ARC
  5
1DB9
  8
0
  6
CONTINUOUS
 10
50.5
 20
11.5
 30
0.0
 40
3.0
 50
90.0
 51
180.0
  0
CIRCLE
  5
1DBA
  8
0
  6
CONTINUOUS
 10
295.5
 20
295.5
 30
0.0
 40
1.574999999999988
  0
LINE
  5
1DBB
  8
0
  6
CONTINUOUS
 10
289.5
 20
239.0000000000001137
 30
0.0
 11
283.5
 21
239.0000000000001137
 31
0.0
  0
ARC
  5
1DBC
  8
0
  6
CONTINUOUS
 10
283.5
 20
238.0000000000001137
 30
0.0
 40
1.0
 50
90.0
 51
180.0
  0
LINE
  5
1DBD
  8
0
  6
CONTINUOUS
 10
297.5
 20
240.5000000000001137
 30
0.0
 11
280.75
 21
240.5000000000001137
 31
0.0
  0
LINE
  5
1DBE
  8
0
  6
CONTINUOUS
 10
280.25
 20
237.5
 30
0.0
 11
265.25
 21
237.5
 31
0.0
  0
ARC
  5
1DBF
  8
0
  6
CONTINUOUS
 10
280.25
 20
237.7500000000001137
 30
0.0
 40
0.25
 50
270.0
 51
0.0
  0
ARC
  5
1DC0
  8
0
  6
CONTINUOUS
 10
265.25
 20
237.7500000000001137
 30
0.0
 40
0.25
 50
180.0
 51
270.0
  0
LINE
  5
1DC1
  8
0
  6
CONTINUOUS
 10
282.5
 20
238.0000000000001137
 30
0.0
 11
282.5
 21
237.5
 31
0.0
  0
ARC
  5
1DC2
  8
0
  6
CONTINUOUS
 10
279.5
 20
237.5
 30
0.0
 40
3.0
 50
270.0
 51
0.0
  0
LINE
  5
1DC3
  8
0
  6
CONTINUOUS
 10
280.5
 20
240.2500000000001137
 30
0.0
 11
280.5
 21
237.7500000000001137
 31
0.0
  0
ARC
  5
1DC4
  8
0
  6
CONTINUOUS
 10
280.75
 20
240.2500000000001137
 30
0.0
 40
0.25
 50
90.0
 51
180.0
  0
LINE
  5
1DC5
  8
0
 10
46.5
 20
30.5
 30
0.0
 11
35.5
 21
30.5
 31
0.0
  0
ARC
  5
1DC6
  8
0
  6
CONTINUOUS
 10
46.5
 20
29.5
 30
0.0
 40
1.0
 50
0.0
 51
90.0
  0
LINE
  5
1DC7
  8
0
  6
CONTINUOUS
 10
27.25
 20
30.0
 30
0.0
 11
35.0
 21
30.0
 31
0.0
  0
ARC
  5
1DC8
  8
0
  6
CONTINUOUS
 10
27.25
 20
30.25
 30
0.0
 40
0.25
 50
180.0
 51
270.0
  0
ARC
  5
1DC9
  8
0
  6
CONTINUOUS
 10
35.0
 20
30.25
 30
0.0
 40
0.25
 50
270.0
 51
0.0
  0
LINE
  5
1DCA
  8
0
  6
CONTINUOUS
 10
35.25
 20
30.25
 30
0.0
 11
35.25
 21
30.25
 31
0.0
  0
LINE
  5
1DCB
  8
0
  6
CONTINUOUS
 10
290.5
 20
238.0000000000001137
 30
0.0
 11
290.5
 21
237.5
 31
0.0
  0
ARC
  5
1DCC
  8
0
  6
CONTINUOUS
 10
289.5
 20
238.0000000000001137
 30
0.0
 40
1.0
 50
0.0
 51
90.0
  0
LINE
  5
1DCD
  8
0
  6
CONTINUOUS
 10
279.5
 20
234.5000000000001137
 30
0.0
 11
276.75
 21
234.5000000000001137
 31
0.0
  0
ARC
  5
1DCE
  8
0
  6
CONTINUOUS
 10
276.75
 20
234.7500000000001137
 30
0.0
 40
0.25
 50
180.0
 51
270.0
  0
ARC
  5
1DCF
  8
0
  6
CONTINUOUS
 10
276.25
 20
235.7500000000001137
 30
0.0
 40
0.25
 50
0.0
 51
90.0
  0
LINE
  5
1DD0
  8
0
  6
CONTINUOUS
 10
52.0
 20
15.5
 30
0.0
 11
52.0
 21
21.5
 31
0.0
  0
ARC
  5
1DD1
  8
0
  6
CONTINUOUS
 10
51.0
 20
21.5
 30
0.0
 40
1.0
 50
0.0
 51
90.0
  0
LINE
  5
1DD2
  8
0
  6
CONTINUOUS
 10
51.0
 20
22.5
 30
0.0
 11
50.5
 21
22.5
 31
0.0
  0
ARC
  5
1DD3
  8
0
  6
CONTINUOUS
 10
50.5
 20
25.5
 30
0.0
 40
3.0
 50
180.0
 51
270.0
  0
LINE
  5
1DD4
  8
0
  6
CONTINUOUS
 10
51.0
 20
14.5
 30
0.0
 11
50.5
 21
14.5
 31
0.0
  0
ARC
  5
1DD5
  8
0
  6
CONTINUOUS
 10
51.0
 20
15.5
 30
0.0
 40
1.0
 50
270.0
 51
0.0
  0
LINE
  5
1DD6
  8
0
  6
CONTINUOUS
 10
47.5
 20
25.5
 30
0.0
 11
47.5
 21
29.5
 31
0.0
  0
ARC
  5
21D4
  8
0
 10
135.0
 20
217.0000000000001137
 30
0.0
 40
6.0
 50
303.5573097619193277
 51
0.0
  0
ARC
  5
21D5
  8
0
 10
85.0
 20
217.0000000000001137
 30
0.0
 40
6.0
 50
180.0
 51
236.442690238080786
  0
ARC
  5
21EF
  8
0
 10
135.0
 20
296.0
 30
0.0
 40
6.0
 50
0.0
 51
90.0
  0
LINE
  5
21F0
  8
0
 10
141.0
 20
296.0
 30
0.0
 11
141.0
 21
217.0000000000001137
 31
0.0
  0
LINE
  5
21F1
  8
0
 10
79.0
 20
240.2396641680718972
 30
0.0
 11
79.0
 21
217.0000000000001137
 31
0.0
  0
LINE
  5
21F2
  8
0
 10
70.0000000000001137
 20
302.0
 30
0.0
 11
20.0000000000001101
 21
302.0
 31
0.0
  0
ARC
  5
21F3
  8
0
  6
CONTINUOUS
 10
20.0000000000001101
 20
296.0
 30
0.0
 40
6.0
 50
90.0
 51
180.0
  0
LINE
  5
21F4
  8
0
 10
135.0
 20
302.0
 30
0.0
 11
85.0
 21
302.0
 31
0.0
  0
LINE
  5
21F5
  8
0
 10
76.0000000000001137
 20
296.0
 30
0.0
 11
76.0000000000001137
 21
217.0000000000001137
 31
0.0
  0
CIRCLE
  5
21F6
  8
0
 10
85.5
 20
295.5
 30
0.0
 40
1.575
  0
ARC
  5
21F7
  8
0
 10
70.0000000000001137
 20
296.0
 30
0.0
 40
6.0
 50
0.0
 51
90.0
  0
LINE
  5
21F8
  8
0
 10
19.0000000000001101
 20
231.1721703110972896
 30
0.0
 11
19.0000000000001101
 21
212.25
 31
0.0
  0
ARC
  5
21F9
  8
0
 10
18.7500000000001101
 20
212.25
 30
0.0
 40
0.25
 50
270.0
 51
0.0
  0
LINE
  5
21FA
  8
0
 10
15.5000000000001101
 20
294.2500000000001137
 30
0.0
 11
15.5000000000001101
 21
292.7500000000001137
 31
0.0
  0
ARC
  5
21FB
  8
0
  6
CONTINUOUS
 10
15.2500000000001101
 20
294.2500000000001137
 30
0.0
 40
0.25
 50
0.0
 51
90.0
  0
ARC
  5
21FC
  8
0
  6
CONTINUOUS
 10
15.7500000000001101
 20
292.7500000000001137
 30
0.0
 40
0.25
 50
180.0
 51
270.0
  0
LINE
  5
21FD
  8
0
 10
15.5000000000001101
 20
284.25
 30
0.0
 11
15.5000000000001101
 21
274.75
 31
0.0
  0
ARC
  5
21FE
  8
0
  6
CONTINUOUS
 10
15.7500000000001101
 20
274.75
 30
0.0
 40
0.25
 50
180.0
 51
270.0
  0
LINE
  5
21FF
  8
0
 10
15.5000000000001101
 20
259.2500000000001137
 30
0.0
 11
15.5000000000001101
 21
249.75
 31
0.0
  0
LINE
  5
2200
  8
0
 10
14.0000000000001101
 20
240.2396641680718972
 30
0.0
 11
14.0000000000001101
 21
217.0000000000001137
 31
0.0
  0
ARC
  5
2201
  8
0
 10
20.0000000000001101
 20
217.0000000000001137
 30
0.0
 40
6.0
 50
180.0
 51
236.442690238080786
  0
ARC
  5
2202
  8
0
 10
70.0000000000001137
 20
217.0000000000001137
 30
0.0
 40
6.0
 50
303.5573097619193277
 51
0.0
  0
CIRCLE
  5
2203
  8
0
 10
20.5000000000001101
 20
295.5
 30
0.0
 40
1.575
  0
LINE
  5
2204
  8
0
 10
72.5400000000000631
 20
292.1499999999999773
 30
0.0
 11
72.5400000000000631
 21
240.850000000000108
 31
0.0
  0
ARC
  5
2205
  8
0
 10
72.2900000000000631
 20
292.1499999999999773
 30
0.0
 40
0.25
 50
0.0
 51
90.0
  0
ARC
  5
2206
  8
0
 10
72.2900000000000631
 20
240.850000000000108
 30
0.0
 40
0.25
 50
270.0
 51
0.0
  0
LINE
  5
2207
  8
0
 10
66.4600000000000364
 20
246.2500000000001137
 30
0.0
 11
66.4600000000000364
 21
268.75
 31
0.0
  0
ARC
  5
2208
  8
0
  6
CONTINUOUS
 10
66.2100000000000364
 20
246.2500000000001137
 30
0.0
 40
0.25
 50
270.0
 51
0.0
  0
ARC
  5
2209
  8
0
  6
CONTINUOUS
 10
66.2100000000000364
 20
268.75
 30
0.0
 40
0.25
 50
0.0
 51
90.0
  0
LINE
  5
220A
  8
0
 10
66.4600000000000364
 20
271.7500000000001137
 30
0.0
 11
66.4600000000000364
 21
284.2500000000001137
 31
0.0
  0
ARC
  5
220B
  8
0
  6
CONTINUOUS
 10
66.2100000000000364
 20
284.2500000000001137
 30
0.0
 40
0.25
 50
0.0
 51
90.0
  0
LINE
  5
220C
  8
0
 10
59.4600000000000435
 20
263.2500000000001137
 30
0.0
 11
59.4600000000000435
 21
279.25
 31
0.0
  0
ARC
  5
220D
  8
0
  6
CONTINUOUS
 10
59.2100000000000222
 20
263.2500000000001137
 30
0.0
 40
0.25
 50
270.0
 51
0.0
  0
ARC
  5
220E
  8
0
  6
CONTINUOUS
 10
59.2100000000000222
 20
279.25
 30
0.0
 40
0.25
 50
0.0
 51
90.0
  0
LINE
  5
220F
  8
0
 10
66.4600000000000364
 20
290.2500000000001137
 30
0.0
 11
66.4600000000000364
 21
292.1499999999999773
 31
0.0
  0
ARC
  5
2210
  8
0
 10
66.7100000000000364
 20
292.1499999999999773
 30
0.0
 40
0.25
 50
90.0
 51
180.0
  0
CIRCLE
  5
2490
  8
0
  6
CONTINUOUS
 10
85.5
 20
237.5
 30
0.0
 40
1.574999999999988
  0
CIRCLE
  5
2491
  8
0
  6
CONTINUOUS
 10
20.5000000000001101
 20
237.5
 30
0.0
 40
1.574999999999988
  0
POLYLINE
  5
2492
  8
0
  6
CONTINUOUS
 66
     1
 10
0.0
 20
0.0
 30
0.0
  0
VERTEX
  5
304A
  8
0
  6
CONTINUOUS
 10
72.2900000000000631
 20
292.3999999999999773
 30
0.0
  0
VERTEX
  5
304B
  8
0
  6
CONTINUOUS
 10
71.8094010767586042
 20
292.3999999999999773
 30
0.0
 42
-0.5773502691896386
  0
VERTEX
  5
304C
  8
0
  6
CONTINUOUS
 10
71.5928947258124708
 20
292.7750000000000909
 30
0.0
  0
VERTEX
  5
304D
  8
0
  6
CONTINUOUS
 10
73.1661742093541392
 20
295.5
 30
0.0
  0
VERTEX
  5
304E
  8
0
  6
CONTINUOUS
 10
71.3330871046771335
 20
298.6750000000001251
 30
0.0
  0
VERTEX
  5
304F
  8
0
  6
CONTINUOUS
 10
67.6669128953229801
 20
298.6750000000001251
 30
0.0
  0
VERTEX
  5
3050
  8
0
  6
CONTINUOUS
 10
66.9665063509461191
 20
297.4618602791856006
 30
0.0
 42
-0.7673269879789323
  0
VERTEX
  5
3051
  8
0
  6
CONTINUOUS
 10
66.5
 20
297.5868602791857143
 30
0.0
  0
VERTEX
  5
3052
  8
0
  6
CONTINUOUS
 10
66.5
 20
298.7500000000001137
 30
0.0
  0
SEQEND
  5
3053
  8
0
  6
CONTINUOUS
  0
POLYLINE
  5
2493
  8
0
  6
CONTINUOUS
 66
     1
 10
0.0
 20
0.0
 30
0.0
  0
VERTEX
  5
3054
  8
0
  6
CONTINUOUS
 10
66.5
 20
293.25
 30
0.0
  0
VERTEX
  5
3055
  8
0
  6
CONTINUOUS
 10
66.5
 20
293.4131397208145131
 30
0.0
 42
-0.7673269879789323
  0
VERTEX
  5
3056
  8
0
  6
CONTINUOUS
 10
66.9665063509461191
 20
293.5381397208145131
 30
0.0
  0
VERTEX
  5
3057
  8
0
  6
CONTINUOUS
 10
67.4071052741876144
 20
292.7750000000000909
 30
0.0
 42
-0.5773502691896196
  0
VERTEX
  5
3058
  8
0
  6
CONTINUOUS
 10
67.1905989232415095
 20
292.3999999999999773
 30
0.0
  0
VERTEX
  5
3059
  8
0
  6
CONTINUOUS
 10
66.7100000000000364
 20
292.3999999999999773
 30
0.0
  0
SEQEND
  5
305A
  8
0
  6
CONTINUOUS
  0
POLYLINE
  5
2494
  8
0
  6
CONTINUOUS
 66
     1
 10
0.0
 20
0.0
 30
0.0
  0
VERTEX
  5
305B
  8
0
  6
CONTINUOUS
 10
68.25
 20
231.75
 30
0.0
  0
VERTEX
  5
305C
  8
0
  6
CONTINUOUS
 10
68.25
 20
234.0749999999999886
 30
0.0
 42
-0.4142135623730951
  0
VERTEX
  5
305D
  8
0
  6
CONTINUOUS
 10
68.5
 20
234.3250000000001023
 30
0.0
  0
VERTEX
  5
305E
  8
0
  6
CONTINUOUS
 10
71.3330871046771335
 20
234.3250000000001023
 30
0.0
  0
VERTEX
  5
305F
  8
0
  6
CONTINUOUS
 10
73.1661742093541392
 20
237.5
 30
0.0
  0
VERTEX
  5
3060
  8
0
  6
CONTINUOUS
 10
71.5928947258123429
 20
240.225000000000108
 30
0.0
 42
-0.5773502691896196
  0
VERTEX
  5
3061
  8
0
  6
CONTINUOUS
 10
71.8094010767584905
 20
240.600000000000108
 30
0.0
  0
VERTEX
  5
3062
  8
0
  6
CONTINUOUS
 10
72.2900000000000631
 20
240.600000000000108
 30
0.0
  0
SEQEND
  5
3063
  8
0
  6
CONTINUOUS
  0
LINE
  5
2495
  8
0
 10
137.5399999999999068
 20
292.1499999999999773
 30
0.0
 11
137.5399999999999068
 21
240.850000000000108
 31
0.0
  0
ARC
  5
2496
  8
0
 10
137.2899999999999068
 20
292.1499999999999773
 30
0.0
 40
0.25
 50
0.0
 51
90.0
  0
ARC
  5
2497
  8
0
 10
137.2899999999999068
 20
240.850000000000108
 30
0.0
 40
0.25
 50
270.0
 51
0.0
  0
LINE
  5
2498
  8
0
 10
131.459999999999809
 20
240.850000000000108
 30
0.0
 11
131.459999999999809
 21
292.1499999999999773
 31
0.0
  0
ARC
  5
2499
  8
0
 10
131.709999999999809
 20
292.1499999999999773
 30
0.0
 40
0.25
 50
90.0
 51
180.0
  0
ARC
  5
249A
  8
0
 10
131.709999999999809
 20
240.850000000000108
 30
0.0
 40
0.25
 50
180.0
 51
270.0
  0
POLYLINE
  5
249B
  8
0
  6
CONTINUOUS
 66
     1
 10
0.0
 20
0.0
 30
0.0
  0
VERTEX
  5
3064
  8
0
  6
CONTINUOUS
 10
137.2899999999999068
 20
292.3999999999999773
 30
0.0
  0
VERTEX
  5
3065
  8
0
  6
CONTINUOUS
 10
136.8094010767584905
 20
292.3999999999999773
 30
0.0
 42
-0.5773502691896386
  0
VERTEX
  5
3066
  8
0
  6
CONTINUOUS
 10
136.5928947258123003
 20
292.7750000000000909
 30
0.0
  0
VERTEX
  5
3067
  8
0
  6
CONTINUOUS
 10
138.1661742093540113
 20
295.5
 30
0.0
  0
VERTEX
  5
3068
  8
0
  6
CONTINUOUS
 10
136.3330871046769914
 20
298.6750000000001251
 30
0.0
  0
VERTEX
  5
3069
  8
0
  6
CONTINUOUS
 10
132.6669128953228096
 20
298.6750000000001251
 30
0.0
  0
VERTEX
  5
306A
  8
0
  6
CONTINUOUS
 10
130.8338257906457898
 20
295.5
 30
0.0
  0
VERTEX
  5
306B
  8
0
  6
CONTINUOUS
 10
132.4071052741875008
 20
292.7750000000000909
 30
0.0
 42
-0.5773502691896196
  0
VERTEX
  5
306C
  8
0
  6
CONTINUOUS
 10
132.1905989232413958
 20
292.3999999999999773
 30
0.0
  0
VERTEX
  5
306D
  8
0
  6
CONTINUOUS
 10
131.709999999999809
 20
292.3999999999999773
 30
0.0
  0
SEQEND
  5
306E
  8
0
  6
CONTINUOUS
  0
POLYLINE
  5
249C
  8
0
  6
CONTINUOUS
 66
     1
 10
0.0
 20
0.0
 30
0.0
  0
VERTEX
  5
306F
  8
0
  6
CONTINUOUS
 10
131.709999999999809
 20
240.600000000000108
 30
0.0
  0
VERTEX
  5
3070
  8
0
  6
CONTINUOUS
 10
132.1905989232413958
 20
240.600000000000108
 30
0.0
 42
-0.5773502691896386
  0
VERTEX
  5
3071
  8
0
  6
CONTINUOUS
 10
132.4071052741875008
 20
240.225000000000108
 30
0.0
  0
VERTEX
  5
3072
  8
0
  6
CONTINUOUS
 10
130.8338257906457898
 20
237.5
 30
0.0
  0
VERTEX
  5
3073
  8
0
  6
CONTINUOUS
 10
132.6669128953228096
 20
234.3250000000001023
 30
0.0
  0
VERTEX
  5
3074
  8
0
  6
CONTINUOUS
 10
136.3330871046769914
 20
234.3250000000001023
 30
0.0
  0
VERTEX
  5
3075
  8
0
  6
CONTINUOUS
 10
138.1661742093540113
 20
237.5
 30
0.0
  0
VERTEX
  5
3076
  8
0
  6
CONTINUOUS
 10
136.5928947258121866
 20
240.225000000000108
 30
0.0
 42
-0.5773502691896196
  0
VERTEX
  5
3077
  8
0
  6
CONTINUOUS
 10
136.8094010767584052
 20
240.600000000000108
 30
0.0
  0
VERTEX
  5
3078
  8
0
  6
CONTINUOUS
 10
137.2899999999999068
 20
240.600000000000108
 30
0.0
  0
SEQEND
  5
3079
  8
0
  6
CONTINUOUS
  0
LINE
  5
249D
  8
0
 10
35.5000000000000995
 20
231.1721703110972896
 30
0.0
 11
35.5000000000000995
 21
212.25
 31
0.0
  0
LINE
  5
249E
  8
0
 10
39.0000000000000995
 20
230.75
 30
0.0
 11
39.0
 21
212.75
 31
0.0
  0
ARC
  5
249F
  8
0
  6
CONTINUOUS
 10
38.7500000000001208
 20
230.75
 30
0.0
 40
0.25
 50
0.0
 51
90.0
  0
ARC
  5
24A0
  8
0
  6
CONTINUOUS
 10
38.75
 20
212.75
 30
0.0
 40
0.25
 50
270.0
 51
0.0
  0
LINE
  5
24A1
  8
0
 10
53.0000000000000995
 20
229.7500000000001137
 30
0.0
 11
53.0000000000000995
 21
212.75
 31
0.0
  0
ARC
  5
24A2
  8
0
  6
CONTINUOUS
 10
53.2500000000000924
 20
212.75
 30
0.0
 40
0.25
 50
180.0
 51
270.0
  0
ARC
  5
24A3
  8
0
 10
52.7500000000000995
 20
229.7500000000001137
 30
0.0
 40
0.25
 50
0.0
 51
90.0
  0
LINE
  5
24A4
  8
0
 10
57.0000000000000924
 20
229.7500000000001137
 30
0.0
 11
57.0000000000000924
 21
212.75
 31
0.0
  0
ARC
  5
24A5
  8
0
  6
CONTINUOUS
 10
56.7500000000000995
 20
212.75
 30
0.0
 40
0.25
 50
270.0
 51
0.0
  0
LINE
  5
24A6
  8
0
 10
71.0000000000001137
 20
229.7500000000001137
 30
0.0
 11
71.0000000000001137
 21
212.75
 31
0.0
  0
ARC
  5
24A7
  8
0
  6
CONTINUOUS
 10
71.2500000000001137
 20
212.75
 30
0.0
 40
0.25
 50
180.0
 51
269.9999999999935767
  0
ARC
  5
24A8
  8
0
 10
70.7500000000001137
 20
229.7500000000001137
 30
0.0
 40
0.25
 50
0.0
 51
90.0
  0
LINE
  5
24A9
  8
0
 10
70.7500000000001137
 20
230.0000000000001137
 30
0.0
 11
57.2500000000001208
 21
230.0000000000001137
 31
0.0
  0
ARC
  5
24AA
  8
0
 10
57.2500000000001208
 20
229.7500000000001137
 30
0.0
 40
0.25
 50
90.0
 51
180.0
  0
LINE
  5
24AB
  8
0
 10
52.7500000000000995
 20
230.0000000000001137
 30
0.0
 11
44.9600000000000222
 21
230.0000000000001137
 31
0.0
  0
ARC
  5
24AC
  8
0
  6
CONTINUOUS
 10
44.9600000000000222
 20
230.2500000000001137
 30
0.0
 40
0.25
 50
180.0
 51
270.0
  0
LINE
  5
24AD
  8
0
  6
CONTINUOUS
 10
15.7500000000001101
 20
259.5000000000001137
 30
0.0
 11
32.2500000000001208
 21
259.5
 31
0.0
  0
ARC
  5
24AE
  8
0
  6
CONTINUOUS
 10
15.7500000000001101
 20
259.2500000000001137
 30
0.0
 40
0.25
 50
90.0
 51
180.0
  0
LINE
  5
24AF
  8
0
  6
CONTINUOUS
 10
32.5000000000000995
 20
259.75
 30
0.0
 11
32.5000000000000995
 21
275.5000000000001137
 31
0.0
  0
ARC
  5
24B0
  8
0
  6
CONTINUOUS
 10
32.2500000000001208
 20
259.75
 30
0.0
 40
0.25
 50
270.0
 51
0.0
  0
LINE
  5
24B1
  8
0
  6
CONTINUOUS
 10
39.0000000000000995
 20
279.7500000000001137
 30
0.0
 11
39.0000000000000995
 21
285.25
 31
0.0
  0
ARC
  5
24B2
  8
0
  6
CONTINUOUS
 10
39.2500000000000995
 20
285.25
 30
0.0
 40
0.25
 50
90.0
 51
180.0
  0
ARC
  5
24B3
  8
0
  6
CONTINUOUS
 10
38.7500000000001208
 20
279.7500000000001137
 30
0.0
 40
0.25
 50
270.0
 51
0.0
  0
LINE
  5
24B4
  8
0
  6
CONTINUOUS
 10
17.2500000000001101
 20
256.0
 30
0.0
 11
39.7500000000001208
 21
256.0
 31
0.0
  0
ARC
  5
24B5
  8
0
  6
CONTINUOUS
 10
17.2500000000001101
 20
255.75
 30
0.0
 40
0.25
 50
90.0
 51
180.0
  0
LINE
  5
24B6
  8
0
  6
CONTINUOUS
 10
15.7500000000001101
 20
274.5
 30
0.0
 11
28.2500000000001208
 21
274.5
 31
0.0
  0
ARC
  5
24B7
  8
0
  6
CONTINUOUS
 10
28.2500000000001208
 20
274.75
 30
0.0
 40
0.25
 50
270.0
 51
0.0
  0
LINE
  5
24B8
  8
0
 10
73.3166247903553767
 20
212.0
 30
0.0
 11
71.7500000000001137
 21
212.0
 31
0.0
  0
ARC
  5
24B9
  8
0
  6
CONTINUOUS
 10
71.7500000000001137
 20
212.25
 30
0.0
 40
0.25
 50
180.0
 51
270.0
  0
LINE
  5
24BA
  8
0
 10
56.2500000000000995
 20
212.0
 30
0.0
 11
53.7500000000000995
 21
212.0
 31
0.0
  0
ARC
  5
24BB
  8
0
  6
CONTINUOUS
 10
56.2500000000000995
 20
212.25
 30
0.0
 40
0.25
 50
270.0
 51
0.0
  0
ARC
  5
24BC
  8
0
  6
CONTINUOUS
 10
53.7500000000000995
 20
212.25
 30
0.0
 40
0.25
 50
180.0
 51
270.0
  0
LINE
  5
24BD
  8
0
 10
38.2500000000001208
 20
212.0
 30
0.0
 11
35.7500000000001208
 21
212.0
 31
0.0
  0
ARC
  5
24BE
  8
0
  6
CONTINUOUS
 10
38.2500000000001208
 20
212.25
 30
0.0
 40
0.25
 50
270.0
 51
0.0
  0
ARC
  5
24BF
  8
0
 10
35.7500000000001208
 20
212.25
 30
0.0
 40
0.25
 50
180.0
 51
270.0
  0
LINE
  5
24C0
  8
0
 10
18.7500000000001101
 20
212.0
 30
0.0
 11
16.6833752096446197
 21
212.0
 31
0.0
  0
LINE
  5
24C1
  8
0
  6
CONTINUOUS
 10
71.5000000000001137
 20
212.25
 30
0.0
 11
71.5000000000001137
 21
212.5
 31
0.0
  0
LINE
  5
24C2
  8
0
  6
CONTINUOUS
 10
71.5000000000001137
 20
212.5
 30
0.0
 11
71.25
 21
212.5
 31
0.0
  0
LINE
  5
24C3
  8
0
  6
CONTINUOUS
 10
56.5000000000000995
 20
212.25
 30
0.0
 11
56.5000000000000995
 21
212.5
 31
0.0
  0
LINE
  5
24C4
  8
0
  6
CONTINUOUS
 10
56.5000000000000995
 20
212.5
 30
0.0
 11
56.7500000000000995
 21
212.5
 31
0.0
  0
LINE
  5
24C5
  8
0
  6
CONTINUOUS
 10
53.5000000000001208
 20
212.25
 30
0.0
 11
53.5000000000001208
 21
212.5
 31
0.0
  0
LINE
  5
24C6
  8
0
  6
CONTINUOUS
 10
53.5000000000001208
 20
212.5
 30
0.0
 11
53.2500000000000924
 21
212.5
 31
0.0
  0
LINE
  5
24C7
  8
0
  6
CONTINUOUS
 10
38.5000000000001208
 20
212.25
 30
0.0
 11
38.5000000000001208
 21
212.5
 31
0.0
  0
LINE
  5
24C8
  8
0
  6
CONTINUOUS
 10
38.5000000000001208
 20
212.5
 30
0.0
 11
38.75
 21
212.5
 31
0.0
  0
ARC
  5
24C9
  8
0
  6
CONTINUOUS
 10
20.5000000000001101
 20
237.5
 30
0.0
 40
3.5
 50
270.0
 51
316.5736764505870156
  0
ARC
  5
24CA
  8
0
  6
CONTINUOUS
 10
23.2234709645987287
 20
234.9221703110972896
 30
0.0
 40
0.25
 50
90.0
 51
136.5736764505869019
  0
LINE
  5
24CB
  8
0
  6
CONTINUOUS
 10
35.5000000000000995
 20
231.1721703110972896
 30
0.0
 11
35.5000000000000995
 21
234.9221703110972896
 31
0.0
  0
ARC
  5
24CC
  8
0
  6
CONTINUOUS
 10
35.2500000000000995
 20
234.9221703110972896
 30
0.0
 40
0.25
 50
0.0
 51
90.0
  0
LINE
  5
24CD
  8
0
  6
CONTINUOUS
 10
35.2500000000000995
 20
235.1721703110972896
 30
0.0
 11
23.2234709645987287
 21
235.1721703110974033
 31
0.0
  0
LINE
  5
24CE
  8
0
  6
CONTINUOUS
 10
19.0000000000001101
 20
231.1721703110972896
 30
0.0
 11
19.0000000000001101
 21
233.7500000000001137
 31
0.0
  0
LINE
  5
24CF
  8
0
  6
CONTINUOUS
 10
20.5000000000001101
 20
234.0000000000001137
 30
0.0
 11
19.2500000000001101
 21
234.0000000000001137
 31
0.0
  0
ARC
  5
24D0
  8
0
  6
CONTINUOUS
 10
19.2500000000001101
 20
233.7500000000001137
 30
0.0
 40
0.25
 50
90.0
 51
180.0
  0
ARC
  5
24D1
  8
0
  6
CONTINUOUS
 10
15.2500000000001101
 20
240.7396641680718972
 30
0.0
 40
0.25
 50
270.0
 51
0.0
  0
LINE
  5
24D2
  8
0
  6
CONTINUOUS
 10
15.2500000000001101
 20
240.4896641680718972
 30
0.0
 11
14.2500000000001101
 21
240.4896641680718972
 31
0.0
  0
ARC
  5
24D3
  8
0
  6
CONTINUOUS
 10
14.2500000000001101
 20
240.2396641680718972
 30
0.0
 40
0.25
 50
90.0
 51
180.0
  0
LINE
  5
24D4
  8
0
  6
CONTINUOUS
 10
15.5000000000001101
 20
241.25
 30
0.0
 11
15.5000000000001101
 21
240.7396641680718972
 31
0.0
  0
LINE
  5
24D5
  8
0
  6
CONTINUOUS
 10
24.0000000000001101
 20
237.7500000000001137
 30
0.0
 11
24.0000000000001101
 21
241.25
 31
0.0
  0
LINE
  5
24D6
  8
0
  6
CONTINUOUS
 10
23.7500000000001101
 20
241.5
 30
0.0
 11
15.7500000000001101
 21
241.5
 31
0.0
  0
ARC
  5
24D7
  8
0
  6
CONTINUOUS
 10
15.7500000000001101
 20
241.25
 30
0.0
 40
0.25
 50
90.0
 51
180.0
  0
ARC
  5
24D8
  8
0
  6
CONTINUOUS
 10
23.7500000000001101
 20
241.25
 30
0.0
 40
0.25
 50
0.0
 51
90.0
  0
LINE
  5
24D9
  8
0
  6
CONTINUOUS
 10
15.7500000000001101
 20
292.5000000000001137
 30
0.0
 11
21.7500000000001101
 21
292.5000000000001137
 31
0.0
  0
LINE
  5
24DA
  8
0
  6
CONTINUOUS
 10
22.0000000000001101
 20
292.2500000000001137
 30
0.0
 11
22.0000000000001101
 21
284.7500000000001137
 31
0.0
  0
ARC
  5
24DB
  8
0
  6
CONTINUOUS
 10
21.7500000000001101
 20
284.7500000000001137
 30
0.0
 40
0.25
 50
270.0
 51
0.0
  0
ARC
  5
24DC
  8
0
  6
CONTINUOUS
 10
21.7500000000001101
 20
292.2500000000001137
 30
0.0
 40
0.25
 50
0.0
 51
90.0
  0
LINE
  5
24DD
  8
0
  6
CONTINUOUS
 10
21.7500000000001101
 20
284.5
 30
0.0
 11
15.7500000000001101
 21
284.5
 31
0.0
  0
ARC
  5
24DE
  8
0
  6
CONTINUOUS
 10
15.7500000000001101
 20
284.25
 30
0.0
 40
0.25
 50
90.0
 51
180.0
  0
LINE
  5
24DF
  8
0
  6
CONTINUOUS
 10
56.2500000000000995
 20
298.0
 30
0.0
 11
33.7500000000000995
 21
298.0
 31
0.0
  0
ARC
  5
24E0
  8
0
  6
CONTINUOUS
 10
33.7500000000000995
 20
297.75
 30
0.0
 40
0.25
 50
90.0
 51
180.0
  0
LINE
  5
24E1
  8
0
  6
CONTINUOUS
 10
31.7500000000001101
 20
298.0
 30
0.0
 11
29.7500000000001208
 21
298.0
 31
0.0
  0
ARC
  5
24E2
  8
0
  6
CONTINUOUS
 10
29.7500000000001208
 20
298.2500000000001137
 30
0.0
 40
0.25
 50
180.0
 51
270.0
  0
LINE
  5
24E3
  8
0
  6
CONTINUOUS
 10
29.5000000000001208
 20
298.2500000000001137
 30
0.0
 11
29.5000000000001208
 21
298.7500000000001137
 31
0.0
  0
ARC
  5
24E4
  8
0
  6
CONTINUOUS
 10
29.2500000000001101
 20
298.7500000000001137
 30
0.0
 40
0.25
 50
0.0
 51
90.0
  0
LINE
  5
24E5
  8
0
  6
CONTINUOUS
 10
29.2500000000001101
 20
299.0000000000001137
 30
0.0
 11
24.2500000000001101
 21
299.0000000000001137
 31
0.0
  0
ARC
  5
24E6
  8
0
  6
CONTINUOUS
 10
24.2500000000001101
 20
298.7500000000001137
 30
0.0
 40
0.25
 50
90.0
 51
180.0
  0
LINE
  5
24E7
  8
0
  6
CONTINUOUS
 10
24.0000000000001101
 20
298.7500000000001137
 30
0.0
 11
24.0000000000001101
 21
298.0
 31
0.0
  0
LINE
  5
24E8
  8
0
  6
CONTINUOUS
 10
24.0000000000001101
 20
298.0
 30
0.0
 11
23.5000000000001208
 21
298.0
 31
0.0
  0
LINE
  5
24E9
  8
0
  6
CONTINUOUS
 10
23.5000000000001208
 20
298.0
 30
0.0
 11
23.5000000000001208
 21
295.5
 31
0.0
  0
LINE
  5
24EA
  8
0
  6
CONTINUOUS
 10
59.0000000000000995
 20
296.2500000000001137
 30
0.0
 11
59.0000000000000995
 21
298.7500000000001137
 31
0.0
  0
LINE
  5
24EB
  8
0
  6
CONTINUOUS
 10
59.2500000000000995
 20
299.0000000000001137
 30
0.0
 11
66.25
 21
299.0000000000001137
 31
0.0
  0
ARC
  5
24EC
  8
0
  6
CONTINUOUS
 10
59.2500000000000995
 20
298.7500000000001137
 30
0.0
 40
0.25
 50
90.0
 51
180.0
  0
LINE
  5
24ED
  8
0
  6
CONTINUOUS
 10
64.5000000000001137
 20
289.75
 30
0.0
 11
64.5000000000001137
 21
284.7500000000001137
 31
0.0
  0
ARC
  5
24EE
  8
0
  6
CONTINUOUS
 10
64.7500000000001137
 20
289.75
 30
0.0
 40
0.25
 50
90.0
 51
180.0
  0
LINE
  5
24EF
  8
0
  6
CONTINUOUS
 10
64.7500000000001137
 20
284.5
 30
0.0
 11
66.2100000000000364
 21
284.5
 31
0.0
  0
ARC
  5
24F0
  8
0
  6
CONTINUOUS
 10
64.7500000000001137
 20
284.7500000000001137
 30
0.0
 40
0.25
 50
180.0
 51
270.0
  0
LINE
  5
24F1
  8
0
  6
CONTINUOUS
 10
64.7500000000001137
 20
290.0000000000001137
 30
0.0
 11
66.2100000000000364
 21
290.0000000000001137
 31
0.0
  0
ARC
  5
24F2
  8
0
  6
CONTINUOUS
 10
66.2100000000000364
 20
290.2500000000001137
 30
0.0
 40
0.25
 50
270.0
 51
0.0
  0
LINE
  5
24F3
  8
0
  6
CONTINUOUS
 10
23.5000000000001208
 20
295.5
 30
0.0
 11
23.5000000000001208
 21
281.7500000000001137
 31
0.0
  0
LINE
  5
24F4
  8
0
  6
CONTINUOUS
 10
21.2500000000001101
 20
281.5000000000001137
 30
0.0
 11
19.5000000000001101
 21
281.5
 31
0.0
  0
ARC
  5
24F5
  8
0
  6
CONTINUOUS
 10
19.5000000000001101
 20
281.25
 30
0.0
 40
0.25
 50
90.0
 51
180.0
  0
LINE
  5
24F6
  8
0
  6
CONTINUOUS
 10
19.2500000000001101
 20
281.25
 30
0.0
 11
19.2500000000001101
 21
276.75
 31
0.0
  0
ARC
  5
24F7
  8
0
  6
CONTINUOUS
 10
19.5000000000001101
 20
276.75
 30
0.0
 40
0.25
 50
180.0
 51
270.0
  0
LINE
  5
24F8
  8
0
  6
CONTINUOUS
 10
19.5000000000001101
 20
276.5
 30
0.0
 11
21.2500000000001101
 21
276.5000000000001137
 31
0.0
  0
LINE
  5
24F9
  8
0
  6
CONTINUOUS
 10
21.5000000000001101
 20
276.75
 30
0.0
 11
21.5000000000001101
 21
277.0000000000002842
 31
0.0
  0
LINE
  5
24FA
  8
0
  6
CONTINUOUS
 10
21.5000000000001101
 20
279.7500000000001137
 30
0.0
 11
21.5000000000001101
 21
281.25
 31
0.0
  0
ARC
  5
24FB
  8
0
  6
CONTINUOUS
 10
21.7500000000001101
 20
279.7500000000001137
 30
0.0
 40
0.25
 50
180.0
 51
270.0
  0
ARC
  5
24FC
  8
0
  6
CONTINUOUS
 10
21.2500000000001101
 20
281.25
 30
0.0
 40
0.25
 50
0.0
 51
90.0
  0
ARC
  5
24FD
  8
0
  6
CONTINUOUS
 10
21.2500000000001101
 20
276.75
 30
0.0
 40
0.25
 50
270.0
 51
0.0
  0
LINE
  5
24FE
  8
0
  6
CONTINUOUS
 10
68.0
 20
231.5
 30
0.0
 11
64.75
 21
231.5000000000001137
 31
0.0
  0
ARC
  5
24FF
  8
0
  6
CONTINUOUS
 10
68.0
 20
231.75
 30
0.0
 40
0.25
 50
270.0
 51
0.0
  0
ARC
  5
2500
  8
0
  6
CONTINUOUS
 10
64.75
 20
231.7500000000001137
 30
0.0
 40
0.25
 50
180.0
 51
270.0
  0
LINE
  5
2501
  8
0
  6
CONTINUOUS
 10
64.5
 20
231.7500000000001137
 30
0.0
 11
64.5
 21
232.2500000000001137
 31
0.0
  0
ARC
  5
2502
  8
0
  6
CONTINUOUS
 10
64.25
 20
232.2500000000001137
 30
0.0
 40
0.25
 50
0.0
 51
90.0
  0
LINE
  5
2503
  8
0
  6
CONTINUOUS
 10
66.2100000000000364
 20
271.5000000000001137
 30
0.0
 11
65.2100000000000364
 21
271.5000000000001137
 31
0.0
  0
ARC
  5
2504
  8
0
  6
CONTINUOUS
 10
66.2100000000000364
 20
271.7500000000001137
 30
0.0
 40
0.25
 50
270.0
 51
0.0
  0
LINE
  5
2505
  8
0
  6
CONTINUOUS
 10
64.9600000000000364
 20
271.2500000000001137
 30
0.0
 11
64.9600000000000364
 21
269.2500000000001137
 31
0.0
  0
ARC
  5
2506
  8
0
  6
CONTINUOUS
 10
65.2100000000000364
 20
271.2500000000001137
 30
0.0
 40
0.25
 50
90.0
 51
180.0
  0
LINE
  5
2507
  8
0
  6
CONTINUOUS
 10
65.2100000000000364
 20
269.0000000000001137
 30
0.0
 11
66.2100000000000364
 21
269.0000000000001137
 31
0.0
  0
ARC
  5
2508
  8
0
  6
CONTINUOUS
 10
65.2100000000000364
 20
269.2500000000001137
 30
0.0
 40
0.25
 50
180.0
 51
270.0
  0
ARC
  5
2509
  8
0
  6
CONTINUOUS
 10
24.2500000000001101
 20
237.7500000000001137
 30
0.0
 40
0.25
 50
180.0
 51
270.0
  0
LINE
  5
250A
  8
0
  6
CONTINUOUS
 10
24.2500000000001101
 20
237.5
 30
0.0
 11
39.7500000000001208
 21
237.5
 31
0.0
  0
LINE
  5
250B
  8
0
  6
CONTINUOUS
 10
40.0000000000000924
 20
237.7500000000001137
 30
0.0
 11
40.0000000000000924
 21
255.75
 31
0.0
  0
ARC
  5
250C
  8
0
  6
CONTINUOUS
 10
39.7500000000001208
 20
237.7500000000001137
 30
0.0
 40
0.25
 50
270.0
 51
0.0
  0
ARC
  5
250D
  8
0
  6
CONTINUOUS
 10
39.7500000000001208
 20
255.75
 30
0.0
 40
0.25
 50
0.0
 51
90.0
  0
LINE
  5
250E
  8
0
  6
CONTINUOUS
 10
42.5000000000000924
 20
238.2500000000001137
 30
0.0
 11
42.5000000000000924
 21
262.7500000000001137
 31
0.0
  0
ARC
  5
250F
  8
0
  6
CONTINUOUS
 10
42.2500000000000995
 20
262.7500000000001137
 30
0.0
 40
0.25
 50
0.0
 51
90.0
  0
ARC
  5
2510
  8
0
  6
CONTINUOUS
 10
42.7500000000000995
 20
238.2500000000001137
 30
0.0
 40
0.25
 50
180.0
 51
270.0
  0
LINE
  5
2511
  8
0
  6
CONTINUOUS
 10
57.2100000000000222
 20
233.5
 30
0.0
 11
46.2100000000000222
 21
233.5
 31
0.0
  0
ARC
  5
2512
  8
0
  6
CONTINUOUS
 10
57.2100000000000222
 20
233.7500000000001137
 30
0.0
 40
0.25
 50
270.0
 51
0.0
  0
LINE
  5
2513
  8
0
  6
CONTINUOUS
 10
45.9600000000000222
 20
233.7500000000001137
 30
0.0
 11
45.9600000000000222
 21
237.7500000000001137
 31
0.0
  0
ARC
  5
2514
  8
0
  6
CONTINUOUS
 10
46.2100000000000222
 20
233.7500000000001137
 30
0.0
 40
0.25
 50
180.0
 51
270.0
  0
LINE
  5
2515
  8
0
  6
CONTINUOUS
 10
45.7100000000000435
 20
238.0000000000001137
 30
0.0
 11
42.7500000000000995
 21
238.0000000000001137
 31
0.0
  0
ARC
  5
2516
  8
0
  6
CONTINUOUS
 10
45.7100000000000435
 20
237.7500000000001137
 30
0.0
 40
0.25
 50
0.0
 51
90.0
  0
LINE
  5
2517
  8
0
  6
CONTINUOUS
 10
58.9600000000000435
 20
246.0
 30
0.0
 11
66.2100000000000364
 21
246.0
 31
0.0
  0
LINE
  5
2518
  8
0
  6
CONTINUOUS
 10
42.2500000000000995
 20
263.0000000000001137
 30
0.0
 11
39.7500000000001208
 21
263.0000000000001137
 31
0.0
  0
ARC
  5
2519
  8
0
  6
CONTINUOUS
 10
39.7500000000001208
 20
263.2500000000001137
 30
0.0
 40
0.25
 50
180.0
 51
270.0
  0
LINE
  5
251A
  8
0
  6
CONTINUOUS
 10
41.7500000000000995
 20
279.5000000000001137
 30
0.0
 11
59.2100000000000222
 21
279.5
 31
0.0
  0
ARC
  5
251B
  8
0
  6
CONTINUOUS
 10
41.7500000000000995
 20
279.25
 30
0.0
 40
0.25
 50
90.0
 51
180.0
  0
LINE
  5
251C
  8
0
  6
CONTINUOUS
 10
39.2500000000000995
 20
285.5
 30
0.0
 11
59.2100000000000222
 21
285.5
 31
0.0
  0
LINE
  5
251D
  8
0
  6
CONTINUOUS
 10
56.5000000000000995
 20
297.75
 30
0.0
 11
56.5
 21
290.2500000000001137
 31
0.0
  0
LINE
  5
251E
  8
0
  6
CONTINUOUS
 10
59.0000000000000995
 20
297.75
 30
0.0
 11
59.0
 21
293.25
 31
0.0
  0
ARC
  5
251F
  8
0
  6
CONTINUOUS
 10
56.2500000000000995
 20
297.75
 30
0.0
 40
0.25
 50
0.0
 51
90.0
  0
LINE
  5
2520
  8
0
  6
CONTINUOUS
 10
59.4600000000000435
 20
285.75
 30
0.0
 11
59.4600000000000435
 21
289.7499999999998863
 31
0.0
  0
ARC
  5
2521
  8
0
  6
CONTINUOUS
 10
59.2100000000000222
 20
289.7499999999998863
 30
0.0
 40
0.25
 50
0.0
 51
90.0
  0
ARC
  5
2522
  8
0
  6
CONTINUOUS
 10
59.2100000000000222
 20
285.75
 30
0.0
 40
0.25
 50
270.0
 51
0.0
  0
LINE
  5
2523
  8
0
  6
CONTINUOUS
 10
59.2100000000000222
 20
290.0
 30
0.0
 11
56.75
 21
290.0000000000001137
 31
0.0
  0
ARC
  5
2524
  8
0
  6
CONTINUOUS
 10
56.75
 20
290.2500000000001137
 30
0.0
 40
0.25
 50
180.0
 51
270.0
  0
LINE
  5
2525
  8
0
  6
CONTINUOUS
 10
21.7500000000001101
 20
279.5000000000001137
 30
0.0
 11
28.0000000000001101
 21
279.5000000000001137
 31
0.0
  0
LINE
  5
2526
  8
0
  6
CONTINUOUS
 10
28.2500000000001208
 20
279.25
 30
0.0
 11
28.2500000000001208
 21
277.5000000000001137
 31
0.0
  0
ARC
  5
2527
  8
0
  6
CONTINUOUS
 10
28.0000000000001101
 20
279.25
 30
0.0
 40
0.25
 50
0.0
 51
90.0
  0
LINE
  5
2528
  8
0
  6
CONTINUOUS
 10
21.7500000000001101
 20
277.2500000000002842
 30
0.0
 11
28.0000000000001101
 21
277.25
 31
0.0
  0
ARC
  5
2529
  8
0
  6
CONTINUOUS
 10
21.7500000000001101
 20
277.0000000000002842
 30
0.0
 40
0.25
 50
90.0
 51
180.0
  0
ARC
  5
252A
  8
0
  6
CONTINUOUS
 10
28.0000000000001101
 20
277.5000000000001137
 30
0.0
 40
0.25
 50
270.0
 51
0.0
  0
LINE
  5
252B
  8
0
  6
CONTINUOUS
 10
30.5
 20
277.25
 30
0.0
 11
34.75
 21
277.25
 31
0.0
  0
ARC
  5
252C
  8
0
  6
CONTINUOUS
 10
30.5
 20
277.5000000000001137
 30
0.0
 40
0.25
 50
180.0
 51
270.0
  0
LINE
  5
252D
  8
0
  6
CONTINUOUS
 10
23.7500000000001101
 20
281.5000000000001137
 30
0.0
 11
30.0000000000001101
 21
281.5000000000001137
 31
0.0
  0
ARC
  5
252E
  8
0
  6
CONTINUOUS
 10
23.7500000000001101
 20
281.7500000000001137
 30
0.0
 40
0.25
 50
180.0
 51
270.0
  0
LINE
  5
252F
  8
0
  6
CONTINUOUS
 10
30.2500000000001101
 20
281.25
 30
0.0
 11
30.25
 21
277.5000000000001137
 31
0.0
  0
ARC
  5
2530
  8
0
  6
CONTINUOUS
 10
30.0000000000001101
 20
281.25
 30
0.0
 40
0.25
 50
0.0
 51
90.0
  0
LINE
  5
2531
  8
0
  6
CONTINUOUS
 10
32.2500000000001208
 20
275.7500000000001137
 30
0.0
 11
28.7500000000001208
 21
275.7500000000001137
 31
0.0
  0
ARC
  5
2532
  8
0
  6
CONTINUOUS
 10
28.7500000000001208
 20
275.5000000000001137
 30
0.0
 40
0.25
 50
90.0
 51
180.0
  0
ARC
  5
2533
  8
0
  6
CONTINUOUS
 10
32.2500000000001208
 20
275.5000000000001137
 30
0.0
 40
0.25
 50
0.0
 51
90.0
  0
LINE
  5
2534
  8
0
  6
CONTINUOUS
 10
28.5000000000001208
 20
275.5000000000001137
 30
0.0
 11
28.5000000000001208
 21
274.75
 31
0.0
  0
LINE
  5
2535
  8
0
  6
CONTINUOUS
 10
38.7500000000001208
 20
279.5000000000001137
 30
0.0
 11
35.2500000000000995
 21
279.5000000000001137
 31
0.0
  0
ARC
  5
2536
  8
0
  6
CONTINUOUS
 10
35.2500000000000995
 20
279.25
 30
0.0
 40
0.25
 50
90.0
 51
180.0
  0
LINE
  5
2537
  8
0
  6
CONTINUOUS
 10
35.0000000000000995
 20
279.25
 30
0.0
 11
35.0
 21
277.5
 31
0.0
  0
ARC
  5
2538
  8
0
  6
CONTINUOUS
 10
34.75
 20
277.5
 30
0.0
 40
0.25
 50
270.0
 51
0.0
  0
LINE
  5
2539
  8
0
  6
CONTINUOUS
 10
41.5000000000000995
 20
279.25
 30
0.0
 11
41.5000000000000995
 21
277.25
 31
0.0
  0
ARC
  5
253A
  8
0
  6
CONTINUOUS
 10
41.2500000000000924
 20
277.25
 30
0.0
 40
0.25
 50
270.0
 51
0.0
  0
LINE
  5
253B
  8
0
  6
CONTINUOUS
 10
41.2500000000000924
 20
277.0
 30
0.0
 11
39.7500000000001208
 21
277.0
 31
0.0
  0
ARC
  5
253C
  8
0
  6
CONTINUOUS
 10
39.7500000000001208
 20
276.75
 30
0.0
 40
0.25
 50
90.0
 51
180.0
  0
LINE
  5
253D
  8
0
  6
CONTINUOUS
 10
39.5000000000001208
 20
276.75
 30
0.0
 11
39.5000000000001208
 21
263.2500000000001137
 31
0.0
  0
LINE
  5
253E
  8
0
 10
84.0
 20
231.1721703110972896
 30
0.0
 11
84.0
 21
212.25
 31
0.0
  0
ARC
  5
253F
  8
0
 10
83.75
 20
212.25
 30
0.0
 40
0.25
 50
270.0
 51
0.0
  0
ARC
  5
2540
  8
0
  6
CONTINUOUS
 10
80.7500000000000142
 20
292.7500000000001137
 30
0.0
 40
0.25
 50
180.0
 51
270.0
  0
LINE
  5
2541
  8
0
 10
80.5
 20
284.25
 30
0.0
 11
80.5
 21
274.75
 31
0.0
  0
ARC
  5
2542
  8
0
  6
CONTINUOUS
 10
80.7500000000000142
 20
274.75
 30
0.0
 40
0.25
 50
180.0
 51
270.0
  0
LINE
  5
2543
  8
0
 10
100.5
 20
231.1721703110972896
 30
0.0
 11
100.5
 21
212.25
 31
0.0
  0
LINE
  5
2544
  8
0
 10
104.0
 20
229.7500000000001137
 30
0.0
 11
103.9999999999999005
 21
212.75
 31
0.0
  0
ARC
  5
2545
  8
0
  6
CONTINUOUS
 10
103.7499999999999005
 20
212.75
 30
0.0
 40
0.25
 50
270.0
 51
0.0
  0
LINE
  5
2546
  8
0
 10
118.0
 20
229.7500000000001137
 30
0.0
 11
118.0
 21
212.75
 31
0.0
  0
ARC
  5
2547
  8
0
  6
CONTINUOUS
 10
118.25
 20
212.75
 30
0.0
 40
0.25
 50
180.0
 51
270.0
  0
ARC
  5
2548
  8
0
 10
117.75
 20
229.7500000000001137
 30
0.0
 40
0.25
 50
0.0
 51
90.0
  0
LINE
  5
2549
  8
0
 10
122.0
 20
229.7500000000001137
 30
0.0
 11
122.0
 21
212.75
 31
0.0
  0
ARC
  5
254A
  8
0
  6
CONTINUOUS
 10
121.75
 20
212.75
 30
0.0
 40
0.25
 50
270.0
 51
0.0
  0
LINE
  5
254B
  8
0
 10
136.0
 20
229.7500000000001137
 30
0.0
 11
136.0
 21
212.75
 31
0.0
  0
ARC
  5
254C
  8
0
  6
CONTINUOUS
 10
136.25
 20
212.75
 30
0.0
 40
0.25
 50
180.0
 51
269.9999999999935767
  0
ARC
  5
254D
  8
0
 10
135.75
 20
229.7500000000001137
 30
0.0
 40
0.25
 50
0.0
 51
90.0
  0
LINE
  5
254E
  8
0
 10
135.75
 20
230.0000000000001137
 30
0.0
 11
122.25
 21
230.0000000000001137
 31
0.0
  0
ARC
  5
254F
  8
0
 10
122.25
 20
229.7500000000001137
 30
0.0
 40
0.25
 50
90.0
 51
180.0
  0
LINE
  5
2550
  8
0
 10
117.75
 20
230.0000000000001137
 30
0.0
 11
104.25
 21
230.0000000000001137
 31
0.0
  0
ARC
  5
2551
  8
0
 10
104.25
 20
229.7500000000001137
 30
0.0
 40
0.25
 50
90.0
 51
180.0
  0
LINE
  5
2552
  8
0
  6
CONTINUOUS
 10
80.7500000000000142
 20
259.5000000000001137
 30
0.0
 11
92.75
 21
259.5000000000001137
 31
0.0
  0
ARC
  5
2553
  8
0
  6
CONTINUOUS
 10
80.7500000000000142
 20
259.2500000000001137
 30
0.0
 40
0.25
 50
90.0
 51
180.0
  0
LINE
  5
2554
  8
0
  6
CONTINUOUS
 10
80.7500000000000142
 20
274.5
 30
0.0
 11
92.75
 21
274.5
 31
0.0
  0
LINE
  5
2555
  8
0
 10
138.3166247903552062
 20
212.0
 30
0.0
 11
136.75
 21
212.0
 31
0.0
  0
ARC
  5
2556
  8
0
  6
CONTINUOUS
 10
136.75
 20
212.25
 30
0.0
 40
0.25
 50
180.0
 51
270.0
  0
LINE
  5
2557
  8
0
 10
121.25
 20
212.0
 30
0.0
 11
118.75
 21
212.0
 31
0.0
  0
ARC
  5
2558
  8
0
  6
CONTINUOUS
 10
121.25
 20
212.25
 30
0.0
 40
0.25
 50
270.0
 51
0.0
  0
ARC
  5
2559
  8
0
  6
CONTINUOUS
 10
118.75
 20
212.25
 30
0.0
 40
0.25
 50
180.0
 51
270.0
  0
LINE
  5
255A
  8
0
 10
103.25
 20
212.0
 30
0.0
 11
100.75
 21
212.0
 31
0.0
  0
ARC
  5
255B
  8
0
  6
CONTINUOUS
 10
103.25
 20
212.25
 30
0.0
 40
0.25
 50
270.0
 51
0.0
  0
ARC
  5
255C
  8
0
 10
100.75
 20
212.25
 30
0.0
 40
0.25
 50
180.0
 51
270.0
  0
LINE
  5
255D
  8
0
 10
83.75
 20
212.0
 30
0.0
 11
81.6833752096445238
 21
212.0
 31
0.0
  0
LINE
  5
255E
  8
0
  6
CONTINUOUS
 10
136.5
 20
212.25
 30
0.0
 11
136.5
 21
212.5
 31
0.0
  0
LINE
  5
255F
  8
0
  6
CONTINUOUS
 10
136.5
 20
212.5
 30
0.0
 11
136.249999999999801
 21
212.5
 31
0.0
  0
LINE
  5
2560
  8
0
  6
CONTINUOUS
 10
121.5
 20
212.25
 30
0.0
 11
121.5
 21
212.5
 31
0.0
  0
LINE
  5
2561
  8
0
  6
CONTINUOUS
 10
121.5
 20
212.5
 30
0.0
 11
121.75
 21
212.5
 31
0.0
  0
LINE
  5
2562
  8
0
  6
CONTINUOUS
 10
118.5
 20
212.25
 30
0.0
 11
118.5
 21
212.5
 31
0.0
  0
LINE
  5
2563
  8
0
  6
CONTINUOUS
 10
118.5
 20
212.5
 30
0.0
 11
118.25
 21
212.5
 31
0.0
  0
LINE
  5
2564
  8
0
  6
CONTINUOUS
 10
103.5
 20
212.25
 30
0.0
 11
103.5
 21
212.5
 31
0.0
  0
LINE
  5
2565
  8
0
  6
CONTINUOUS
 10
103.5
 20
212.5
 30
0.0
 11
103.7499999999999005
 21
212.5
 31
0.0
  0
ARC
  5
2566
  8
0
  6
CONTINUOUS
 10
85.5
 20
237.5
 30
0.0
 40
3.5
 50
270.0
 51
316.5736764505872998
  0
ARC
  5
2567
  8
0
  6
CONTINUOUS
 10
88.2234709645986186
 20
234.9221703110972896
 30
0.0
 40
0.25
 50
90.0
 51
136.5736764505869019
  0
LINE
  5
2568
  8
0
  6
CONTINUOUS
 10
100.5
 20
231.1721703110972896
 30
0.0
 11
100.5
 21
234.9221703110972896
 31
0.0
  0
ARC
  5
2569
  8
0
  6
CONTINUOUS
 10
100.25
 20
234.9221703110972896
 30
0.0
 40
0.25
 50
0.0
 51
90.0
  0
LINE
  5
256A
  8
0
  6
CONTINUOUS
 10
100.25
 20
235.1721703110972896
 30
0.0
 11
88.2234709645986186
 21
235.1721703110974033
 31
0.0
  0
LINE
  5
256B
  8
0
  6
CONTINUOUS
 10
84.0
 20
231.1721703110972896
 30
0.0
 11
84.0
 21
233.7500000000001137
 31
0.0
  0
LINE
  5
256C
  8
0
  6
CONTINUOUS
 10
85.5
 20
234.0000000000001137
 30
0.0
 11
84.25
 21
234.0000000000001137
 31
0.0
  0
ARC
  5
256D
  8
0
  6
CONTINUOUS
 10
84.25
 20
233.7500000000001137
 30
0.0
 40
0.25
 50
90.0
 51
180.0
  0
ARC
  5
256E
  8
0
  6
CONTINUOUS
 10
80.25
 20
240.7396641680718972
 30
0.0
 40
0.25
 50
270.0
 51
0.0
  0
LINE
  5
256F
  8
0
  6
CONTINUOUS
 10
80.25
 20
240.4896641680718972
 30
0.0
 11
79.25
 21
240.4896641680718972
 31
0.0
  0
ARC
  5
2570
  8
0
  6
CONTINUOUS
 10
79.25
 20
240.2396641680718972
 30
0.0
 40
0.25
 50
90.0
 51
180.0
  0
LINE
  5
2571
  8
0
  6
CONTINUOUS
 10
80.5
 20
241.25
 30
0.0
 11
80.5
 21
240.7396641680718972
 31
0.0
  0
LINE
  5
2572
  8
0
  6
CONTINUOUS
 10
94.7499999999999858
 20
241.5
 30
0.0
 11
80.7500000000000142
 21
241.5
 31
0.0
  0
ARC
  5
2573
  8
0
  6
CONTINUOUS
 10
80.7500000000000142
 20
241.25
 30
0.0
 40
0.25
 50
90.0
 51
180.0
  0
LINE
  5
2574
  8
0
  6
CONTINUOUS
 10
80.7500000000000142
 20
292.5000000000001137
 30
0.0
 11
86.75
 21
292.5000000000001137
 31
0.0
  0
LINE
  5
2575
  8
0
  6
CONTINUOUS
 10
86.75
 20
284.5
 30
0.0
 11
80.7500000000000142
 21
284.5
 31
0.0
  0
ARC
  5
2576
  8
0
  6
CONTINUOUS
 10
44.4600000000000435
 20
235.9221703110972896
 30
0.0
 40
0.25
 50
0.0
 51
90.0
  0
ARC
  5
2577
  8
0
  6
CONTINUOUS
 10
80.7500000000000142
 20
284.25
 30
0.0
 40
0.25
 50
90.0
 51
180.0
  0
LINE
  5
2578
  8
0
  6
CONTINUOUS
 10
98.5000000000000142
 20
299.2500000000002842
 30
0.0
 11
98.5000000000000142
 21
293.5
 31
0.0
  0
ARC
  5
2579
  8
0
  6
CONTINUOUS
 10
98.75
 20
299.2500000000002842
 30
0.0
 40
0.25
 50
90.0
 51
180.0
  0
ARC
  5
257A
  8
0
  6
CONTINUOUS
 10
98.75
 20
293.5
 30
0.0
 40
0.25
 50
180.0
 51
270.0
  0
LINE
  5
257B
  8
0
  6
CONTINUOUS
 10
121.5
 20
299.2500000000002842
 30
0.0
 11
121.4999999999999005
 21
293.5
 31
0.0
  0
ARC
  5
257C
  8
0
  6
CONTINUOUS
 10
121.25
 20
299.2500000000002842
 30
0.0
 40
0.25
 50
0.0
 51
90.0
  0
LINE
  5
257D
  8
0
  6
CONTINUOUS
 10
87.0
 20
292.2500000000001137
 30
0.0
 11
87.0
 21
284.7500000000001137
 31
0.0
  0
ARC
  5
257E
  8
0
  6
CONTINUOUS
 10
86.75
 20
284.7500000000001137
 30
0.0
 40
0.25
 50
270.0
 51
0.0
  0
ARC
  5
257F
  8
0
  6
CONTINUOUS
 10
86.75
 20
292.2500000000001137
 30
0.0
 40
0.25
 50
0.0
 51
90.0
  0
LINE
  5
2580
  8
0
  6
CONTINUOUS
 10
95.0
 20
241.75
 30
0.0
 11
95.0
 21
249.2500000000001137
 31
0.0
  0
ARC
  5
2581
  8
0
  6
CONTINUOUS
 10
95.25
 20
249.2500000000001137
 30
0.0
 40
0.25
 50
90.0
 51
180.0
  0
ARC
  5
2582
  8
0
  6
CONTINUOUS
 10
94.7499999999999858
 20
241.75
 30
0.0
 40
0.25
 50
270.0
 51
0.0
  0
LINE
  5
2583
  8
0
  6
CONTINUOUS
 10
98.75
 20
293.25
 30
0.0
 11
121.2499999999999005
 21
293.25
 31
0.0
  0
ARC
  5
2584
  8
0
  6
CONTINUOUS
 10
121.2499999999999005
 20
293.5
 30
0.0
 40
0.25
 50
270.0
 51
0.0
  0
LINE
  5
2585
  8
0
  6
CONTINUOUS
 10
93.0
 20
274.25
 30
0.0
 11
93.0
 21
259.7500000000001137
 31
0.0
  0
ARC
  5
2586
  8
0
  6
CONTINUOUS
 10
92.75
 20
259.7500000000001137
 30
0.0
 40
0.25
 50
270.0
 51
0.0
  0
ARC
  5
2587
  8
0
  6
CONTINUOUS
 10
92.75
 20
274.25
 30
0.0
 40
0.25
 50
0.0
 51
90.0
  0
LINE
  5
2588
  8
0
  6
CONTINUOUS
 10
59.25
 20
292.9999999999998863
 30
0.0
 11
66.25
 21
292.9999999999998863
 31
0.0
  0
ARC
  5
2589
  8
0
  6
CONTINUOUS
 10
59.25
 20
293.25
 30
0.0
 40
0.25
 50
180.0
 51
270.0
  0
ARC
  5
258A
  8
0
  6
CONTINUOUS
 10
57.7100000000000435
 20
262.7500000000001137
 30
0.0
 40
0.25
 50
90.0
 51
180.0
  0
ARC
  5
258B
  8
0
  6
CONTINUOUS
 10
66.25
 20
298.7500000000001137
 30
0.0
 40
0.25
 50
0.0
 51
90.0
  0
ARC
  5
258C
  8
0
  6
CONTINUOUS
 10
66.25
 20
293.25
 30
0.0
 40
0.25
 50
270.0
 51
0.0
  0
LINE
  5
258D
  8
0
  6
CONTINUOUS
 10
98.75
 20
299.5000000000002842
 30
0.0
 11
121.25
 21
299.5000000000002842
 31
0.0
  0
LINE
  5
258E
  8
0
  6
CONTINUOUS
 10
80.25
 20
294.5000000000001137
 30
0.0
 11
79.25
 21
294.5000000000001137
 31
0.0
  0
ARC
  5
258F
  8
0
  6
CONTINUOUS
 10
79.25
 20
294.7500000000001137
 30
0.0
 40
0.25
 50
180.0
 51
270.0
  0
LINE
  5
2590
  8
0
  6
CONTINUOUS
 10
15.7500000000001101
 20
249.5
 30
0.0
 11
20.0000000000001101
 21
249.5
 31
0.0
  0
LINE
  5
2591
  8
0
  6
CONTINUOUS
 10
20.2500000000001101
 20
249.75
 30
0.0
 11
20.2500000000001101
 21
251.75
 31
0.0
  0
ARC
  5
2592
  8
0
  6
CONTINUOUS
 10
20.0000000000001101
 20
249.75
 30
0.0
 40
0.25
 50
270.0
 51
0.0
  0
LINE
  5
2593
  8
0
  6
CONTINUOUS
 10
44.7100000000000222
 20
230.2500000000001137
 30
0.0
 11
44.7100000000000222
 21
235.9221703110972896
 31
0.0
  0
ARC
  5
2594
  8
0
  6
CONTINUOUS
 10
33.25
 20
291.2500000000001137
 30
0.0
 40
0.25
 50
270.0
 51
0.0
  0
LINE
  5
2595
  8
0
  6
CONTINUOUS
 10
38.0000000000000995
 20
231.25
 30
0.0
 11
38.0
 21
234.9221703110972896
 31
0.0
  0
ARC
  5
2596
  8
0
  6
CONTINUOUS
 10
38.25
 20
234.9221703110972896
 30
0.0
 40
0.25
 50
90.0
 51
180.0
  0
LINE
  5
2597
  8
0
  6
CONTINUOUS
 10
38.25
 20
235.1721703110972896
 30
0.0
 11
42.2500000000000995
 21
235.1721703110972896
 31
0.0
  0
ARC
  5
2598
  8
0
  6
CONTINUOUS
 10
42.2500000000000995
 20
235.4221703110972896
 30
0.0
 40
0.25
 50
270.0
 51
0.0
  0
LINE
  5
2599
  8
0
  6
CONTINUOUS
 10
42.5000000000000924
 20
235.4221703110972896
 30
0.0
 11
42.5000000000000924
 21
235.9221703110972896
 31
0.0
  0
ARC
  5
259A
  8
0
  6
CONTINUOUS
 10
42.7500000000000995
 20
235.9221703110972896
 30
0.0
 40
0.25
 50
90.0
 51
180.0
  0
LINE
  5
259B
  8
0
  6
CONTINUOUS
 10
42.7500000000000995
 20
236.1721703110972896
 30
0.0
 11
44.4600000000000435
 21
236.1721703110972896
 31
0.0
  0
LINE
  5
259C
  8
0
  6
CONTINUOUS
 10
38.7500000000001208
 20
231.0
 30
0.0
 11
38.2500000000001208
 21
231.0
 31
0.0
  0
ARC
  5
259D
  8
0
  6
CONTINUOUS
 10
38.2500000000001208
 20
231.25
 30
0.0
 40
0.25
 50
180.0
 51
270.0
  0
LINE
  5
259E
  8
0
  6
CONTINUOUS
 10
57.4600000000000222
 20
233.7500000000001137
 30
0.0
 11
57.4600000000000222
 21
262.7500000000001137
 31
0.0
  0
ARC
  5
259F
  8
0
  6
CONTINUOUS
 10
85.0
 20
251.75
 30
0.0
 40
0.25
 50
0.0
 51
90.0
  0
LINE
  5
25A0
  8
0
  6
CONTINUOUS
 10
58.7100000000000222
 20
232.749999999999801
 30
0.0
 11
58.7100000000000222
 21
245.75
 31
0.0
  0
ARC
  5
25A1
  8
0
  6
CONTINUOUS
 10
58.9600000000000435
 20
245.75
 30
0.0
 40
0.25
 50
90.0
 51
180.0
  0
LINE
  5
25A2
  8
0
  6
CONTINUOUS
 10
57.7100000000000435
 20
263.0000000000001137
 30
0.0
 11
59.2100000000000222
 21
263.0000000000001137
 31
0.0
  0
LINE
  5
25A3
  8
0
  6
CONTINUOUS
 10
14.0000000000001101
 20
294.7500000000001137
 30
0.0
 11
14.0000000000001101
 21
296.0
 31
0.0
  0
LINE
  5
25A4
  8
0
  6
CONTINUOUS
 10
15.2500000000001101
 20
294.5000000000001137
 30
0.0
 11
14.2500000000001101
 21
294.5000000000001137
 31
0.0
  0
ARC
  5
25A5
  8
0
  6
CONTINUOUS
 10
14.2500000000001101
 20
294.7500000000001137
 30
0.0
 40
0.25
 50
180.0
 51
270.0
  0
LINE
  5
25A6
  8
0
  6
CONTINUOUS
 10
64.25
 20
232.5000000000001137
 30
0.0
 11
58.9600000000000435
 21
232.499999999999801
 31
0.0
  0
ARC
  5
25A7
  8
0
  6
CONTINUOUS
 10
58.9600000000000435
 20
232.749999999999801
 30
0.0
 40
0.25
 50
180.0
 51
270.0
  0
ARC
  5
25A8
  8
0
  6
CONTINUOUS
 10
85.0
 20
296.0
 30
0.0
 40
6.0
 50
90.0
 51
180.0
  0
LINE
  5
25A9
  8
0
 10
80.5
 20
294.2500000000001137
 30
0.0
 11
80.5
 21
292.7500000000001137
 31
0.0
  0
ARC
  5
25AA
  8
0
  6
CONTINUOUS
 10
80.25
 20
294.2500000000001137
 30
0.0
 40
0.25
 50
0.0
 51
90.0
  0
LINE
  5
25AB
  8
0
  6
CONTINUOUS
 10
79.0
 20
294.7500000000001137
 30
0.0
 11
79.0
 21
296.0
 31
0.0
  0
ARC
  5
25AC
  8
0
  6
CONTINUOUS
 10
15.7500000000001101
 20
249.75
 30
0.0
 40
0.25
 50
180.0
 51
270.0
  0
LINE
  5
25AD
  8
0
  6
CONTINUOUS
 10
82.2499999999999858
 20
256.0
 30
0.0
 11
104.75
 21
256.0
 31
0.0
  0
LINE
  5
25AE
  8
0
  6
CONTINUOUS
 10
33.5000000000001208
 20
297.75
 30
0.0
 11
33.5
 21
291.2500000000001137
 31
0.0
  0
ARC
  5
25AF
  8
0
  6
CONTINUOUS
 10
31.7500000000001101
 20
297.75
 30
0.0
 40
0.25
 50
0.0
 51
90.0
  0
LINE
  5
25B0
  8
0
  6
CONTINUOUS
 10
20.0000000000001101
 20
252.0
 30
0.0
 11
17.2500000000001101
 21
252.0
 31
0.0
  0
ARC
  5
25B1
  8
0
  6
CONTINUOUS
 10
20.0000000000001101
 20
251.75
 30
0.0
 40
0.25
 50
0.0
 51
90.0
  0
LINE
  5
25B2
  8
0
  6
CONTINUOUS
 10
17.0000000000001101
 20
252.25
 30
0.0
 11
17.0000000000001101
 21
255.75
 31
0.0
  0
ARC
  5
25B3
  8
0
  6
CONTINUOUS
 10
17.2500000000001101
 20
252.25
 30
0.0
 40
0.25
 50
180.0
 51
270.0
  0
ARC
  5
25B4
  8
0
  6
CONTINUOUS
 10
104.75
 20
255.75
 30
0.0
 40
0.25
 50
0.0
 51
90.0
  0
ARC
  5
25B5
  8
0
  6
CONTINUOUS
 10
82.2499999999999858
 20
255.75
 30
0.0
 40
0.25
 50
90.0
 51
179.9999999999967031
  0
LINE
  5
25B6
  8
0
  6
CONTINUOUS
 10
95.25
 20
249.5
 30
0.0
 11
104.75
 21
249.5
 31
0.0
  0
LINE
  5
25B7
  8
0
  6
CONTINUOUS
 10
32.0000000000001208
 20
297.75
 30
0.0
 11
32.0
 21
291.2500000000001137
 31
0.0
  0
ARC
  5
25B8
  8
0
  6
CONTINUOUS
 10
32.25
 20
291.2500000000001137
 30
0.0
 40
0.25
 50
180.0
 51
270.0
  0
LINE
  5
25B9
  8
0
 10
80.5
 20
259.2500000000001137
 30
0.0
 11
80.5
 21
249.75
 31
0.0
  0
LINE
  5
25BA
  8
0
  6
CONTINUOUS
 10
33.25
 20
291.0000000000001137
 30
0.0
 11
32.25
 21
291.0000000000001137
 31
0.0
  0
LINE
  5
25BB
  8
0
  6
CONTINUOUS
 10
105.0
 20
249.75
 30
0.0
 11
105.0
 21
255.75
 31
0.0
  0
LINE
  5
25BC
  8
0
  6
CONTINUOUS
 10
80.7500000000000142
 20
249.5
 30
0.0
 11
85.0
 21
249.5
 31
0.0
  0
ARC
  5
25BD
  8
0
  6
CONTINUOUS
 10
80.7500000000000142
 20
249.75
 30
0.0
 40
0.25
 50
180.0
 51
270.0
  0
LINE
  5
25BE
  8
0
  6
CONTINUOUS
 10
85.25
 20
249.75
 30
0.0
 11
85.25
 21
251.75
 31
0.0
  0
ARC
  5
25BF
  8
0
  6
CONTINUOUS
 10
85.0
 20
249.75
 30
0.0
 40
0.25
 50
270.0
 51
0.0
  0
LINE
  5
25C0
  8
0
  6
CONTINUOUS
 10
85.0
 20
252.0
 30
0.0
 11
82.2499999999999858
 21
252.0
 31
0.0
  0
ARC
  5
25C1
  8
0
  6
CONTINUOUS
 10
82.2499999999999858
 20
252.25
 30
0.0
 40
0.25
 50
179.9999999999967031
 51
270.0
  0
LINE
  5
25C2
  8
0
  6
CONTINUOUS
 10
82.0
 20
252.25
 30
0.0
 11
82.0
 21
255.75
 31
0.0
  0
ARC
  5
25C3
  8
0
  6
CONTINUOUS
 10
104.75
 20
249.75
 30
0.0
 40
0.25
 50
270.0
 51
0.0
  0
CIRCLE
  5
25E3
  8
0
 10
229.3835927038572038
 20
249.6643554276556927
 30
0.0
 40
1.575
  0
CIRCLE
  5
25E4
  8
0
 10
252.3835927038572038
 20
249.6643554276556927
 30
0.0
 40
1.5749999999999991
  0
CIRCLE
  5
25E5
  8
0
 10
229.3835927038572038
 20
240.6643554276556074
 30
0.0
 40
1.5749999999999991
  0
CIRCLE
  5
25E6
  8
0
 10
252.3835927038572038
 20
240.6643554276556074
 30
0.0
 40
1.5749999999999991
  0
LINE
  5
25E7
  8
0
 10
228.8835927038572038
 20
234.1643554276556927
 30
0.0
 11
252.8835927038572038
 21
234.1643554276556927
 31
0.0
  0
ARC
  5
25E8
  8
0
 10
228.8835927038572038
 20
240.1643554276556927
 30
0.0
 40
6.0
 50
180.0
 51
270.0
  0
ARC
  5
25E9
  8
0
 10
252.8835927038572038
 20
240.1643554276556927
 30
0.0
 40
6.0
 50
270.0
 51
0.0
  0
LINE
  5
25EA
  8
0
 10
228.8835927038572038
 20
256.1643554276557211
 30
0.0
 11
252.8835927038572038
 21
256.1643554276557211
 31
0.0
  0
ARC
  5
25EB
  8
0
 10
252.8835927038572038
 20
250.1643554276556927
 30
0.0
 40
6.0
 50
0.0
 51
90.0
  0
ARC
  5
25EC
  8
0
 10
228.8835927038572038
 20
250.1643554276556927
 30
0.0
 40
6.0
 50
90.0
 51
180.0
  0
LINE
  5
25ED
  8
0
 10
258.8835927038572891
 20
240.1643554276556927
 30
0.0
 11
258.8835927038572891
 21
243.4143554276556927
 31
0.0
  0
LINE
  5
25EE
  8
0
 10
222.8835927038572038
 20
240.1643554276556927
 30
0.0
 11
222.8835927038572038
 21
243.4143554276556927
 31
0.0
  0
LINE
  5
25EF
  8
0
 10
258.6335927038571754
 20
243.6643554276556927
 30
0.0
 11
223.1335927038572038
 21
243.6643554276556927
 31
0.0
  0
ARC
  5
25F0
  8
0
 10
258.6335927038571754
 20
243.4143554276556927
 30
0.0
 40
0.25
 50
0.0
 51
90.0
  0
ARC
  5
25F1
  8
0
 10
223.1335927038572038
 20
243.4143554276556927
 30
0.0
 40
0.25
 50
90.0
 51
180.0
  0
LINE
  5
25F2
  8
0
 10
258.8835927038572891
 20
246.9143554276556074
 30
0.0
 11
258.8835927038572891
 21
250.1643554276556927
 31
0.0
  0
ARC
  5
25F3
  8
0
 10
258.6335927038571754
 20
246.9143554276556074
 30
0.0
 40
0.25
 50
270.0
 51
0.0
  0
LINE
  5
25F4
  8
0
 10
222.8835927038572038
 20
246.9143554276556074
 30
0.0
 11
222.8835927038572038
 21
250.1643554276556927
 31
0.0
  0
ARC
  5
25F5
  8
0
 10
223.1335927038572038
 20
246.9143554276556074
 30
0.0
 40
0.25
 50
180.0
 51
270.0
  0
LINE
  5
25F6
  8
0
 10
258.6335927038571754
 20
246.6643554276556927
 30
0.0
 11
223.1335927038572038
 21
246.6643554276556927
 31
0.0
  0
CIRCLE
  5
25F8
  8
0
 10
147.1114435087438892
 20
204.6468188578573972
 30
0.0
 40
1.575
  0
CIRCLE
  5
25F9
  8
0
 10
170.1114435087440029
 20
204.6468188578573972
 30
0.0
 40
1.5749999999999991
  0
CIRCLE
  5
25FA
  8
0
 10
147.1114435087438892
 20
195.646818857857312
 30
0.0
 40
1.5749999999999991
  0
CIRCLE
  5
25FB
  8
0
 10
170.1114435087440029
 20
195.646818857857312
 30
0.0
 40
1.5749999999999991
  0
LINE
  5
25FC
  8
0
 10
146.6114435087438892
 20
189.146818857857312
 30
0.0
 11
170.6114435087440029
 21
189.146818857857312
 31
0.0
  0
ARC
  5
25FD
  8
0
 10
146.6114435087438892
 20
195.146818857857312
 30
0.0
 40
6.0
 50
180.0
 51
270.0
  0
ARC
  5
25FE
  8
0
 10
170.6114435087440029
 20
195.146818857857312
 30
0.0
 40
6.0
 50
270.0
 51
0.0
  0
LINE
  5
25FF
  8
0
 10
146.6114435087438892
 20
211.146818857857312
 30
0.0
 11
170.6114435087440029
 21
211.146818857857312
 31
0.0
  0
ARC
  5
2600
  8
0
 10
170.6114435087440029
 20
205.146818857857312
 30
0.0
 40
6.0
 50
0.0
 51
90.0
  0
ARC
  5
2601
  8
0
 10
146.6114435087438892
 20
205.146818857857312
 30
0.0
 40
6.0
 50
90.0
 51
180.0
  0
LINE
  5
2602
  8
0
 10
176.6114435087438892
 20
195.146818857857312
 30
0.0
 11
176.6114435087438892
 21
198.396818857857312
 31
0.0
  0
LINE
  5
2603
  8
0
 10
140.6114435087438892
 20
195.146818857857312
 30
0.0
 11
140.6114435087438892
 21
198.396818857857312
 31
0.0
  0
LINE
  5
2604
  8
0
 10
176.3614435087440029
 20
198.646818857857312
 30
0.0
 11
140.8614435087438892
 21
198.646818857857312
 31
0.0
  0
ARC
  5
2605
  8
0
 10
176.3614435087440029
 20
198.396818857857312
 30
0.0
 40
0.25
 50
0.0
 51
90.0
  0
ARC
  5
2606
  8
0
 10
140.8614435087438892
 20
198.396818857857312
 30
0.0
 40
0.25
 50
90.0
 51
180.0
  0
LINE
  5
2607
  8
0
 10
176.6114435087438892
 20
201.8968188578575109
 30
0.0
 11
176.6114435087438892
 21
205.146818857857312
 31
0.0
  0
ARC
  5
2608
  8
0
 10
176.3614435087440029
 20
201.8968188578575109
 30
0.0
 40
0.25
 50
270.0
 51
0.0
  0
LINE
  5
2609
  8
0
 10
140.6114435087438892
 20
201.8968188578575109
 30
0.0
 11
140.6114435087438892
 21
205.146818857857312
 31
0.0
  0
ARC
  5
260A
  8
0
 10
140.8614435087438892
 20
201.8968188578575109
 30
0.0
 40
0.25
 50
180.0
 51
270.0
  0
LINE
  5
260B
  8
0
 10
176.3614435087440029
 20
201.6468188578575962
 30
0.0
 11
140.8614435087438892
 21
201.6468188578575962
 31
0.0
  0
CIRCLE
  5
2758
  8
0
 10
186.1114435087440029
 20
195.646818857857312
 30
0.0
 40
1.5749999999999991
  0
CIRCLE
  5
2759
  8
0
 10
209.1114435087440029
 20
195.646818857857312
 30
0.0
 40
1.5749999999999991
  0
LINE
  5
275A
  8
0
 10
185.6114435087438892
 20
189.146818857857312
 30
0.0
 11
209.6114435087440029
 21
189.146818857857312
 31
0.0
  0
ARC
  5
275B
  8
0
 10
185.6114435087438892
 20
195.146818857857312
 30
0.0
 40
6.0
 50
180.0
 51
270.0
  0
ARC
  5
275C
  8
0
 10
209.6114435087440029
 20
195.146818857857312
 30
0.0
 40
6.0
 50
270.0
 51
0.0
  0
LINE
  5
275D
  8
0
 10
215.6114435087440029
 20
195.146818857857312
 30
0.0
 11
215.6114435087440029
 21
198.396818857857312
 31
0.0
  0
LINE
  5
275E
  8
0
 10
179.6114435087440029
 20
195.146818857857312
 30
0.0
 11
179.6114435087440029
 21
198.396818857857312
 31
0.0
  0
LINE
  5
275F
  8
0
 10
215.3614435087440029
 20
198.646818857857312
 30
0.0
 11
179.8614435087440029
 21
198.646818857857312
 31
0.0
  0
ARC
  5
2760
  8
0
 10
215.3614435087440029
 20
198.396818857857312
 30
0.0
 40
0.25
 50
0.0
 51
90.0
  0
ARC
  5
2761
  8
0
 10
179.8614435087440029
 20
198.396818857857312
 30
0.0
 40
0.25
 50
90.0
 51
180.0
  0
CIRCLE
  5
2762
  8
0
 10
252.2623478621125912
 20
201.5469879196456873
 30
0.0
 40
1.5749999999999991
  0
CIRCLE
  5
2763
  8
0
 10
275.2623478621126196
 20
201.5469879196456873
 30
0.0
 40
1.5749999999999991
  0
LINE
  5
2764
  8
0
 10
251.7623478621125912
 20
195.0469879196456873
 30
0.0
 11
275.7623478621126196
 21
195.0469879196456873
 31
0.0
  0
ARC
  5
2765
  8
0
 10
251.7623478621125912
 20
201.0469879196456873
 30
0.0
 40
6.0
 50
180.0
 51
270.0
  0
ARC
  5
2766
  8
0
 10
275.7623478621126196
 20
201.0469879196456873
 30
0.0
 40
6.0
 50
270.0
 51
0.0
  0
LINE
  5
2767
  8
0
 10
281.7623478621126196
 20
201.0469879196456873
 30
0.0
 11
281.7623478621126196
 21
204.296987919645801
 31
0.0
  0
LINE
  5
2768
  8
0
 10
245.7623478621125912
 20
201.0469879196456873
 30
0.0
 11
245.7623478621125912
 21
204.296987919645801
 31
0.0
  0
LINE
  5
2769
  8
0
 10
281.5123478621126196
 20
204.546987919645801
 30
0.0
 11
246.0123478621125912
 21
204.546987919645801
 31
0.0
  0
ARC
  5
276A
  8
0
 10
281.5123478621126196
 20
204.296987919645801
 30
0.0
 40
0.25
 50
0.0
 51
90.0
  0
ARC
  5
276B
  8
0
 10
246.0123478621125912
 20
204.296987919645801
 30
0.0
 40
0.25
 50
90.0
 51
180.0
  0
LINE
  5
2E91
  8
0
 10
144.0000000000001137
 20
179.0
 30
0.0
 11
144.0000000000001137
 21
100.0
 31
0.0
  0
LINE
  5
2E92
  8
0
 10
170.460000000000008
 20
123.8499999999999943
 30
0.0
 11
170.460000000000008
 21
175.1500000000000057
 31
0.0
  0
ARC
  5
2E93
  8
0
 10
170.710000000000008
 20
123.8499999999999943
 30
0.0
 40
0.25
 50
180.0
 51
270.0
  0
LINE
  5
2E94
  8
0
 10
170.710000000000008
 20
175.4000000000000057
 30
0.0
 11
176.2900000000001057
 21
175.4000000000000057
 31
0.0
  0
ARC
  5
2E95
  8
0
 10
170.710000000000008
 20
175.1500000000000057
 30
0.0
 40
0.25
 50
90.0
 51
180.0
  0
LINE
  5
2E96
  8
0
 10
176.539999999999992
 20
175.1500000000000057
 30
0.0
 11
176.539999999999992
 21
123.8499999999999943
 31
0.0
  0
ARC
  5
2E97
  8
0
 10
176.2900000000001057
 20
175.1500000000000057
 30
0.0
 40
0.25
 50
0.0
 51
90.0
  0
ARC
  5
2E98
  8
0
 10
176.2900000000001057
 20
123.8499999999999943
 30
0.0
 40
0.25
 50
270.0
 51
0.0
  0
LINE
  5
2E99
  8
0
 10
176.2900000000001057
 20
123.5999999999999943
 30
0.0
 11
170.710000000000008
 21
123.5999999999999943
 31
0.0
  0
LINE
  5
2E9A
  8
0
 10
144.0000000000001137
 20
88.0
 30
0.0
 11
144.0000000000001137
 21
9.0
 31
0.0
  0
LINE
  5
2E9B
  8
0
 10
296.0
 20
185.0
 30
0.0
 11
150.0000000000001137
 21
185.0
 31
0.0
  0
ARC
  5
2E9C
  8
0
 10
150.0000000000001137
 20
179.0
 30
0.0
 40
6.0
 50
90.0
 51
180.0
  0
LINE
  5
2E9D
  8
0
 10
296.0
 20
94.0
 30
0.0
 11
150.0000000000001137
 21
94.0
 31
0.0
  0
ARC
  5
2E9E
  8
0
 10
150.0000000000001137
 20
100.0
 30
0.0
 40
6.0
 50
180.0
 51
270.0
  0
CIRCLE
  5
2E9F
  8
0
 10
173.5
 20
178.5
 30
0.0
 40
1.5749999999999991
  0
LINE
  5
2EA0
  8
0
  6
CONTINUOUS
 10
198.0
 20
177.0
 30
0.0
 11
246.0
 21
177.0
 31
0.0
  0
ARC
  5
2EA1
  8
0
  6
CONTINUOUS
 10
246.0
 20
176.0
 30
0.0
 40
1.0
 50
0.0
 51
90.0
  0
ARC
  5
2EA2
  8
0
  6
CONTINUOUS
 10
198.0
 20
176.0
 30
0.0
 40
1.0
 50
90.0
 51
180.0
  0
LINE
  5
2EA3
  8
0
  6
CONTINUOUS
 10
247.0
 20
176.0
 30
0.0
 11
247.0
 21
168.0
 31
0.0
  0
ARC
  5
2EA4
  8
0
  6
CONTINUOUS
 10
246.0
 20
168.0
 30
0.0
 40
1.0
 50
270.0
 51
0.0
  0
LINE
  5
2EA5
  8
0
  6
CONTINUOUS
 10
246.0
 20
167.0
 30
0.0
 11
198.0
 21
167.0
 31
0.0
  0
ARC
  5
2EA6
  8
0
  6
CONTINUOUS
 10
198.0
 20
168.0
 30
0.0
 40
1.0
 50
180.0
 51
270.0
  0
LINE
  5
2EA7
  8
0
  6
CONTINUOUS
 10
197.0
 20
168.0
 30
0.0
 11
197.0
 21
176.0
 31
0.0
  0
CIRCLE
  5
2EA8
  8
0
  6
CONTINUOUS
 10
173.5
 20
120.5
 30
0.0
 40
1.5749999999999991
  0
CIRCLE
  5
2EA9
  8
0
  6
CONTINUOUS
 10
295.5
 20
100.5
 30
0.0
 40
1.574999999999988
  0
CIRCLE
  5
2EAA
  8
0
  6
CONTINUOUS
 10
295.5
 20
120.5
 30
0.0
 40
1.574999999999988
  0
CIRCLE
  5
2EAB
  8
0
  6
CONTINUOUS
 10
295.5
 20
178.5
 30
0.0
 40
1.574999999999988
  0
ARC
  5
2EAC
  8
0
  6
CONTINUOUS
 10
290.4999999999998863
 20
101.4000000000001052
 30
0.0
 40
1.649999999999999
 50
270.0
 51
90.0
  0
ARC
  5
2EAD
  8
0
  6
CONTINUOUS
 10
283.3499999999999091
 20
101.4000000000001052
 30
0.0
 40
1.649999999999999
 50
90.0
 51
270.0
  0
LINE
  5
2EAE
  8
0
  6
CONTINUOUS
 10
283.3499999999999091
 20
103.0499999999999972
 30
0.0
 11
290.4999999999998863
 21
103.0499999999999972
 31
0.0
  0
LINE
  5
2EAF
  8
0
  6
CONTINUOUS
 10
290.4999999999998863
 20
99.7500000000000568
 30
0.0
 11
283.3499999999999091
 21
99.7500000000000568
 31
0.0
  0
ARC
  5
2EB0
  8
0
  6
CONTINUOUS
 10
290.4999999999998863
 20
107.75
 30
0.0
 40
1.649999999999999
 50
270.0
 51
90.0
  0
ARC
  5
2EB1
  8
0
  6
CONTINUOUS
 10
283.3499999999999091
 20
107.75
 30
0.0
 40
1.649999999999999
 50
90.0
 51
270.0
  0
LINE
  5
2EB2
  8
0
  6
CONTINUOUS
 10
283.3499999999999091
 20
109.4000000000001052
 30
0.0
 11
290.4999999999998863
 21
109.4000000000001052
 31
0.0
  0
LINE
  5
2EB3
  8
0
  6
CONTINUOUS
 10
290.4999999999998863
 20
106.0999999999999943
 30
0.0
 11
283.3499999999999091
 21
106.1000000000000938
 31
0.0
  0
ARC
  5
2EB4
  8
0
  6
CONTINUOUS
 10
290.4999999999998863
 20
114.0999999999999943
 30
0.0
 40
1.649999999999999
 50
270.0
 51
90.0
  0
ARC
  5
2EB5
  8
0
  6
CONTINUOUS
 10
283.3499999999999091
 20
114.0999999999999943
 30
0.0
 40
1.649999999999999
 50
90.0
 51
270.0
  0
LINE
  5
2EB6
  8
0
  6
CONTINUOUS
 10
283.3499999999999091
 20
115.75
 30
0.0
 11
290.4999999999998863
 21
115.75
 31
0.0
  0
LINE
  5
2EB7
  8
0
  6
CONTINUOUS
 10
290.4999999999998863
 20
112.4500000000000028
 30
0.0
 11
283.3499999999999091
 21
112.4500000000000028
 31
0.0
  0
ARC
  5
2EB8
  8
0
  6
CONTINUOUS
 10
271.4499999999998749
 20
101.4000000000001052
 30
0.0
 40
1.649999999999999
 50
270.0
 51
90.0
  0
ARC
  5
2EB9
  8
0
  6
CONTINUOUS
 10
264.299999999999784
 20
101.4000000000001052
 30
0.0
 40
1.649999999999999
 50
90.0
 51
270.0
  0
LINE
  5
2EBA
  8
0
  6
CONTINUOUS
 10
264.299999999999784
 20
103.0499999999999972
 30
0.0
 11
271.4499999999998749
 21
103.0499999999999972
 31
0.0
  0
LINE
  5
2EBB
  8
0
  6
CONTINUOUS
 10
271.4499999999998749
 20
99.7500000000000568
 30
0.0
 11
264.299999999999784
 21
99.7500000000000568
 31
0.0
  0
ARC
  5
2EBC
  8
0
  6
CONTINUOUS
 10
277.3999999999999204
 20
104.6500000000001052
 30
0.0
 40
1.649999999999977
 50
180.0
 51
0.0
  0
ARC
  5
2EBD
  8
0
  6
CONTINUOUS
 10
277.3999999999999204
 20
111.0
 30
0.0
 40
1.649999999999977
 50
0.0
 51
180.0
  0
LINE
  5
2EBE
  8
0
  6
CONTINUOUS
 10
275.7499999999998863
 20
111.0
 30
0.0
 11
275.7499999999998863
 21
104.6500000000001052
 31
0.0
  0
LINE
  5
2EBF
  8
0
  6
CONTINUOUS
 10
279.049999999999784
 20
104.6500000000001052
 30
0.0
 11
279.049999999999784
 21
111.0
 31
0.0
  0
ARC
  5
2EC0
  8
0
  6
CONTINUOUS
 10
271.4499999999998749
 20
107.75
 30
0.0
 40
1.649999999999999
 50
270.0
 51
90.0
  0
ARC
  5
2EC1
  8
0
  6
CONTINUOUS
 10
264.299999999999784
 20
107.75
 30
0.0
 40
1.649999999999999
 50
90.0
 51
270.0
  0
LINE
  5
2EC2
  8
0
  6
CONTINUOUS
 10
264.299999999999784
 20
109.4000000000001052
 30
0.0
 11
271.4499999999998749
 21
109.4000000000001052
 31
0.0
  0
LINE
  5
2EC3
  8
0
  6
CONTINUOUS
 10
271.4499999999998749
 20
106.0999999999999943
 30
0.0
 11
264.299999999999784
 21
106.1000000000000938
 31
0.0
  0
ARC
  5
2EC4
  8
0
  6
CONTINUOUS
 10
271.4499999999998749
 20
114.0999999999999943
 30
0.0
 40
1.649999999999999
 50
270.0
 51
90.0
  0
ARC
  5
2EC5
  8
0
  6
CONTINUOUS
 10
264.299999999999784
 20
114.0999999999999943
 30
0.0
 40
1.649999999999999
 50
90.0
 51
270.0
  0
LINE
  5
2EC6
  8
0
  6
CONTINUOUS
 10
264.299999999999784
 20
115.75
 30
0.0
 11
271.4499999999998749
 21
115.75
 31
0.0
  0
LINE
  5
2EC7
  8
0
  6
CONTINUOUS
 10
271.4499999999998749
 20
112.4500000000000028
 30
0.0
 11
264.299999999999784
 21
112.4500000000000028
 31
0.0
  0
ARC
  5
2EC8
  8
0
  6
CONTINUOUS
 10
252.399999999999892
 20
101.4000000000001052
 30
0.0
 40
1.649999999999999
 50
270.0
 51
90.0
  0
ARC
  5
2EC9
  8
0
  6
CONTINUOUS
 10
245.2499999999998863
 20
101.4000000000001052
 30
0.0
 40
1.649999999999999
 50
90.0
 51
270.0
  0
LINE
  5
2ECA
  8
0
  6
CONTINUOUS
 10
245.2499999999998863
 20
103.0499999999999972
 30
0.0
 11
252.399999999999892
 21
103.0499999999999972
 31
0.0
  0
LINE
  5
2ECB
  8
0
  6
CONTINUOUS
 10
252.399999999999892
 20
99.7500000000000568
 30
0.0
 11
245.2499999999998863
 21
99.7500000000000568
 31
0.0
  0
ARC
  5
2ECC
  8
0
  6
CONTINUOUS
 10
258.3499999999999091
 20
104.6500000000001052
 30
0.0
 40
1.649999999999977
 50
180.0
 51
0.0
  0
ARC
  5
2ECD
  8
0
  6
CONTINUOUS
 10
258.3499999999999091
 20
111.0
 30
0.0
 40
1.649999999999977
 50
0.0
 51
180.0
  0
LINE
  5
2ECE
  8
0
  6
CONTINUOUS
 10
256.6999999999998749
 20
111.0
 30
0.0
 11
256.6999999999998749
 21
104.6500000000001052
 31
0.0
  0
LINE
  5
2ECF
  8
0
  6
CONTINUOUS
 10
259.9999999999998863
 20
104.6500000000001052
 30
0.0
 11
259.9999999999998863
 21
111.0
 31
0.0
  0
ARC
  5
2ED0
  8
0
  6
CONTINUOUS
 10
252.399999999999892
 20
107.75
 30
0.0
 40
1.649999999999999
 50
270.0
 51
90.0
  0
ARC
  5
2ED1
  8
0
  6
CONTINUOUS
 10
245.2499999999998863
 20
107.75
 30
0.0
 40
1.649999999999999
 50
90.0
 51
270.0
  0
LINE
  5
2ED2
  8
0
  6
CONTINUOUS
 10
245.2499999999998863
 20
109.4000000000001052
 30
0.0
 11
252.399999999999892
 21
109.4000000000001052
 31
0.0
  0
LINE
  5
2ED3
  8
0
  6
CONTINUOUS
 10
252.399999999999892
 20
106.0999999999999943
 30
0.0
 11
245.2499999999998863
 21
106.1000000000000938
 31
0.0
  0
ARC
  5
2ED4
  8
0
  6
CONTINUOUS
 10
252.399999999999892
 20
114.0999999999999943
 30
0.0
 40
1.649999999999999
 50
270.0
 51
90.0
  0
ARC
  5
2ED5
  8
0
  6
CONTINUOUS
 10
245.2499999999998863
 20
114.0999999999999943
 30
0.0
 40
1.649999999999999
 50
90.0
 51
270.0
  0
LINE
  5
2ED6
  8
0
  6
CONTINUOUS
 10
245.2499999999998863
 20
115.75
 30
0.0
 11
252.399999999999892
 21
115.75
 31
0.0
  0
LINE
  5
2ED7
  8
0
  6
CONTINUOUS
 10
252.399999999999892
 20
112.4500000000000028
 30
0.0
 11
245.2499999999998863
 21
112.4500000000000028
 31
0.0
  0
ARC
  5
2ED8
  8
0
  6
CONTINUOUS
 10
233.3499999999999091
 20
101.4000000000001052
 30
0.0
 40
1.649999999999999
 50
270.0
 51
90.0
  0
ARC
  5
2ED9
  8
0
  6
CONTINUOUS
 10
226.1999999999997897
 20
101.4000000000001052
 30
0.0
 40
1.649999999999999
 50
90.0
 51
270.0
  0
LINE
  5
2EDA
  8
0
  6
CONTINUOUS
 10
226.1999999999997897
 20
103.0499999999999972
 30
0.0
 11
233.3499999999999091
 21
103.0499999999999972
 31
0.0
  0
LINE
  5
2EDB
  8
0
  6
CONTINUOUS
 10
233.3499999999999091
 20
99.7500000000000568
 30
0.0
 11
226.1999999999997897
 21
99.7500000000000568
 31
0.0
  0
ARC
  5
2EDC
  8
0
  6
CONTINUOUS
 10
239.2999999999998124
 20
104.6500000000001052
 30
0.0
 40
1.649999999999977
 50
180.0
 51
0.0
  0
ARC
  5
2EDD
  8
0
  6
CONTINUOUS
 10
239.2999999999998124
 20
111.0
 30
0.0
 40
1.649999999999977
 50
0.0
 51
180.0
  0
LINE
  5
2EDE
  8
0
  6
CONTINUOUS
 10
237.649999999999892
 20
111.0
 30
0.0
 11
237.649999999999892
 21
104.6500000000001052
 31
0.0
  0
LINE
  5
2EDF
  8
0
  6
CONTINUOUS
 10
240.9499999999997897
 20
104.6500000000001052
 30
0.0
 11
240.9499999999997897
 21
111.0
 31
0.0
  0
ARC
  5
2EE0
  8
0
  6
CONTINUOUS
 10
233.3499999999999091
 20
107.75
 30
0.0
 40
1.649999999999999
 50
270.0
 51
90.0
  0
ARC
  5
2EE1
  8
0
  6
CONTINUOUS
 10
226.1999999999997897
 20
107.75
 30
0.0
 40
1.649999999999999
 50
90.0
 51
270.0
  0
LINE
  5
2EE2
  8
0
  6
CONTINUOUS
 10
226.1999999999997897
 20
109.4000000000001052
 30
0.0
 11
233.3499999999999091
 21
109.4000000000001052
 31
0.0
  0
LINE
  5
2EE3
  8
0
  6
CONTINUOUS
 10
233.3499999999999091
 20
106.0999999999999943
 30
0.0
 11
226.1999999999997897
 21
106.1000000000000938
 31
0.0
  0
ARC
  5
2EE4
  8
0
  6
CONTINUOUS
 10
233.3499999999999091
 20
114.0999999999999943
 30
0.0
 40
1.649999999999999
 50
270.0
 51
90.0
  0
ARC
  5
2EE5
  8
0
  6
CONTINUOUS
 10
226.1999999999997897
 20
114.0999999999999943
 30
0.0
 40
1.649999999999999
 50
90.0
 51
270.0
  0
LINE
  5
2EE6
  8
0
  6
CONTINUOUS
 10
226.1999999999997897
 20
115.75
 30
0.0
 11
233.3499999999999091
 21
115.75
 31
0.0
  0
LINE
  5
2EE7
  8
0
  6
CONTINUOUS
 10
233.3499999999999091
 20
112.4500000000000028
 30
0.0
 11
226.1999999999997897
 21
112.4500000000000028
 31
0.0
  0
ARC
  5
2EE8
  8
0
  6
CONTINUOUS
 10
214.2999999999998124
 20
101.4000000000001052
 30
0.0
 40
1.649999999999999
 50
270.0
 51
90.0
  0
ARC
  5
2EE9
  8
0
  6
CONTINUOUS
 10
207.149999999999892
 20
101.4000000000001052
 30
0.0
 40
1.649999999999999
 50
90.0
 51
270.0
  0
LINE
  5
2EEA
  8
0
  6
CONTINUOUS
 10
207.149999999999892
 20
103.0499999999999972
 30
0.0
 11
214.2999999999998124
 21
103.0499999999999972
 31
0.0
  0
LINE
  5
2EEB
  8
0
  6
CONTINUOUS
 10
214.2999999999998124
 20
99.7500000000000568
 30
0.0
 11
207.149999999999892
 21
99.7500000000000568
 31
0.0
  0
ARC
  5
2EEC
  8
0
  6
CONTINUOUS
 10
220.2499999999998863
 20
104.6500000000001052
 30
0.0
 40
1.649999999999977
 50
180.0
 51
0.0
  0
ARC
  5
2EED
  8
0
  6
CONTINUOUS
 10
220.2499999999998863
 20
111.0
 30
0.0
 40
1.649999999999977
 50
0.0
 51
180.0
  0
LINE
  5
2EEE
  8
0
  6
CONTINUOUS
 10
218.5999999999999091
 20
111.0
 30
0.0
 11
218.5999999999999091
 21
104.6500000000001052
 31
0.0
  0
LINE
  5
2EEF
  8
0
  6
CONTINUOUS
 10
221.8999999999998067
 20
104.6500000000001052
 30
0.0
 11
221.8999999999998067
 21
111.0
 31
0.0
  0
ARC
  5
2EF0
  8
0
  6
CONTINUOUS
 10
214.2999999999998124
 20
107.75
 30
0.0
 40
1.649999999999999
 50
270.0
 51
90.0
  0
ARC
  5
2EF1
  8
0
  6
CONTINUOUS
 10
207.149999999999892
 20
107.75
 30
0.0
 40
1.649999999999999
 50
90.0
 51
270.0
  0
LINE
  5
2EF2
  8
0
  6
CONTINUOUS
 10
207.149999999999892
 20
109.4000000000001052
 30
0.0
 11
214.2999999999998124
 21
109.4000000000001052
 31
0.0
  0
LINE
  5
2EF3
  8
0
  6
CONTINUOUS
 10
214.2999999999998124
 20
106.0999999999999943
 30
0.0
 11
207.149999999999892
 21
106.1000000000000938
 31
0.0
  0
ARC
  5
2EF4
  8
0
  6
CONTINUOUS
 10
214.2999999999998124
 20
114.0999999999999943
 30
0.0
 40
1.649999999999999
 50
270.0
 51
90.0
  0
ARC
  5
2EF5
  8
0
  6
CONTINUOUS
 10
207.149999999999892
 20
114.0999999999999943
 30
0.0
 40
1.649999999999999
 50
90.0
 51
270.0
  0
LINE
  5
2EF6
  8
0
  6
CONTINUOUS
 10
207.149999999999892
 20
115.75
 30
0.0
 11
214.2999999999998124
 21
115.75
 31
0.0
  0
LINE
  5
2EF7
  8
0
  6
CONTINUOUS
 10
214.2999999999998124
 20
112.4500000000000028
 30
0.0
 11
207.149999999999892
 21
112.4500000000000028
 31
0.0
  0
ARC
  5
2EF8
  8
0
  6
CONTINUOUS
 10
195.2499999999998863
 20
101.4000000000001052
 30
0.0
 40
1.649999999999999
 50
270.0
 51
90.0
  0
ARC
  5
2EF9
  8
0
  6
CONTINUOUS
 10
188.0999999999997954
 20
101.4000000000001052
 30
0.0
 40
1.649999999999999
 50
90.0
 51
270.0
  0
LINE
  5
2EFA
  8
0
  6
CONTINUOUS
 10
188.0999999999997954
 20
103.0499999999999972
 30
0.0
 11
195.2499999999998863
 21
103.0499999999999972
 31
0.0
  0
LINE
  5
2EFB
  8
0
  6
CONTINUOUS
 10
195.2499999999998863
 20
99.7500000000000568
 30
0.0
 11
188.0999999999997954
 21
99.7500000000000568
 31
0.0
  0
ARC
  5
2EFC
  8
0
  6
CONTINUOUS
 10
201.1999999999997897
 20
104.6500000000001052
 30
0.0
 40
1.649999999999977
 50
180.0
 51
0.0
  0
ARC
  5
2EFD
  8
0
  6
CONTINUOUS
 10
201.1999999999997897
 20
111.0
 30
0.0
 40
1.649999999999977
 50
0.0
 51
180.0
  0
LINE
  5
2EFE
  8
0
  6
CONTINUOUS
 10
199.5499999999998124
 20
111.0
 30
0.0
 11
199.5499999999998124
 21
104.6500000000001052
 31
0.0
  0
LINE
  5
2EFF
  8
0
  6
CONTINUOUS
 10
202.8499999999997954
 20
104.6500000000001052
 30
0.0
 11
202.8499999999997954
 21
111.0
 31
0.0
  0
ARC
  5
2F00
  8
0
  6
CONTINUOUS
 10
195.2499999999998863
 20
107.75
 30
0.0
 40
1.649999999999999
 50
270.0
 51
90.0
  0
ARC
  5
2F01
  8
0
  6
CONTINUOUS
 10
188.0999999999997954
 20
107.75
 30
0.0
 40
1.649999999999999
 50
90.0
 51
270.0
  0
LINE
  5
2F02
  8
0
  6
CONTINUOUS
 10
188.0999999999997954
 20
109.4000000000001052
 30
0.0
 11
195.2499999999998863
 21
109.4000000000001052
 31
0.0
  0
LINE
  5
2F03
  8
0
  6
CONTINUOUS
 10
195.2499999999998863
 20
106.0999999999999943
 30
0.0
 11
188.0999999999997954
 21
106.1000000000000938
 31
0.0
  0
ARC
  5
2F04
  8
0
  6
CONTINUOUS
 10
195.2499999999998863
 20
114.0999999999999943
 30
0.0
 40
1.649999999999999
 50
270.0
 51
90.0
  0
ARC
  5
2F05
  8
0
  6
CONTINUOUS
 10
188.0999999999997954
 20
114.0999999999999943
 30
0.0
 40
1.649999999999999
 50
90.0
 51
270.0
  0
LINE
  5
2F06
  8
0
  6
CONTINUOUS
 10
188.0999999999997954
 20
115.75
 30
0.0
 11
195.2499999999998863
 21
115.75
 31
0.0
  0
LINE
  5
2F07
  8
0
  6
CONTINUOUS
 10
195.2499999999998863
 20
112.4500000000000028
 30
0.0
 11
188.0999999999997954
 21
112.4500000000000028
 31
0.0
  0
ARC
  5
2F08
  8
0
  6
CONTINUOUS
 10
182.1499999999998067
 20
104.6500000000001052
 30
0.0
 40
1.649999999999977
 50
180.0
 51
0.0
  0
ARC
  5
2F09
  8
0
  6
CONTINUOUS
 10
182.1499999999998067
 20
111.0
 30
0.0
 40
1.649999999999977
 50
0.0
 51
180.0
  0
LINE
  5
2F0A
  8
0
  6
CONTINUOUS
 10
180.4999999999998863
 20
111.0
 30
0.0
 11
180.4999999999998863
 21
104.6500000000001052
 31
0.0
  0
LINE
  5
2F0B
  8
0
  6
CONTINUOUS
 10
183.7999999999998124
 20
104.6500000000001052
 30
0.0
 11
183.7999999999998124
 21
111.0
 31
0.0
  0
ARC
  5
2F0C
  8
0
  6
CONTINUOUS
 10
290.4999999999998863
 20
164.9000000000000057
 30
0.0
 40
1.649999999999999
 50
270.0
 51
90.0
  0
ARC
  5
2F0D
  8
0
  6
CONTINUOUS
 10
283.3499999999999091
 20
164.9000000000000057
 30
0.0
 40
1.649999999999999
 50
90.0
 51
270.0
  0
LINE
  5
2F0E
  8
0
  6
CONTINUOUS
 10
283.3499999999999091
 20
166.5500000000000114
 30
0.0
 11
290.4999999999998863
 21
166.5500000000000114
 31
0.0
  0
LINE
  5
2F0F
  8
0
  6
CONTINUOUS
 10
290.4999999999998863
 20
163.25
 30
0.0
 11
283.3499999999999091
 21
163.25
 31
0.0
  0
ARC
  5
2F10
  8
0
  6
CONTINUOUS
 10
290.4999999999998863
 20
171.25
 30
0.0
 40
1.649999999999999
 50
270.0
 51
90.0
  0
ARC
  5
2F11
  8
0
  6
CONTINUOUS
 10
283.3499999999999091
 20
171.25
 30
0.0
 40
1.649999999999999
 50
90.0
 51
270.0
  0
LINE
  5
2F12
  8
0
  6
CONTINUOUS
 10
283.3499999999999091
 20
172.9000000000000057
 30
0.0
 11
290.4999999999998863
 21
172.9000000000000057
 31
0.0
  0
LINE
  5
2F13
  8
0
  6
CONTINUOUS
 10
290.4999999999998863
 20
169.5999999999999091
 30
0.0
 11
283.3499999999999091
 21
169.5999999999999943
 31
0.0
  0
ARC
  5
2F14
  8
0
  6
CONTINUOUS
 10
290.4999999999998863
 20
177.5999999999999091
 30
0.0
 40
1.649999999999999
 50
270.0
 51
90.0
  0
ARC
  5
2F15
  8
0
  6
CONTINUOUS
 10
283.3499999999999091
 20
177.5999999999999091
 30
0.0
 40
1.649999999999999
 50
90.0
 51
270.0
  0
LINE
  5
2F16
  8
0
  6
CONTINUOUS
 10
283.3499999999999091
 20
179.25
 30
0.0
 11
290.4999999999998863
 21
179.25
 31
0.0
  0
LINE
  5
2F17
  8
0
  6
CONTINUOUS
 10
290.4999999999998863
 20
175.9499999999999886
 30
0.0
 11
283.3499999999999091
 21
175.9499999999999886
 31
0.0
  0
ARC
  5
2F18
  8
0
  6
CONTINUOUS
 10
271.4499999999998749
 20
164.9000000000000057
 30
0.0
 40
1.649999999999999
 50
270.0
 51
90.0
  0
ARC
  5
2F19
  8
0
  6
CONTINUOUS
 10
264.299999999999784
 20
164.9000000000000057
 30
0.0
 40
1.649999999999999
 50
90.0
 51
270.0
  0
LINE
  5
2F1A
  8
0
  6
CONTINUOUS
 10
264.299999999999784
 20
166.5500000000000114
 30
0.0
 11
271.4499999999998749
 21
166.5500000000000114
 31
0.0
  0
LINE
  5
2F1B
  8
0
  6
CONTINUOUS
 10
271.4499999999998749
 20
163.25
 30
0.0
 11
264.299999999999784
 21
163.25
 31
0.0
  0
ARC
  5
2F1C
  8
0
  6
CONTINUOUS
 10
277.3999999999999204
 20
168.1500000000000057
 30
0.0
 40
1.649999999999977
 50
180.0
 51
0.0
  0
ARC
  5
2F1D
  8
0
  6
CONTINUOUS
 10
277.3999999999999204
 20
174.5
 30
0.0
 40
1.649999999999977
 50
0.0
 51
180.0
  0
LINE
  5
2F1E
  8
0
  6
CONTINUOUS
 10
275.7499999999998863
 20
174.5
 30
0.0
 11
275.7499999999998863
 21
168.1500000000000057
 31
0.0
  0
LINE
  5
2F1F
  8
0
  6
CONTINUOUS
 10
279.049999999999784
 20
168.1500000000000057
 30
0.0
 11
279.049999999999784
 21
174.5
 31
0.0
  0
ARC
  5
2F20
  8
0
  6
CONTINUOUS
 10
271.4499999999998749
 20
171.25
 30
0.0
 40
1.649999999999999
 50
270.0
 51
90.0
  0
ARC
  5
2F21
  8
0
  6
CONTINUOUS
 10
264.299999999999784
 20
171.25
 30
0.0
 40
1.649999999999999
 50
90.0
 51
270.0
  0
LINE
  5
2F22
  8
0
  6
CONTINUOUS
 10
264.299999999999784
 20
172.9000000000000057
 30
0.0
 11
271.4499999999998749
 21
172.9000000000000057
 31
0.0
  0
LINE
  5
2F23
  8
0
  6
CONTINUOUS
 10
271.4499999999998749
 20
169.5999999999999091
 30
0.0
 11
264.299999999999784
 21
169.5999999999999943
 31
0.0
  0
ARC
  5
2F24
  8
0
  6
CONTINUOUS
 10
271.4499999999998749
 20
177.5999999999999091
 30
0.0
 40
1.649999999999999
 50
270.0
 51
90.0
  0
ARC
  5
2F25
  8
0
  6
CONTINUOUS
 10
264.299999999999784
 20
177.5999999999999091
 30
0.0
 40
1.649999999999999
 50
90.0
 51
270.0
  0
LINE
  5
2F26
  8
0
  6
CONTINUOUS
 10
264.299999999999784
 20
179.25
 30
0.0
 11
271.4499999999998749
 21
179.25
 31
0.0
  0
LINE
  5
2F27
  8
0
  6
CONTINUOUS
 10
271.4499999999998749
 20
175.9499999999999886
 30
0.0
 11
264.299999999999784
 21
175.9499999999999886
 31
0.0
  0
ARC
  5
2F28
  8
0
  6
CONTINUOUS
 10
258.3499999999999091
 20
168.1500000000000057
 30
0.0
 40
1.649999999999977
 50
180.0
 51
0.0
  0
ARC
  5
2F29
  8
0
  6
CONTINUOUS
 10
258.3499999999999091
 20
174.5
 30
0.0
 40
1.649999999999977
 50
0.0
 51
180.0
  0
LINE
  5
2F2A
  8
0
  6
CONTINUOUS
 10
256.6999999999998749
 20
174.5
 30
0.0
 11
256.6999999999998749
 21
168.1500000000000057
 31
0.0
  0
LINE
  5
2F2B
  8
0
  6
CONTINUOUS
 10
259.9999999999998863
 20
168.1500000000000057
 30
0.0
 11
259.9999999999998863
 21
174.5
 31
0.0
  0
LINE
  5
2F2C
  8
0
 10
296.0000000000001137
 20
94.0
 30
0.0
 11
150.0000000000001137
 21
94.0
 31
0.0
  0
ARC
  5
2F2D
  8
0
 10
150.0000000000001137
 20
88.0
 30
0.0
 40
6.0
 50
90.0
 51
180.0
  0
LINE
  5
2F2E
  8
0
 10
296.0000000000001137
 20
3.0
 30
0.0
 11
150.0000000000001137
 21
3.0
 31
0.0
  0
ARC
  5
2F2F
  8
0
 10
150.0000000000001137
 20
9.0
 30
0.0
 40
6.0
 50
180.0
 51
270.0
  0
CIRCLE
  5
2F30
  8
0
 10
173.5000000000001137
 20
87.5
 30
0.0
 40
1.5749999999999991
  0
LINE
  5
2F31
  8
0
  6
CONTINUOUS
 10
198.0000000000001137
 20
86.0
 30
0.0
 11
246.0000000000001137
 21
86.0
 31
0.0
  0
ARC
  5
2F32
  8
0
  6
CONTINUOUS
 10
246.0000000000001137
 20
85.0
 30
0.0
 40
1.0
 50
0.0
 51
90.0
  0
ARC
  5
2F33
  8
0
  6
CONTINUOUS
 10
198.0000000000001137
 20
85.0
 30
0.0
 40
1.0
 50
90.0
 51
180.0
  0
LINE
  5
2F34
  8
0
  6
CONTINUOUS
 10
247.0000000000001137
 20
85.0
 30
0.0
 11
247.0000000000001137
 21
77.0
 31
0.0
  0
ARC
  5
2F35
  8
0
  6
CONTINUOUS
 10
246.0000000000001137
 20
77.0
 30
0.0
 40
1.0
 50
270.0
 51
0.0
  0
LINE
  5
2F36
  8
0
  6
CONTINUOUS
 10
246.0000000000001137
 20
76.0
 30
0.0
 11
198.0000000000001137
 21
76.0
 31
0.0
  0
ARC
  5
2F37
  8
0
  6
CONTINUOUS
 10
198.0000000000001137
 20
77.0
 30
0.0
 40
1.0
 50
180.0
 51
270.0
  0
LINE
  5
2F38
  8
0
  6
CONTINUOUS
 10
197.0000000000001137
 20
77.0
 30
0.0
 11
197.0000000000001137
 21
85.0
 31
0.0
  0
CIRCLE
  5
2F39
  8
0
  6
CONTINUOUS
 10
173.5000000000001137
 20
29.5
 30
0.0
 40
1.5749999999999991
  0
CIRCLE
  5
2F3A
  8
0
  6
CONTINUOUS
 10
295.5000000000001137
 20
9.5
 30
0.0
 40
1.574999999999988
  0
CIRCLE
  5
2F3B
  8
0
  6
CONTINUOUS
 10
295.5000000000001137
 20
29.5
 30
0.0
 40
1.574999999999988
  0
CIRCLE
  5
2F3C
  8
0
  6
CONTINUOUS
 10
295.5000000000001137
 20
87.5
 30
0.0
 40
1.574999999999988
  0
ARC
  5
2F3D
  8
0
  6
CONTINUOUS
 10
290.5
 20
10.4000000000000892
 30
0.0
 40
1.649999999999999
 50
270.0
 51
90.0
  0
ARC
  5
2F3E
  8
0
  6
CONTINUOUS
 10
283.3500000000000227
 20
10.4000000000000892
 30
0.0
 40
1.649999999999999
 50
90.0
 51
270.0
  0
LINE
  5
2F3F
  8
0
  6
CONTINUOUS
 10
283.3500000000000227
 20
12.05000000000007
 30
0.0
 11
290.5
 21
12.05000000000007
 31
0.0
  0
LINE
  5
2F40
  8
0
  6
CONTINUOUS
 10
290.5
 20
8.7500000000000568
 30
0.0
 11
283.3500000000000227
 21
8.7500000000000568
 31
0.0
  0
ARC
  5
2F41
  8
0
  6
CONTINUOUS
 10
290.5
 20
16.7500000000000604
 30
0.0
 40
1.649999999999999
 50
270.0
 51
90.0
  0
ARC
  5
2F42
  8
0
  6
CONTINUOUS
 10
283.3500000000000227
 20
16.7500000000000604
 30
0.0
 40
1.649999999999999
 50
90.0
 51
270.0
  0
LINE
  5
2F43
  8
0
  6
CONTINUOUS
 10
283.3500000000000227
 20
18.4000000000000909
 30
0.0
 11
290.5
 21
18.4000000000000909
 31
0.0
  0
LINE
  5
2F44
  8
0
  6
CONTINUOUS
 10
290.5
 20
15.1000000000000192
 30
0.0
 11
283.3500000000000227
 21
15.1000000000000796
 31
0.0
  0
ARC
  5
2F45
  8
0
  6
CONTINUOUS
 10
290.5
 20
23.1000000000000192
 30
0.0
 40
1.649999999999999
 50
270.0
 51
90.0
  0
ARC
  5
2F46
  8
0
  6
CONTINUOUS
 10
283.3500000000000227
 20
23.1000000000000192
 30
0.0
 40
1.649999999999999
 50
90.0
 51
270.0
  0
LINE
  5
2F47
  8
0
  6
CONTINUOUS
 10
283.3500000000000227
 20
24.7500000000000604
 30
0.0
 11
290.5
 21
24.7500000000000604
 31
0.0
  0
LINE
  5
2F48
  8
0
  6
CONTINUOUS
 10
290.5
 20
21.4500000000000384
 30
0.0
 11
283.3500000000000227
 21
21.4500000000000384
 31
0.0
  0
ARC
  5
2F49
  8
0
  6
CONTINUOUS
 10
271.4499999999998749
 20
10.4000000000000892
 30
0.0
 40
1.649999999999999
 50
270.0
 51
90.0
  0
ARC
  5
2F4A
  8
0
  6
CONTINUOUS
 10
264.3000000000000114
 20
10.4000000000000892
 30
0.0
 40
1.649999999999999
 50
90.0
 51
270.0
  0
LINE
  5
2F4B
  8
0
  6
CONTINUOUS
 10
264.3000000000000114
 20
12.05000000000007
 30
0.0
 11
271.4499999999998749
 21
12.05000000000007
 31
0.0
  0
LINE
  5
2F4C
  8
0
  6
CONTINUOUS
 10
271.4499999999998749
 20
8.7500000000000568
 30
0.0
 11
264.3000000000000114
 21
8.7500000000000568
 31
0.0
  0
ARC
  5
2F4D
  8
0
  6
CONTINUOUS
 10
277.3999999999999773
 20
13.6500000000000892
 30
0.0
 40
1.649999999999977
 50
180.0
 51
0.0
  0
ARC
  5
2F4E
  8
0
  6
CONTINUOUS
 10
277.3999999999999773
 20
20.0000000000000604
 30
0.0
 40
1.649999999999977
 50
0.0
 51
180.0
  0
LINE
  5
2F4F
  8
0
  6
CONTINUOUS
 10
275.75
 20
20.0000000000000604
 30
0.0
 11
275.75
 21
13.6500000000000892
 31
0.0
  0
LINE
  5
2F50
  8
0
  6
CONTINUOUS
 10
279.0500000000000114
 20
13.6500000000000892
 30
0.0
 11
279.0500000000000114
 21
20.0000000000000604
 31
0.0
  0
ARC
  5
2F51
  8
0
  6
CONTINUOUS
 10
271.4499999999998749
 20
16.7500000000000604
 30
0.0
 40
1.649999999999999
 50
270.0
 51
90.0
  0
ARC
  5
2F52
  8
0
  6
CONTINUOUS
 10
264.3000000000000114
 20
16.7500000000000604
 30
0.0
 40
1.649999999999999
 50
90.0
 51
270.0
  0
LINE
  5
2F53
  8
0
  6
CONTINUOUS
 10
264.3000000000000114
 20
18.4000000000000909
 30
0.0
 11
271.4499999999998749
 21
18.4000000000000909
 31
0.0
  0
LINE
  5
2F54
  8
0
  6
CONTINUOUS
 10
271.4499999999998749
 20
15.1000000000000192
 30
0.0
 11
264.3000000000000114
 21
15.1000000000000796
 31
0.0
  0
ARC
  5
2F55
  8
0
  6
CONTINUOUS
 10
271.4499999999998749
 20
23.1000000000000192
 30
0.0
 40
1.649999999999999
 50
270.0
 51
90.0
  0
ARC
  5
2F56
  8
0
  6
CONTINUOUS
 10
264.3000000000000114
 20
23.1000000000000192
 30
0.0
 40
1.649999999999999
 50
90.0
 51
270.0
  0
LINE
  5
2F57
  8
0
  6
CONTINUOUS
 10
264.3000000000000114
 20
24.7500000000000604
 30
0.0
 11
271.4499999999998749
 21
24.7500000000000604
 31
0.0
  0
LINE
  5
2F58
  8
0
  6
CONTINUOUS
 10
271.4499999999998749
 20
21.4500000000000384
 30
0.0
 11
264.3000000000000114
 21
21.4500000000000384
 31
0.0
  0
ARC
  5
2F59
  8
0
  6
CONTINUOUS
 10
252.4000000000000057
 20
10.4000000000000892
 30
0.0
 40
1.649999999999999
 50
270.0
 51
90.0
  0
ARC
  5
2F5A
  8
0
  6
CONTINUOUS
 10
245.2499999999998863
 20
10.4000000000000892
 30
0.0
 40
1.649999999999999
 50
90.0
 51
270.0
  0
LINE
  5
2F5B
  8
0
  6
CONTINUOUS
 10
245.2499999999998863
 20
12.05000000000007
 30
0.0
 11
252.4000000000000057
 21
12.05000000000007
 31
0.0
  0
LINE
  5
2F5C
  8
0
  6
CONTINUOUS
 10
252.4000000000000057
 20
8.7500000000000568
 30
0.0
 11
245.2499999999998863
 21
8.7500000000000568
 31
0.0
  0
ARC
  5
2F5D
  8
0
  6
CONTINUOUS
 10
258.3500000000000227
 20
13.6500000000000892
 30
0.0
 40
1.649999999999977
 50
180.0
 51
0.0
  0
ARC
  5
2F5E
  8
0
  6
CONTINUOUS
 10
258.3500000000000227
 20
20.0000000000000604
 30
0.0
 40
1.649999999999977
 50
0.0
 51
180.0
  0
LINE
  5
2F5F
  8
0
  6
CONTINUOUS
 10
256.6999999999998749
 20
20.0000000000000604
 30
0.0
 11
256.6999999999998749
 21
13.6500000000000892
 31
0.0
  0
LINE
  5
2F60
  8
0
  6
CONTINUOUS
 10
259.9999999999998863
 20
13.6500000000000892
 30
0.0
 11
259.9999999999998863
 21
20.0000000000000604
 31
0.0
  0
ARC
  5
2F61
  8
0
  6
CONTINUOUS
 10
252.4000000000000057
 20
16.7500000000000604
 30
0.0
 40
1.649999999999999
 50
270.0
 51
90.0
  0
ARC
  5
2F62
  8
0
  6
CONTINUOUS
 10
245.2499999999998863
 20
16.7500000000000604
 30
0.0
 40
1.649999999999999
 50
90.0
 51
270.0
  0
LINE
  5
2F63
  8
0
  6
CONTINUOUS
 10
245.2499999999998863
 20
18.4000000000000909
 30
0.0
 11
252.4000000000000057
 21
18.4000000000000909
 31
0.0
  0
LINE
  5
2F64
  8
0
  6
CONTINUOUS
 10
252.4000000000000057
 20
15.1000000000000192
 30
0.0
 11
245.2499999999998863
 21
15.1000000000000796
 31
0.0
  0
ARC
  5
2F65
  8
0
  6
CONTINUOUS
 10
252.4000000000000057
 20
23.1000000000000192
 30
0.0
 40
1.649999999999999
 50
270.0
 51
90.0
  0
ARC
  5
2F66
  8
0
  6
CONTINUOUS
 10
245.2499999999998863
 20
23.1000000000000192
 30
0.0
 40
1.649999999999999
 50
90.0
 51
270.0
  0
LINE
  5
2F67
  8
0
  6
CONTINUOUS
 10
245.2499999999998863
 20
24.7500000000000604
 30
0.0
 11
252.4000000000000057
 21
24.7500000000000604
 31
0.0
  0
LINE
  5
2F68
  8
0
  6
CONTINUOUS
 10
252.4000000000000057
 20
21.4500000000000384
 30
0.0
 11
245.2499999999998863
 21
21.4500000000000384
 31
0.0
  0
ARC
  5
2F69
  8
0
  6
CONTINUOUS
 10
233.3499999999999943
 20
10.4000000000000892
 30
0.0
 40
1.649999999999999
 50
270.0
 51
90.0
  0
ARC
  5
2F6A
  8
0
  6
CONTINUOUS
 10
226.1999999999999886
 20
10.4000000000000892
 30
0.0
 40
1.649999999999999
 50
90.0
 51
270.0
  0
LINE
  5
2F6B
  8
0
  6
CONTINUOUS
 10
226.1999999999999886
 20
12.05000000000007
 30
0.0
 11
233.3499999999999943
 21
12.05000000000007
 31
0.0
  0
LINE
  5
2F6C
  8
0
  6
CONTINUOUS
 10
233.3499999999999943
 20
8.7500000000000568
 30
0.0
 11
226.1999999999999886
 21
8.7500000000000568
 31
0.0
  0
ARC
  5
2F6D
  8
0
  6
CONTINUOUS
 10
239.3000000000000114
 20
13.6500000000000892
 30
0.0
 40
1.649999999999977
 50
180.0
 51
0.0
  0
ARC
  5
2F6E
  8
0
  6
CONTINUOUS
 10
239.3000000000000114
 20
20.0000000000000604
 30
0.0
 40
1.649999999999977
 50
0.0
 51
180.0
  0
LINE
  5
2F6F
  8
0
  6
CONTINUOUS
 10
237.6500000000000057
 20
20.0000000000000604
 30
0.0
 11
237.6500000000000057
 21
13.6500000000000892
 31
0.0
  0
LINE
  5
2F70
  8
0
  6
CONTINUOUS
 10
240.9499999999999034
 20
13.6500000000000892
 30
0.0
 11
240.9499999999999034
 21
20.0000000000000604
 31
0.0
  0
ARC
  5
2F71
  8
0
  6
CONTINUOUS
 10
233.3499999999999943
 20
16.7500000000000604
 30
0.0
 40
1.649999999999999
 50
270.0
 51
90.0
  0
ARC
  5
2F72
  8
0
  6
CONTINUOUS
 10
226.1999999999999886
 20
16.7500000000000604
 30
0.0
 40
1.649999999999999
 50
90.0
 51
270.0
  0
LINE
  5
2F73
  8
0
  6
CONTINUOUS
 10
226.1999999999999886
 20
18.4000000000000909
 30
0.0
 11
233.3499999999999943
 21
18.4000000000000909
 31
0.0
  0
LINE
  5
2F74
  8
0
  6
CONTINUOUS
 10
233.3499999999999943
 20
15.1000000000000192
 30
0.0
 11
226.1999999999999886
 21
15.1000000000000796
 31
0.0
  0
ARC
  5
2F75
  8
0
  6
CONTINUOUS
 10
233.3499999999999943
 20
23.1000000000000192
 30
0.0
 40
1.649999999999999
 50
270.0
 51
90.0
  0
ARC
  5
2F76
  8
0
  6
CONTINUOUS
 10
226.1999999999999886
 20
23.1000000000000192
 30
0.0
 40
1.649999999999999
 50
90.0
 51
270.0
  0
LINE
  5
2F77
  8
0
  6
CONTINUOUS
 10
226.1999999999999886
 20
24.7500000000000604
 30
0.0
 11
233.3499999999999943
 21
24.7500000000000604
 31
0.0
  0
LINE
  5
2F78
  8
0
  6
CONTINUOUS
 10
233.3499999999999943
 20
21.4500000000000384
 30
0.0
 11
226.1999999999999886
 21
21.4500000000000384
 31
0.0
  0
ARC
  5
2F79
  8
0
  6
CONTINUOUS
 10
214.3000000000000114
 20
10.4000000000000892
 30
0.0
 40
1.649999999999999
 50
270.0
 51
90.0
  0
ARC
  5
2F7A
  8
0
  6
CONTINUOUS
 10
207.1500000000000057
 20
10.4000000000000892
 30
0.0
 40
1.649999999999999
 50
90.0
 51
270.0
  0
LINE
  5
2F7B
  8
0
  6
CONTINUOUS
 10
207.1500000000000057
 20
12.05000000000007
 30
0.0
 11
214.3000000000000114
 21
12.05000000000007
 31
0.0
  0
LINE
  5
2F7C
  8
0
  6
CONTINUOUS
 10
214.3000000000000114
 20
8.7500000000000568
 30
0.0
 11
207.1500000000000057
 21
8.7500000000000568
 31
0.0
  0
ARC
  5
2F7D
  8
0
  6
CONTINUOUS
 10
220.2499999999998863
 20
13.6500000000000892
 30
0.0
 40
1.649999999999977
 50
180.0
 51
0.0
  0
ARC
  5
2F7E
  8
0
  6
CONTINUOUS
 10
220.2499999999998863
 20
20.0000000000000604
 30
0.0
 40
1.649999999999977
 50
0.0
 51
180.0
  0
LINE
  5
2F7F
  8
0
  6
CONTINUOUS
 10
218.5999999999999943
 20
20.0000000000000604
 30
0.0
 11
218.5999999999999943
 21
13.6500000000000892
 31
0.0
  0
LINE
  5
2F80
  8
0
  6
CONTINUOUS
 10
221.9000000000000057
 20
13.6500000000000892
 30
0.0
 11
221.9000000000000057
 21
20.0000000000000604
 31
0.0
  0
ARC
  5
2F81
  8
0
  6
CONTINUOUS
 10
214.3000000000000114
 20
16.7500000000000604
 30
0.0
 40
1.649999999999999
 50
270.0
 51
90.0
  0
ARC
  5
2F82
  8
0
  6
CONTINUOUS
 10
207.1500000000000057
 20
16.7500000000000604
 30
0.0
 40
1.649999999999999
 50
90.0
 51
270.0
  0
LINE
  5
2F83
  8
0
  6
CONTINUOUS
 10
207.1500000000000057
 20
18.4000000000000909
 30
0.0
 11
214.3000000000000114
 21
18.4000000000000909
 31
0.0
  0
LINE
  5
2F84
  8
0
  6
CONTINUOUS
 10
214.3000000000000114
 20
15.1000000000000192
 30
0.0
 11
207.1500000000000057
 21
15.1000000000000796
 31
0.0
  0
ARC
  5
2F85
  8
0
  6
CONTINUOUS
 10
214.3000000000000114
 20
23.1000000000000192
 30
0.0
 40
1.649999999999999
 50
270.0
 51
90.0
  0
ARC
  5
2F86
  8
0
  6
CONTINUOUS
 10
207.1500000000000057
 20
23.1000000000000192
 30
0.0
 40
1.649999999999999
 50
90.0
 51
270.0
  0
LINE
  5
2F87
  8
0
  6
CONTINUOUS
 10
207.1500000000000057
 20
24.7500000000000604
 30
0.0
 11
214.3000000000000114
 21
24.7500000000000604
 31
0.0
  0
LINE
  5
2F88
  8
0
  6
CONTINUOUS
 10
214.3000000000000114
 20
21.4500000000000384
 30
0.0
 11
207.1500000000000057
 21
21.4500000000000384
 31
0.0
  0
ARC
  5
2F89
  8
0
  6
CONTINUOUS
 10
195.2499999999998863
 20
10.4000000000000892
 30
0.0
 40
1.649999999999999
 50
270.0
 51
90.0
  0
ARC
  5
2F8A
  8
0
  6
CONTINUOUS
 10
188.0999999999999091
 20
10.4000000000000892
 30
0.0
 40
1.649999999999999
 50
90.0
 51
270.0
  0
LINE
  5
2F8B
  8
0
  6
CONTINUOUS
 10
188.0999999999999091
 20
12.05000000000007
 30
0.0
 11
195.2499999999998863
 21
12.05000000000007
 31
0.0
  0
LINE
  5
2F8C
  8
0
  6
CONTINUOUS
 10
195.2499999999998863
 20
8.7500000000000568
 30
0.0
 11
188.0999999999999091
 21
8.7500000000000568
 31
0.0
  0
ARC
  5
2F8D
  8
0
  6
CONTINUOUS
 10
201.1999999999999886
 20
13.6500000000000892
 30
0.0
 40
1.649999999999977
 50
180.0
 51
0.0
  0
ARC
  5
2F8E
  8
0
  6
CONTINUOUS
 10
201.1999999999999886
 20
20.0000000000000604
 30
0.0
 40
1.649999999999977
 50
0.0
 51
180.0
  0
LINE
  5
2F8F
  8
0
  6
CONTINUOUS
 10
199.5499999999998977
 20
20.0000000000000604
 30
0.0
 11
199.5499999999998977
 21
13.6500000000000892
 31
0.0
  0
LINE
  5
2F90
  8
0
  6
CONTINUOUS
 10
202.8499999999999091
 20
13.6500000000000892
 30
0.0
 11
202.8499999999999091
 21
20.0000000000000604
 31
0.0
  0
ARC
  5
2F91
  8
0
  6
CONTINUOUS
 10
195.2499999999998863
 20
16.7500000000000604
 30
0.0
 40
1.649999999999999
 50
270.0
 51
90.0
  0
ARC
  5
2F92
  8
0
  6
CONTINUOUS
 10
188.0999999999999091
 20
16.7500000000000604
 30
0.0
 40
1.649999999999999
 50
90.0
 51
270.0
  0
LINE
  5
2F93
  8
0
  6
CONTINUOUS
 10
188.0999999999999091
 20
18.4000000000000909
 30
0.0
 11
195.2499999999998863
 21
18.4000000000000909
 31
0.0
  0
LINE
  5
2F94
  8
0
  6
CONTINUOUS
 10
195.2499999999998863
 20
15.1000000000000192
 30
0.0
 11
188.0999999999999091
 21
15.1000000000000796
 31
0.0
  0
ARC
  5
2F95
  8
0
  6
CONTINUOUS
 10
195.2499999999998863
 20
23.1000000000000192
 30
0.0
 40
1.649999999999999
 50
270.0
 51
90.0
  0
ARC
  5
2F96
  8
0
  6
CONTINUOUS
 10
188.0999999999999091
 20
23.1000000000000192
 30
0.0
 40
1.649999999999999
 50
90.0
 51
270.0
  0
LINE
  5
2F97
  8
0
  6
CONTINUOUS
 10
188.0999999999999091
 20
24.7500000000000604
 30
0.0
 11
195.2499999999998863
 21
24.7500000000000604
 31
0.0
  0
LINE
  5
2F98
  8
0
  6
CONTINUOUS
 10
195.2499999999998863
 20
21.4500000000000384
 30
0.0
 11
188.0999999999999091
 21
21.4500000000000384
 31
0.0
  0
ARC
  5
2F99
  8
0
  6
CONTINUOUS
 10
182.1500000000000057
 20
13.6500000000000892
 30
0.0
 40
1.649999999999977
 50
180.0
 51
0.0
  0
ARC
  5
2F9A
  8
0
  6
CONTINUOUS
 10
182.1500000000000057
 20
20.0000000000000604
 30
0.0
 40
1.649999999999977
 50
0.0
 51
180.0
  0
LINE
  5
2F9B
  8
0
  6
CONTINUOUS
 10
180.4999999999998863
 20
20.0000000000000604
 30
0.0
 11
180.4999999999998863
 21
13.6500000000000892
 31
0.0
  0
LINE
  5
2F9C
  8
0
  6
CONTINUOUS
 10
183.7999999999998124
 20
13.6500000000000892
 30
0.0
 11
183.7999999999998124
 21
20.0000000000000604
 31
0.0
  0
ARC
  5
2F9D
  8
0
  6
CONTINUOUS
 10
290.5
 20
73.8999999999999631
 30
0.0
 40
1.649999999999999
 50
270.0
 51
90.0
  0
ARC
  5
2F9E
  8
0
  6
CONTINUOUS
 10
283.3500000000000227
 20
73.8999999999999631
 30
0.0
 40
1.649999999999999
 50
90.0
 51
270.0
  0
LINE
  5
2F9F
  8
0
  6
CONTINUOUS
 10
283.3500000000000227
 20
75.5500000000000114
 30
0.0
 11
290.5
 21
75.5500000000000114
 31
0.0
  0
LINE
  5
2FA0
  8
0
  6
CONTINUOUS
 10
290.5
 20
72.25
 30
0.0
 11
283.3500000000000227
 21
72.25
 31
0.0
  0
ARC
  5
2FA1
  8
0
  6
CONTINUOUS
 10
290.5
 20
80.25
 30
0.0
 40
1.649999999999999
 50
270.0
 51
90.0
  0
ARC
  5
2FA2
  8
0
  6
CONTINUOUS
 10
283.3500000000000227
 20
80.25
 30
0.0
 40
1.649999999999999
 50
90.0
 51
270.0
  0
LINE
  5
2FA3
  8
0
  6
CONTINUOUS
 10
283.3500000000000227
 20
81.9000000000000341
 30
0.0
 11
290.5
 21
81.9000000000000341
 31
0.0
  0
LINE
  5
2FA4
  8
0
  6
CONTINUOUS
 10
290.5
 20
78.5999999999999659
 30
0.0
 11
283.3500000000000227
 21
78.6000000000000227
 31
0.0
  0
ARC
  5
2FA5
  8
0
  6
CONTINUOUS
 10
290.5
 20
86.5999999999999659
 30
0.0
 40
1.649999999999999
 50
270.0
 51
90.0
  0
ARC
  5
2FA6
  8
0
  6
CONTINUOUS
 10
283.3500000000000227
 20
86.5999999999999659
 30
0.0
 40
1.649999999999999
 50
90.0
 51
270.0
  0
LINE
  5
2FA7
  8
0
  6
CONTINUOUS
 10
283.3500000000000227
 20
88.2500000000000142
 30
0.0
 11
290.5
 21
88.2500000000000142
 31
0.0
  0
LINE
  5
2FA8
  8
0
  6
CONTINUOUS
 10
290.5
 20
84.9499999999999886
 30
0.0
 11
283.3500000000000227
 21
84.9499999999999886
 31
0.0
  0
ARC
  5
2FA9
  8
0
  6
CONTINUOUS
 10
271.4499999999998749
 20
73.8999999999999631
 30
0.0
 40
1.649999999999999
 50
270.0
 51
90.0
  0
ARC
  5
2FAA
  8
0
  6
CONTINUOUS
 10
264.3000000000000114
 20
73.8999999999999631
 30
0.0
 40
1.649999999999999
 50
90.0
 51
270.0
  0
LINE
  5
2FAB
  8
0
  6
CONTINUOUS
 10
264.3000000000000114
 20
75.5500000000000114
 30
0.0
 11
271.4499999999998749
 21
75.5500000000000114
 31
0.0
  0
LINE
  5
2FAC
  8
0
  6
CONTINUOUS
 10
271.4499999999998749
 20
72.25
 30
0.0
 11
264.3000000000000114
 21
72.25
 31
0.0
  0
ARC
  5
2FAD
  8
0
  6
CONTINUOUS
 10
277.3999999999999773
 20
77.1500000000000341
 30
0.0
 40
1.649999999999977
 50
180.0
 51
0.0
  0
ARC
  5
2FAE
  8
0
  6
CONTINUOUS
 10
277.3999999999999773
 20
83.4999999999999858
 30
0.0
 40
1.649999999999977
 50
0.0
 51
180.0
  0
LINE
  5
2FAF
  8
0
  6
CONTINUOUS
 10
275.75
 20
83.4999999999999858
 30
0.0
 11
275.75
 21
77.1500000000000341
 31
0.0
  0
LINE
  5
2FB0
  8
0
  6
CONTINUOUS
 10
279.0500000000000114
 20
77.1500000000000341
 30
0.0
 11
279.0500000000000114
 21
83.4999999999999858
 31
0.0
  0
ARC
  5
2FB1
  8
0
  6
CONTINUOUS
 10
271.4499999999998749
 20
80.25
 30
0.0
 40
1.649999999999999
 50
270.0
 51
90.0
  0
ARC
  5
2FB2
  8
0
  6
CONTINUOUS
 10
264.3000000000000114
 20
80.25
 30
0.0
 40
1.649999999999999
 50
90.0
 51
270.0
  0
LINE
  5
2FB3
  8
0
  6
CONTINUOUS
 10
264.3000000000000114
 20
81.9000000000000341
 30
0.0
 11
271.4499999999998749
 21
81.9000000000000341
 31
0.0
  0
LINE
  5
2FB4
  8
0
  6
CONTINUOUS
 10
271.4499999999998749
 20
78.5999999999999659
 30
0.0
 11
264.3000000000000114
 21
78.6000000000000227
 31
0.0
  0
ARC
  5
2FB5
  8
0
  6
CONTINUOUS
 10
271.4499999999998749
 20
86.5999999999999659
 30
0.0
 40
1.649999999999999
 50
270.0
 51
90.0
  0
ARC
  5
2FB6
  8
0
  6
CONTINUOUS
 10
264.3000000000000114
 20
86.5999999999999659
 30
0.0
 40
1.649999999999999
 50
90.0
 51
270.0
  0
LINE
  5
2FB7
  8
0
  6
CONTINUOUS
 10
264.3000000000000114
 20
88.2500000000000142
 30
0.0
 11
271.4499999999998749
 21
88.2500000000000142
 31
0.0
  0
LINE
  5
2FB8
  8
0
  6
CONTINUOUS
 10
271.4499999999998749
 20
84.9499999999999886
 30
0.0
 11
264.3000000000000114
 21
84.9499999999999886
 31
0.0
  0
ARC
  5
2FB9
  8
0
  6
CONTINUOUS
 10
258.3500000000000227
 20
77.1500000000000341
 30
0.0
 40
1.649999999999977
 50
180.0
 51
0.0
  0
ARC
  5
2FBA
  8
0
  6
CONTINUOUS
 10
258.3500000000000227
 20
83.4999999999999858
 30
0.0
 40
1.649999999999977
 50
0.0
 51
180.0
  0
LINE
  5
2FBB
  8
0
  6
CONTINUOUS
 10
256.6999999999998749
 20
83.4999999999999858
 30
0.0
 11
256.6999999999998749
 21
77.1500000000000341
 31
0.0
  0
LINE
  5
2FBC
  8
0
  6
CONTINUOUS
 10
259.9999999999998863
 20
77.1500000000000341
 30
0.0
 11
259.9999999999998863
 21
83.4999999999999858
 31
0.0
  0
CIRCLE
  5
2FBD
  8
0
  6
CONTINUOUS
 10
150.5000000000001137
 20
29.5
 30
0.0
 40
1.574999999999988
  0
CIRCLE
  5
2FBE
  8
0
  6
CONTINUOUS
 10
150.5000000000001137
 20
87.5
 30
0.0
 40
1.574999999999988
  0
CIRCLE
  5
2FBF
  8
0
  6
CONTINUOUS
 10
150.5
 20
120.5
 30
0.0
 40
1.574999999999988
  0
CIRCLE
  5
2FC0
  8
0
  6
CONTINUOUS
 10
150.5
 20
178.5
 30
0.0
 40
1.574999999999988
  0
LINE
  5
2FC1
  8
0
  6
CONTINUOUS
 10
302.0
 20
179.0
 30
0.0
 11
302.0
 21
100.0
 31
0.0
  0
ARC
  5
2FC2
  8
0
  6
CONTINUOUS
 10
296.0
 20
179.0
 30
0.0
 40
6.0
 50
0.0
 51
90.0
  0
ARC
  5
2FC3
  8
0
  6
CONTINUOUS
 10
296.0
 20
100.0
 30
0.0
 40
6.0
 50
270.0
 51
0.0
  0
LINE
  5
2FC4
  8
0
  6
CONTINUOUS
 10
302.0000000000001137
 20
88.0
 30
0.0
 11
302.0000000000001137
 21
9.0
 31
0.0
  0
ARC
  5
2FC5
  8
0
  6
CONTINUOUS
 10
296.0000000000001137
 20
88.0
 30
0.0
 40
6.0
 50
0.0
 51
90.0
  0
ARC
  5
2FC6
  8
0
  6
CONTINUOUS
 10
296.0000000000001137
 20
9.0
 30
0.0
 40
6.0
 50
270.0
 51
0.0
  0
LINE
  5
2FC7
  8
0
  6
CONTINUOUS
 10
147.7500000000001137
 20
175.5
 30
0.0
 11
153.7500000000001137
 21
175.5
 31
0.0
  0
ARC
  5
2FC8
  8
0
  6
CONTINUOUS
 10
147.7500000000001137
 20
175.25
 30
0.0
 40
0.25
 50
90.0
 51
180.0
  0
LINE
  5
2FC9
  8
0
  6
CONTINUOUS
 10
147.7500000000001137
 20
163.0
 30
0.0
 11
153.7500000000001137
 21
163.0
 31
0.0
  0
ARC
  5
2FCA
  8
0
  6
CONTINUOUS
 10
147.7500000000001137
 20
163.25
 30
0.0
 40
0.25
 50
180.0
 51
270.0
  0
LINE
  5
2FCB
  8
0
  6
CONTINUOUS
 10
154.0000000000001137
 20
175.25
 30
0.0
 11
154.0000000000001137
 21
163.25
 31
0.0
  0
ARC
  5
2FCC
  8
0
  6
CONTINUOUS
 10
153.7500000000001137
 20
163.25
 30
0.0
 40
0.25
 50
270.0
 51
0.0
  0
ARC
  5
2FCD
  8
0
  6
CONTINUOUS
 10
153.7500000000001137
 20
175.25
 30
0.0
 40
0.25
 50
0.0
 51
90.0
  0
LINE
  5
2FCE
  8
0
  6
CONTINUOUS
 10
147.5000000000001137
 20
175.25
 30
0.0
 11
147.5000000000001137
 21
163.25
 31
0.0
  0
ENDSEC
  0
EOF
