G04 #@! TF.FileFunction,Soldermask,Bot*
%FSLAX46Y46*%
G04 Gerber Fmt 4.6, Leading zero omitted, Abs format (unit mm)*
G04 Created by KiCad (PCBNEW 4.0.0-stable) date Sunday, July 24, 2016 'AMt' 01:06:53 AM*
%MOMM*%
G01*
G04 APERTURE LIST*
%ADD10C,0.100000*%
%ADD11R,2.432000X2.127200*%
%ADD12O,2.432000X2.127200*%
%ADD13C,1.900000*%
%ADD14R,0.850000X1.850000*%
%ADD15R,2.127200X2.432000*%
%ADD16O,2.127200X2.432000*%
%ADD17R,2.432000X2.432000*%
%ADD18O,2.432000X2.432000*%
%ADD19R,0.900000X1.300000*%
%ADD20C,2.400000*%
%ADD21C,6.400000*%
%ADD22C,1.924000*%
%ADD23C,1.009600*%
%ADD24R,3.400000X3.400000*%
%ADD25O,3.400000X3.400000*%
%ADD26C,0.254000*%
G04 APERTURE END LIST*
D10*
D11*
X144615000Y42870000D03*
D12*
X144615000Y40330000D03*
X144615000Y37790000D03*
X144615000Y35250000D03*
D11*
X44870000Y78580000D03*
D12*
X44870000Y76040000D03*
X44870000Y73500000D03*
X44870000Y70960000D03*
D13*
X25230000Y76630000D03*
X27770000Y76630000D03*
X25230000Y74090000D03*
X25230000Y71550000D03*
X25230000Y69010000D03*
X25230000Y66470000D03*
X25230000Y63930000D03*
X25230000Y61390000D03*
X25230000Y58850000D03*
X25230000Y56310000D03*
X25230000Y53770000D03*
X25230000Y51230000D03*
X25230000Y48690000D03*
X25230000Y46150000D03*
X27770000Y74090000D03*
X27770000Y71550000D03*
X27770000Y69010000D03*
X27770000Y66470000D03*
X27770000Y63930000D03*
X27770000Y61390000D03*
X27770000Y58850000D03*
X27770000Y56310000D03*
X27770000Y53770000D03*
X27770000Y51230000D03*
X27770000Y48690000D03*
X27770000Y46150000D03*
X25230000Y43610000D03*
X25230000Y41070000D03*
X25230000Y38530000D03*
X25230000Y35990000D03*
X25230000Y33450000D03*
X25230000Y30910000D03*
X25230000Y28370000D03*
X27770000Y28370000D03*
X27770000Y30910000D03*
X27770000Y33450000D03*
X27770000Y35990000D03*
X27770000Y38530000D03*
X27770000Y41070000D03*
X27770000Y43610000D03*
D14*
X32025000Y56200000D03*
X32675000Y56200000D03*
X33325000Y56200000D03*
X33975000Y56200000D03*
X33975000Y50300000D03*
X33325000Y50300000D03*
X32675000Y50300000D03*
X32025000Y50300000D03*
D11*
X39790000Y78580000D03*
D12*
X39790000Y76040000D03*
X39790000Y73500000D03*
X39790000Y70960000D03*
D11*
X42330000Y78580000D03*
D12*
X42330000Y76040000D03*
X42330000Y73500000D03*
X42330000Y70960000D03*
D11*
X98895000Y30170000D03*
D12*
X98895000Y27630000D03*
X98895000Y25090000D03*
X98895000Y22550000D03*
D15*
X107785000Y2230000D03*
D16*
X110325000Y2230000D03*
X112865000Y2230000D03*
D15*
X97625000Y2230000D03*
D16*
X100165000Y2230000D03*
X102705000Y2230000D03*
D15*
X39205000Y2230000D03*
D16*
X41745000Y2230000D03*
X44285000Y2230000D03*
X46825000Y2230000D03*
X49365000Y2230000D03*
D15*
X54445000Y2230000D03*
D16*
X56985000Y2230000D03*
X59525000Y2230000D03*
X62065000Y2230000D03*
X64605000Y2230000D03*
D11*
X149695000Y42870000D03*
D12*
X149695000Y40330000D03*
X149695000Y37790000D03*
X149695000Y35250000D03*
D11*
X147155000Y42870000D03*
D12*
X147155000Y40330000D03*
X147155000Y37790000D03*
X147155000Y35250000D03*
D17*
X117945000Y55570000D03*
D18*
X117945000Y58110000D03*
D19*
X32250000Y47500000D03*
X33750000Y47500000D03*
X33750000Y42500000D03*
X32250000Y42500000D03*
X33750000Y45000000D03*
X32250000Y45000000D03*
D20*
X47500000Y22500000D03*
X45000000Y22500000D03*
X42500000Y22500000D03*
X47500000Y8000000D03*
X42500000Y8000000D03*
D21*
X50750000Y15000000D03*
X39250000Y15000000D03*
D22*
X36000000Y54500000D03*
X36000000Y52000000D03*
D11*
X34125000Y3650000D03*
D12*
X34125000Y6190000D03*
X34125000Y8730000D03*
X34125000Y11270000D03*
X34125000Y13810000D03*
X34125000Y16350000D03*
D23*
X124500000Y81250000D03*
X124500000Y80500000D03*
X124500000Y79750000D03*
X126000000Y81250000D03*
X126000000Y80500000D03*
X124500000Y70250000D03*
X124500000Y71000000D03*
X124500000Y71750000D03*
X126000000Y70250000D03*
X126000000Y71000000D03*
D24*
X79365000Y2980000D03*
D25*
X82865000Y2980000D03*
D24*
X86985000Y2980000D03*
D25*
X90485000Y2980000D03*
D24*
X71745000Y2980000D03*
D25*
X75245000Y2980000D03*
D21*
X26500000Y81500000D03*
X65750000Y38000000D03*
X148500000Y81500000D03*
X148500000Y23500000D03*
X26500000Y23500000D03*
X95750000Y8000000D03*
X3500000Y81500000D03*
X3500000Y23500000D03*
X148500000Y3500000D03*
D26*
G36*
X151373000Y52627000D02*
X145627000Y52627000D01*
X145627000Y74873000D01*
X151373000Y74873000D01*
X151373000Y52627000D01*
X151373000Y52627000D01*
G37*
X151373000Y52627000D02*
X145627000Y52627000D01*
X145627000Y74873000D01*
X151373000Y74873000D01*
X151373000Y52627000D01*
M02*
