M48
METRIC,TZ
T1C0.305
T2C1.000
T3C1.016
T4C1.500
T5C3.000
T6C3.150
T7C1.700
T8C1.780
%
G90
G05
T1
X007250Y065250
X008000Y064750
X008000Y041000
X008000Y039000
X008250Y034000
X009000Y053250
X009250Y040250
X009250Y038500
X009250Y034000
X009250Y022000
X009750Y063000
X010000Y026500
X010750Y029250
X012000Y037500
X012000Y032250
X012000Y031500
X012250Y063000
X012750Y076000
X013000Y064500
X013250Y034000
X013500Y078000
X013500Y076750
X013500Y070750
X013500Y045500
X013750Y081750
X013750Y048500
X013750Y047500
X014000Y036000
X014000Y033250
X014000Y023750
X014250Y076000
X014250Y071250
X014250Y045000
X015000Y033250
X015000Y023750
X015250Y059750
X015250Y058750
X015250Y056750
X015250Y055000
X015500Y050250
X015750Y008000
X016000Y074000
X016000Y023750
X016250Y049750
X016250Y045000
X016750Y068250
X016750Y008000
X017500Y049750
X017500Y031750
X017771Y008007
X018500Y076000
X018745Y065495
X018750Y049750
X018750Y045000
X018750Y041250
X019250Y068750
X019500Y047500
X019500Y028500
X020325Y072576
X020750Y077250
X020750Y068750
X021250Y048250
X021250Y045000
X021285Y066250
X022000Y028500
X022750Y075750
X022750Y073852
X023250Y081750
X024250Y074750
X024500Y028500
X025500Y036500
X025750Y071250
X025750Y066000
X026250Y077750
X026250Y021750
X026272Y074148
X026500Y036500
X026774Y073342
X027000Y059750
X027500Y083750
X027500Y036500
X028000Y076000
X028000Y055000
X028750Y074750
X029000Y045750
X029750Y020000
X030000Y036500
X030000Y026000
X030750Y029500
X030750Y020000
X031750Y020000
X032500Y069750
X032500Y008000
X032500Y004500
X033250Y006250
X033500Y059750
X033885Y020000
X034000Y046500
X034000Y045000
X034500Y080250
X034500Y074750
X034750Y023750
X035500Y069750
X036000Y023750
X036250Y020500
X036250Y018500
X036250Y012000
X036250Y010000
X037250Y020500
X037250Y018500
X037250Y012000
X037250Y010000
X037500Y043370
X037500Y032500
X038250Y020500
X038250Y018500
X038250Y012000
X038250Y010000
X039750Y006500
X040000Y053500
X041500Y028500
X041750Y053500
X041750Y051000
X044145Y066250
X044250Y053500
X044250Y046500
X045750Y033000
X045750Y032000
X045750Y031000
X045750Y029500
X046000Y017500
X046000Y016500
X046000Y015500
X047000Y024000
X048250Y029500
X049250Y045000
X049500Y024000
X049500Y022500
X050000Y034750
X050750Y054000
X050750Y047500
X050750Y028750
X050754Y015254
X052000Y045000
X052000Y038500
X052007Y041813
X052250Y055500
X052500Y034750
X052500Y024000
X052500Y022500
X054250Y028250
X054250Y027000
X054250Y025750
X054250Y024500
X054250Y023250
X054250Y022000
X054250Y020750
X054250Y019500
X054250Y018250
X054250Y017000
X054250Y015750
X054500Y045000
X054500Y038000
X054507Y041813
X055000Y054000
X055500Y028250
X055500Y027000
X055500Y025750
X055500Y024500
X055500Y023250
X055500Y022000
X055500Y020750
X055500Y019500
X055500Y018250
X055500Y017000
X055500Y015750
X056000Y032250
X056500Y055500
X056750Y033000
X056750Y028250
X056750Y027000
X056750Y025750
X056750Y024500
X056750Y023250
X056750Y022000
X056750Y020750
X056750Y019500
X056750Y018250
X056750Y017000
X056750Y015750
X057000Y045000
X057000Y037500
X057007Y041813
X057990Y028250
X057990Y027000
X057990Y025750
X057990Y024500
X057990Y023250
X057990Y022000
X057990Y020750
X057990Y019500
X057990Y018250
X057990Y017000
X057990Y015750
X059250Y054000
X059250Y028250
X059250Y027000
X059250Y025750
X059250Y024500
X059250Y023250
X059250Y022000
X059250Y020750
X059250Y019500
X059250Y018250
X059250Y017000
X059250Y015750
X060500Y028250
X060500Y027000
X060500Y025750
X060500Y024500
X060500Y023250
X060500Y022000
X060500Y020750
X060500Y019500
X060500Y018250
X060500Y017000
X060500Y015750
X060750Y055500
X061750Y028250
X061750Y027000
X061750Y025750
X061750Y024500
X061750Y023250
X061750Y022000
X061750Y020750
X061750Y019500
X061750Y018250
X061750Y017000
X061750Y015750
X062000Y045000
X063500Y054000
X064500Y039750
X064507Y041833
X064750Y045000
X065000Y055500
X065250Y028750
X065250Y015250
X066500Y021000
X066500Y019750
X066500Y018500
X066500Y017250
X067000Y045000
X067500Y036750
X067750Y054000
X067750Y029500
X068000Y015250
X069250Y055500
X069500Y040000
X069507Y041813
X069750Y045000
X070250Y029500
X071500Y036750
X071500Y028250
X071500Y022250
X072000Y054000
X073000Y030750
X073000Y029000
X073500Y055500
X073500Y035500
X074250Y044500
X076250Y054000
X076250Y051000
X076750Y044500
X077750Y055500
X078500Y022500
X078500Y014250
X079500Y022500
X079500Y014250
X080500Y054000
X080500Y049500
X081000Y042500
X081750Y020500
X081750Y018500
X081750Y012000
X081750Y010000
X082000Y055500
X082250Y036250
X082750Y020500
X082750Y018500
X082750Y012000
X082750Y010000
X083250Y029500
X083750Y020500
X083750Y018500
X083750Y012000
X083750Y010000
X084750Y054000
X084750Y049000
X086250Y055500
X087250Y046500
X087250Y045000
X089000Y054000
X089000Y050000
X090500Y055500
X090750Y027000
X093250Y054000
X093250Y050500
X094750Y055500
X097500Y054000
X097500Y048250
X099000Y055500
X105000Y054000
X105000Y045000
X105000Y031500
X105500Y032250
X105750Y008750
X105750Y006250
X105750Y003750
X106000Y020250
X106500Y034000
X107000Y025000
X107250Y019500
X108250Y025000
X108750Y021500
X109000Y017250
X109250Y025000
X109750Y058250
X110500Y026000
X110687Y023042
X110750Y025000
X110750Y024000
X111000Y045250
X111000Y032250
X111500Y057500
X111500Y031500
X111500Y030500
X111500Y029500
X111500Y014750
X112000Y045250
X112000Y005000
X112000Y002500
X113000Y065500
X113750Y024250
X114000Y032500
X114000Y031500
X114000Y030500
X114000Y029500
X114000Y028500
X114000Y020250
X114000Y018250
X114750Y025250
X114750Y024250
X115250Y065500
X115250Y022000
X115750Y026250
X115750Y025250
X115750Y024250
X116250Y022000
X116500Y032250
X116500Y031250
X117500Y065500
X118000Y080250
X118000Y079500
X118000Y078750
X118000Y070750
X118000Y070000
X118000Y069250
X118000Y028250
X118000Y027250
X118006Y026259
X119000Y021750
X119000Y020750
X119500Y080250
X119500Y079500
X119500Y070000
X119500Y069250
X119500Y001500
X119750Y020000
X120750Y029000
X120750Y026500
X120750Y024000
X120750Y020000
X121750Y020000
X123250Y065500
X123250Y062000
X124000Y013000
X124250Y034500
X124500Y029250
X124500Y026750
X124500Y024250
X124504Y068750
X125750Y065500
X125750Y062000
X126000Y013000
X126750Y010000
X128750Y020750
X134000Y023000
X134000Y013000
X134000Y003000
X135000Y030000
X136000Y023000
X136000Y013000
X136000Y003000
X136750Y020000
X136750Y010000
X139750Y003000
X144000Y013000
X146000Y013000
X146750Y010000
T2
X019500Y022500
X019500Y008000
X022000Y022500
X024500Y022500
X024500Y008000
T3
X002230Y076630
X002230Y074090
X002230Y071550
X002230Y069010
X002230Y066470
X002230Y063930
X002230Y061390
X002230Y058850
X002230Y056310
X002230Y053770
X002230Y051230
X002230Y048690
X002230Y046150
X002230Y043610
X002230Y041070
X002230Y038530
X002230Y035990
X002230Y033450
X002230Y030910
X002230Y028370
X004770Y076630
X004770Y074090
X004770Y071550
X004770Y069010
X004770Y066470
X004770Y063930
X004770Y061390
X004770Y058850
X004770Y056310
X004770Y053770
X004770Y051230
X004770Y048690
X004770Y046150
X004770Y043610
X004770Y041070
X004770Y038530
X004770Y035990
X004770Y033450
X004770Y030910
X004770Y028370
X011125Y016350
X011125Y013810
X011125Y011270
X011125Y008730
X011125Y006190
X011125Y003650
X016205Y002230
X018745Y002230
X021285Y002230
X023825Y002230
X026365Y002230
X031445Y002230
X033985Y002230
X036525Y002230
X038790Y078580
X038790Y076040
X038790Y073500
X038790Y070960
X039065Y002230
X041330Y078580
X041330Y076040
X041330Y073500
X041330Y070960
X041605Y002230
X043870Y078580
X043870Y076040
X043870Y073500
X043870Y070960
X074625Y002230
X075895Y030170
X075895Y027630
X075895Y025090
X075895Y022550
X077165Y002230
X079705Y002230
X084785Y002230
X087325Y002230
X089865Y002230
X097485Y030170
X097485Y027630
X097485Y025090
X097485Y022550
X100025Y030170
X100025Y027630
X100025Y025090
X100025Y022550
X102565Y030170
X102565Y027630
X102565Y025090
X102565Y022550
X124500Y037500
X127040Y037500
T4
X048745Y002980
X052245Y002980
X056365Y002980
X059865Y002980
X063985Y002980
X067485Y002980
T5
X016250Y015000
X027750Y015000
T6
X003500Y081500
X003500Y023500
X042750Y038000
X072750Y008000
X146500Y081500
X146500Y023500
T7
X099000Y011500
X099000Y004500
T8
X003500Y075360
X003500Y047420
X003500Y029640
T0
M30
