G04 #@! TF.FileFunction,Soldermask,Top*
%FSLAX46Y46*%
G04 Gerber Fmt 4.6, Leading zero omitted, Abs format (unit mm)*
G04 Created by KiCad (PCBNEW 4.0.0-stable) date Sunday, July 24, 2016 'AMt' 01:06:53 AM*
%MOMM*%
G01*
G04 APERTURE LIST*
%ADD10C,0.100000*%
%ADD11R,1.900000X1.900000*%
%ADD12R,3.150000X1.400000*%
%ADD13R,1.520000X2.840000*%
%ADD14R,3.999180X2.000200*%
%ADD15R,1.150000X1.200000*%
%ADD16R,2.432000X2.127200*%
%ADD17O,2.432000X2.127200*%
%ADD18R,1.200000X1.150000*%
%ADD19R,2.080000X1.289000*%
%ADD20C,1.900000*%
%ADD21R,1.197560X1.197560*%
%ADD22R,1.100000X1.000000*%
%ADD23R,1.000000X1.100000*%
%ADD24R,3.200000X2.400000*%
%ADD25R,3.200000X2.600000*%
%ADD26R,3.200000X3.200000*%
%ADD27R,2.127200X2.432000*%
%ADD28O,2.127200X2.432000*%
%ADD29R,2.432000X2.432000*%
%ADD30O,2.432000X2.432000*%
%ADD31R,1.200100X1.200100*%
%ADD32R,1.300000X0.900000*%
%ADD33R,0.900000X1.300000*%
%ADD34R,2.100000X1.300000*%
%ADD35C,2.400000*%
%ADD36C,6.400000*%
%ADD37R,1.400000X3.150000*%
%ADD38R,1.050000X1.460000*%
%ADD39R,0.700000X1.800000*%
%ADD40R,2.100000X1.100000*%
%ADD41R,9.800000X15.200000*%
%ADD42R,5.400000X18.100000*%
%ADD43R,1.100000X0.650000*%
%ADD44R,0.650000X1.100000*%
%ADD45R,2.125000X2.125000*%
%ADD46R,1.800000X0.695000*%
%ADD47R,2.700000X3.050000*%
%ADD48C,1.009600*%
%ADD49R,1.400000X1.650000*%
%ADD50R,1.650000X1.400000*%
%ADD51R,3.400000X3.400000*%
%ADD52O,3.400000X3.400000*%
%ADD53R,0.845000X1.400000*%
%ADD54R,0.695000X1.400000*%
%ADD55R,1.400000X0.695000*%
%ADD56C,0.254000*%
G04 APERTURE END LIST*
D10*
D11*
X150633692Y32516046D03*
X147383692Y32516046D03*
X147383692Y30016046D03*
X150633692Y30016046D03*
D12*
X136625000Y20000000D03*
X142375000Y20000000D03*
X142375000Y24000000D03*
X136625000Y24000000D03*
D13*
X92545000Y43370000D03*
X90005000Y43370000D03*
X87465000Y43370000D03*
X84925000Y43370000D03*
X84925000Y34750000D03*
X87465000Y34750000D03*
X90005000Y34750000D03*
X92545000Y34750000D03*
D14*
X65750820Y11000000D03*
X60249180Y11000000D03*
D15*
X121250000Y28750000D03*
X121250000Y27250000D03*
D16*
X144615000Y42870000D03*
D17*
X144615000Y40330000D03*
X144615000Y37790000D03*
X144615000Y35250000D03*
D16*
X44870000Y78580000D03*
D17*
X44870000Y76040000D03*
X44870000Y73500000D03*
X44870000Y70960000D03*
D18*
X33750000Y22750000D03*
X32250000Y22750000D03*
D19*
X23920000Y76630000D03*
X29080000Y76630000D03*
X23920000Y74090000D03*
X29080000Y74090000D03*
X23920000Y71550000D03*
X29080000Y71550000D03*
X23920000Y69010000D03*
X29080000Y69010000D03*
X23920000Y66470000D03*
X29080000Y66470000D03*
X23920000Y63930000D03*
X29080000Y63930000D03*
X23920000Y61390000D03*
X29080000Y61390000D03*
X23920000Y58850000D03*
X29080000Y58850000D03*
X23920000Y56310000D03*
X29080000Y56310000D03*
X23920000Y53770000D03*
X29080000Y53770000D03*
X23920000Y51230000D03*
X29080000Y51230000D03*
X23920000Y48690000D03*
X29080000Y48690000D03*
X23920000Y46150000D03*
X29080000Y46150000D03*
D20*
X25230000Y76630000D03*
X27770000Y76630000D03*
X25230000Y74090000D03*
X25230000Y71550000D03*
X25230000Y69010000D03*
X25230000Y66470000D03*
X25230000Y63930000D03*
X25230000Y61390000D03*
X25230000Y58850000D03*
X25230000Y56310000D03*
X25230000Y53770000D03*
X25230000Y51230000D03*
X25230000Y48690000D03*
X25230000Y46150000D03*
X27770000Y74090000D03*
X27770000Y71550000D03*
X27770000Y69010000D03*
X27770000Y66470000D03*
X27770000Y63930000D03*
X27770000Y61390000D03*
X27770000Y58850000D03*
X27770000Y56310000D03*
X27770000Y53770000D03*
X27770000Y51230000D03*
X27770000Y48690000D03*
X27770000Y46150000D03*
X25230000Y43610000D03*
X25230000Y41070000D03*
X25230000Y38530000D03*
X25230000Y35990000D03*
X25230000Y33450000D03*
X25230000Y30910000D03*
X25230000Y28370000D03*
X27770000Y28370000D03*
X27770000Y30910000D03*
X27770000Y33450000D03*
X27770000Y35990000D03*
X27770000Y38530000D03*
X27770000Y41070000D03*
X27770000Y43610000D03*
D19*
X23920000Y43610000D03*
X23920000Y41070000D03*
X23920000Y38530000D03*
X23920000Y35990000D03*
X23920000Y33450000D03*
X23920000Y30910000D03*
X23920000Y28370000D03*
X29080000Y28370000D03*
X29080000Y30910000D03*
X29080000Y33450000D03*
X29080000Y35990000D03*
X29080000Y38530000D03*
X29080000Y41070000D03*
X29080000Y43610000D03*
D18*
X32250000Y30000000D03*
X33750000Y30000000D03*
X34000000Y75500000D03*
X35500000Y75500000D03*
X16500000Y69500000D03*
X18000000Y69500000D03*
X18000000Y80500000D03*
X16500000Y80500000D03*
D15*
X13500000Y71000000D03*
X13500000Y69500000D03*
X11500000Y71000000D03*
X11500000Y69500000D03*
X91500000Y17750000D03*
X91500000Y16250000D03*
X70000000Y21500000D03*
X70000000Y23000000D03*
X47500000Y26250000D03*
X47500000Y27750000D03*
X45000000Y26250000D03*
X45000000Y27750000D03*
X42500000Y26250000D03*
X42500000Y27750000D03*
D18*
X145750000Y27750000D03*
X147250000Y27750000D03*
X149250000Y27750000D03*
X150750000Y27750000D03*
D15*
X119000000Y28750000D03*
X119000000Y27250000D03*
D18*
X128750000Y19250000D03*
X127250000Y19250000D03*
X128750000Y21250000D03*
X127250000Y21250000D03*
X132000000Y3500000D03*
X133500000Y3500000D03*
X131250000Y26500000D03*
X132750000Y26500000D03*
X130000000Y3500000D03*
X128500000Y3500000D03*
X131250000Y24000000D03*
X132750000Y24000000D03*
D15*
X126750000Y15750000D03*
X126750000Y17250000D03*
X126500000Y6000000D03*
X126500000Y7500000D03*
D18*
X131250000Y29000000D03*
X132750000Y29000000D03*
D15*
X135250000Y11250000D03*
X135250000Y9750000D03*
X143750000Y17250000D03*
X143750000Y15750000D03*
X135250000Y15750000D03*
X135250000Y17250000D03*
X143750000Y9750000D03*
X143750000Y11250000D03*
D18*
X147250000Y8000000D03*
X148750000Y8000000D03*
D21*
X32500000Y62499300D03*
X32500000Y61000700D03*
X4999300Y62250000D03*
X3500700Y62250000D03*
X105249300Y27000000D03*
X103750700Y27000000D03*
X90549300Y64000000D03*
X89050700Y64000000D03*
X86249300Y64000000D03*
X84750700Y64000000D03*
X81999300Y64000000D03*
X80500700Y64000000D03*
X77749300Y64000000D03*
X76250700Y64000000D03*
X98999300Y64000000D03*
X97500700Y64000000D03*
X94749300Y64000000D03*
X93250700Y64000000D03*
X52249300Y64000000D03*
X50750700Y64000000D03*
X56499300Y64050000D03*
X55000700Y64050000D03*
X107750700Y27000000D03*
X109249300Y27000000D03*
D22*
X112865000Y30870000D03*
X112865000Y29470000D03*
X110325000Y30870000D03*
X110325000Y29470000D03*
X107785000Y30870000D03*
X107785000Y29470000D03*
D21*
X60749300Y64000000D03*
X59250700Y64000000D03*
X67000000Y29500700D03*
X67000000Y30999300D03*
X64999300Y64000000D03*
X63500700Y64000000D03*
X69249300Y64000000D03*
X67750700Y64000000D03*
D23*
X48665000Y4770000D03*
X50065000Y4770000D03*
X44855000Y4770000D03*
X46255000Y4770000D03*
X41045000Y4770000D03*
X42445000Y4770000D03*
X63905000Y4770000D03*
X65305000Y4770000D03*
X60095000Y4770000D03*
X61495000Y4770000D03*
X56285000Y4770000D03*
X57685000Y4770000D03*
D22*
X59525000Y30870000D03*
X59525000Y29470000D03*
X56985000Y30870000D03*
X56985000Y29470000D03*
X54445000Y30870000D03*
X54445000Y29470000D03*
D21*
X73499300Y64000000D03*
X72000700Y64000000D03*
X67000000Y24750700D03*
X67000000Y26249300D03*
X121250000Y32249300D03*
X121250000Y30750700D03*
D24*
X118300000Y2500000D03*
X125700000Y600000D03*
D25*
X118300000Y5300000D03*
X125700000Y3400000D03*
D26*
X125700000Y12800000D03*
X121250000Y16900000D03*
D16*
X39790000Y78580000D03*
D17*
X39790000Y76040000D03*
X39790000Y73500000D03*
X39790000Y70960000D03*
D16*
X42330000Y78580000D03*
D17*
X42330000Y76040000D03*
X42330000Y73500000D03*
X42330000Y70960000D03*
D16*
X98895000Y30170000D03*
D17*
X98895000Y27630000D03*
X98895000Y25090000D03*
X98895000Y22550000D03*
D27*
X107785000Y2230000D03*
D28*
X110325000Y2230000D03*
X112865000Y2230000D03*
D27*
X97625000Y2230000D03*
D28*
X100165000Y2230000D03*
X102705000Y2230000D03*
D27*
X39205000Y2230000D03*
D28*
X41745000Y2230000D03*
X44285000Y2230000D03*
X46825000Y2230000D03*
X49365000Y2230000D03*
D27*
X54445000Y2230000D03*
D28*
X56985000Y2230000D03*
X59525000Y2230000D03*
X62065000Y2230000D03*
X64605000Y2230000D03*
D16*
X149695000Y42870000D03*
D17*
X149695000Y40330000D03*
X149695000Y37790000D03*
X149695000Y35250000D03*
D16*
X147155000Y42870000D03*
D17*
X147155000Y40330000D03*
X147155000Y37790000D03*
X147155000Y35250000D03*
D29*
X117945000Y55570000D03*
D30*
X117945000Y58110000D03*
D21*
X40749300Y68000000D03*
X39250700Y68000000D03*
D31*
X88800000Y56999240D03*
X90700000Y56999240D03*
X89750000Y58998220D03*
X84550000Y56999240D03*
X86450000Y56999240D03*
X85500000Y58998220D03*
X80300000Y56999240D03*
X82200000Y56999240D03*
X81250000Y58998220D03*
X76050000Y56999240D03*
X77950000Y56999240D03*
X77000000Y58998220D03*
X97300000Y56999240D03*
X99200000Y56999240D03*
X98250000Y58998220D03*
X93050000Y56999240D03*
X94950000Y56999240D03*
X94000000Y58998220D03*
X50550000Y56999240D03*
X52450000Y56999240D03*
X51500000Y58998220D03*
X54800000Y56999240D03*
X56700000Y56999240D03*
X55750000Y58998220D03*
X59050000Y56999240D03*
X60950000Y56999240D03*
X60000000Y58998220D03*
X63300000Y56999240D03*
X65200000Y56999240D03*
X64250000Y58998220D03*
X67550000Y56999240D03*
X69450000Y56999240D03*
X68500000Y58998220D03*
X71800000Y56999240D03*
X73700000Y56999240D03*
X72750000Y58998220D03*
X59999240Y26450000D03*
X59999240Y24550000D03*
X61998220Y25500000D03*
D32*
X35000000Y56250000D03*
X35000000Y57750000D03*
X32500000Y56250000D03*
X32500000Y57750000D03*
D33*
X45250000Y68000000D03*
X43750000Y68000000D03*
D32*
X35000000Y61000000D03*
X35000000Y62500000D03*
D33*
X137000000Y73250000D03*
X138500000Y73250000D03*
X137000000Y75750000D03*
X138500000Y75750000D03*
X137000000Y78250000D03*
X138500000Y78250000D03*
X3500000Y59750000D03*
X5000000Y59750000D03*
D32*
X99750000Y42500000D03*
X99750000Y44000000D03*
X97250000Y42500000D03*
X97250000Y44000000D03*
D33*
X89000000Y54750000D03*
X90500000Y54750000D03*
X84750000Y54750000D03*
X86250000Y54750000D03*
X89050000Y61500000D03*
X90550000Y61500000D03*
X84750000Y61500000D03*
X86250000Y61500000D03*
X105250000Y29500000D03*
X103750000Y29500000D03*
D32*
X97250000Y34000000D03*
X97250000Y35500000D03*
X99750000Y34000000D03*
X99750000Y35500000D03*
D33*
X80500000Y54750000D03*
X82000000Y54750000D03*
X76250000Y54750000D03*
X77750000Y54750000D03*
X80500000Y61500000D03*
X82000000Y61500000D03*
X76250000Y61500000D03*
X77750000Y61500000D03*
D34*
X92000000Y26550000D03*
X92000000Y29450000D03*
X70000000Y26550000D03*
X70000000Y29450000D03*
D33*
X97500000Y54750000D03*
X99000000Y54750000D03*
X93250000Y54750000D03*
X94750000Y54750000D03*
X97500000Y61500000D03*
X99000000Y61500000D03*
X93250000Y61500000D03*
X94750000Y61500000D03*
X50750000Y54750000D03*
X52250000Y54750000D03*
X55000000Y54750000D03*
X56500000Y54750000D03*
X50750000Y61500000D03*
X52250000Y61500000D03*
X55000000Y61500000D03*
X56500000Y61500000D03*
X111250000Y27000000D03*
X112750000Y27000000D03*
X59250000Y54750000D03*
X60750000Y54750000D03*
X59250000Y61500000D03*
X60750000Y61500000D03*
D32*
X64500000Y31000000D03*
X64500000Y29500000D03*
D33*
X63500000Y54750000D03*
X65000000Y54750000D03*
X67750000Y54750000D03*
X69250000Y54750000D03*
X63500000Y61500000D03*
X65000000Y61500000D03*
X67750000Y61500000D03*
X69250000Y61500000D03*
X72000000Y54750000D03*
X73500000Y54750000D03*
D32*
X57750000Y26250000D03*
X57750000Y24750000D03*
D33*
X72000000Y61500000D03*
X73500000Y61500000D03*
D32*
X64500000Y26250000D03*
X64500000Y24750000D03*
X119000000Y32250000D03*
X119000000Y30750000D03*
D33*
X130000000Y6000000D03*
X128500000Y6000000D03*
X133500000Y6000000D03*
X132000000Y6000000D03*
D13*
X46825000Y63690000D03*
X44285000Y63690000D03*
X41745000Y63690000D03*
X39205000Y63690000D03*
X39205000Y55070000D03*
X41745000Y55070000D03*
X44285000Y55070000D03*
X46825000Y55070000D03*
X105245000Y55070000D03*
X107785000Y55070000D03*
X110325000Y55070000D03*
X112865000Y55070000D03*
X112865000Y63690000D03*
X110325000Y63690000D03*
X107785000Y63690000D03*
X105245000Y63690000D03*
X16345000Y63690000D03*
X13805000Y63690000D03*
X11265000Y63690000D03*
X8725000Y63690000D03*
X8725000Y55070000D03*
X11265000Y55070000D03*
X13805000Y55070000D03*
X16345000Y55070000D03*
X79845000Y43370000D03*
X77305000Y43370000D03*
X74765000Y43370000D03*
X72225000Y43370000D03*
X72225000Y34750000D03*
X74765000Y34750000D03*
X77305000Y34750000D03*
X79845000Y34750000D03*
X112865000Y43370000D03*
X110325000Y43370000D03*
X107785000Y43370000D03*
X105245000Y43370000D03*
X105245000Y34750000D03*
X107785000Y34750000D03*
X110325000Y34750000D03*
X112865000Y34750000D03*
X46825000Y43370000D03*
X44285000Y43370000D03*
X41745000Y43370000D03*
X39205000Y43370000D03*
X39205000Y34750000D03*
X41745000Y34750000D03*
X44285000Y34750000D03*
X46825000Y34750000D03*
D35*
X47500000Y22500000D03*
X45000000Y22500000D03*
X42500000Y22500000D03*
X47500000Y8000000D03*
X42500000Y8000000D03*
D36*
X50750000Y15000000D03*
X39250000Y15000000D03*
D13*
X59525000Y43370000D03*
X56985000Y43370000D03*
X54445000Y43370000D03*
X51905000Y43370000D03*
X51905000Y34750000D03*
X54445000Y34750000D03*
X56985000Y34750000D03*
X59525000Y34750000D03*
X128105000Y43370000D03*
X125565000Y43370000D03*
X123025000Y43370000D03*
X120485000Y43370000D03*
X120485000Y34750000D03*
X123025000Y34750000D03*
X125565000Y34750000D03*
X128105000Y34750000D03*
X140805000Y43370000D03*
X138265000Y43370000D03*
X135725000Y43370000D03*
X133185000Y43370000D03*
X133185000Y34750000D03*
X135725000Y34750000D03*
X138265000Y34750000D03*
X140805000Y34750000D03*
D37*
X133000000Y10625000D03*
X133000000Y16375000D03*
X129000000Y16375000D03*
X129000000Y10625000D03*
X137500000Y16375000D03*
X137500000Y10625000D03*
X141500000Y10625000D03*
X141500000Y16375000D03*
D12*
X142375000Y7000000D03*
X136625000Y7000000D03*
X136625000Y3000000D03*
X142375000Y3000000D03*
D37*
X146000000Y16375000D03*
X146000000Y10625000D03*
X150000000Y10625000D03*
X150000000Y16375000D03*
D38*
X32050000Y25400000D03*
X33000000Y25400000D03*
X33950000Y25400000D03*
X33950000Y27600000D03*
X32050000Y27600000D03*
D39*
X33750000Y78050000D03*
X34250000Y78050000D03*
X34750000Y78050000D03*
X35250000Y78050000D03*
X35750000Y78050000D03*
X35750000Y82450000D03*
X35250000Y82450000D03*
X34750000Y82450000D03*
X34250000Y82450000D03*
X33750000Y82450000D03*
D40*
X74140000Y27715000D03*
X74140000Y26445000D03*
X74140000Y25175000D03*
X74140000Y23905000D03*
X74140000Y22635000D03*
X74140000Y21365000D03*
X74140000Y20095000D03*
X74140000Y18825000D03*
X74140000Y17555000D03*
X74140000Y16285000D03*
X87840000Y16285000D03*
X87840000Y17555000D03*
X87840000Y18825000D03*
X87840000Y20095000D03*
X87840000Y21365000D03*
X87840000Y22635000D03*
X87840000Y23905000D03*
X87840000Y25175000D03*
X87840000Y26445000D03*
X87840000Y27715000D03*
D41*
X80990000Y22000000D03*
D42*
X80990000Y22000000D03*
D43*
X124100000Y28250000D03*
X124100000Y27750000D03*
X124100000Y27250000D03*
X124100000Y26750000D03*
X124100000Y26250000D03*
X124100000Y25750000D03*
X124100000Y25250000D03*
X124100000Y24750000D03*
D44*
X124750000Y24100000D03*
X125250000Y24100000D03*
X125750000Y24100000D03*
X126250000Y24100000D03*
X126750000Y24100000D03*
X127250000Y24100000D03*
X127750000Y24100000D03*
X128250000Y24100000D03*
D43*
X128900000Y24750000D03*
X128900000Y25250000D03*
X128900000Y25750000D03*
X128900000Y26250000D03*
X128900000Y26750000D03*
X128900000Y27250000D03*
X128900000Y27750000D03*
X128900000Y28250000D03*
D44*
X128250000Y28900000D03*
X127750000Y28900000D03*
X127250000Y28900000D03*
X126750000Y28900000D03*
X126250000Y28900000D03*
X125750000Y28900000D03*
X125250000Y28900000D03*
X124750000Y28900000D03*
D45*
X127362500Y25637500D03*
X127362500Y27362500D03*
X125637500Y25637500D03*
X125637500Y27362500D03*
D16*
X34125000Y3650000D03*
D17*
X34125000Y6190000D03*
X34125000Y8730000D03*
X34125000Y11270000D03*
X34125000Y13810000D03*
X34125000Y16350000D03*
D14*
X65750820Y19500000D03*
X60249180Y19500000D03*
X111250820Y11000000D03*
X105749180Y11000000D03*
X111250820Y19500000D03*
X105749180Y19500000D03*
D46*
X126500000Y78500000D03*
X126500000Y78000000D03*
X126500000Y77500000D03*
X126500000Y77000000D03*
X126500000Y76500000D03*
X126500000Y76000000D03*
X126500000Y75500000D03*
X126500000Y75000000D03*
X126500000Y74500000D03*
X126500000Y74000000D03*
X126500000Y73500000D03*
X126500000Y73000000D03*
D47*
X125250000Y80275000D03*
X125250000Y71225000D03*
D48*
X124500000Y81250000D03*
X124500000Y80500000D03*
X124500000Y79750000D03*
X126000000Y81250000D03*
X126000000Y80500000D03*
X124500000Y70250000D03*
X124500000Y71000000D03*
X124500000Y71750000D03*
X126000000Y70250000D03*
X126000000Y71000000D03*
D49*
X18250000Y83000000D03*
X16250000Y83000000D03*
X121250000Y24500000D03*
X119250000Y24500000D03*
D50*
X124500000Y21250000D03*
X124500000Y19250000D03*
X138500000Y27000000D03*
X138500000Y29000000D03*
X141500000Y27000000D03*
X141500000Y29000000D03*
X135500000Y27000000D03*
X135500000Y29000000D03*
D49*
X16250000Y67000000D03*
X18250000Y67000000D03*
X9500000Y83000000D03*
X7500000Y83000000D03*
X6750000Y67000000D03*
X8750000Y67000000D03*
D18*
X9000000Y80500000D03*
X7500000Y80500000D03*
X7000000Y69500000D03*
X8500000Y69500000D03*
X9000000Y78000000D03*
X7500000Y78000000D03*
X20000000Y78000000D03*
X21500000Y78000000D03*
D51*
X79365000Y2980000D03*
D52*
X82865000Y2980000D03*
D51*
X86985000Y2980000D03*
D52*
X90485000Y2980000D03*
D51*
X71745000Y2980000D03*
D52*
X75245000Y2980000D03*
D31*
X32550000Y67249240D03*
X34450000Y67249240D03*
X33500000Y69248220D03*
X32550000Y71249240D03*
X34450000Y71249240D03*
X33500000Y73248220D03*
D32*
X36750000Y67500000D03*
X36750000Y69000000D03*
X36750000Y71500000D03*
X36750000Y73000000D03*
D33*
X13250000Y83000000D03*
X11750000Y83000000D03*
X13250000Y80500000D03*
X11750000Y80500000D03*
X11750000Y78000000D03*
X13250000Y78000000D03*
X2500000Y77250000D03*
X1000000Y77250000D03*
X20000000Y67000000D03*
X21500000Y67000000D03*
X2500000Y72250000D03*
X1000000Y72250000D03*
X20000000Y69500000D03*
X21500000Y69500000D03*
X20000000Y64500000D03*
X21500000Y64500000D03*
X5000000Y69500000D03*
X3500000Y69500000D03*
X2500000Y74750000D03*
X1000000Y74750000D03*
X20000000Y80500000D03*
X21500000Y80500000D03*
X21500000Y83000000D03*
X20000000Y83000000D03*
X5000000Y67000000D03*
X3500000Y67000000D03*
X3500000Y64500000D03*
X5000000Y64500000D03*
D53*
X11525000Y75150000D03*
X12175000Y75150000D03*
X12825000Y75150000D03*
X13475000Y75150000D03*
X11525000Y73350000D03*
X12175000Y73350000D03*
X12825000Y73350000D03*
X13475000Y73350000D03*
D49*
X16000000Y77750000D03*
X18000000Y77750000D03*
D54*
X18000000Y75150000D03*
X18500000Y75150000D03*
X19000000Y75150000D03*
X19500000Y75150000D03*
X20000000Y72350000D03*
D55*
X20400000Y74250000D03*
X20400000Y73750000D03*
X17600000Y73250000D03*
D54*
X20000000Y75150000D03*
D55*
X20400000Y73250000D03*
D54*
X19500000Y72350000D03*
X19000000Y72350000D03*
X18500000Y72350000D03*
X18000000Y72350000D03*
D55*
X17600000Y73750000D03*
X17600000Y74250000D03*
D54*
X7000000Y72350000D03*
X6500000Y72350000D03*
X6000000Y72350000D03*
X5500000Y72350000D03*
X5000000Y75150000D03*
D55*
X4600000Y73250000D03*
X4600000Y73750000D03*
X7400000Y74250000D03*
D54*
X5000000Y72350000D03*
D55*
X4600000Y74250000D03*
D54*
X5500000Y75150000D03*
X6000000Y75150000D03*
X6500000Y75150000D03*
X7000000Y75150000D03*
D55*
X7400000Y73750000D03*
X7400000Y73250000D03*
D36*
X26500000Y81500000D03*
X65750000Y38000000D03*
X148500000Y81500000D03*
X148500000Y23500000D03*
X26500000Y23500000D03*
X95750000Y8000000D03*
X3500000Y81500000D03*
X3500000Y23500000D03*
X148500000Y3500000D03*
D56*
G36*
X151373000Y52627000D02*
X145627000Y52627000D01*
X145627000Y74873000D01*
X151373000Y74873000D01*
X151373000Y52627000D01*
X151373000Y52627000D01*
G37*
X151373000Y52627000D02*
X145627000Y52627000D01*
X145627000Y74873000D01*
X151373000Y74873000D01*
X151373000Y52627000D01*
M02*
