M48
METRIC,TZ
T1C0.305
T2C1.000
T3C1.016
T4C1.500
T5C3.000
T6C3.150
T7C1.700
T8C1.780
%
G90
G05
T1
X001000Y078000
X005250Y076000
X005500Y064500
X005500Y059750
X006000Y078000
X006000Y076750
X006000Y070750
X006750Y076000
X006750Y071250
X007000Y081750
X008500Y074000
X009250Y068250
X009500Y063750
X011000Y076000
X011245Y065495
X011750Y068750
X012825Y072576
X013250Y077250
X013250Y068750
X013785Y066250
X015250Y075750
X015250Y073852
X015750Y081750
X016750Y074750
X018250Y071250
X018250Y066000
X018750Y077750
X018772Y074148
X019274Y073342
X020000Y083750
X020500Y076000
X021250Y074750
X021500Y063750
X031000Y041000
X031000Y039000
X031250Y034000
X031750Y065000
X032000Y053250
X032250Y040250
X032250Y038500
X032250Y034000
X032250Y022000
X032500Y065500
X032500Y058250
X033000Y026500
X033500Y069750
X033750Y029250
X035000Y063000
X035000Y058250
X035000Y037500
X035000Y032250
X035000Y031500
X035500Y080250
X035500Y074750
X035750Y056250
X036250Y034000
X036500Y069750
X036500Y063750
X036500Y061000
X036500Y045500
X036750Y048500
X036750Y047500
X037000Y036000
X037000Y033250
X037000Y023750
X037250Y045000
X038000Y033250
X038000Y023750
X038500Y050250
X038750Y008000
X039000Y023750
X039243Y049757
X039250Y058500
X039250Y045000
X039750Y008000
X040500Y049500
X040500Y031750
X040771Y008007
X041500Y059500
X041500Y058500
X041750Y049750
X041750Y045000
X041750Y041250
X042500Y047500
X042500Y028500
X044250Y056500
X044250Y051000
X044250Y048250
X044250Y045000
X045000Y028500
X045250Y067250
X045750Y056500
X045750Y045750
X046750Y056500
X046750Y046500
X047500Y028500
X048500Y036500
X049250Y021750
X049500Y036500
X050500Y036500
X050750Y054000
X050750Y051000
X052250Y055500
X052500Y082500
X052500Y067500
X052750Y036250
X052750Y020000
X053000Y026000
X053250Y054000
X053750Y029500
X053750Y020000
X054750Y020000
X055000Y054000
X055000Y049500
X055500Y008000
X055500Y004500
X056250Y006250
X056500Y055500
X056885Y020000
X057000Y046500
X057000Y045000
X057750Y023750
X059000Y023750
X059250Y054000
X059250Y049000
X059250Y020500
X059250Y018500
X059250Y012000
X059250Y010000
X060250Y020500
X060250Y018500
X060250Y012000
X060250Y010000
X060500Y043370
X060500Y032500
X060750Y055500
X061250Y020500
X061250Y018500
X061250Y012000
X061250Y010000
X062750Y006500
X063500Y054000
X063500Y050000
X064500Y028500
X065000Y055500
X067750Y054000
X067750Y050500
X068750Y033000
X068750Y032000
X068750Y031000
X068750Y029500
X069000Y017500
X069000Y016500
X069000Y015500
X069250Y055500
X070000Y024000
X071250Y029500
X072000Y054000
X072000Y048500
X072250Y045000
X072500Y024000
X072500Y022500
X073000Y034750
X073500Y055500
X073750Y047500
X073750Y028750
X073754Y015254
X075000Y082500
X075000Y067500
X075000Y045000
X075000Y038500
X075007Y041813
X075500Y034750
X075500Y024000
X075500Y022500
X076250Y054000
X077250Y028250
X077250Y027000
X077250Y025750
X077250Y024500
X077250Y023250
X077250Y022000
X077250Y020750
X077250Y019500
X077250Y018250
X077250Y017000
X077250Y015750
X077500Y045000
X077500Y038000
X077507Y041813
X077750Y055500
X078500Y028250
X078500Y027000
X078500Y025750
X078500Y024500
X078500Y023250
X078500Y022000
X078500Y020750
X078500Y019500
X078500Y018250
X078500Y017000
X078500Y015750
X079000Y032250
X079750Y033000
X079750Y028250
X079750Y027000
X079750Y025750
X079750Y024500
X079750Y023250
X079750Y022000
X079750Y020750
X079750Y019500
X079750Y018250
X079750Y017000
X079750Y015750
X080000Y045000
X080000Y037500
X080007Y041813
X080500Y054000
X080990Y028250
X080990Y027000
X080990Y025750
X080990Y024500
X080990Y023250
X080990Y022000
X080990Y020750
X080990Y019500
X080990Y018250
X080990Y017000
X080990Y015750
X082000Y055500
X082250Y028250
X082250Y027000
X082250Y025750
X082250Y024500
X082250Y023250
X082250Y022000
X082250Y020750
X082250Y019500
X082250Y018250
X082250Y017000
X082250Y015750
X083500Y028250
X083500Y027000
X083500Y025750
X083500Y024500
X083500Y023250
X083500Y022000
X083500Y020750
X083500Y019500
X083500Y018250
X083500Y017000
X083500Y015750
X084750Y054000
X084750Y028250
X084750Y027000
X084750Y025750
X084750Y024500
X084750Y023250
X084750Y022000
X084750Y020750
X084750Y019500
X084750Y018250
X084750Y017000
X084750Y015750
X085000Y045000
X086250Y055500
X087500Y039750
X087507Y041833
X087750Y045000
X088250Y028750
X088250Y015250
X089000Y054000
X089500Y021000
X089500Y019750
X089500Y018500
X089500Y017250
X090000Y045000
X090500Y055500
X090500Y036750
X090750Y029500
X091000Y015250
X092500Y040000
X092507Y041813
X092750Y045000
X093250Y054000
X093250Y029500
X094500Y036750
X094500Y028250
X094500Y022250
X094750Y055500
X096000Y030750
X096000Y029000
X096500Y035500
X097250Y044500
X097500Y082500
X097500Y067500
X097500Y054000
X099000Y055500
X099750Y044500
X101500Y022500
X101500Y014250
X102500Y022500
X102500Y014250
X104000Y042500
X104750Y020500
X104750Y018500
X104750Y012000
X104750Y010000
X105250Y053500
X105250Y045750
X105250Y036250
X105750Y020500
X105750Y018500
X105750Y012000
X105750Y010000
X106250Y029500
X106750Y020500
X106750Y018500
X106750Y012000
X106750Y010000
X110250Y046500
X110250Y045000
X113750Y027000
X117750Y036750
X118500Y022250
X118500Y020750
X118750Y036750
X119000Y026000
X119000Y023000
X119000Y021500
X119750Y032250
X120000Y082500
X121250Y026000
X122500Y027000
X122500Y026000
X122500Y025000
X122500Y023500
X122500Y022000
X123000Y024250
X123000Y022750
X124000Y003250
X124500Y081250
X124500Y080500
X124500Y079750
X124500Y071750
X124500Y071000
X124500Y070250
X125750Y025250
X125750Y004750
X126000Y081250
X126000Y080500
X126000Y071000
X126000Y070250
X126000Y029500
X126000Y023250
X126000Y021250
X126000Y019250
X126000Y017250
X126500Y008250
X126750Y026250
X126750Y025250
X127000Y023250
X127500Y078750
X127500Y072750
X127750Y027250
X127750Y026250
X127750Y025250
X128000Y006000
X129000Y014750
X129000Y012250
X129000Y009000
X129500Y034000
X129750Y017750
X130000Y029250
X130000Y028250
X130250Y033500
X130500Y022000
X131000Y006000
X131000Y003500
X131250Y022750
X132750Y030000
X132750Y027500
X132750Y025000
X134000Y051250
X134000Y047750
X134250Y003500
X134500Y027000
X134500Y024500
X135000Y051250
X135000Y047750
X135250Y018000
X135250Y009000
X135500Y030000
X136500Y003750
X136500Y002250
X138250Y024000
X138500Y030000
X139000Y075750
X139750Y048000
X140750Y048000
X140750Y024000
X141500Y030000
X141500Y014750
X141500Y012250
X141500Y009000
X141538Y017865
X141750Y048000
X142500Y082500
X142500Y003750
X142500Y002250
X142750Y048000
X143000Y029750
X143250Y020750
X143500Y030500
X143750Y048000
X143750Y014750
X143750Y012250
X143788Y017865
X144250Y031000
X144750Y031750
X145500Y032250
X145750Y027000
X146500Y075500
X146500Y052000
X147250Y027000
X147250Y020000
X147750Y031250
X148500Y075500
X148500Y052000
X149250Y028500
X149500Y008000
X150000Y018000
X150000Y014750
X150000Y012250
X150000Y009000
X150500Y075500
X150500Y052000
T2
X042500Y022500
X042500Y008000
X045000Y022500
X047500Y022500
X047500Y008000
T3
X025230Y076630
X025230Y074090
X025230Y071550
X025230Y069010
X025230Y066470
X025230Y063930
X025230Y061390
X025230Y058850
X025230Y056310
X025230Y053770
X025230Y051230
X025230Y048690
X025230Y046150
X025230Y043610
X025230Y041070
X025230Y038530
X025230Y035990
X025230Y033450
X025230Y030910
X025230Y028370
X027770Y076630
X027770Y074090
X027770Y071550
X027770Y069010
X027770Y066470
X027770Y063930
X027770Y061390
X027770Y058850
X027770Y056310
X027770Y053770
X027770Y051230
X027770Y048690
X027770Y046150
X027770Y043610
X027770Y041070
X027770Y038530
X027770Y035990
X027770Y033450
X027770Y030910
X027770Y028370
X034125Y016350
X034125Y013810
X034125Y011270
X034125Y008730
X034125Y006190
X034125Y003650
X039205Y002230
X039790Y078580
X039790Y076040
X039790Y073500
X039790Y070960
X041745Y002230
X042330Y078580
X042330Y076040
X042330Y073500
X042330Y070960
X044285Y002230
X044870Y078580
X044870Y076040
X044870Y073500
X044870Y070960
X046825Y002230
X049365Y002230
X054445Y002230
X056985Y002230
X059525Y002230
X062065Y002230
X064605Y002230
X097625Y002230
X098895Y030170
X098895Y027630
X098895Y025090
X098895Y022550
X100165Y002230
X102705Y002230
X107785Y002230
X110325Y002230
X112865Y002230
X117945Y058110
X117945Y055570
X144615Y042870
X144615Y040330
X144615Y037790
X144615Y035250
X147155Y042870
X147155Y040330
X147155Y037790
X147155Y035250
X149695Y042870
X149695Y040330
X149695Y037790
X149695Y035250
T4
X071745Y002980
X075245Y002980
X079365Y002980
X082865Y002980
X086985Y002980
X090485Y002980
T5
X039250Y015000
X050750Y015000
T6
X003500Y081500
X003500Y023500
X026500Y081500
X026500Y023500
X065750Y038000
X095750Y008000
X148500Y081500
X148500Y023500
X148500Y003500
T7
X122000Y011500
X122000Y004500
T8
X026500Y075360
X026500Y047420
X026500Y029640
T0
M30
