G04 #@! TF.FileFunction,Legend,Bot*
%FSLAX46Y46*%
G04 Gerber Fmt 4.6, Leading zero omitted, Abs format (unit mm)*
G04 Created by KiCad (PCBNEW 4.0.0-stable) date Tuesday, July 19, 2016 'AMt' 01:10:59 AM*
%MOMM*%
G01*
G04 APERTURE LIST*
%ADD10C,0.100000*%
%ADD11C,0.150000*%
G04 APERTURE END LIST*
D10*
D11*
X8375000Y55575000D02*
X8575000Y55575000D01*
X8375000Y50925000D02*
X8575000Y50925000D01*
X11625000Y50925000D02*
X11425000Y50925000D01*
X11625000Y55575000D02*
X11425000Y55575000D01*
X8375000Y55575000D02*
X8375000Y50925000D01*
X11625000Y55575000D02*
X11625000Y50925000D01*
X8575000Y55575000D02*
X8575000Y56925000D01*
X10500000Y48175000D02*
X9500000Y48175000D01*
X9500000Y46825000D02*
X10500000Y46825000D01*
X9500000Y41825000D02*
X10500000Y41825000D01*
X10500000Y43175000D02*
X9500000Y43175000D01*
X9500000Y44325000D02*
X10500000Y44325000D01*
X10500000Y45675000D02*
X9500000Y45675000D01*
X117000000Y69250000D02*
X117250000Y69250000D01*
X117000000Y68750000D02*
X117000000Y69250000D01*
X115750000Y68750000D02*
X117000000Y68750000D01*
X116250000Y69250000D02*
X117000000Y69250000D01*
X116250000Y80250000D02*
X116250000Y69250000D01*
X117000000Y80250000D02*
X116250000Y80250000D01*
X117000000Y80250000D02*
X117250000Y80250000D01*
X117000000Y80750000D02*
X117000000Y80250000D01*
X115750000Y80750000D02*
X117000000Y80750000D01*
X115750000Y68750000D02*
X115750000Y80750000D01*
X8066667Y54600000D02*
X7366667Y54600000D01*
X8000000Y53866667D02*
X8033333Y53900001D01*
X8066667Y54000001D01*
X8066667Y54066667D01*
X8033333Y54166667D01*
X7966667Y54233334D01*
X7900000Y54266667D01*
X7766667Y54300001D01*
X7666667Y54300001D01*
X7533333Y54266667D01*
X7466667Y54233334D01*
X7400000Y54166667D01*
X7366667Y54066667D01*
X7366667Y54000001D01*
X7400000Y53900001D01*
X7433333Y53866667D01*
X7433333Y53600001D02*
X7400000Y53566667D01*
X7366667Y53500001D01*
X7366667Y53333334D01*
X7400000Y53266667D01*
X7433333Y53233334D01*
X7500000Y53200001D01*
X7566667Y53200001D01*
X7666667Y53233334D01*
X8066667Y53633334D01*
X8066667Y53200001D01*
X7366667Y52766667D02*
X7366667Y52700000D01*
X7400000Y52633334D01*
X7433333Y52600000D01*
X7500000Y52566667D01*
X7633333Y52533334D01*
X7800000Y52533334D01*
X7933333Y52566667D01*
X8000000Y52600000D01*
X8033333Y52633334D01*
X8066667Y52700000D01*
X8066667Y52766667D01*
X8033333Y52833334D01*
X8000000Y52866667D01*
X7933333Y52900000D01*
X7800000Y52933334D01*
X7633333Y52933334D01*
X7500000Y52900000D01*
X7433333Y52866667D01*
X7400000Y52833334D01*
X7366667Y52766667D01*
X8066667Y51866667D02*
X8066667Y52266667D01*
X8066667Y52066667D02*
X7366667Y52066667D01*
X7466667Y52133333D01*
X7533333Y52200000D01*
X7566667Y52266667D01*
X10783333Y48433333D02*
X11016667Y48766667D01*
X11183333Y48433333D02*
X11183333Y49133333D01*
X10916667Y49133333D01*
X10850000Y49100000D01*
X10816667Y49066667D01*
X10783333Y49000000D01*
X10783333Y48900000D01*
X10816667Y48833333D01*
X10850000Y48800000D01*
X10916667Y48766667D01*
X11183333Y48766667D01*
X10516667Y49066667D02*
X10483333Y49100000D01*
X10416667Y49133333D01*
X10250000Y49133333D01*
X10183333Y49100000D01*
X10150000Y49066667D01*
X10116667Y49000000D01*
X10116667Y48933333D01*
X10150000Y48833333D01*
X10550000Y48433333D01*
X10116667Y48433333D01*
X9683333Y49133333D02*
X9616666Y49133333D01*
X9550000Y49100000D01*
X9516666Y49066667D01*
X9483333Y49000000D01*
X9450000Y48866667D01*
X9450000Y48700000D01*
X9483333Y48566667D01*
X9516666Y48500000D01*
X9550000Y48466667D01*
X9616666Y48433333D01*
X9683333Y48433333D01*
X9750000Y48466667D01*
X9783333Y48500000D01*
X9816666Y48566667D01*
X9850000Y48700000D01*
X9850000Y48866667D01*
X9816666Y49000000D01*
X9783333Y49066667D01*
X9750000Y49100000D01*
X9683333Y49133333D01*
X9216666Y49133333D02*
X8783333Y49133333D01*
X9016666Y48866667D01*
X8916666Y48866667D01*
X8849999Y48833333D01*
X8816666Y48800000D01*
X8783333Y48733333D01*
X8783333Y48566667D01*
X8816666Y48500000D01*
X8849999Y48466667D01*
X8916666Y48433333D01*
X9116666Y48433333D01*
X9183333Y48466667D01*
X9216666Y48500000D01*
X10783333Y43433333D02*
X11016667Y43766667D01*
X11183333Y43433333D02*
X11183333Y44133333D01*
X10916667Y44133333D01*
X10850000Y44100000D01*
X10816667Y44066667D01*
X10783333Y44000000D01*
X10783333Y43900000D01*
X10816667Y43833333D01*
X10850000Y43800000D01*
X10916667Y43766667D01*
X11183333Y43766667D01*
X10516667Y44066667D02*
X10483333Y44100000D01*
X10416667Y44133333D01*
X10250000Y44133333D01*
X10183333Y44100000D01*
X10150000Y44066667D01*
X10116667Y44000000D01*
X10116667Y43933333D01*
X10150000Y43833333D01*
X10550000Y43433333D01*
X10116667Y43433333D01*
X9683333Y44133333D02*
X9616666Y44133333D01*
X9550000Y44100000D01*
X9516666Y44066667D01*
X9483333Y44000000D01*
X9450000Y43866667D01*
X9450000Y43700000D01*
X9483333Y43566667D01*
X9516666Y43500000D01*
X9550000Y43466667D01*
X9616666Y43433333D01*
X9683333Y43433333D01*
X9750000Y43466667D01*
X9783333Y43500000D01*
X9816666Y43566667D01*
X9850000Y43700000D01*
X9850000Y43866667D01*
X9816666Y44000000D01*
X9783333Y44066667D01*
X9750000Y44100000D01*
X9683333Y44133333D01*
X8849999Y43900000D02*
X8849999Y43433333D01*
X9016666Y44166667D02*
X9183333Y43666667D01*
X8749999Y43666667D01*
X10783333Y45933333D02*
X11016667Y46266667D01*
X11183333Y45933333D02*
X11183333Y46633333D01*
X10916667Y46633333D01*
X10850000Y46600000D01*
X10816667Y46566667D01*
X10783333Y46500000D01*
X10783333Y46400000D01*
X10816667Y46333333D01*
X10850000Y46300000D01*
X10916667Y46266667D01*
X11183333Y46266667D01*
X10516667Y46566667D02*
X10483333Y46600000D01*
X10416667Y46633333D01*
X10250000Y46633333D01*
X10183333Y46600000D01*
X10150000Y46566667D01*
X10116667Y46500000D01*
X10116667Y46433333D01*
X10150000Y46333333D01*
X10550000Y45933333D01*
X10116667Y45933333D01*
X9683333Y46633333D02*
X9616666Y46633333D01*
X9550000Y46600000D01*
X9516666Y46566667D01*
X9483333Y46500000D01*
X9450000Y46366667D01*
X9450000Y46200000D01*
X9483333Y46066667D01*
X9516666Y46000000D01*
X9550000Y45966667D01*
X9616666Y45933333D01*
X9683333Y45933333D01*
X9750000Y45966667D01*
X9783333Y46000000D01*
X9816666Y46066667D01*
X9850000Y46200000D01*
X9850000Y46366667D01*
X9816666Y46500000D01*
X9783333Y46566667D01*
X9750000Y46600000D01*
X9683333Y46633333D01*
X8816666Y46633333D02*
X9149999Y46633333D01*
X9183333Y46300000D01*
X9149999Y46333333D01*
X9083333Y46366667D01*
X8916666Y46366667D01*
X8849999Y46333333D01*
X8816666Y46300000D01*
X8783333Y46233333D01*
X8783333Y46066667D01*
X8816666Y46000000D01*
X8849999Y45966667D01*
X8916666Y45933333D01*
X9083333Y45933333D01*
X9149999Y45966667D01*
X9183333Y46000000D01*
X14116667Y56300000D02*
X14816667Y56133333D01*
X14316667Y56000000D01*
X14816667Y55866667D01*
X14116667Y55700000D01*
X14183333Y55466667D02*
X14150000Y55433333D01*
X14116667Y55366667D01*
X14116667Y55200000D01*
X14150000Y55133333D01*
X14183333Y55100000D01*
X14250000Y55066667D01*
X14316667Y55066667D01*
X14416667Y55100000D01*
X14816667Y55500000D01*
X14816667Y55066667D01*
X14116667Y54633333D02*
X14116667Y54566666D01*
X14150000Y54500000D01*
X14183333Y54466666D01*
X14250000Y54433333D01*
X14383333Y54400000D01*
X14550000Y54400000D01*
X14683333Y54433333D01*
X14750000Y54466666D01*
X14783333Y54500000D01*
X14816667Y54566666D01*
X14816667Y54633333D01*
X14783333Y54700000D01*
X14750000Y54733333D01*
X14683333Y54766666D01*
X14550000Y54800000D01*
X14383333Y54800000D01*
X14250000Y54766666D01*
X14183333Y54733333D01*
X14150000Y54700000D01*
X14116667Y54633333D01*
X14816667Y53733333D02*
X14816667Y54133333D01*
X14816667Y53933333D02*
X14116667Y53933333D01*
X14216667Y53999999D01*
X14283333Y54066666D01*
X14316667Y54133333D01*
X14116667Y52800000D02*
X14816667Y52633333D01*
X14316667Y52500000D01*
X14816667Y52366667D01*
X14116667Y52200000D01*
X14183333Y51966667D02*
X14150000Y51933333D01*
X14116667Y51866667D01*
X14116667Y51700000D01*
X14150000Y51633333D01*
X14183333Y51600000D01*
X14250000Y51566667D01*
X14316667Y51566667D01*
X14416667Y51600000D01*
X14816667Y52000000D01*
X14816667Y51566667D01*
X14116667Y51133333D02*
X14116667Y51066666D01*
X14150000Y51000000D01*
X14183333Y50966666D01*
X14250000Y50933333D01*
X14383333Y50900000D01*
X14550000Y50900000D01*
X14683333Y50933333D01*
X14750000Y50966666D01*
X14783333Y51000000D01*
X14816667Y51066666D01*
X14816667Y51133333D01*
X14783333Y51200000D01*
X14750000Y51233333D01*
X14683333Y51266666D01*
X14550000Y51300000D01*
X14383333Y51300000D01*
X14250000Y51266666D01*
X14183333Y51233333D01*
X14150000Y51200000D01*
X14116667Y51133333D01*
X14183333Y50633333D02*
X14150000Y50599999D01*
X14116667Y50533333D01*
X14116667Y50366666D01*
X14150000Y50299999D01*
X14183333Y50266666D01*
X14250000Y50233333D01*
X14316667Y50233333D01*
X14416667Y50266666D01*
X14816667Y50666666D01*
X14816667Y50233333D01*
X122066667Y75933333D02*
X121366667Y75933333D01*
X121366667Y75666667D01*
X121400000Y75600000D01*
X121433333Y75566667D01*
X121500000Y75533333D01*
X121600000Y75533333D01*
X121666667Y75566667D01*
X121700000Y75600000D01*
X121733333Y75666667D01*
X121733333Y75933333D01*
X121600000Y74933333D02*
X122066667Y74933333D01*
X121333333Y75100000D02*
X121833333Y75266667D01*
X121833333Y74833333D01*
X121366667Y74433333D02*
X121366667Y74366666D01*
X121400000Y74300000D01*
X121433333Y74266666D01*
X121500000Y74233333D01*
X121633333Y74200000D01*
X121800000Y74200000D01*
X121933333Y74233333D01*
X122000000Y74266666D01*
X122033333Y74300000D01*
X122066667Y74366666D01*
X122066667Y74433333D01*
X122033333Y74500000D01*
X122000000Y74533333D01*
X121933333Y74566666D01*
X121800000Y74600000D01*
X121633333Y74600000D01*
X121500000Y74566666D01*
X121433333Y74533333D01*
X121400000Y74500000D01*
X121366667Y74433333D01*
X122066667Y73533333D02*
X122066667Y73933333D01*
X122066667Y73733333D02*
X121366667Y73733333D01*
X121466667Y73799999D01*
X121533333Y73866666D01*
X121566667Y73933333D01*
M02*
