M48
;DRILL file {KiCad 4.0.2-stable} date Friday, August 05, 2016 'AMt' 09:33:44 AM
;FORMAT={-:-/ absolute / metric / decimal}
FMAT,2
METRIC,TZ
T1C0.305
T2C1.000
T3C1.016
T4C1.500
T5C3.000
T6C3.150
%
G90
G05
M71
T1
X2.5Y75.5
X2.75Y56.75
X3.25Y70.25
X4.325Y72.076
X4.75Y66.25
X4.75Y61.25
X7.Y62.75
X7.Y61.75
X8.612Y73.96
X10.25Y76.
X10.5Y70.75
X10.5Y68.5
X10.75Y83.
X10.75Y79.25
X11.Y76.75
X11.265Y62.25
X11.5Y78.
X11.75Y76.
X11.75Y61.5
X12.75Y70.75
X14.Y67.
X17.25Y72.5
X17.75Y62.25
X18.25Y76.
X18.25Y66.
X18.608Y73.358
X18.75Y81.75
X18.75Y76.75
X19.25Y74.
X20.Y67.75
X20.75Y82.25
X20.75Y76.25
X20.75Y72.
X22.Y59.75
X31.Y41.
X31.Y39.
X31.25Y34.
X31.75Y65.
X32.Y53.25
X32.25Y40.25
X32.25Y38.5
X32.25Y34.
X32.25Y22.
X32.5Y65.5
X32.5Y58.25
X33.Y26.5
X33.5Y69.75
X33.75Y29.25
X35.Y63.
X35.Y58.25
X35.Y37.5
X35.Y32.25
X35.Y31.5
X35.5Y80.25
X35.5Y74.75
X35.75Y56.25
X36.25Y34.
X36.5Y69.75
X36.5Y63.75
X36.5Y61.
X36.5Y45.5
X36.75Y48.5
X36.75Y47.5
X37.Y36.
X37.Y33.25
X37.Y23.75
X37.25Y45.
X38.Y33.25
X38.Y23.75
X38.5Y50.25
X38.75Y8.
X39.Y23.75
X39.243Y49.757
X39.25Y58.5
X39.25Y45.
X39.75Y8.
X40.5Y49.5
X40.5Y31.75
X40.771Y8.007
X41.5Y59.5
X41.5Y58.5
X41.75Y49.75
X41.75Y45.
X41.75Y41.25
X42.5Y47.5
X42.5Y28.5
X44.25Y56.5
X44.25Y51.
X44.25Y48.25
X44.25Y45.
X45.Y28.5
X45.25Y67.25
X45.75Y56.5
X45.75Y45.75
X46.75Y56.5
X46.75Y46.5
X47.5Y28.5
X48.5Y36.5
X49.25Y21.75
X49.5Y36.5
X50.5Y36.5
X50.75Y54.
X50.75Y51.
X52.25Y55.5
X52.5Y82.5
X52.5Y67.5
X52.75Y36.25
X52.75Y20.
X53.Y26.
X53.25Y54.
X53.75Y29.5
X53.75Y20.
X54.75Y20.
X55.Y54.
X55.Y49.5
X55.5Y8.
X55.5Y4.5
X56.25Y6.25
X56.5Y55.5
X56.885Y20.
X57.Y46.5
X57.Y45.
X57.75Y23.75
X59.Y23.75
X59.25Y54.
X59.25Y49.
X59.25Y20.5
X59.25Y18.5
X59.25Y12.
X59.25Y10.
X60.25Y20.5
X60.25Y18.5
X60.25Y12.
X60.25Y10.
X60.5Y43.37
X60.5Y32.5
X60.75Y55.5
X61.25Y20.5
X61.25Y18.5
X61.25Y12.
X61.25Y10.
X62.75Y6.5
X63.5Y54.
X63.5Y50.
X64.5Y28.5
X65.Y55.5
X67.75Y54.
X67.75Y50.5
X68.75Y33.
X68.75Y32.
X68.75Y31.
X68.75Y29.5
X69.Y17.5
X69.Y16.5
X69.Y15.5
X69.25Y55.5
X70.Y24.
X71.25Y29.5
X72.Y54.
X72.Y48.5
X72.25Y45.
X72.5Y24.
X72.5Y22.5
X73.Y34.75
X73.5Y55.5
X73.75Y47.5
X73.75Y28.75
X73.754Y15.254
X75.Y67.5
X75.Y45.
X75.Y38.5
X75.007Y41.813
X75.5Y34.75
X75.5Y24.
X75.5Y22.5
X76.25Y54.
X77.5Y45.
X77.5Y38.
X77.507Y41.813
X77.75Y55.5
X77.99Y27.
X77.99Y25.
X77.99Y23.
X77.99Y21.
X77.99Y19.
X77.99Y17.
X79.Y32.25
X79.75Y33.
X79.99Y29.
X79.99Y27.
X79.99Y25.
X79.99Y23.
X79.99Y21.
X79.99Y19.
X79.99Y17.
X79.99Y15.
X80.Y45.
X80.Y37.5
X80.007Y41.813
X80.5Y54.
X81.99Y29.
X81.99Y27.
X81.99Y25.
X81.99Y23.
X81.99Y21.
X81.99Y19.
X81.99Y17.
X81.99Y15.
X82.Y55.5
X83.99Y27.
X83.99Y25.
X83.99Y23.
X83.99Y21.
X83.99Y19.
X83.99Y17.
X84.75Y54.
X85.Y45.
X86.25Y55.5
X87.5Y39.75
X87.507Y41.833
X87.75Y45.
X88.25Y28.75
X88.25Y15.25
X89.Y54.
X89.5Y21.
X89.5Y19.75
X89.5Y18.5
X89.5Y17.25
X90.Y45.
X90.5Y55.5
X90.5Y36.75
X90.75Y29.5
X91.Y15.25
X92.5Y40.
X92.507Y41.813
X92.75Y45.
X93.25Y54.
X93.25Y29.5
X94.5Y36.75
X94.5Y28.25
X94.5Y22.25
X94.75Y55.5
X96.Y30.75
X96.Y29.
X96.5Y35.5
X97.25Y44.5
X97.5Y82.5
X97.5Y67.5
X97.5Y54.
X99.Y55.5
X99.75Y44.5
X101.5Y22.5
X101.5Y14.25
X102.5Y22.5
X102.5Y14.25
X104.Y42.5
X104.75Y20.5
X104.75Y18.5
X104.75Y12.
X104.75Y10.
X105.25Y53.5
X105.25Y46.5
X105.25Y45.
X105.25Y36.25
X105.75Y20.5
X105.75Y18.5
X105.75Y12.
X105.75Y10.
X106.25Y29.5
X106.75Y20.5
X106.75Y18.5
X106.75Y12.
X106.75Y10.
X107.75Y45.75
X110.25Y46.5
X110.25Y45.
X113.75Y27.
X116.75Y3.5
X117.75Y36.75
X118.5Y22.25
X118.5Y20.75
X118.75Y36.75
X119.Y26.
X119.Y23.
X119.Y21.5
X119.75Y32.25
X120.Y82.5
X120.Y3.5
X121.25Y26.
X122.5Y27.
X122.5Y26.
X122.5Y25.
X122.5Y23.5
X122.5Y22.
X123.Y24.25
X123.Y22.75
X124.Y4.25
X124.5Y81.25
X124.5Y80.5
X124.5Y79.75
X124.5Y71.75
X124.5Y71.
X124.5Y70.25
X125.25Y25.25
X125.25Y18.
X126.Y81.25
X126.Y80.5
X126.Y71.
X126.Y70.25
X126.Y29.5
X126.Y23.25
X126.Y21.25
X126.Y19.25
X126.5Y26.5
X126.5Y25.25
X126.5Y8.75
X127.Y23.25
X127.25Y4.25
X127.5Y78.75
X127.5Y72.75
X127.75Y27.75
X127.75Y26.5
X127.75Y25.25
X128.5Y6.75
X129.Y14.75
X129.Y12.25
X129.Y9.
X129.5Y34.
X129.75Y17.75
X130.Y29.25
X130.Y28.25
X130.25Y33.5
X130.5Y22.
X131.Y6.
X131.Y3.5
X131.25Y22.75
X132.75Y30.
X132.75Y27.5
X132.75Y25.
X134.Y51.25
X134.Y47.75
X134.25Y3.5
X134.5Y27.
X134.5Y24.5
X135.Y51.25
X135.Y47.75
X135.25Y18.
X135.25Y9.
X135.5Y30.
X136.5Y3.75
X136.5Y2.25
X138.25Y24.
X138.5Y30.
X139.Y75.75
X139.75Y48.
X140.75Y48.
X140.75Y24.
X141.5Y30.
X141.5Y14.75
X141.5Y12.25
X141.5Y9.
X141.538Y17.865
X141.75Y48.
X142.5Y82.5
X142.5Y3.75
X142.5Y2.25
X142.75Y48.
X143.Y29.75
X143.25Y20.75
X143.5Y30.5
X143.75Y48.
X143.75Y14.75
X143.75Y12.25
X143.788Y17.865
X144.25Y31.
X144.75Y31.75
X145.5Y32.25
X145.75Y27.
X146.5Y75.5
X146.5Y52.
X147.25Y27.
X147.25Y20.
X147.5Y31.25
X148.5Y75.5
X148.5Y52.
X149.25Y28.5
X149.5Y8.
X150.Y18.
X150.Y14.75
X150.Y12.25
X150.Y9.
X150.5Y75.5
X150.5Y52.
T2
X42.5Y22.5
X42.5Y8.
X45.Y22.5
X47.5Y22.5
X47.5Y8.
T3
X25.23Y76.63
X25.23Y74.09
X25.23Y71.55
X25.23Y69.01
X25.23Y66.47
X25.23Y63.93
X25.23Y61.39
X25.23Y58.85
X25.23Y56.31
X25.23Y53.77
X25.23Y51.23
X25.23Y48.69
X25.23Y46.15
X25.23Y43.61
X25.23Y41.07
X25.23Y38.53
X25.23Y35.99
X25.23Y33.45
X25.23Y30.91
X25.23Y28.37
X27.77Y76.63
X27.77Y74.09
X27.77Y71.55
X27.77Y69.01
X27.77Y66.47
X27.77Y63.93
X27.77Y61.39
X27.77Y58.85
X27.77Y56.31
X27.77Y53.77
X27.77Y51.23
X27.77Y48.69
X27.77Y46.15
X27.77Y43.61
X27.77Y41.07
X27.77Y38.53
X27.77Y35.99
X27.77Y33.45
X27.77Y30.91
X27.77Y28.37
X34.125Y16.35
X34.125Y13.81
X34.125Y11.27
X34.125Y8.73
X34.125Y6.19
X34.125Y3.65
X39.205Y2.23
X39.79Y78.58
X39.79Y76.04
X39.79Y73.5
X39.79Y70.96
X41.745Y2.23
X42.33Y78.58
X42.33Y76.04
X42.33Y73.5
X42.33Y70.96
X44.285Y2.23
X44.87Y78.58
X44.87Y76.04
X44.87Y73.5
X44.87Y70.96
X46.825Y2.23
X49.365Y2.23
X54.445Y2.23
X56.985Y2.23
X59.525Y2.23
X62.065Y2.23
X64.605Y2.23
X97.625Y2.23
X98.895Y30.17
X98.895Y27.63
X98.895Y25.09
X98.895Y22.55
X100.165Y2.23
X102.705Y2.23
X107.785Y2.23
X110.325Y2.23
X112.865Y2.23
X117.945Y58.11
X117.945Y55.57
X144.615Y42.87
X144.615Y40.33
X144.615Y37.79
X144.615Y35.25
X147.155Y42.87
X147.155Y40.33
X147.155Y37.79
X147.155Y35.25
X149.695Y42.87
X149.695Y40.33
X149.695Y37.79
X149.695Y35.25
T4
X71.745Y2.98
X75.245Y2.98
X79.365Y2.98
X82.865Y2.98
X86.985Y2.98
X90.485Y2.98
T5
X39.25Y15.
X50.75Y15.
T6
X3.5Y81.5
X3.5Y23.5
X26.5Y81.5
X26.5Y23.5
X65.75Y38.
X95.75Y8.
X148.5Y81.5
X148.5Y23.5
X148.5Y3.5
T0
M30
