<?xml version="1.0" standalone="no"?>
 <!DOCTYPE svg PUBLIC "-//W3C//DTD SVG 1.1//EN" 
 "http://www.w3.org/Graphics/SVG/1.1/DTD/svg11.dtd"> 
<svg xmlns="http://www.w3.org/2000/svg" version="1.1" 
    width="17.9451cm" height="9.01446cm" viewBox="0 0 70650 35490 ">
<title>SVG Picture created as labio-Eco1.User.svg date 2016/07/31 20:59:40 </title>
  <desc>Picture generated by PCBNEW </desc>
<g style="fill:#000000; fill-opacity:1;stroke:#000000; stroke-opacity:1;
stroke-linecap:round; stroke-linejoin:round; "
 transform="translate(0 0) scale(1 1)">
</g>
<g style="fill:#008400; fill-opacity:0.0; 
stroke:#008400; stroke-width:-0.000393701; stroke-opacity:1; 
stroke-linecap:round; stroke-linejoin:round;">
</g>
<g style="fill:#008400; fill-opacity:0.0; 
stroke:#008400; stroke-width:118.11; stroke-opacity:1; 
stroke-linecap:round; stroke-linejoin:round;">
<path d="M35819 5773
L35725 5866
L35444 5960
L35256 5960
L34975 5866
L34788 5679
L34694 5491
L34600 5117
L34600 4835
L34694 4460
L34788 4273
L34975 4085
L35256 3992
L35444 3992
L35725 4085
L35819 4179
" />
<path d="M36662 3992
L36662 5585
L36756 5773
L36850 5866
L37037 5960
L37412 5960
L37600 5866
L37694 5773
L37787 5585
L37787 3992
" />
<path d="M38443 3992
L39568 3992
" />
<path d="M39006 5960
L39006 3992
" />
<path d="M40599 3992
L40974 3992
L41162 4085
L41349 4273
L41443 4648
L41443 5304
L41349 5679
L41162 5866
L40974 5960
L40599 5960
L40412 5866
L40224 5679
L40131 5304
L40131 4648
L40224 4273
L40412 4085
L40599 3992
" />
<path d="M42287 3992
L42287 5585
L42380 5773
L42474 5866
L42662 5960
L43037 5960
L43224 5866
L43318 5773
L43412 5585
L43412 3992
" />
<path d="M44068 3992
L45193 3992
" />
<path d="M44630 5960
L44630 3992
" />
</g>
<g style="fill:#C2C200; fill-opacity:0.0; 
stroke:#C2C200; stroke-width:118.11; stroke-opacity:1; 
stroke-linecap:round; stroke-linejoin:round;">
</g>
<g style="fill:#C2C200; fill-opacity:0.0; 
stroke:#C2C200; stroke-width:59.0551; stroke-opacity:1; 
stroke-linecap:round; stroke-linejoin:round;">
<path d="M68937 34597.7 A1181.1 1181.1 0.0 0 0 70118.1 33416.6 " />
<path d="M10275.6 25542.6 A1181.1 1181.1 0.0 0 0 11456.7 26723.7 " />
<path d="M70118.1 2314.25 A1181.1 1181.1 0.0 0 0 68937 1133.15 " />
<path d="M11456.7 1133.15 A1181.1 1181.1 0.0 0 0 10275.6 2314.25 " />
</g>
<g style="fill:#008400; fill-opacity:0.0; 
stroke:#008400; stroke-width:59.0551; stroke-opacity:1; 
stroke-linecap:round; stroke-linejoin:round;">
<path d="M49252 7038.66 A393.701 393.701 0.0 0 0 49645.7 6644.96 " />
<path d="M49645.7 3495.35 A393.701 393.701 0.0 0 0 49252 3101.65 " />
<path d="M29960.6 6644.96 A393.701 393.701 0.0 0 0 30354.3 7038.66 " />
<path d="M30354.3 3101.65 A393.701 393.701 0.0 0 0 29960.6 3495.35 " />
<path d="M30354 7038
L49251 7038
" />
<path d="M49251 3101
L30354 3101
" />
<path d="M49645 3495
L49645 6644
" />
<path d="M29960 6644
L29960 3495
" />
</g>
<g style="fill:#C2C200; fill-opacity:0.0; 
stroke:#C2C200; stroke-width:59.0551; stroke-opacity:1; 
stroke-linecap:round; stroke-linejoin:round;">
<path d="M22086 34597
L68937 34597
" />
<path d="M22086 26723
L22086 34597
" />
<path d="M11456 26723
L22086 26723
" />
<path d="M68937 1133
L11456 1133
" />
<path d="M70118 33416
L70118 2314
" />
<path d="M10275 2314
L10275 25542
" />
</g> 
</svg>
