<?xml version="1.0" standalone="no"?>
 <!DOCTYPE svg PUBLIC "-//W3C//DTD SVG 1.1//EN" 
 "http://www.w3.org/Graphics/SVG/1.1/DTD/svg11.dtd"> 
<svg xmlns="http://www.w3.org/2000/svg" version="1.1" 
    width="17.9451cm" height="9.01446cm" viewBox="0 0 70650 35490 ">
<title>SVG Picture created as labio-F.Paste.svg date 2016/07/31 20:59:40 </title>
  <desc>Picture generated by PCBNEW </desc>
<g style="fill:#000000; fill-opacity:1;stroke:#000000; stroke-opacity:1;
stroke-linecap:round; stroke-linejoin:round; "
 transform="translate(0 0) scale(1 1)">
</g>
<g style="fill:#C2C200; fill-opacity:0.0; 
stroke:#C2C200; stroke-width:-0.000393701; stroke-opacity:1; 
stroke-linecap:round; stroke-linejoin:round;">
</g>
<g style="fill:#C2C200; fill-opacity:0.0; 
stroke:#C2C200; stroke-width:59.0551; stroke-opacity:1; 
stroke-linecap:round; stroke-linejoin:round;">
<path d="M68937 34597.7 A1181.1 1181.1 0.0 0 0 70118.1 33416.6 " />
<path d="M10275.6 25542.6 A1181.1 1181.1 0.0 0 0 11456.7 26723.7 " />
<path d="M70118.1 2314.25 A1181.1 1181.1 0.0 0 0 68937 1133.15 " />
<path d="M11456.7 1133.15 A1181.1 1181.1 0.0 0 0 10275.6 2314.25 " />
<path d="M22086 34597
L68937 34597
" />
<path d="M22086 26723
L22086 34597
" />
<path d="M11456 26723
L22086 26723
" />
<path d="M68937 1133
L11456 1133
" />
<path d="M70118 33416
L70118 2314
" />
<path d="M10275 2314
L10275 25542
" />
</g>
<g style="fill:#840000; fill-opacity:0.0; 
stroke:#840000; stroke-width:59.0551; stroke-opacity:1; 
stroke-linecap:round; stroke-linejoin:round;">
</g>
<g style="fill:#840000; fill-opacity:0.0; 
stroke:#840000; stroke-width:0; stroke-opacity:1; 
stroke-linecap:round; stroke-linejoin:round;">
</g>
<g style="fill:#840000; fill-opacity:1.0; 
stroke:#840000; stroke-width:0; stroke-opacity:1; 
stroke-linecap:round; stroke-linejoin:round;">
<polyline style="fill-rule:evenodd;"
points="14270,5207
14154,5207
14154,4814
14270,4814
14270,5207
" /> 
<polyline style="fill-rule:evenodd;"
points="14467,5207
14351,5207
14351,4814
14467,4814
14467,5207
" /> 
<polyline style="fill-rule:evenodd;"
points="14664,5207
14548,5207
14548,4814
14664,4814
14664,5207
" /> 
<polyline style="fill-rule:evenodd;"
points="14861,5207
14745,5207
14745,4814
14861,4814
14861,5207
" /> 
<polyline style="fill-rule:evenodd;"
points="15058,6310
14941,6310
14941,5916
15058,5916
15058,6310
" /> 
<polyline style="fill-rule:evenodd;"
points="15354,5307
15354,5423
14960,5423
14960,5307
15354,5307
" /> 
<polyline style="fill-rule:evenodd;"
points="15354,5504
15354,5620
14960,5620
14960,5504
15354,5504
" /> 
<polyline style="fill-rule:evenodd;"
points="13858,5817
13858,5701
14251,5701
14251,5817
13858,5817
" /> 
<polyline style="fill-rule:evenodd;"
points="15058,5207
14941,5207
14941,4814
15058,4814
15058,5207
" /> 
<polyline style="fill-rule:evenodd;"
points="15354,5701
15354,5817
14960,5817
14960,5701
15354,5701
" /> 
<polyline style="fill-rule:evenodd;"
points="14861,6310
14745,6310
14745,5916
14861,5916
14861,6310
" /> 
<polyline style="fill-rule:evenodd;"
points="14664,6310
14548,6310
14548,5916
14664,5916
14664,6310
" /> 
<polyline style="fill-rule:evenodd;"
points="14467,6310
14351,6310
14351,5916
14467,5916
14467,6310
" /> 
<polyline style="fill-rule:evenodd;"
points="14270,6310
14154,6310
14154,5916
14270,5916
14270,6310
" /> 
<polyline style="fill-rule:evenodd;"
points="13858,5620
13858,5504
14251,5504
14251,5620
13858,5620
" /> 
<polyline style="fill-rule:evenodd;"
points="13858,5423
13858,5307
14251,5307
14251,5423
13858,5423
" /> 
<polyline style="fill-rule:evenodd;"
points="18051,3081
18051,2727
18248,2727
18248,3081
18051,3081
" /> 
<polyline style="fill-rule:evenodd;"
points="18641,3081
18641,2727
18838,2727
18838,3081
18641,3081
" /> 
<polyline style="fill-rule:evenodd;"
points="18051,2097
18051,1743
18248,1743
18248,2097
18051,2097
" /> 
<polyline style="fill-rule:evenodd;"
points="18641,2097
18641,1743
18838,1743
18838,2097
18641,2097
" /> 
<polyline style="fill-rule:evenodd;"
points="57401,33613
56299,33613
56299,32826
57401,32826
57401,33613
" /> 
<polyline style="fill-rule:evenodd;"
points="60314,34361
59212,34361
59212,33574
60314,33574
60314,34361
" /> 
<polyline style="fill-rule:evenodd;"
points="57401,32550
56299,32550
56299,31684
57401,31684
57401,32550
" /> 
<polyline style="fill-rule:evenodd;"
points="60314,33298
59212,33298
59212,32432
60314,32432
60314,33298
" /> 
<polyline style="fill-rule:evenodd;"
points="60314,29715
59212,29715
59212,28613
60314,28613
60314,29715
" /> 
<polyline style="fill-rule:evenodd;"
points="58562,28101
57460,28101
57460,26999
58562,26999
58562,28101
" /> 
<polyline style="fill-rule:evenodd;"
points="60226,32196
59931,32196
59931,31881
60226,31881
60226,32196
" /> 
<polyline style="fill-rule:evenodd;"
points="60226,31605
59931,31605
59931,31290
60226,31290
60226,31605
" /> 
<polyline style="fill-rule:evenodd;"
points="69183,21500
69773,21500
69773,22091
69183,22091
69183,21500
" /> 
<polyline style="fill-rule:evenodd;"
points="67903,21500
68494,21500
68494,22091
67903,22091
67903,21500
" /> 
<polyline style="fill-rule:evenodd;"
points="67903,22485
68494,22485
68494,23075
67903,23075
67903,22485
" /> 
<polyline style="fill-rule:evenodd;"
points="69183,22485
69773,22485
69773,23075
69183,23075
69183,22485
" /> 
<polyline style="fill-rule:evenodd;"
points="64606,26526
64606,26920
63523,26920
63523,26526
64606,26526
" /> 
<polyline style="fill-rule:evenodd;"
points="66870,26526
66870,26920
65787,26920
65787,26526
66870,26526
" /> 
<polyline style="fill-rule:evenodd;"
points="66870,24952
66870,25345
65787,25345
65787,24952
66870,24952
" /> 
<polyline style="fill-rule:evenodd;"
points="64606,24952
64606,25345
63523,25345
63523,24952
64606,24952
" /> 
<polyline style="fill-rule:evenodd;"
points="46490,17042
46931,17042
46931,18003
46490,18003
46490,17042
" /> 
<polyline style="fill-rule:evenodd;"
points="45490,17042
45931,17042
45931,18003
45490,18003
45490,17042
" /> 
<polyline style="fill-rule:evenodd;"
points="44490,17042
44931,17042
44931,18003
44490,18003
44490,17042
" /> 
<polyline style="fill-rule:evenodd;"
points="43490,17042
43931,17042
43931,18003
43490,18003
43490,17042
" /> 
<polyline style="fill-rule:evenodd;"
points="43490,20436
43931,20436
43931,21396
43490,21396
43490,20436
" /> 
<polyline style="fill-rule:evenodd;"
points="44490,20436
44931,20436
44931,21396
44490,21396
44490,20436
" /> 
<polyline style="fill-rule:evenodd;"
points="45490,20436
45931,20436
45931,21396
45490,21396
45490,20436
" /> 
<polyline style="fill-rule:evenodd;"
points="46490,20436
46931,20436
46931,21396
46490,21396
46490,20436
" /> 
<polyline style="fill-rule:evenodd;"
points="35453,30582
35453,29952
36870,29952
36870,30582
35453,30582
" /> 
<polyline style="fill-rule:evenodd;"
points="33287,30582
33287,29952
34704,29952
34704,30582
33287,30582
" /> 
<polyline style="fill-rule:evenodd;"
points="57864,23121
58159,23121
58159,23436
57864,23436
57864,23121
" /> 
<polyline style="fill-rule:evenodd;"
points="57864,23711
58159,23711
58159,24026
57864,24026
57864,23711
" /> 
<polyline style="fill-rule:evenodd;"
points="23720,25493
23720,25788
23405,25788
23405,25493
23720,25493
" /> 
<polyline style="fill-rule:evenodd;"
points="23129,25493
23129,25788
22814,25788
22814,25493
23129,25493
" /> 
<polyline style="fill-rule:evenodd;"
points="22814,22934
22814,22639
23129,22639
23129,22934
22814,22934
" /> 
<polyline style="fill-rule:evenodd;"
points="23405,22934
23405,22639
23720,22639
23720,22934
23405,22934
" /> 
<polyline style="fill-rule:evenodd;"
points="23503,5020
23503,4725
23818,4725
23818,5020
23503,5020
" /> 
<polyline style="fill-rule:evenodd;"
points="24094,5020
24094,4725
24409,4725
24409,5020
24094,5020
" /> 
<polyline style="fill-rule:evenodd;"
points="16614,2068
16614,1772
16929,1772
16929,2068
16614,2068
" /> 
<polyline style="fill-rule:evenodd;"
points="17204,2068
17204,1772
17519,1772
17519,2068
17204,2068
" /> 
<polyline style="fill-rule:evenodd;"
points="16614,7383
16614,7087
16929,7087
16929,7383
16614,7383
" /> 
<polyline style="fill-rule:evenodd;"
points="17204,7383
17204,7087
17519,7087
17519,7383
17204,7383
" /> 
<polyline style="fill-rule:evenodd;"
points="12303,7087
12303,7383
11988,7383
11988,7087
12303,7087
" /> 
<polyline style="fill-rule:evenodd;"
points="11712,7087
11712,7383
11397,7383
11397,7087
11712,7087
" /> 
<polyline style="fill-rule:evenodd;"
points="11397,8367
11397,8072
11712,8072
11712,8367
11397,8367
" /> 
<polyline style="fill-rule:evenodd;"
points="11988,8367
11988,8072
12303,8072
12303,8367
11988,8367
" /> 
<polyline style="fill-rule:evenodd;"
points="46151,27452
46446,27452
46446,27767
46151,27767
46151,27452
" /> 
<polyline style="fill-rule:evenodd;"
points="46151,28042
46446,28042
46446,28357
46151,28357
46151,28042
" /> 
<polyline style="fill-rule:evenodd;"
points="37982,26290
37687,26290
37687,25975
37982,25975
37982,26290
" /> 
<polyline style="fill-rule:evenodd;"
points="37982,25700
37687,25700
37687,25385
37982,25385
37982,25700
" /> 
<polyline style="fill-rule:evenodd;"
points="29124,24420
28828,24420
28828,24105
29124,24105
29124,24420
" /> 
<polyline style="fill-rule:evenodd;"
points="29124,23830
28828,23830
28828,23515
29124,23515
29124,23830
" /> 
<polyline style="fill-rule:evenodd;"
points="28139,24420
27844,24420
27844,24105
28139,24105
28139,24420
" /> 
<polyline style="fill-rule:evenodd;"
points="28139,23830
27844,23830
27844,23515
28139,23515
28139,23830
" /> 
<polyline style="fill-rule:evenodd;"
points="27155,24420
26860,24420
26860,24105
27155,24105
27155,24420
" /> 
<polyline style="fill-rule:evenodd;"
points="27155,23830
26860,23830
26860,23515
27155,23515
27155,23830
" /> 
<polyline style="fill-rule:evenodd;"
points="67500,23820
67500,23524
67814,23524
67814,23820
67500,23820
" /> 
<polyline style="fill-rule:evenodd;"
points="68090,23820
68090,23524
68405,23524
68405,23820
68090,23820
" /> 
<polyline style="fill-rule:evenodd;"
points="68877,23820
68877,23524
69192,23524
69192,23820
68877,23820
" /> 
<polyline style="fill-rule:evenodd;"
points="69468,23820
69468,23524
69783,23524
69783,23820
69468,23820
" /> 
<polyline style="fill-rule:evenodd;"
points="56978,23121
57273,23121
57273,23436
56978,23436
56978,23121
" /> 
<polyline style="fill-rule:evenodd;"
points="56978,23711
57273,23711
57273,24026
56978,24026
56978,23711
" /> 
<polyline style="fill-rule:evenodd;"
points="61122,26871
61122,27166
60807,27166
60807,26871
61122,26871
" /> 
<polyline style="fill-rule:evenodd;"
points="60531,26871
60531,27166
60216,27166
60216,26871
60531,26871
" /> 
<polyline style="fill-rule:evenodd;"
points="61122,26083
61122,26379
60807,26379
60807,26083
61122,26083
" /> 
<polyline style="fill-rule:evenodd;"
points="60531,26083
60531,26379
60216,26379
60216,26083
60531,26083
" /> 
<polyline style="fill-rule:evenodd;"
points="62086,33367
62086,33072
62401,33072
62401,33367
62086,33367
" /> 
<polyline style="fill-rule:evenodd;"
points="62677,33367
62677,33072
62992,33072
62992,33367
62677,33367
" /> 
<polyline style="fill-rule:evenodd;"
points="61791,24312
61791,24017
62106,24017
62106,24312
61791,24312
" /> 
<polyline style="fill-rule:evenodd;"
points="62381,24312
62381,24017
62696,24017
62696,24312
62381,24312
" /> 
<polyline style="fill-rule:evenodd;"
points="61614,33072
61614,33367
61299,33367
61299,33072
61614,33072
" /> 
<polyline style="fill-rule:evenodd;"
points="61023,33072
61023,33367
60708,33367
60708,33072
61023,33072
" /> 
<polyline style="fill-rule:evenodd;"
points="61791,25296
61791,25001
62106,25001
62106,25296
61791,25296
" /> 
<polyline style="fill-rule:evenodd;"
points="62381,25296
62381,25001
62696,25001
62696,25296
62381,25296
" /> 
<polyline style="fill-rule:evenodd;"
points="60236,27658
60236,27954
59921,27954
59921,27658
60236,27658
" /> 
<polyline style="fill-rule:evenodd;"
points="59645,27658
59645,27954
59330,27954
59330,27658
59645,27658
" /> 
<polyline style="fill-rule:evenodd;"
points="61791,23328
61791,23032
62106,23032
62106,23328
61791,23328
" /> 
<polyline style="fill-rule:evenodd;"
points="62381,23328
62381,23032
62696,23032
62696,23328
62381,23328
" /> 
<polyline style="fill-rule:evenodd;"
points="63375,30011
63671,30011
63671,30326
63375,30326
63375,30011
" /> 
<polyline style="fill-rule:evenodd;"
points="63375,30601
63671,30601
63671,30916
63375,30916
63375,30601
" /> 
<polyline style="fill-rule:evenodd;"
points="66722,27648
67017,27648
67017,27963
66722,27963
66722,27648
" /> 
<polyline style="fill-rule:evenodd;"
points="66722,28239
67017,28239
67017,28554
66722,28554
66722,28239
" /> 
<polyline style="fill-rule:evenodd;"
points="63671,28554
63375,28554
63375,28239
63671,28239
63671,28554
" /> 
<polyline style="fill-rule:evenodd;"
points="63671,27963
63375,27963
63375,27648
63671,27648
63671,27963
" /> 
<polyline style="fill-rule:evenodd;"
points="67017,30916
66722,30916
66722,30601
67017,30601
67017,30916
" /> 
<polyline style="fill-rule:evenodd;"
points="67017,30326
66722,30326
66722,30011
67017,30011
67017,30326
" /> 
<polyline style="fill-rule:evenodd;"
points="68090,31595
68090,31300
68405,31300
68405,31595
68090,31595
" /> 
<polyline style="fill-rule:evenodd;"
points="68681,31595
68681,31300
68996,31300
68996,31595
68681,31595
" /> 
<polyline style="fill-rule:evenodd;"
points="22913,9834
23227,9834
23227,10148
22913,10148
22913,9834
" /> 
<polyline style="fill-rule:evenodd;"
points="22913,10424
23227,10424
23227,10738
22913,10738
22913,10424
" /> 
<polyline style="fill-rule:evenodd;"
points="11398,13396
11398,13082
11712,13082
11712,13396
11398,13396
" /> 
<polyline style="fill-rule:evenodd;"
points="11988,13396
11988,13082
12302,13082
12302,13396
11988,13396
" /> 
<polyline style="fill-rule:evenodd;"
points="51869,23810
51869,24124
51555,24124
51555,23810
51869,23810
" /> 
<polyline style="fill-rule:evenodd;"
points="51279,23810
51279,24124
50965,24124
50965,23810
51279,23810
" /> 
<polyline style="fill-rule:evenodd;"
points="46081,9243
46081,9557
45767,9557
45767,9243
46081,9243
" /> 
<polyline style="fill-rule:evenodd;"
points="45491,9243
45491,9557
45177,9557
45177,9243
45491,9243
" /> 
<polyline style="fill-rule:evenodd;"
points="44389,9243
44389,9557
44075,9557
44075,9243
44389,9243
" /> 
<polyline style="fill-rule:evenodd;"
points="43799,9243
43799,9557
43485,9557
43485,9243
43799,9243
" /> 
<polyline style="fill-rule:evenodd;"
points="42715,9243
42715,9557
42401,9557
42401,9243
42715,9243
" /> 
<polyline style="fill-rule:evenodd;"
points="42125,9243
42125,9557
41811,9557
41811,9243
42125,9243
" /> 
<polyline style="fill-rule:evenodd;"
points="41042,9243
41042,9557
40728,9557
40728,9243
41042,9243
" /> 
<polyline style="fill-rule:evenodd;"
points="40452,9243
40452,9557
40138,9557
40138,9243
40452,9243
" /> 
<polyline style="fill-rule:evenodd;"
points="49408,9243
49408,9557
49094,9557
49094,9243
49408,9243
" /> 
<polyline style="fill-rule:evenodd;"
points="48818,9243
48818,9557
48504,9557
48504,9243
48818,9243
" /> 
<polyline style="fill-rule:evenodd;"
points="47735,9243
47735,9557
47421,9557
47421,9243
47735,9243
" /> 
<polyline style="fill-rule:evenodd;"
points="47145,9243
47145,9557
46831,9557
46831,9243
47145,9243
" /> 
<polyline style="fill-rule:evenodd;"
points="31003,9243
31003,9557
30689,9557
30689,9243
31003,9243
" /> 
<polyline style="fill-rule:evenodd;"
points="30413,9243
30413,9557
30099,9557
30099,9243
30413,9243
" /> 
<polyline style="fill-rule:evenodd;"
points="32676,9224
32676,9538
32362,9538
32362,9224
32676,9224
" /> 
<polyline style="fill-rule:evenodd;"
points="32086,9224
32086,9538
31772,9538
31772,9224
32086,9224
" /> 
<polyline style="fill-rule:evenodd;"
points="52540,24124
52540,23810
52854,23810
52854,24124
52540,24124
" /> 
<polyline style="fill-rule:evenodd;"
points="53130,24124
53130,23810
53444,23810
53444,24124
53130,24124
" /> 
<polyline style="fill-rule:evenodd;"
points="54572,22326
54848,22326
54848,22562
54572,22562
54572,22326
" /> 
<polyline style="fill-rule:evenodd;"
points="54572,22877
54848,22877
54848,23113
54572,23113
54572,22877
" /> 
<polyline style="fill-rule:evenodd;"
points="53572,22326
53848,22326
53848,22562
53572,22562
53572,22326
" /> 
<polyline style="fill-rule:evenodd;"
points="53572,22877
53848,22877
53848,23113
53572,23113
53572,22877
" /> 
<polyline style="fill-rule:evenodd;"
points="52572,22326
52848,22326
52848,22562
52572,22562
52572,22326
" /> 
<polyline style="fill-rule:evenodd;"
points="52572,22877
52848,22877
52848,23113
52572,23113
52572,22877
" /> 
<polyline style="fill-rule:evenodd;"
points="34349,9243
34349,9557
34035,9557
34035,9243
34349,9243
" /> 
<polyline style="fill-rule:evenodd;"
points="33759,9243
33759,9557
33445,9557
33445,9243
33759,9243
" /> 
<polyline style="fill-rule:evenodd;"
points="36810,23140
36496,23140
36496,22826
36810,22826
36810,23140
" /> 
<polyline style="fill-rule:evenodd;"
points="36810,22550
36496,22550
36496,22236
36810,22236
36810,22550
" /> 
<polyline style="fill-rule:evenodd;"
points="36022,9243
36022,9557
35708,9557
35708,9243
36022,9243
" /> 
<polyline style="fill-rule:evenodd;"
points="35432,9243
35432,9557
35118,9557
35118,9243
35432,9243
" /> 
<polyline style="fill-rule:evenodd;"
points="37696,9243
37696,9557
37382,9557
37382,9243
37696,9243
" /> 
<polyline style="fill-rule:evenodd;"
points="37106,9243
37106,9557
36792,9557
36792,9243
37106,9243
" /> 
<polyline style="fill-rule:evenodd;"
points="29316,32857
29316,32581
29553,32581
29553,32857
29316,32857
" /> 
<polyline style="fill-rule:evenodd;"
points="29868,32857
29868,32581
30104,32581
30104,32857
29868,32857
" /> 
<polyline style="fill-rule:evenodd;"
points="27816,32857
27816,32581
28053,32581
28053,32857
27816,32857
" /> 
<polyline style="fill-rule:evenodd;"
points="28368,32857
28368,32581
28604,32581
28604,32857
28368,32857
" /> 
<polyline style="fill-rule:evenodd;"
points="26316,32857
26316,32581
26553,32581
26553,32857
26316,32857
" /> 
<polyline style="fill-rule:evenodd;"
points="26868,32857
26868,32581
27104,32581
27104,32857
26868,32857
" /> 
<polyline style="fill-rule:evenodd;"
points="35316,32857
35316,32581
35553,32581
35553,32857
35316,32857
" /> 
<polyline style="fill-rule:evenodd;"
points="35868,32857
35868,32581
36104,32581
36104,32857
35868,32857
" /> 
<polyline style="fill-rule:evenodd;"
points="33816,32857
33816,32581
34053,32581
34053,32857
33816,32857
" /> 
<polyline style="fill-rule:evenodd;"
points="34368,32857
34368,32581
34604,32581
34604,32857
34368,32857
" /> 
<polyline style="fill-rule:evenodd;"
points="32316,32857
32316,32581
32553,32581
32553,32857
32316,32857
" /> 
<polyline style="fill-rule:evenodd;"
points="32868,32857
32868,32581
33104,32581
33104,32857
32868,32857
" /> 
<polyline style="fill-rule:evenodd;"
points="33572,22326
33848,22326
33848,22562
33572,22562
33572,22326
" /> 
<polyline style="fill-rule:evenodd;"
points="33572,22877
33848,22877
33848,23113
33572,23113
33572,22877
" /> 
<polyline style="fill-rule:evenodd;"
points="32572,22326
32848,22326
32848,22562
32572,22562
32572,22326
" /> 
<polyline style="fill-rule:evenodd;"
points="32572,22877
32848,22877
32848,23113
32572,23113
32572,22877
" /> 
<polyline style="fill-rule:evenodd;"
points="31572,22326
31848,22326
31848,22562
31572,22562
31572,22326
" /> 
<polyline style="fill-rule:evenodd;"
points="31572,22877
31848,22877
31848,23113
31572,23113
31572,22877
" /> 
<polyline style="fill-rule:evenodd;"
points="39369,9243
39369,9557
39055,9557
39055,9243
39369,9243
" /> 
<polyline style="fill-rule:evenodd;"
points="38779,9243
38779,9557
38465,9557
38465,9243
38779,9243
" /> 
<polyline style="fill-rule:evenodd;"
points="36810,25010
36496,25010
36496,24696
36810,24696
36810,25010
" /> 
<polyline style="fill-rule:evenodd;"
points="36810,24420
36496,24420
36496,24106
36810,24106
36810,24420
" /> 
<polyline style="fill-rule:evenodd;"
points="57854,21744
58168,21744
58168,22058
57854,22058
57854,21744
" /> 
<polyline style="fill-rule:evenodd;"
points="57854,22334
58168,22334
58168,22648
57854,22648
57854,22334
" /> 
<polyline style="fill-rule:evenodd;"
points="26475,7669
26475,7983
26161,7983
26161,7669
26475,7669
" /> 
<polyline style="fill-rule:evenodd;"
points="25885,7669
25885,7983
25571,7983
25571,7669
25885,7669
" /> 
<polyline style="fill-rule:evenodd;"
points="45078,12314
45078,11999
45393,11999
45393,12314
45078,12314
" /> 
<polyline style="fill-rule:evenodd;"
points="45826,12314
45826,11999
46141,11999
46141,12314
45826,12314
" /> 
<polyline style="fill-rule:evenodd;"
points="45452,11527
45452,11212
45767,11212
45767,11527
45452,11527
" /> 
<polyline style="fill-rule:evenodd;"
points="43405,12314
43405,11999
43720,11999
43720,12314
43405,12314
" /> 
<polyline style="fill-rule:evenodd;"
points="44153,12314
44153,11999
44468,11999
44468,12314
44153,12314
" /> 
<polyline style="fill-rule:evenodd;"
points="43779,11527
43779,11212
44094,11212
44094,11527
43779,11527
" /> 
<polyline style="fill-rule:evenodd;"
points="41732,12314
41732,11999
42047,11999
42047,12314
41732,12314
" /> 
<polyline style="fill-rule:evenodd;"
points="42480,12314
42480,11999
42795,11999
42795,12314
42480,12314
" /> 
<polyline style="fill-rule:evenodd;"
points="42106,11527
42106,11212
42421,11212
42421,11527
42106,11527
" /> 
<polyline style="fill-rule:evenodd;"
points="40059,12314
40059,11999
40374,11999
40374,12314
40059,12314
" /> 
<polyline style="fill-rule:evenodd;"
points="40807,12314
40807,11999
41122,11999
41122,12314
40807,12314
" /> 
<polyline style="fill-rule:evenodd;"
points="40433,11527
40433,11212
40748,11212
40748,11527
40433,11527
" /> 
<polyline style="fill-rule:evenodd;"
points="48425,12314
48425,11999
48740,11999
48740,12314
48425,12314
" /> 
<polyline style="fill-rule:evenodd;"
points="49173,12314
49173,11999
49488,11999
49488,12314
49173,12314
" /> 
<polyline style="fill-rule:evenodd;"
points="48799,11527
48799,11212
49114,11212
49114,11527
48799,11527
" /> 
<polyline style="fill-rule:evenodd;"
points="46751,12314
46751,11999
47066,11999
47066,12314
46751,12314
" /> 
<polyline style="fill-rule:evenodd;"
points="47499,12314
47499,11999
47814,11999
47814,12314
47499,12314
" /> 
<polyline style="fill-rule:evenodd;"
points="47125,11527
47125,11212
47440,11212
47440,11527
47125,11527
" /> 
<polyline style="fill-rule:evenodd;"
points="30019,12314
30019,11999
30334,11999
30334,12314
30019,12314
" /> 
<polyline style="fill-rule:evenodd;"
points="30767,12314
30767,11999
31082,11999
31082,12314
30767,12314
" /> 
<polyline style="fill-rule:evenodd;"
points="30393,11527
30393,11212
30708,11212
30708,11527
30393,11527
" /> 
<polyline style="fill-rule:evenodd;"
points="31692,12314
31692,11999
32007,11999
32007,12314
31692,12314
" /> 
<polyline style="fill-rule:evenodd;"
points="32440,12314
32440,11999
32755,11999
32755,12314
32440,12314
" /> 
<polyline style="fill-rule:evenodd;"
points="32066,11527
32066,11212
32381,11212
32381,11527
32066,11527
" /> 
<polyline style="fill-rule:evenodd;"
points="33366,12314
33366,11999
33681,11999
33681,12314
33366,12314
" /> 
<polyline style="fill-rule:evenodd;"
points="34114,12314
34114,11999
34429,11999
34429,12314
34114,12314
" /> 
<polyline style="fill-rule:evenodd;"
points="33740,11527
33740,11212
34055,11212
34055,11527
33740,11527
" /> 
<polyline style="fill-rule:evenodd;"
points="35039,12314
35039,11999
35354,11999
35354,12314
35039,12314
" /> 
<polyline style="fill-rule:evenodd;"
points="35787,12314
35787,11999
36102,11999
36102,12314
35787,12314
" /> 
<polyline style="fill-rule:evenodd;"
points="35413,11527
35413,11212
35728,11212
35728,11527
35413,11527
" /> 
<polyline style="fill-rule:evenodd;"
points="36712,12314
36712,11999
37027,11999
37027,12314
36712,12314
" /> 
<polyline style="fill-rule:evenodd;"
points="37460,12314
37460,11999
37775,11999
37775,12314
37460,12314
" /> 
<polyline style="fill-rule:evenodd;"
points="37086,11527
37086,11212
37401,11212
37401,11527
37086,11527
" /> 
<polyline style="fill-rule:evenodd;"
points="38385,12314
38385,11999
38700,11999
38700,12314
38385,12314
" /> 
<polyline style="fill-rule:evenodd;"
points="39133,12314
39133,11999
39448,11999
39448,12314
39133,12314
" /> 
<polyline style="fill-rule:evenodd;"
points="38759,11527
38759,11212
39074,11212
39074,11527
38759,11527
" /> 
<polyline style="fill-rule:evenodd;"
points="33739,24026
34054,24026
34054,24341
33739,24341
33739,24026
" /> 
<polyline style="fill-rule:evenodd;"
points="33739,24774
34054,24774
34054,25089
33739,25089
33739,24774
" /> 
<polyline style="fill-rule:evenodd;"
points="34526,24400
34841,24400
34841,24715
34526,24715
34526,24400
" /> 
<polyline style="fill-rule:evenodd;"
points="24232,12550
23877,12550
23877,12353
24232,12353
24232,12550
" /> 
<polyline style="fill-rule:evenodd;"
points="24232,11959
23877,11959
23877,11763
24232,11763
24232,11959
" /> 
<polyline style="fill-rule:evenodd;"
points="23248,12550
22893,12550
22893,12353
23248,12353
23248,12550
" /> 
<polyline style="fill-rule:evenodd;"
points="23248,11959
22893,11959
22893,11763
23248,11763
23248,11959
" /> 
<polyline style="fill-rule:evenodd;"
points="28188,7648
28188,8003
27992,8003
27992,7648
28188,7648
" /> 
<polyline style="fill-rule:evenodd;"
points="27598,7648
27598,8003
27401,8003
27401,7648
27598,7648
" /> 
<polyline style="fill-rule:evenodd;"
points="24232,10680
23877,10680
23877,10483
24232,10483
24232,10680
" /> 
<polyline style="fill-rule:evenodd;"
points="24232,10089
23877,10089
23877,9892
24232,9892
24232,10089
" /> 
<polyline style="fill-rule:evenodd;"
points="64114,5936
64114,5581
64311,5581
64311,5936
64114,5936
" /> 
<polyline style="fill-rule:evenodd;"
points="64704,5936
64704,5581
64901,5581
64901,5936
64704,5936
" /> 
<polyline style="fill-rule:evenodd;"
points="64114,4952
64114,4597
64311,4597
64311,4952
64114,4952
" /> 
<polyline style="fill-rule:evenodd;"
points="64704,4952
64704,4597
64901,4597
64901,4952
64704,4952
" /> 
<polyline style="fill-rule:evenodd;"
points="64114,3967
64114,3613
64311,3613
64311,3967
64114,3967
" /> 
<polyline style="fill-rule:evenodd;"
points="64704,3967
64704,3613
64901,3613
64901,3967
64704,3967
" /> 
<polyline style="fill-rule:evenodd;"
points="12244,12078
12244,12432
12047,12432
12047,12078
12244,12078
" /> 
<polyline style="fill-rule:evenodd;"
points="11653,12078
11653,12432
11456,12432
11456,12078
11653,12078
" /> 
<polyline style="fill-rule:evenodd;"
points="49724,17963
49370,17963
49370,17767
49724,17767
49724,17963
" /> 
<polyline style="fill-rule:evenodd;"
points="49724,17373
49370,17373
49370,17176
49724,17176
49724,17373
" /> 
<polyline style="fill-rule:evenodd;"
points="48740,17963
48385,17963
48385,17767
48740,17767
48740,17963
" /> 
<polyline style="fill-rule:evenodd;"
points="48740,17373
48385,17373
48385,17176
48740,17176
48740,17373
" /> 
<polyline style="fill-rule:evenodd;"
points="45216,13219
45216,12865
45413,12865
45413,13219
45216,13219
" /> 
<polyline style="fill-rule:evenodd;"
points="45807,13219
45807,12865
46003,12865
46003,13219
45807,13219
" /> 
<polyline style="fill-rule:evenodd;"
points="43543,13219
43543,12865
43740,12865
43740,13219
43543,13219
" /> 
<polyline style="fill-rule:evenodd;"
points="44133,13219
44133,12865
44330,12865
44330,13219
44133,13219
" /> 
<polyline style="fill-rule:evenodd;"
points="45236,10562
45236,10207
45433,10207
45433,10562
45236,10562
" /> 
<polyline style="fill-rule:evenodd;"
points="45826,10562
45826,10207
46023,10207
46023,10562
45826,10562
" /> 
<polyline style="fill-rule:evenodd;"
points="43543,10562
43543,10207
43740,10207
43740,10562
43543,10562
" /> 
<polyline style="fill-rule:evenodd;"
points="44133,10562
44133,10207
44330,10207
44330,10562
44133,10562
" /> 
<polyline style="fill-rule:evenodd;"
points="51811,22806
51811,23160
51614,23160
51614,22806
51811,22806
" /> 
<polyline style="fill-rule:evenodd;"
points="51220,22806
51220,23160
51023,23160
51023,22806
51220,22806
" /> 
<polyline style="fill-rule:evenodd;"
points="48740,21310
48385,21310
48385,21113
48740,21113
48740,21310
" /> 
<polyline style="fill-rule:evenodd;"
points="48740,20719
48385,20719
48385,20522
48740,20522
48740,20719
" /> 
<polyline style="fill-rule:evenodd;"
points="49724,21310
49370,21310
49370,21113
49724,21113
49724,21310
" /> 
<polyline style="fill-rule:evenodd;"
points="49724,20719
49370,20719
49370,20522
49724,20522
49724,20719
" /> 
<polyline style="fill-rule:evenodd;"
points="41870,13219
41870,12865
42066,12865
42066,13219
41870,13219
" /> 
<polyline style="fill-rule:evenodd;"
points="42460,13219
42460,12865
42657,12865
42657,13219
42460,13219
" /> 
<polyline style="fill-rule:evenodd;"
points="40196,13219
40196,12865
40393,12865
40393,13219
40196,13219
" /> 
<polyline style="fill-rule:evenodd;"
points="40787,13219
40787,12865
40984,12865
40984,13219
40787,13219
" /> 
<polyline style="fill-rule:evenodd;"
points="41870,10562
41870,10207
42066,10207
42066,10562
41870,10562
" /> 
<polyline style="fill-rule:evenodd;"
points="42460,10562
42460,10207
42657,10207
42657,10562
42460,10562
" /> 
<polyline style="fill-rule:evenodd;"
points="40196,10562
40196,10207
40393,10207
40393,10562
40196,10562
" /> 
<polyline style="fill-rule:evenodd;"
points="40787,10562
40787,10207
40984,10207
40984,10562
40787,10562
" /> 
<polyline style="fill-rule:evenodd;"
points="46830,24322
46161,24322
46161,23967
46830,23967
46830,24322
" /> 
<polyline style="fill-rule:evenodd;"
points="46830,23180
46161,23180
46161,22826
46830,22826
46830,23180
" /> 
<polyline style="fill-rule:evenodd;"
points="38169,24322
37500,24322
37500,23967
38169,23967
38169,24322
" /> 
<polyline style="fill-rule:evenodd;"
points="38169,23180
37500,23180
37500,22826
38169,22826
38169,23180
" /> 
<polyline style="fill-rule:evenodd;"
points="48562,13219
48562,12865
48759,12865
48759,13219
48562,13219
" /> 
<polyline style="fill-rule:evenodd;"
points="49153,13219
49153,12865
49350,12865
49350,13219
49153,13219
" /> 
<polyline style="fill-rule:evenodd;"
points="46889,13219
46889,12865
47086,12865
47086,13219
46889,13219
" /> 
<polyline style="fill-rule:evenodd;"
points="47480,13219
47480,12865
47677,12865
47677,13219
47480,13219
" /> 
<polyline style="fill-rule:evenodd;"
points="48562,10562
48562,10207
48759,10207
48759,10562
48562,10562
" /> 
<polyline style="fill-rule:evenodd;"
points="49153,10562
49153,10207
49350,10207
49350,10562
49153,10562
" /> 
<polyline style="fill-rule:evenodd;"
points="46889,10562
46889,10207
47086,10207
47086,10562
46889,10562
" /> 
<polyline style="fill-rule:evenodd;"
points="47480,10562
47480,10207
47677,10207
47677,10562
47480,10562
" /> 
<polyline style="fill-rule:evenodd;"
points="30157,13219
30157,12865
30354,12865
30354,13219
30157,13219
" /> 
<polyline style="fill-rule:evenodd;"
points="30748,13219
30748,12865
30944,12865
30944,13219
30748,13219
" /> 
<polyline style="fill-rule:evenodd;"
points="31830,13219
31830,12865
32027,12865
32027,13219
31830,13219
" /> 
<polyline style="fill-rule:evenodd;"
points="32421,13219
32421,12865
32618,12865
32618,13219
32421,13219
" /> 
<polyline style="fill-rule:evenodd;"
points="30157,10562
30157,10207
30354,10207
30354,10562
30157,10562
" /> 
<polyline style="fill-rule:evenodd;"
points="30748,10562
30748,10207
30944,10207
30944,10562
30748,10562
" /> 
<polyline style="fill-rule:evenodd;"
points="31830,10562
31830,10207
32027,10207
32027,10562
31830,10562
" /> 
<polyline style="fill-rule:evenodd;"
points="32421,10562
32421,10207
32618,10207
32618,10562
32421,10562
" /> 
<polyline style="fill-rule:evenodd;"
points="53976,24144
53976,23790
54173,23790
54173,24144
53976,24144
" /> 
<polyline style="fill-rule:evenodd;"
points="54566,24144
54566,23790
54763,23790
54763,24144
54566,24144
" /> 
<polyline style="fill-rule:evenodd;"
points="33503,13219
33503,12865
33700,12865
33700,13219
33503,13219
" /> 
<polyline style="fill-rule:evenodd;"
points="34094,13219
34094,12865
34291,12865
34291,13219
34094,13219
" /> 
<polyline style="fill-rule:evenodd;"
points="33503,10562
33503,10207
33700,10207
33700,10562
33503,10562
" /> 
<polyline style="fill-rule:evenodd;"
points="34094,10562
34094,10207
34291,10207
34291,10562
34094,10562
" /> 
<polyline style="fill-rule:evenodd;"
points="35492,22294
35846,22294
35846,22491
35492,22491
35492,22294
" /> 
<polyline style="fill-rule:evenodd;"
points="35492,22885
35846,22885
35846,23081
35492,23081
35492,22885
" /> 
<polyline style="fill-rule:evenodd;"
points="35177,13219
35177,12865
35374,12865
35374,13219
35177,13219
" /> 
<polyline style="fill-rule:evenodd;"
points="35767,13219
35767,12865
35964,12865
35964,13219
35767,13219
" /> 
<polyline style="fill-rule:evenodd;"
points="36850,13219
36850,12865
37047,12865
37047,13219
36850,13219
" /> 
<polyline style="fill-rule:evenodd;"
points="37440,13219
37440,12865
37637,12865
37637,13219
37440,13219
" /> 
<polyline style="fill-rule:evenodd;"
points="35177,10562
35177,10207
35374,10207
35374,10562
35177,10562
" /> 
<polyline style="fill-rule:evenodd;"
points="35767,10562
35767,10207
35964,10207
35964,10562
35767,10562
" /> 
<polyline style="fill-rule:evenodd;"
points="36850,10562
36850,10207
37047,10207
37047,10562
36850,10562
" /> 
<polyline style="fill-rule:evenodd;"
points="37440,10562
37440,10207
37637,10207
37637,10562
37440,10562
" /> 
<polyline style="fill-rule:evenodd;"
points="38523,13219
38523,12865
38720,12865
38720,13219
38523,13219
" /> 
<polyline style="fill-rule:evenodd;"
points="39114,13219
39114,12865
39311,12865
39311,13219
39114,13219
" /> 
<polyline style="fill-rule:evenodd;"
points="32834,24164
33188,24164
33188,24361
32834,24361
32834,24164
" /> 
<polyline style="fill-rule:evenodd;"
points="32834,24755
33188,24755
33188,24952
32834,24952
32834,24755
" /> 
<polyline style="fill-rule:evenodd;"
points="38523,10562
38523,10207
38720,10207
38720,10562
38523,10562
" /> 
<polyline style="fill-rule:evenodd;"
points="39114,10562
39114,10207
39311,10207
39311,10562
39114,10562
" /> 
<polyline style="fill-rule:evenodd;"
points="35492,24164
35846,24164
35846,24361
35492,24361
35492,24164
" /> 
<polyline style="fill-rule:evenodd;"
points="35492,24755
35846,24755
35846,24952
35492,24952
35492,24755
" /> 
<polyline style="fill-rule:evenodd;"
points="56948,21802
57303,21802
57303,21999
56948,21999
56948,21802
" /> 
<polyline style="fill-rule:evenodd;"
points="56948,22392
57303,22392
57303,22589
56948,22589
56948,22392
" /> 
<polyline style="fill-rule:evenodd;"
points="61555,32058
61555,32412
61358,32412
61358,32058
61555,32058
" /> 
<polyline style="fill-rule:evenodd;"
points="60964,32058
60964,32412
60767,32412
60767,32058
60964,32058
" /> 
<polyline style="fill-rule:evenodd;"
points="62933,32058
62933,32412
62736,32412
62736,32058
62933,32058
" /> 
<polyline style="fill-rule:evenodd;"
points="62342,32058
62342,32412
62145,32412
62145,32058
62342,32058
" /> 
<polyline style="fill-rule:evenodd;"
points="28490,9042
28931,9042
28931,10003
28490,10003
28490,9042
" /> 
<polyline style="fill-rule:evenodd;"
points="27490,9042
27931,9042
27931,10003
27490,10003
27490,9042
" /> 
<polyline style="fill-rule:evenodd;"
points="26490,9042
26931,9042
26931,10003
26490,10003
26490,9042
" /> 
<polyline style="fill-rule:evenodd;"
points="25490,9042
25931,9042
25931,10003
25490,10003
25490,9042
" /> 
<polyline style="fill-rule:evenodd;"
points="25490,12436
25931,12436
25931,13396
25490,13396
25490,12436
" /> 
<polyline style="fill-rule:evenodd;"
points="26490,12436
26931,12436
26931,13396
26490,13396
26490,12436
" /> 
<polyline style="fill-rule:evenodd;"
points="27490,12436
27931,12436
27931,13396
27490,13396
27490,12436
" /> 
<polyline style="fill-rule:evenodd;"
points="28490,12436
28931,12436
28931,13396
28490,13396
28490,12436
" /> 
<polyline style="fill-rule:evenodd;"
points="51931,13396
51490,13396
51490,12436
51931,12436
51931,13396
" /> 
<polyline style="fill-rule:evenodd;"
points="52931,13396
52490,13396
52490,12436
52931,12436
52931,13396
" /> 
<polyline style="fill-rule:evenodd;"
points="53931,13396
53490,13396
53490,12436
53931,12436
53931,13396
" /> 
<polyline style="fill-rule:evenodd;"
points="54931,13396
54490,13396
54490,12436
54931,12436
54931,13396
" /> 
<polyline style="fill-rule:evenodd;"
points="54931,10003
54490,10003
54490,9042
54931,9042
54931,10003
" /> 
<polyline style="fill-rule:evenodd;"
points="53931,10003
53490,10003
53490,9042
53931,9042
53931,10003
" /> 
<polyline style="fill-rule:evenodd;"
points="52931,10003
52490,10003
52490,9042
52931,9042
52931,10003
" /> 
<polyline style="fill-rule:evenodd;"
points="51931,10003
51490,10003
51490,9042
51931,9042
51931,10003
" /> 
<polyline style="fill-rule:evenodd;"
points="16490,9042
16931,9042
16931,10003
16490,10003
16490,9042
" /> 
<polyline style="fill-rule:evenodd;"
points="15490,9042
15931,9042
15931,10003
15490,10003
15490,9042
" /> 
<polyline style="fill-rule:evenodd;"
points="14490,9042
14931,9042
14931,10003
14490,10003
14490,9042
" /> 
<polyline style="fill-rule:evenodd;"
points="13490,9042
13931,9042
13931,10003
13490,10003
13490,9042
" /> 
<polyline style="fill-rule:evenodd;"
points="13490,12436
13931,12436
13931,13396
13490,13396
13490,12436
" /> 
<polyline style="fill-rule:evenodd;"
points="14490,12436
14931,12436
14931,13396
14490,13396
14490,12436
" /> 
<polyline style="fill-rule:evenodd;"
points="15490,12436
15931,12436
15931,13396
15490,13396
15490,12436
" /> 
<polyline style="fill-rule:evenodd;"
points="16490,12436
16931,12436
16931,13396
16490,13396
16490,12436
" /> 
<polyline style="fill-rule:evenodd;"
points="41490,17042
41931,17042
41931,18003
41490,18003
41490,17042
" /> 
<polyline style="fill-rule:evenodd;"
points="40490,17042
40931,17042
40931,18003
40490,18003
40490,17042
" /> 
<polyline style="fill-rule:evenodd;"
points="39490,17042
39931,17042
39931,18003
39490,18003
39490,17042
" /> 
<polyline style="fill-rule:evenodd;"
points="38490,17042
38931,17042
38931,18003
38490,18003
38490,17042
" /> 
<polyline style="fill-rule:evenodd;"
points="38490,20436
38931,20436
38931,21396
38490,21396
38490,20436
" /> 
<polyline style="fill-rule:evenodd;"
points="39490,20436
39931,20436
39931,21396
39490,21396
39490,20436
" /> 
<polyline style="fill-rule:evenodd;"
points="40490,20436
40931,20436
40931,21396
40490,21396
40490,20436
" /> 
<polyline style="fill-rule:evenodd;"
points="41490,20436
41931,20436
41931,21396
41490,21396
41490,20436
" /> 
<polyline style="fill-rule:evenodd;"
points="54490,17042
54931,17042
54931,18003
54490,18003
54490,17042
" /> 
<polyline style="fill-rule:evenodd;"
points="53490,17042
53931,17042
53931,18003
53490,18003
53490,17042
" /> 
<polyline style="fill-rule:evenodd;"
points="52490,17042
52931,17042
52931,18003
52490,18003
52490,17042
" /> 
<polyline style="fill-rule:evenodd;"
points="51490,17042
51931,17042
51931,18003
51490,18003
51490,17042
" /> 
<polyline style="fill-rule:evenodd;"
points="51490,20436
51931,20436
51931,21396
51490,21396
51490,20436
" /> 
<polyline style="fill-rule:evenodd;"
points="52490,20436
52931,20436
52931,21396
52490,21396
52490,20436
" /> 
<polyline style="fill-rule:evenodd;"
points="53490,20436
53931,20436
53931,21396
53490,21396
53490,20436
" /> 
<polyline style="fill-rule:evenodd;"
points="54490,20436
54931,20436
54931,21396
54490,21396
54490,20436
" /> 
<polyline style="fill-rule:evenodd;"
points="28490,17042
28931,17042
28931,18003
28490,18003
28490,17042
" /> 
<polyline style="fill-rule:evenodd;"
points="27490,17042
27931,17042
27931,18003
27490,18003
27490,17042
" /> 
<polyline style="fill-rule:evenodd;"
points="26490,17042
26931,17042
26931,18003
26490,18003
26490,17042
" /> 
<polyline style="fill-rule:evenodd;"
points="25490,17042
25931,17042
25931,18003
25490,18003
25490,17042
" /> 
<polyline style="fill-rule:evenodd;"
points="25490,20436
25931,20436
25931,21396
25490,21396
25490,20436
" /> 
<polyline style="fill-rule:evenodd;"
points="26490,20436
26931,20436
26931,21396
26490,21396
26490,20436
" /> 
<polyline style="fill-rule:evenodd;"
points="27490,20436
27931,20436
27931,21396
27490,21396
27490,20436
" /> 
<polyline style="fill-rule:evenodd;"
points="28490,20436
28931,20436
28931,21396
28490,21396
28490,20436
" /> 
<polyline style="fill-rule:evenodd;"
points="33490,17042
33931,17042
33931,18003
33490,18003
33490,17042
" /> 
<polyline style="fill-rule:evenodd;"
points="32490,17042
32931,17042
32931,18003
32490,18003
32490,17042
" /> 
<polyline style="fill-rule:evenodd;"
points="31490,17042
31931,17042
31931,18003
31490,18003
31490,17042
" /> 
<polyline style="fill-rule:evenodd;"
points="30490,17042
30931,17042
30931,18003
30490,18003
30490,17042
" /> 
<polyline style="fill-rule:evenodd;"
points="30490,20436
30931,20436
30931,21396
30490,21396
30490,20436
" /> 
<polyline style="fill-rule:evenodd;"
points="31490,20436
31931,20436
31931,21396
31490,21396
31490,20436
" /> 
<polyline style="fill-rule:evenodd;"
points="32490,20436
32931,20436
32931,21396
32490,21396
32490,20436
" /> 
<polyline style="fill-rule:evenodd;"
points="33490,20436
33931,20436
33931,21396
33490,21396
33490,20436
" /> 
<polyline style="fill-rule:evenodd;"
points="60490,17042
60931,17042
60931,18003
60490,18003
60490,17042
" /> 
<polyline style="fill-rule:evenodd;"
points="59490,17042
59931,17042
59931,18003
59490,18003
59490,17042
" /> 
<polyline style="fill-rule:evenodd;"
points="58490,17042
58931,17042
58931,18003
58490,18003
58490,17042
" /> 
<polyline style="fill-rule:evenodd;"
points="57490,17042
57931,17042
57931,18003
57490,18003
57490,17042
" /> 
<polyline style="fill-rule:evenodd;"
points="57490,20436
57931,20436
57931,21396
57490,21396
57490,20436
" /> 
<polyline style="fill-rule:evenodd;"
points="58490,20436
58931,20436
58931,21396
58490,21396
58490,20436
" /> 
<polyline style="fill-rule:evenodd;"
points="59490,20436
59931,20436
59931,21396
59490,21396
59490,20436
" /> 
<polyline style="fill-rule:evenodd;"
points="60490,20436
60931,20436
60931,21396
60490,21396
60490,20436
" /> 
<polyline style="fill-rule:evenodd;"
points="65490,17042
65931,17042
65931,18003
65490,18003
65490,17042
" /> 
<polyline style="fill-rule:evenodd;"
points="64490,17042
64931,17042
64931,18003
64490,18003
64490,17042
" /> 
<polyline style="fill-rule:evenodd;"
points="63490,17042
63931,17042
63931,18003
63490,18003
63490,17042
" /> 
<polyline style="fill-rule:evenodd;"
points="62490,17042
62931,17042
62931,18003
62490,18003
62490,17042
" /> 
<polyline style="fill-rule:evenodd;"
points="62490,20436
62931,20436
62931,21396
62490,21396
62490,20436
" /> 
<polyline style="fill-rule:evenodd;"
points="63490,20436
63931,20436
63931,21396
63490,21396
63490,20436
" /> 
<polyline style="fill-rule:evenodd;"
points="64490,20436
64931,20436
64931,21396
64490,21396
64490,20436
" /> 
<polyline style="fill-rule:evenodd;"
points="65490,20436
65931,20436
65931,21396
65490,21396
65490,20436
" /> 
<polyline style="fill-rule:evenodd;"
points="62440,29873
62834,29873
62834,30955
62440,30955
62440,29873
" /> 
<polyline style="fill-rule:evenodd;"
points="62440,27609
62834,27609
62834,28692
62440,28692
62440,27609
" /> 
<polyline style="fill-rule:evenodd;"
points="60866,27609
61259,27609
61259,28692
60866,28692
60866,27609
" /> 
<polyline style="fill-rule:evenodd;"
points="60866,29873
61259,29873
61259,30955
60866,30955
60866,29873
" /> 
<polyline style="fill-rule:evenodd;"
points="64606,28692
64212,28692
64212,27609
64606,27609
64606,28692
" /> 
<polyline style="fill-rule:evenodd;"
points="64606,30955
64212,30955
64212,29873
64606,29873
64606,30955
" /> 
<polyline style="fill-rule:evenodd;"
points="66181,30955
65787,30955
65787,29873
66181,29873
66181,30955
" /> 
<polyline style="fill-rule:evenodd;"
points="66181,28692
65787,28692
65787,27609
66181,27609
66181,28692
" /> 
<polyline style="fill-rule:evenodd;"
points="65787,32038
65787,31644
66870,31644
66870,32038
65787,32038
" /> 
<polyline style="fill-rule:evenodd;"
points="63523,32038
63523,31644
64606,31644
64606,32038
63523,32038
" /> 
<polyline style="fill-rule:evenodd;"
points="63523,33613
63523,33219
64606,33219
64606,33613
63523,33613
" /> 
<polyline style="fill-rule:evenodd;"
points="65787,33613
65787,33219
66870,33219
66870,33613
65787,33613
" /> 
<polyline style="fill-rule:evenodd;"
points="67952,28692
67559,28692
67559,27609
67952,27609
67952,28692
" /> 
<polyline style="fill-rule:evenodd;"
points="67952,30955
67559,30955
67559,29873
67952,29873
67952,30955
" /> 
<polyline style="fill-rule:evenodd;"
points="69527,30955
69133,30955
69133,29873
69527,29873
69527,30955
" /> 
<polyline style="fill-rule:evenodd;"
points="69527,28692
69133,28692
69133,27609
69527,27609
69527,28692
" /> 
<polyline style="fill-rule:evenodd;"
points="23021,24806
22765,24806
22765,24389
23021,24389
23021,24806
" /> 
<polyline style="fill-rule:evenodd;"
points="23395,24806
23139,24806
23139,24389
23395,24389
23395,24806
" /> 
<polyline style="fill-rule:evenodd;"
points="23769,24806
23513,24806
23513,24389
23769,24389
23769,24806
" /> 
<polyline style="fill-rule:evenodd;"
points="23769,23940
23513,23940
23513,23522
23769,23522
23769,23940
" /> 
<polyline style="fill-rule:evenodd;"
points="23021,23940
22765,23940
22765,23522
23021,23522
23021,23940
" /> 
<polyline style="fill-rule:evenodd;"
points="23622,4144
23503,4144
23503,3593
23622,3593
23622,4144
" /> 
<polyline style="fill-rule:evenodd;"
points="23818,4144
23700,4144
23700,3593
23818,3593
23818,4144
" /> 
<polyline style="fill-rule:evenodd;"
points="24015,4144
23897,4144
23897,3593
24015,3593
24015,4144
" /> 
<polyline style="fill-rule:evenodd;"
points="24212,4144
24094,4144
24094,3593
24212,3593
24212,4144
" /> 
<polyline style="fill-rule:evenodd;"
points="24409,4144
24291,4144
24291,3593
24409,3593
24409,4144
" /> 
<polyline style="fill-rule:evenodd;"
points="24409,2412
24291,2412
24291,1861
24409,1861
24409,2412
" /> 
<polyline style="fill-rule:evenodd;"
points="24212,2412
24094,2412
24094,1861
24212,1861
24212,2412
" /> 
<polyline style="fill-rule:evenodd;"
points="24015,2412
23897,2412
23897,1861
24015,1861
24015,2412
" /> 
<polyline style="fill-rule:evenodd;"
points="23818,2412
23700,2412
23700,1861
23818,1861
23818,2412
" /> 
<polyline style="fill-rule:evenodd;"
points="23622,2412
23503,2412
23503,1861
23622,1861
23622,2412
" /> 
<polyline style="fill-rule:evenodd;"
points="39129,23548
39799,23548
39799,23824
39129,23824
39129,23548
" /> 
<polyline style="fill-rule:evenodd;"
points="39129,24048
39799,24048
39799,24324
39129,24324
39129,24048
" /> 
<polyline style="fill-rule:evenodd;"
points="39129,24548
39799,24548
39799,24824
39129,24824
39129,24548
" /> 
<polyline style="fill-rule:evenodd;"
points="39129,25048
39799,25048
39799,25324
39129,25324
39129,25048
" /> 
<polyline style="fill-rule:evenodd;"
points="39129,25548
39799,25548
39799,25824
39129,25824
39129,25548
" /> 
<polyline style="fill-rule:evenodd;"
points="39129,26048
39799,26048
39799,26324
39129,26324
39129,26048
" /> 
<polyline style="fill-rule:evenodd;"
points="39129,26548
39799,26548
39799,26824
39129,26824
39129,26548
" /> 
<polyline style="fill-rule:evenodd;"
points="39129,27048
39799,27048
39799,27324
39129,27324
39129,27048
" /> 
<polyline style="fill-rule:evenodd;"
points="39129,27548
39799,27548
39799,27824
39129,27824
39129,27548
" /> 
<polyline style="fill-rule:evenodd;"
points="39129,28048
39799,28048
39799,28324
39129,28324
39129,28048
" /> 
<polyline style="fill-rule:evenodd;"
points="44523,28048
45192,28048
45192,28324
44523,28324
44523,28048
" /> 
<polyline style="fill-rule:evenodd;"
points="44523,27548
45192,27548
45192,27824
44523,27824
44523,27548
" /> 
<polyline style="fill-rule:evenodd;"
points="44523,27048
45192,27048
45192,27324
44523,27324
44523,27048
" /> 
<polyline style="fill-rule:evenodd;"
points="44523,26548
45192,26548
45192,26824
44523,26824
44523,26548
" /> 
<polyline style="fill-rule:evenodd;"
points="44523,26048
45192,26048
45192,26324
44523,26324
44523,26048
" /> 
<polyline style="fill-rule:evenodd;"
points="44523,25548
45192,25548
45192,25824
44523,25824
44523,25548
" /> 
<polyline style="fill-rule:evenodd;"
points="44523,25048
45192,25048
45192,25324
44523,25324
44523,25048
" /> 
<polyline style="fill-rule:evenodd;"
points="44523,24548
45192,24548
45192,24824
44523,24824
44523,24548
" /> 
<polyline style="fill-rule:evenodd;"
points="44523,24048
45192,24048
45192,24324
44523,24324
44523,24048
" /> 
<polyline style="fill-rule:evenodd;"
points="44523,23548
45192,23548
45192,23824
44523,23824
44523,23548
" /> 
<polyline style="fill-rule:evenodd;"
points="40311,23022
44011,23022
44011,28849
40311,28849
40311,23022
" /> 
<polyline style="fill-rule:evenodd;"
points="41177,22452
43145,22452
43145,29420
41177,29420
41177,22452
" /> 
<polyline style="fill-rule:evenodd;"
points="58996,23524
58996,23426
59271,23426
59271,23524
58996,23524
" /> 
<polyline style="fill-rule:evenodd;"
points="58996,23721
58996,23623
59271,23623
59271,23721
58996,23721
" /> 
<polyline style="fill-rule:evenodd;"
points="58996,23918
58996,23820
59271,23820
59271,23918
58996,23918
" /> 
<polyline style="fill-rule:evenodd;"
points="58996,24115
58996,24017
59271,24017
59271,24115
58996,24115
" /> 
<polyline style="fill-rule:evenodd;"
points="58996,24312
58996,24213
59271,24213
59271,24312
58996,24312
" /> 
<polyline style="fill-rule:evenodd;"
points="58996,24509
58996,24410
59271,24410
59271,24509
58996,24509
" /> 
<polyline style="fill-rule:evenodd;"
points="58996,24705
58996,24607
59271,24607
59271,24705
58996,24705
" /> 
<polyline style="fill-rule:evenodd;"
points="58996,24902
58996,24804
59271,24804
59271,24902
58996,24902
" /> 
<polyline style="fill-rule:evenodd;"
points="59438,25247
59340,25247
59340,24971
59438,24971
59438,25247
" /> 
<polyline style="fill-rule:evenodd;"
points="59635,25247
59537,25247
59537,24971
59635,24971
59635,25247
" /> 
<polyline style="fill-rule:evenodd;"
points="59832,25247
59734,25247
59734,24971
59832,24971
59832,25247
" /> 
<polyline style="fill-rule:evenodd;"
points="60029,25247
59931,25247
59931,24971
60029,24971
60029,25247
" /> 
<polyline style="fill-rule:evenodd;"
points="60226,25247
60127,25247
60127,24971
60226,24971
60226,25247
" /> 
<polyline style="fill-rule:evenodd;"
points="60423,25247
60324,25247
60324,24971
60423,24971
60423,25247
" /> 
<polyline style="fill-rule:evenodd;"
points="60620,25247
60521,25247
60521,24971
60620,24971
60620,25247
" /> 
<polyline style="fill-rule:evenodd;"
points="60816,25247
60718,25247
60718,24971
60816,24971
60816,25247
" /> 
<polyline style="fill-rule:evenodd;"
points="60885,24902
60885,24804
61161,24804
61161,24902
60885,24902
" /> 
<polyline style="fill-rule:evenodd;"
points="60885,24705
60885,24607
61161,24607
61161,24705
60885,24705
" /> 
<polyline style="fill-rule:evenodd;"
points="60885,24509
60885,24410
61161,24410
61161,24509
60885,24509
" /> 
<polyline style="fill-rule:evenodd;"
points="60885,24312
60885,24213
61161,24213
61161,24312
60885,24312
" /> 
<polyline style="fill-rule:evenodd;"
points="60885,24115
60885,24017
61161,24017
61161,24115
60885,24115
" /> 
<polyline style="fill-rule:evenodd;"
points="60885,23918
60885,23820
61161,23820
61161,23918
60885,23918
" /> 
<polyline style="fill-rule:evenodd;"
points="60885,23721
60885,23623
61161,23623
61161,23721
60885,23721
" /> 
<polyline style="fill-rule:evenodd;"
points="60885,23524
60885,23426
61161,23426
61161,23524
60885,23524
" /> 
<polyline style="fill-rule:evenodd;"
points="60816,23357
60718,23357
60718,23081
60816,23081
60816,23357
" /> 
<polyline style="fill-rule:evenodd;"
points="60620,23357
60521,23357
60521,23081
60620,23081
60620,23357
" /> 
<polyline style="fill-rule:evenodd;"
points="60423,23357
60324,23357
60324,23081
60423,23081
60423,23357
" /> 
<polyline style="fill-rule:evenodd;"
points="60226,23357
60127,23357
60127,23081
60226,23081
60226,23357
" /> 
<polyline style="fill-rule:evenodd;"
points="60029,23357
59931,23357
59931,23081
60029,23081
60029,23357
" /> 
<polyline style="fill-rule:evenodd;"
points="59832,23357
59734,23357
59734,23081
59832,23081
59832,23357
" /> 
<polyline style="fill-rule:evenodd;"
points="59635,23357
59537,23357
59537,23081
59635,23081
59635,23357
" /> 
<polyline style="fill-rule:evenodd;"
points="59438,23357
59340,23357
59340,23081
59438,23081
59438,23357
" /> 
<polyline style="fill-rule:evenodd;"
points="60214,24707
60214,24300
60622,24300
60622,24707
60214,24707
" /> 
<polyline style="fill-rule:evenodd;"
points="60214,24028
60214,23621
60622,23621
60622,24028
60214,24028
" /> 
<polyline style="fill-rule:evenodd;"
points="59535,24707
59535,24300
59942,24300
59942,24707
59535,24707
" /> 
<polyline style="fill-rule:evenodd;"
points="59535,24028
59535,23621
59942,23621
59942,24028
59535,24028
" /> 
<polyline style="fill-rule:evenodd;"
points="35453,27235
35453,26605
36870,26605
36870,27235
35453,27235
" /> 
<polyline style="fill-rule:evenodd;"
points="33287,27235
33287,26605
34704,26605
34704,27235
33287,27235
" /> 
<polyline style="fill-rule:evenodd;"
points="53366,30582
53366,29952
54783,29952
54783,30582
53366,30582
" /> 
<polyline style="fill-rule:evenodd;"
points="51200,30582
51200,29952
52617,29952
52617,30582
51200,30582
" /> 
<polyline style="fill-rule:evenodd;"
points="53366,27235
53366,26605
54783,26605
54783,27235
53366,27235
" /> 
<polyline style="fill-rule:evenodd;"
points="51200,27235
51200,26605
52617,26605
52617,27235
51200,27235
" /> 
<polyline style="fill-rule:evenodd;"
points="59803,3634
60354,3634
60354,3750
59803,3750
59803,3634
" /> 
<polyline style="fill-rule:evenodd;"
points="59803,3830
60354,3830
60354,3947
59803,3947
59803,3830
" /> 
<polyline style="fill-rule:evenodd;"
points="59803,4027
60354,4027
60354,4143
59803,4143
59803,4027
" /> 
<polyline style="fill-rule:evenodd;"
points="59803,4224
60354,4224
60354,4340
59803,4340
59803,4224
" /> 
<polyline style="fill-rule:evenodd;"
points="59803,4421
60354,4421
60354,4537
59803,4537
59803,4421
" /> 
<polyline style="fill-rule:evenodd;"
points="59803,4618
60354,4618
60354,4734
59803,4734
59803,4618
" /> 
<polyline style="fill-rule:evenodd;"
points="59803,4815
60354,4815
60354,4931
59803,4931
59803,4815
" /> 
<polyline style="fill-rule:evenodd;"
points="59803,5012
60354,5012
60354,5128
59803,5128
59803,5012
" /> 
<polyline style="fill-rule:evenodd;"
points="59803,5208
60354,5208
60354,5325
59803,5325
59803,5208
" /> 
<polyline style="fill-rule:evenodd;"
points="59803,5405
60354,5405
60354,5521
59803,5521
59803,5405
" /> 
<polyline style="fill-rule:evenodd;"
points="59803,5602
60354,5602
60354,5718
59803,5718
59803,5602
" /> 
<polyline style="fill-rule:evenodd;"
points="59803,5799
60354,5799
60354,5915
59803,5915
59803,5799
" /> 
<polyline style="fill-rule:evenodd;"
points="59133,2471
60039,2471
60039,3515
59133,3515
59133,2471
" /> 
<polyline style="fill-rule:evenodd;"
points="59133,6034
60039,6034
60039,7078
59133,7078
59133,6034
" /> 
<polyline style="fill-rule:evenodd;"
points="16476,3150
16476,2658
16870,2658
16870,3150
16476,3150
" /> 
<polyline style="fill-rule:evenodd;"
points="17263,3150
17263,2658
17657,2658
17657,3150
17263,3150
" /> 
<polyline style="fill-rule:evenodd;"
points="58208,24705
58208,25198
57814,25198
57814,24705
58208,24705
" /> 
<polyline style="fill-rule:evenodd;"
points="57421,24705
57421,25198
57027,25198
57027,24705
57421,24705
" /> 
<polyline style="fill-rule:evenodd;"
points="59045,26034
59537,26034
59537,26428
59045,26428
59045,26034
" /> 
<polyline style="fill-rule:evenodd;"
points="59045,26822
59537,26822
59537,27215
59045,27215
59045,26822
" /> 
<polyline style="fill-rule:evenodd;"
points="65049,24164
64557,24164
64557,23770
65049,23770
65049,24164
" /> 
<polyline style="fill-rule:evenodd;"
points="65049,23377
64557,23377
64557,22983
65049,22983
65049,23377
" /> 
<polyline style="fill-rule:evenodd;"
points="66230,24164
65738,24164
65738,23770
66230,23770
66230,24164
" /> 
<polyline style="fill-rule:evenodd;"
points="66230,23377
65738,23377
65738,22983
66230,22983
66230,23377
" /> 
<polyline style="fill-rule:evenodd;"
points="63868,24164
63375,24164
63375,23770
63868,23770
63868,24164
" /> 
<polyline style="fill-rule:evenodd;"
points="63868,23377
63375,23377
63375,22983
63868,22983
63868,23377
" /> 
<polyline style="fill-rule:evenodd;"
points="16476,8465
16476,7973
16870,7973
16870,8465
16476,8465
" /> 
<polyline style="fill-rule:evenodd;"
points="17263,8465
17263,7973
17657,7973
17657,8465
17263,8465
" /> 
<polyline style="fill-rule:evenodd;"
points="13326,3150
13326,2658
13720,2658
13720,3150
13326,3150
" /> 
<polyline style="fill-rule:evenodd;"
points="14114,3150
14114,2658
14507,2658
14507,3150
14114,3150
" /> 
<polyline style="fill-rule:evenodd;"
points="13326,8465
13326,7973
13720,7973
13720,8465
13326,8465
" /> 
<polyline style="fill-rule:evenodd;"
points="14114,8465
14114,7973
14507,7973
14507,8465
14114,8465
" /> 
<polyline style="fill-rule:evenodd;"
points="13464,4036
13464,3741
13779,3741
13779,4036
13464,4036
" /> 
<polyline style="fill-rule:evenodd;"
points="14055,4036
14055,3741
14370,3741
14370,4036
14055,4036
" /> 
<polyline style="fill-rule:evenodd;"
points="13464,7383
13464,7087
13779,7087
13779,7383
13464,7383
" /> 
<polyline style="fill-rule:evenodd;"
points="14055,7383
14055,7087
14370,7087
14370,7383
14055,7383
" /> 
<polyline style="fill-rule:evenodd;"
points="13464,2068
13464,1772
13779,1772
13779,2068
13464,2068
" /> 
<polyline style="fill-rule:evenodd;"
points="14055,2068
14055,1772
14370,1772
14370,2068
14055,2068
" /> 
<polyline style="fill-rule:evenodd;"
points="17992,7383
17992,7087
18307,7087
18307,7383
17992,7383
" /> 
<polyline style="fill-rule:evenodd;"
points="18582,7383
18582,7087
18897,7087
18897,7383
18582,7383
" /> 
<polyline style="fill-rule:evenodd;"
points="22933,8279
22933,7964
23248,7964
23248,8279
22933,8279
" /> 
<polyline style="fill-rule:evenodd;"
points="23681,8279
23681,7964
23996,7964
23996,8279
23681,8279
" /> 
<polyline style="fill-rule:evenodd;"
points="23307,7492
23307,7177
23622,7177
23622,7492
23307,7492
" /> 
<polyline style="fill-rule:evenodd;"
points="22933,6704
22933,6389
23248,6389
23248,6704
22933,6704
" /> 
<polyline style="fill-rule:evenodd;"
points="23681,6704
23681,6389
23996,6389
23996,6704
23681,6704
" /> 
<polyline style="fill-rule:evenodd;"
points="23307,5917
23307,5602
23622,5602
23622,5917
23307,5917
" /> 
<polyline style="fill-rule:evenodd;"
points="24921,8121
24566,8121
24566,7924
24921,7924
24921,8121
" /> 
<polyline style="fill-rule:evenodd;"
points="24921,7530
24566,7530
24566,7333
24921,7333
24921,7530
" /> 
<polyline style="fill-rule:evenodd;"
points="24921,6546
24566,6546
24566,6349
24921,6349
24921,6546
" /> 
<polyline style="fill-rule:evenodd;"
points="24921,5955
24566,5955
24566,5759
24921,5759
24921,5955
" /> 
<polyline style="fill-rule:evenodd;"
points="12244,4007
12244,4361
12047,4361
12047,4007
12244,4007
" /> 
<polyline style="fill-rule:evenodd;"
points="11653,4007
11653,4361
11456,4361
11456,4007
11653,4007
" /> 
<polyline style="fill-rule:evenodd;"
points="12244,9026
12244,9381
12047,9381
12047,9026
12244,9026
" /> 
<polyline style="fill-rule:evenodd;"
points="11653,9026
11653,9381
11456,9381
11456,9026
11653,9026
" /> 
<polyline style="fill-rule:evenodd;"
points="11456,10365
11456,10011
11653,10011
11653,10365
11456,10365
" /> 
<polyline style="fill-rule:evenodd;"
points="12047,10365
12047,10011
12244,10011
12244,10365
12047,10365
" /> 
<polyline style="fill-rule:evenodd;"
points="15688,3711
15688,4066
15492,4066
15492,3711
15688,3711
" /> 
<polyline style="fill-rule:evenodd;"
points="15098,3711
15098,4066
14901,4066
14901,3711
15098,3711
" /> 
<polyline style="fill-rule:evenodd;"
points="15688,1743
15688,2097
15492,2097
15492,1743
15688,1743
" /> 
<polyline style="fill-rule:evenodd;"
points="15098,1743
15098,2097
14901,2097
14901,1743
15098,1743
" /> 
<polyline style="fill-rule:evenodd;"
points="18051,4066
18051,3711
18248,3711
18248,4066
18051,4066
" /> 
<polyline style="fill-rule:evenodd;"
points="18641,4066
18641,3711
18838,3711
18838,4066
18641,4066
" /> 
<polyline style="fill-rule:evenodd;"
points="16003,5168
16358,5168
16358,5365
16003,5365
16003,5168
" /> 
<polyline style="fill-rule:evenodd;"
points="16003,5759
16358,5759
16358,5955
16003,5955
16003,5759
" /> 
<polyline style="fill-rule:evenodd;"
points="15688,2727
15688,3081
15492,3081
15492,2727
15688,2727
" /> 
<polyline style="fill-rule:evenodd;"
points="15098,2727
15098,3081
14901,3081
14901,2727
15098,2727
" /> 
<polyline style="fill-rule:evenodd;"
points="18051,9381
18051,9026
18248,9026
18248,9381
18051,9381
" /> 
<polyline style="fill-rule:evenodd;"
points="18641,9381
18641,9026
18838,9026
18838,9381
18641,9381
" /> 
<polyline style="fill-rule:evenodd;"
points="18838,8042
18838,8396
18641,8396
18641,8042
18838,8042
" /> 
<polyline style="fill-rule:evenodd;"
points="18248,8042
18248,8396
18051,8396
18051,8042
18248,8042
" /> 
<polyline style="fill-rule:evenodd;"
points="15688,7058
15688,7412
15492,7412
15492,7058
15688,7058
" /> 
<polyline style="fill-rule:evenodd;"
points="15098,7058
15098,7412
14901,7412
14901,7058
15098,7058
" /> 
<polyline style="fill-rule:evenodd;"
points="14901,8396
14901,8042
15098,8042
15098,8396
14901,8396
" /> 
<polyline style="fill-rule:evenodd;"
points="15492,8396
15492,8042
15688,8042
15688,8396
15492,8396
" /> 
<polyline style="fill-rule:evenodd;"
points="11554,5011
11554,5404
11378,5404
11378,5011
11554,5011
" /> 
<polyline style="fill-rule:evenodd;"
points="11810,5011
11810,5404
11634,5404
11634,5011
11810,5011
" /> 
<polyline style="fill-rule:evenodd;"
points="12065,5011
12065,5404
11890,5404
11890,5011
12065,5011
" /> 
<polyline style="fill-rule:evenodd;"
points="12321,5011
12321,5404
12146,5404
12146,5011
12321,5011
" /> 
<polyline style="fill-rule:evenodd;"
points="11554,5719
11554,6113
11378,6113
11378,5719
11554,5719
" /> 
<polyline style="fill-rule:evenodd;"
points="11810,5719
11810,6113
11634,6113
11634,5719
11810,5719
" /> 
<polyline style="fill-rule:evenodd;"
points="12065,5719
12065,6113
11890,6113
11890,5719
12065,5719
" /> 
<polyline style="fill-rule:evenodd;"
points="12321,5719
12321,6113
12146,6113
12146,5719
12321,5719
" /> 
<polyline style="fill-rule:evenodd;"
points="16476,4135
16476,3642
16870,3642
16870,4135
16476,4135
" /> 
<polyline style="fill-rule:evenodd;"
points="17263,4135
17263,3642
17657,3642
17657,4135
17263,4135
" /> 
<polyline style="fill-rule:evenodd;"
points="17420,5207
17304,5207
17304,4814
17420,4814
17420,5207
" /> 
<polyline style="fill-rule:evenodd;"
points="17617,5207
17500,5207
17500,4814
17617,4814
17617,5207
" /> 
<polyline style="fill-rule:evenodd;"
points="17813,5207
17697,5207
17697,4814
17813,4814
17813,5207
" /> 
<polyline style="fill-rule:evenodd;"
points="18010,5207
17894,5207
17894,4814
18010,4814
18010,5207
" /> 
<polyline style="fill-rule:evenodd;"
points="18207,6310
18091,6310
18091,5916
18207,5916
18207,6310
" /> 
<polyline style="fill-rule:evenodd;"
points="18503,5307
18503,5423
18110,5423
18110,5307
18503,5307
" /> 
<polyline style="fill-rule:evenodd;"
points="18503,5504
18503,5620
18110,5620
18110,5504
18503,5504
" /> 
<polyline style="fill-rule:evenodd;"
points="17007,5817
17007,5701
17401,5701
17401,5817
17007,5817
" /> 
<polyline style="fill-rule:evenodd;"
points="18207,5207
18091,5207
18091,4814
18207,4814
18207,5207
" /> 
<polyline style="fill-rule:evenodd;"
points="18503,5701
18503,5817
18110,5817
18110,5701
18503,5701
" /> 
<polyline style="fill-rule:evenodd;"
points="18010,6310
17894,6310
17894,5916
18010,5916
18010,6310
" /> 
<polyline style="fill-rule:evenodd;"
points="17813,6310
17697,6310
17697,5916
17813,5916
17813,6310
" /> 
<polyline style="fill-rule:evenodd;"
points="17617,6310
17500,6310
17500,5916
17617,5916
17617,6310
" /> 
<polyline style="fill-rule:evenodd;"
points="17420,6310
17304,6310
17304,5916
17420,5916
17420,6310
" /> 
<polyline style="fill-rule:evenodd;"
points="17007,5620
17007,5504
17401,5504
17401,5620
17007,5620
" /> 
<polyline style="fill-rule:evenodd;"
points="17007,5423
17007,5307
17401,5307
17401,5423
17007,5423
" /> 
</g> 
</svg>
