<?xml version="1.0" standalone="no"?>
 <!DOCTYPE svg PUBLIC "-//W3C//DTD SVG 1.1//EN" 
 "http://www.w3.org/Graphics/SVG/1.1/DTD/svg11.dtd"> 
<svg xmlns="http://www.w3.org/2000/svg" version="1.1" 
    width="17.9451cm" height="9.03478cm" viewBox="0 0 70650 35570 ">
<title>SVG Picture created as labio-B.SilkS.svg date 2016/07/24 20:11:59 </title>
  <desc>Picture generated by PCBNEW </desc>
<g style="fill:#000000; fill-opacity:1;stroke:#000000; stroke-opacity:1;
stroke-linecap:round; stroke-linejoin:round; "
 transform="translate(0 0) scale(1 1)">
</g>
<g style="fill:#C2C200; fill-opacity:0.0; 
stroke:#C2C200; stroke-width:-0.000393701; stroke-opacity:1; 
stroke-linecap:round; stroke-linejoin:round;">
</g>
<g style="fill:#C2C200; fill-opacity:0.0; 
stroke:#C2C200; stroke-width:59.0551; stroke-opacity:1; 
stroke-linecap:round; stroke-linejoin:round;">
<path d="M68937 34597.7 A1181.1 1181.1 0.0 0 0 70118.1 33416.6 " />
<path d="M10275.6 25542.6 A1181.1 1181.1 0.0 0 0 11456.7 26723.7 " />
<path d="M70118.1 2314.25 A1181.1 1181.1 0.0 0 0 68937 1133.15 " />
<path d="M11456.7 1133.15 A1181.1 1181.1 0.0 0 0 10275.6 2314.25 " />
<path d="M22086 34597
L68937 34597
" />
<path d="M22086 26723
L22086 34597
" />
<path d="M11456 26723
L22086 26723
" />
<path d="M68937 1133
L11456 1133
" />
<path d="M70118 33416
L70118 2314
" />
<path d="M10275 2314
L10275 25542
" />
</g>
<g style="fill:#840000; fill-opacity:0.0; 
stroke:#840000; stroke-width:59.0551; stroke-opacity:1; 
stroke-linecap:round; stroke-linejoin:round;">
<path d="M22506 13101
L22230 13101
" />
<path d="M22480 13390
L22493 13377
L22506 13337
L22506 13311
L22493 13272
L22467 13246
L22440 13232
L22388 13219
L22349 13219
L22296 13232
L22270 13246
L22244 13272
L22230 13311
L22230 13337
L22244 13377
L22257 13390
" />
<path d="M22257 13495
L22244 13508
L22230 13534
L22230 13600
L22244 13626
L22257 13639
L22283 13652
L22309 13652
L22349 13639
L22506 13482
L22506 13652
" />
<path d="M22230 13823
L22230 13849
L22244 13875
L22257 13889
L22283 13902
L22335 13915
L22401 13915
L22454 13902
L22480 13889
L22493 13875
L22506 13849
L22506 13823
L22493 13797
L22480 13784
L22454 13770
L22401 13757
L22335 13757
L22283 13770
L22257 13784
L22244 13797
L22230 13823
" />
<path d="M22506 14177
L22506 14020
" />
<path d="M22506 14099
L22230 14099
L22270 14072
L22296 14046
L22309 14020
" />
<path d="M23576 15529
L23667 15398
" />
<path d="M23733 15529
L23733 15253
L23628 15253
L23602 15267
L23589 15280
L23576 15306
L23576 15345
L23589 15371
L23602 15385
L23628 15398
L23733 15398
" />
<path d="M23471 15280
L23458 15267
L23431 15253
L23366 15253
L23339 15267
L23326 15280
L23313 15306
L23313 15332
L23326 15371
L23484 15529
L23313 15529
" />
<path d="M23143 15253
L23116 15253
L23090 15267
L23077 15280
L23064 15306
L23051 15358
L23051 15424
L23064 15476
L23077 15503
L23090 15516
L23116 15529
L23143 15529
L23169 15516
L23182 15503
L23195 15476
L23208 15424
L23208 15358
L23195 15306
L23182 15280
L23169 15267
L23143 15253
" />
<path d="M22959 15253
L22788 15253
L22880 15358
L22841 15358
L22814 15371
L22801 15385
L22788 15411
L22788 15476
L22801 15503
L22814 15516
L22841 15529
L22919 15529
L22946 15516
L22959 15503
" />
<path d="M23576 17497
L23667 17366
" />
<path d="M23733 17497
L23733 17222
L23628 17222
L23602 17235
L23589 17248
L23576 17274
L23576 17314
L23589 17340
L23602 17353
L23628 17366
L23733 17366
" />
<path d="M23471 17248
L23458 17235
L23431 17222
L23366 17222
L23339 17235
L23326 17248
L23313 17274
L23313 17301
L23326 17340
L23484 17497
L23313 17497
" />
<path d="M23143 17222
L23116 17222
L23090 17235
L23077 17248
L23064 17274
L23051 17327
L23051 17392
L23064 17445
L23077 17471
L23090 17484
L23116 17497
L23143 17497
L23169 17484
L23182 17471
L23195 17445
L23208 17392
L23208 17327
L23195 17274
L23182 17248
L23169 17235
L23143 17222
" />
<path d="M22814 17314
L22814 17497
" />
<path d="M22880 17209
L22946 17406
L22775 17406
" />
<path d="M23576 16513
L23667 16382
" />
<path d="M23733 16513
L23733 16238
L23628 16238
L23602 16251
L23589 16264
L23576 16290
L23576 16330
L23589 16356
L23602 16369
L23628 16382
L23733 16382
" />
<path d="M23471 16264
L23458 16251
L23431 16238
L23366 16238
L23339 16251
L23326 16264
L23313 16290
L23313 16316
L23326 16356
L23484 16513
L23313 16513
" />
<path d="M23143 16238
L23116 16238
L23090 16251
L23077 16264
L23064 16290
L23051 16343
L23051 16408
L23064 16461
L23077 16487
L23090 16500
L23116 16513
L23143 16513
L23169 16500
L23182 16487
L23195 16461
L23208 16408
L23208 16343
L23195 16290
L23182 16264
L23169 16251
L23143 16238
" />
<path d="M22801 16238
L22933 16238
L22946 16369
L22933 16356
L22906 16343
L22841 16343
L22814 16356
L22801 16369
L22788 16395
L22788 16461
L22801 16487
L22814 16500
L22841 16513
L22906 16513
L22933 16500
L22946 16487
" />
<path d="M24888 12432
L25164 12497
L24967 12550
L25164 12602
L24888 12668
" />
<path d="M24914 12760
L24901 12773
L24888 12799
L24888 12865
L24901 12891
L24914 12904
L24940 12917
L24967 12917
L25006 12904
L25164 12747
L25164 12917
" />
<path d="M24888 13088
L24888 13114
L24901 13141
L24914 13154
L24940 13167
L24993 13180
L25059 13180
L25111 13167
L25137 13154
L25150 13141
L25164 13114
L25164 13088
L25150 13062
L25137 13049
L25111 13036
L25059 13022
L24993 13022
L24940 13036
L24914 13049
L24901 13062
L24888 13088
" />
<path d="M25164 13442
L25164 13285
" />
<path d="M25164 13364
L24888 13364
L24927 13337
L24954 13311
L24967 13285
" />
<path d="M24888 13810
L25164 13875
L24967 13928
L25164 13980
L24888 14046
" />
<path d="M24914 14138
L24901 14151
L24888 14177
L24888 14243
L24901 14269
L24914 14282
L24940 14295
L24967 14295
L25006 14282
L25164 14125
L25164 14295
" />
<path d="M24888 14466
L24888 14492
L24901 14518
L24914 14532
L24940 14545
L24993 14558
L25059 14558
L25111 14545
L25137 14532
L25150 14518
L25164 14492
L25164 14466
L25150 14440
L25137 14427
L25111 14413
L25059 14400
L24993 14400
L24940 14413
L24914 14427
L24901 14440
L24888 14466
" />
<path d="M24914 14663
L24901 14676
L24888 14702
L24888 14768
L24901 14794
L24914 14807
L24940 14820
L24967 14820
L25006 14807
L25164 14650
L25164 14820
" />
</g>
<g style="fill:#840084; fill-opacity:0.0; 
stroke:#840084; stroke-width:59.0551; stroke-opacity:1; 
stroke-linecap:round; stroke-linejoin:round;">
<path d="M22627 12717
L22706 12717
" />
<path d="M22627 14548
L22706 14548
" />
<path d="M23907 14548
L23828 14548
" />
<path d="M23907 12717
L23828 12717
" />
<path d="M22627 12717
L22627 14548
" />
<path d="M23907 12717
L23907 14548
" />
<path d="M22706 12717
L22706 12186
" />
<path d="M23464 15631
L23070 15631
" />
<path d="M23070 16162
L23464 16162
" />
<path d="M23070 18131
L23464 18131
" />
<path d="M23464 17599
L23070 17599
" />
<path d="M23070 17146
L23464 17146
" />
<path d="M23464 16615
L23070 16615
" />
</g> 
</svg>
