<?xml version="1.0" standalone="no"?>
 <!DOCTYPE svg PUBLIC "-//W3C//DTD SVG 1.1//EN" 
 "http://www.w3.org/Graphics/SVG/1.1/DTD/svg11.dtd"> 
<svg xmlns="http://www.w3.org/2000/svg" version="1.1" 
    width="17.9451cm" height="9.03478cm" viewBox="0 0 70650 35570 ">
<title>SVG Picture created as labio-Edge.Cuts.svg date 2016/07/24 20:11:59 </title>
  <desc>Picture generated by PCBNEW </desc>
<g style="fill:#000000; fill-opacity:1;stroke:#000000; stroke-opacity:1;
stroke-linecap:round; stroke-linejoin:round; "
 transform="translate(0 0) scale(1 1)">
</g>
<g style="fill:#C2C200; fill-opacity:0.0; 
stroke:#C2C200; stroke-width:-0.000393701; stroke-opacity:1; 
stroke-linecap:round; stroke-linejoin:round;">
</g>
<g style="fill:#C2C200; fill-opacity:0.0; 
stroke:#C2C200; stroke-width:59.0551; stroke-opacity:1; 
stroke-linecap:round; stroke-linejoin:round;">
<path d="M68937 34597.7 A1181.1 1181.1 0.0 0 0 70118.1 33416.6 " />
<path d="M10275.6 25542.6 A1181.1 1181.1 0.0 0 0 11456.7 26723.7 " />
<path d="M70118.1 2314.25 A1181.1 1181.1 0.0 0 0 68937 1133.15 " />
<path d="M11456.7 1133.15 A1181.1 1181.1 0.0 0 0 10275.6 2314.25 " />
<path d="M22086 34597
L68937 34597
" />
<path d="M22086 26723
L22086 34597
" />
<path d="M11456 26723
L22086 26723
" />
<path d="M68937 1133
L11456 1133
" />
<path d="M70118 33416
L70118 2314
" />
<path d="M10275 2314
L10275 25542
" />
</g> 
</svg>
